<?xml version="1.0" encoding="utf-8"?>
<!-- Generator: Adobe Illustrator 24.0.1, SVG Export Plug-In . SVG Version: 6.00 Build 0)  -->
<svg version="1.1" id="Layer_1" xmlns="http://www.w3.org/2000/svg" xmlns:xlink="http://www.w3.org/1999/xlink" x="0px" y="0px"
	 viewBox="0 0 64 64" style="enable-background:new 0 0 64 64;" xml:space="preserve">
<style type="text/css">
	.st0{fill:#BFDCE0;}
	.st1{fill:#4D4D4D;}
</style>
<g>
	<path class="st0" d="M50.28,29.24H13.72C6.14,29.24,0,35.38,0,42.96v9.83C0,58.98,5.02,64,11.22,64c6.2,0,11.22-5.02,11.22-11.22
		h19.12c0,6.2,5.02,11.22,11.22,11.22C58.98,64,64,58.98,64,52.78v-9.83C64,35.38,57.86,29.24,50.28,29.24z"/>
	<path class="st1" d="M52.78,46.65c-0.5,0-1-0.1-1.47-0.29c-0.98-0.39-1.75-1.15-2.16-2.12l0,0c-0.41-0.97-0.43-2.05-0.03-3.03
		c0.39-0.98,1.14-1.75,2.12-2.16c2.01-0.85,4.33,0.08,5.19,2.08c0.85,2-0.08,4.33-2.08,5.19C53.83,46.54,53.31,46.65,52.78,46.65z
		 M52.78,40.74c-0.26,0-0.52,0.05-0.76,0.16c-0.99,0.42-1.45,1.57-1.03,2.56c0,0,0,0,0,0c0.21,0.48,0.58,0.85,1.07,1.05
		c0.48,0.19,1.01,0.19,1.5-0.02c0.99-0.42,1.45-1.57,1.03-2.56C54.26,41.18,53.54,40.74,52.78,40.74z"/>
	<path class="st1" d="M15.22,41.69h-3v-3c0-0.55-0.45-1-1-1s-1,0.45-1,1v3h-3c-0.55,0-1,0.45-1,1s0.45,1,1,1h3v3c0,0.55,0.45,1,1,1
		s1-0.45,1-1v-3h3c0.55,0,1-0.45,1-1S15.77,41.69,15.22,41.69z"/>
	<path class="st1" d="M31.1,26.43c-0.55,0-1-0.45-1-1v-7.18c0-2.99,2.43-5.43,5.43-5.43h12.26c1.97,0,3.57-1.6,3.57-3.57V1.79
		c0-0.55,0.45-1,1-1s1,0.45,1,1v7.46c0,3.07-2.5,5.57-5.57,5.57H35.53c-1.89,0-3.43,1.54-3.43,3.43v7.18
		C32.1,25.98,31.66,26.43,31.1,26.43z"/>
</g>
</svg>
