<?xml version="1.0" encoding="utf-8"?>
<!-- Generator: Adobe Illustrator 24.0.1, SVG Export Plug-In . SVG Version: 6.00 Build 0)  -->
<svg version="1.1" id="Layer_1" xmlns="http://www.w3.org/2000/svg" xmlns:xlink="http://www.w3.org/1999/xlink" x="0px" y="0px"
	 viewBox="0 0 64 64" style="enable-background:new 0 0 64 64;" xml:space="preserve">
<style type="text/css">
	.st0{fill:#BFDCE0;}
	.st1{fill:#4D4D4D;}
</style>
<g>
	<g>
		<path class="st0" d="M60.09,27.59H24.76c-1.81-4.86-6.48-8.32-11.97-8.32C5.73,19.27,0,24.99,0,32.06v0
			c0,7.06,5.73,12.79,12.79,12.79c5.49,0,10.15-3.46,11.97-8.32h24.67h4.21h6.45L64,32.06L60.09,27.59z"/>
		<path class="st1" d="M7.84,36.01c-2.18,0-3.95-1.77-3.95-3.95c0-2.18,1.77-3.95,3.95-3.95c2.18,0,3.95,1.77,3.95,3.95
			C11.79,34.24,10.02,36.01,7.84,36.01z M7.84,30.1c-1.08,0-1.95,0.88-1.95,1.95s0.88,1.95,1.95,1.95s1.95-0.88,1.95-1.95
			S8.92,30.1,7.84,30.1z"/>
	</g>
	<g>
		<path class="st1" d="M27.63,8.9c0.45-0.64,0.72-1.42,0.72-2.27c0-2.18-1.77-3.95-3.95-3.95s-3.95,1.77-3.95,3.95
			s1.77,3.95,3.95,3.95c0.61,0,1.18-0.15,1.7-0.4l4.71,6.42v8.09c0,0.55,0.45,1,1,1s1-0.45,1-1v-8.42c0-0.21-0.07-0.42-0.19-0.59
			L27.63,8.9z M22.45,6.63c0-1.08,0.88-1.95,1.95-1.95s1.95,0.88,1.95,1.95c0,1.08-0.88,1.95-1.95,1.95S22.45,7.71,22.45,6.63z"/>
		<path class="st1" d="M55.61,2.68c-2.18,0-3.95,1.77-3.95,3.95c0,0.84,0.27,1.62,0.72,2.27l-4.99,6.79
			c-0.13,0.17-0.19,0.38-0.19,0.59v8.42c0,0.55,0.45,1,1,1s1-0.45,1-1v-8.09l4.71-6.42c0.52,0.25,1.09,0.4,1.7,0.4
			c2.18,0,3.95-1.77,3.95-3.95S57.79,2.68,55.61,2.68z M55.61,8.58c-1.08,0-1.95-0.88-1.95-1.95c0-1.08,0.88-1.95,1.95-1.95
			s1.95,0.88,1.95,1.95C57.56,7.71,56.68,8.58,55.61,8.58z"/>
		<path class="st1" d="M39.88,0c-2.18,0-3.95,1.77-3.95,3.95c0,1.83,1.26,3.36,2.95,3.81V24.7c0,0.55,0.45,1,1,1s1-0.45,1-1V7.76
			c1.69-0.45,2.95-1.98,2.95-3.81C43.83,1.77,42.06,0,39.88,0z M39.88,5.91c-1.08,0-1.95-0.88-1.95-1.95C37.92,2.88,38.8,2,39.88,2
			s1.95,0.88,1.95,1.95C41.83,5.03,40.95,5.91,39.88,5.91z"/>
	</g>
	<g>
		<path class="st1" d="M55.61,53.42c-0.61,0-1.18,0.15-1.7,0.4l-4.71-6.42V39.3c0-0.55-0.45-1-1-1s-1,0.45-1,1v8.42
			c0,0.21,0.07,0.42,0.19,0.59l4.99,6.79c-0.45,0.64-0.72,1.42-0.72,2.27c0,2.18,1.77,3.95,3.95,3.95c2.18,0,3.95-1.77,3.95-3.95
			C59.56,55.19,57.79,53.42,55.61,53.42z M55.61,59.32c-1.08,0-1.95-0.88-1.95-1.95s0.88-1.95,1.95-1.95s1.95,0.88,1.95,1.95
			S56.68,59.32,55.61,59.32z"/>
		<path class="st1" d="M31.81,38.3c-0.55,0-1,0.45-1,1v8.09l-4.71,6.42c-0.52-0.25-1.09-0.4-1.7-0.4c-2.18,0-3.95,1.77-3.95,3.95
			c0,2.18,1.77,3.95,3.95,3.95s3.95-1.77,3.95-3.95c0-0.85-0.27-1.63-0.73-2.27l4.98-6.79c0.13-0.17,0.19-0.38,0.19-0.59V39.3
			C32.81,38.75,32.36,38.3,31.81,38.3z M24.4,59.32c-1.08,0-1.95-0.88-1.95-1.95s0.88-1.95,1.95-1.95s1.95,0.88,1.95,1.95
			S25.48,59.32,24.4,59.32z"/>
		<path class="st1" d="M41.13,56.24V39.3c0-0.55-0.45-1-1-1s-1,0.45-1,1v16.93c-1.69,0.45-2.95,1.98-2.95,3.81
			c0,2.18,1.77,3.95,3.95,3.95c2.18,0,3.95-1.77,3.95-3.95C44.08,58.21,42.82,56.68,41.13,56.24z M40.13,62
			c-1.08,0-1.95-0.88-1.95-1.95s0.88-1.95,1.95-1.95s1.95,0.88,1.95,1.95S41.21,62,40.13,62z"/>
	</g>
</g>
</svg>
