<svg id="Layer_1" data-name="Layer 1" xmlns="http://www.w3.org/2000/svg" viewBox="0 0 2244.43 1314.69"><defs><style>.cls-1{fill:#111820;}</style></defs><circle class="cls-1" cx="657.34" cy="657.34" r="219.11"/><path class="cls-1" d="M923,451.35h116.92v49.71q11.52-18.69,31.22-33A151.14,151.14,0,0,1,1116,446a179.8,179.8,0,0,1,53.09-7.75q55.28,0,92.06,24.26t54.68,69.79q17.89,45.54,17.89,110V863.34H1211.26V645q0-49.31-20.28-72t-56.47-22.67a84.52,84.52,0,0,0-44.14,12.13q-20.28,12.13-32.61,36.59t-12.32,59.84V863.34H923Z"/><path class="cls-1" d="M1680.94,605.25a67.36,67.36,0,0,0-13.72-33.8,79.2,79.2,0,0,0-30.82-24.26,97.18,97.18,0,0,0-41-8.75,98.76,98.76,0,0,0-48.32,12.13q-22.06,12.13-35.59,38.57T1498,656.55q0,36.59,11.73,62.43T1543,758q21.46,13.13,49.71,13.13,20.28,0,35.39-5.37T1652.31,751a61.9,61.9,0,0,0,13.91-22.46h131.23q-9.15,38.18-36.78,72t-70.39,54.88q-42.75,21.07-95.64,21.08-62.43,0-112.14-29.43a206.75,206.75,0,0,1-77.34-79.73q-27.65-50.31-27.64-110t27.64-109.75a209.11,209.11,0,0,1,77.14-79.73q49.52-29.62,112.34-29.63t110.95,29.23A200.74,200.74,0,0,1,1780,546q26.24,49.31,26.24,108.16,0,8.76-.59,16.9t-1.39,17.3H1477.73l6.36-83.11Z"/></svg>