<?xml version="1.0" encoding="utf-8"?>
<!-- Generator: Adobe Illustrator 24.0.1, SVG Export Plug-In . SVG Version: 6.00 Build 0)  -->
<svg version="1.1" id="Layer_1" xmlns="http://www.w3.org/2000/svg" xmlns:xlink="http://www.w3.org/1999/xlink" x="0px" y="0px"
	 viewBox="0 0 64 67.23" style="enable-background:new 0 0 64 67.23;" xml:space="preserve">
<style type="text/css">
	.st0{fill:#BFDCE0;}
	.st1{fill:#808080;}
</style>
<g>
	<path class="st0" d="M56.56,22.55c-0.16-0.97-0.38-1.93-0.64-2.87l-0.1-0.45l-0.02,0.03C52.49,8.13,42.18,0,29.96,0
		C15.07,0,3,12.07,3,26.97c0,6.84,2.55,13.09,6.75,17.84V64h30.21v-6.24h8.3c3.64,0,6.59-2.95,6.6-6.59l0.01-8.66H61L56.56,22.55z"
		/>
	<g>
		<path class="st1" d="M31.3,12.05h-8.62c-0.45-1.72-2-3-3.86-3c-2.21,0-4,1.79-4,4s1.79,4,4,4c1.86,0,3.41-1.28,3.86-3h7.62V20
			c0,0.55,0.45,1,1,1s1-0.45,1-1v-6.95C32.3,12.5,31.85,12.05,31.3,12.05z M18.82,15.05c-1.1,0-2-0.9-2-2s0.9-2,2-2s2,0.9,2,2
			S19.92,15.05,18.82,15.05z"/>
		<path class="st1" d="M31.82,35.41v-5.69c0-0.55-0.45-1-1-1s-1,0.45-1,1v5.69c-1.72,0.45-3,2-3,3.86c0,2.21,1.79,4,4,4s4-1.79,4-4
			C34.82,37.41,33.54,35.86,31.82,35.41z M30.82,41.27c-1.1,0-2-0.9-2-2s0.9-2,2-2s2,0.9,2,2S31.92,41.27,30.82,41.27z"/>
		<path class="st1" d="M44.78,21.33c-1.86,0-3.41,1.28-3.86,3h-22.1c-0.55,0-1,0.45-1,1V66.1c0,0.55,0.45,1,1,1s1-0.45,1-1V26.33
			h21.1c0.45,1.72,2,3,3.86,3c2.21,0,4-1.79,4-4S46.98,21.33,44.78,21.33z M44.78,27.33c-1.1,0-2-0.9-2-2s0.9-2,2-2s2,0.9,2,2
			S45.88,27.33,44.78,27.33z"/>
	</g>
</g>
</svg>
