<?xml version="1.0" encoding="utf-8"?>
<!-- Generator: Adobe Illustrator 24.0.1, SVG Export Plug-In . SVG Version: 6.00 Build 0)  -->
<svg version="1.1" id="Layer_1" xmlns="http://www.w3.org/2000/svg" xmlns:xlink="http://www.w3.org/1999/xlink" x="0px" y="0px"
	 viewBox="0 0 64 64" style="enable-background:new 0 0 64 64;" xml:space="preserve">
<style type="text/css">
	.st0{fill:#BFDCE0;}
	.st1{fill:#808080;}
</style>
<g>
	<g>
		<path class="st0" d="M29.1,0H7.17C3.21,0,0,3.21,0,7.17v49.66C0,60.79,3.21,64,7.17,64H29.1c3.96,0,7.17-3.21,7.17-7.17V9.24V7.17
			C36.27,3.21,33.06,0,29.1,0z"/>
		<path class="st1" d="M25.55,60.12H10.72c-0.55,0-1-0.45-1-1s0.45-1,1-1h14.83c0.55,0,1,0.45,1,1S26.1,60.12,25.55,60.12z"/>
		<path class="st1" d="M24.6,8.67H12.41c-1.73,0-3.28-0.96-4.05-2.52L7.84,5.11C7.6,4.61,7.8,4.01,8.3,3.77
			c0.5-0.25,1.09-0.04,1.34,0.45l0.52,1.05c0.43,0.87,1.29,1.4,2.26,1.4H24.6c0.96,0,1.83-0.54,2.26-1.4l0.52-1.05
			c0.24-0.49,0.84-0.7,1.34-0.45c0.5,0.24,0.7,0.84,0.45,1.34l-0.52,1.05C27.88,7.7,26.33,8.67,24.6,8.67z"/>
	</g>
	<g>
		<g>
			<path class="st1" d="M44.14,27.52c-0.5,0-0.99-0.1-1.46-0.29c-0.97-0.39-1.74-1.14-2.15-2.1c-0.85-1.99,0.08-4.3,2.07-5.15
				c1.99-0.85,4.3,0.08,5.15,2.07c0.41,0.96,0.42,2.03,0.03,3.01s-1.14,1.74-2.1,2.15C45.19,27.41,44.66,27.52,44.14,27.52z
				 M44.14,21.66c-0.25,0-0.51,0.05-0.75,0.15c-0.47,0.2-0.84,0.58-1.03,1.05c-0.19,0.48-0.19,1,0.02,1.47l0,0
				c0.2,0.47,0.58,0.84,1.05,1.03c0.48,0.19,1,0.19,1.47-0.02c0.47-0.2,0.84-0.58,1.03-1.05c0.19-0.48,0.19-1-0.02-1.48
				C45.6,22.1,44.89,21.66,44.14,21.66z"/>
			<path class="st1" d="M23.83,40.41c-0.5,0-0.99-0.1-1.46-0.29c-0.97-0.39-1.74-1.14-2.15-2.1c-0.41-0.96-0.42-2.03-0.03-3
				c0.39-0.97,1.14-1.74,2.1-2.15c1.99-0.85,4.3,0.08,5.15,2.07c0.41,0.96,0.42,2.03,0.03,3.01s-1.14,1.74-2.1,2.15
				C24.88,40.3,24.35,40.41,23.83,40.41z M23.83,34.55c-0.25,0-0.51,0.05-0.75,0.15c-0.47,0.2-0.84,0.58-1.03,1.05
				c-0.19,0.48-0.19,1,0.02,1.47c0,0,0,0,0,0c0.2,0.47,0.58,0.84,1.05,1.03s1,0.19,1.48-0.02c0.47-0.2,0.84-0.58,1.03-1.05
				c0.19-0.48,0.19-1-0.02-1.48C25.29,34.99,24.58,34.55,23.83,34.55z"/>
			<path class="st1" d="M44.24,36.79c-1.48,0-2.77-0.9-3.28-2.29c-0.15-0.4-0.45-0.71-0.85-0.87c-0.4-0.16-0.83-0.14-1.22,0.04
				c-1.35,0.66-2.91,0.41-3.98-0.64c-1.07-1.05-1.36-2.61-0.73-3.97c0.18-0.39,0.19-0.82,0.02-1.22c-0.17-0.4-0.49-0.69-0.89-0.83
				c-1.42-0.49-2.35-1.77-2.36-3.27c-0.02-1.5,0.88-2.8,2.29-3.32c0.4-0.15,0.71-0.45,0.87-0.85c0.16-0.4,0.14-0.83-0.04-1.22
				c-0.66-1.35-0.41-2.91,0.64-3.98c1.05-1.07,2.61-1.36,3.97-0.73c0.39,0.18,0.82,0.19,1.22,0.02c0.4-0.17,0.69-0.49,0.83-0.89
				c0.49-1.42,1.77-2.35,3.27-2.36c1.53,0.01,2.81,0.88,3.32,2.29c0.15,0.4,0.45,0.71,0.85,0.87c0.4,0.16,0.83,0.15,1.22-0.04
				c1.35-0.66,2.91-0.41,3.98,0.64c1.07,1.05,1.36,2.61,0.73,3.97c-0.18,0.39-0.19,0.82-0.02,1.22c0.17,0.4,0.49,0.69,0.89,0.83
				c1.42,0.49,2.35,1.77,2.36,3.27c0.02,1.5-0.88,2.8-2.29,3.32c-0.4,0.15-0.71,0.45-0.87,0.85c-0.16,0.4-0.14,0.83,0.04,1.22
				c0.66,1.35,0.41,2.91-0.64,3.98c-1.05,1.07-2.61,1.36-3.97,0.73c-0.39-0.18-0.82-0.19-1.22-0.02c-0.4,0.17-0.69,0.49-0.83,0.89
				l0,0c-0.49,1.42-1.77,2.35-3.27,2.36C44.27,36.79,44.26,36.79,44.24,36.79z M39.55,31.51c0.44,0,0.89,0.08,1.3,0.25
				c0.92,0.37,1.64,1.11,1.98,2.04c0.27,0.73,0.87,0.96,1.42,0.98c0.51-0.01,1.15-0.27,1.4-1.01c0.32-0.93,1.03-1.69,1.94-2.08
				c0.91-0.39,1.94-0.37,2.84,0.04c0.71,0.33,1.34,0.05,1.7-0.31c0.36-0.37,0.62-1.01,0.28-1.71c-0.43-0.89-0.47-1.92-0.1-2.84
				c0.37-0.92,1.11-1.64,2.04-1.98c0.73-0.27,0.99-0.91,0.98-1.42s-0.27-1.15-1.01-1.4c-0.94-0.32-1.69-1.03-2.08-1.94
				c-0.39-0.91-0.37-1.95,0.04-2.84c0.33-0.71,0.05-1.34-0.31-1.7c-0.37-0.36-1.01-0.62-1.71-0.28c-0.89,0.43-1.92,0.47-2.84,0.1
				c-0.92-0.37-1.64-1.11-1.98-2.04c-0.27-0.73-0.91-1-1.42-0.98c-0.51,0.01-1.15,0.27-1.4,1.01c-0.32,0.93-1.03,1.69-1.94,2.08
				c-0.91,0.39-1.95,0.37-2.84-0.04c-0.71-0.33-1.34-0.05-1.7,0.31c-0.36,0.37-0.62,1.01-0.28,1.71c0.43,0.89,0.47,1.92,0.1,2.84
				c-0.37,0.92-1.11,1.64-2.04,1.98c-0.73,0.27-0.99,0.91-0.98,1.42c0.01,0.51,0.27,1.15,1.01,1.4c0.94,0.32,1.69,1.03,2.08,1.94
				c0.39,0.91,0.37,1.94-0.04,2.84c-0.33,0.71-0.05,1.34,0.31,1.7c0.37,0.36,1.01,0.62,1.71,0.28
				C38.5,31.63,39.02,31.51,39.55,31.51z M46.61,34.1L46.61,34.1L46.61,34.1z"/>
		</g>
	</g>
	<path class="st1" d="M25.83,46.91c-1.1,0-2.16-0.47-2.92-1.34c-0.54-0.63-1.42-0.82-2.18-0.5c-1.44,0.62-3.04,0.35-4.19-0.72
		c-1.15-1.06-1.55-2.64-1.04-4.13c0.27-0.78,0-1.64-0.66-2.14c-1.26-0.93-1.82-2.46-1.48-3.99c0.35-1.53,1.52-2.66,3.05-2.96
		c0.81-0.16,1.43-0.82,1.52-1.64c0.18-1.56,1.22-2.81,2.72-3.27c1.5-0.46,3.06-0.02,4.09,1.16c0.55,0.63,1.42,0.83,2.18,0.5
		c0,0,0,0,0,0c1.44-0.62,3.04-0.35,4.19,0.72c1.15,1.06,1.55,2.64,1.04,4.13c-0.27,0.78,0,1.64,0.66,2.14
		c1.26,0.93,1.82,2.46,1.48,3.99s-1.52,2.66-3.05,2.96c-0.81,0.16-1.43,0.82-1.52,1.64c-0.18,1.56-1.22,2.81-2.72,3.27
		C26.62,46.85,26.22,46.91,25.83,46.91z M21.49,42.91c1.1,0,2.17,0.47,2.93,1.34c0.51,0.58,1.25,0.79,1.99,0.57
		c0.74-0.23,1.23-0.82,1.32-1.59c0.2-1.69,1.45-3.05,3.13-3.38c0.76-0.15,1.31-0.69,1.49-1.44c0.17-0.75-0.1-1.48-0.72-1.94
		c-1.37-1.02-1.92-2.78-1.36-4.4c0.25-0.73,0.06-1.48-0.5-2.01c-0.57-0.52-1.33-0.65-2.04-0.35c-1.56,0.68-3.37,0.27-4.49-1.02
		c-0.51-0.58-1.25-0.8-1.99-0.57c-0.74,0.23-1.23,0.82-1.32,1.59c-0.2,1.69-1.45,3.05-3.12,3.38c-0.76,0.15-1.31,0.69-1.49,1.44
		c-0.17,0.75,0.1,1.48,0.72,1.94c1.37,1.02,1.92,2.78,1.36,4.4c-0.25,0.73-0.06,1.48,0.5,2.01c0.57,0.53,1.33,0.66,2.04,0.35
		C20.44,43.02,20.97,42.91,21.49,42.91z"/>
</g>
</svg>
