<?xml version="1.0" encoding="utf-8"?>
<!-- Generator: Adobe Illustrator 24.0.1, SVG Export Plug-In . SVG Version: 6.00 Build 0)  -->
<svg version="1.1" id="Layer_1" xmlns="http://www.w3.org/2000/svg" xmlns:xlink="http://www.w3.org/1999/xlink" x="0px" y="0px"
	 viewBox="0 0 64 64" style="enable-background:new 0 0 64 64;" xml:space="preserve">
<style type="text/css">
	.st0{fill:#BFDCE0;}
	.st1{fill:#808080;}
</style>
<g>
	<path class="st1" d="M63,8.6H50.96c-0.55,0-1,0.45-1,1s0.45,1,1,1H62v41.53H2V10.6h11.03c0.55,0,1-0.45,1-1s-0.45-1-1-1H1
		c-0.55,0-1,0.45-1,1v43.53c0,0.55,0.45,1,1,1h18.36v7.86h-5.49c-0.55,0-1,0.45-1,1s0.45,1,1,1h36.26c0.55,0,1-0.45,1-1s-0.45-1-1-1
		h-5.16v-7.86H63c0.55,0,1-0.45,1-1V9.6C64,9.05,63.55,8.6,63,8.6z M42.97,61.99H21.36v-7.86h21.61V61.99z"/>
	<g>
		<path class="st0" d="M48.01,7.34v12.98C48.01,36.47,32,40.96,32,40.96s-16.01-4.58-16.01-20.64V7.34L32,0L48.01,7.34z"/>
		<path class="st1" d="M30.97,27.57c-0.27,0-0.53-0.11-0.72-0.31l-6.85-7.15c-0.38-0.4-0.37-1.03,0.03-1.41
			c0.4-0.38,1.03-0.37,1.41,0.03l6.1,6.36l9.13-10.4c0.36-0.41,1-0.46,1.41-0.09c0.42,0.36,0.46,1,0.09,1.41l-9.85,11.22
			c-0.18,0.21-0.45,0.33-0.73,0.34C30.98,27.57,30.98,27.57,30.97,27.57z"/>
	</g>
</g>
</svg>
