<?xml version="1.0" encoding="utf-8"?>
<!-- Generator: Adobe Illustrator 24.0.1, SVG Export Plug-In . SVG Version: 6.00 Build 0)  -->
<svg version="1.1" id="Layer_1" xmlns="http://www.w3.org/2000/svg" xmlns:xlink="http://www.w3.org/1999/xlink" x="0px" y="0px"
	 viewBox="0 0 64 64" style="enable-background:new 0 0 64 64;" xml:space="preserve">
<style type="text/css">
	.st0{fill:#BFDCE0;}
	.st1{fill:#808080;}
</style>
<g>
	<circle class="st0" cx="32" cy="8.36" r="7.36"/>
	<circle class="st0" cx="55.41" cy="8.36" r="7.36"/>
	<circle class="st0" cx="8.59" cy="32" r="7.36"/>
	<circle class="st0" cx="8.59" cy="55.64" r="7.36"/>
	<circle class="st0" cx="32" cy="55.64" r="7.36"/>
	<path class="st1" d="M56.41,47.35v-7.05c4.14-0.5,7.36-4.02,7.36-8.29c0-4.61-3.75-8.36-8.36-8.36c-4.27,0-7.8,3.22-8.29,7.36
		h-6.83c-0.5-4.14-4.02-7.36-8.29-7.36c-2.17,0-4.14,0.84-5.62,2.19L15.55,12.96c0.88-1.32,1.39-2.9,1.39-4.6
		C16.94,3.75,13.19,0,8.59,0S0.23,3.75,0.23,8.36c0,4.61,3.75,8.36,8.36,8.36c2.18,0,4.16-0.85,5.65-2.22l10.82,12.86
		c-0.89,1.33-1.41,2.92-1.41,4.64c0,4.61,3.75,8.36,8.36,8.36c4.27,0,7.8-3.22,8.29-7.36h6.83c0.46,3.81,3.48,6.84,7.29,7.29v7.05
		c-4.14,0.5-7.36,4.02-7.36,8.29c0,4.61,3.75,8.36,8.36,8.36s8.36-3.75,8.36-8.36C63.77,51.37,60.55,47.84,56.41,47.35z M8.59,14.72
		c-3.51,0-6.36-2.85-6.36-6.36C2.23,4.85,5.08,2,8.59,2s6.36,2.85,6.36,6.36C14.94,11.87,12.09,14.72,8.59,14.72z M32,38.36
		c-3.51,0-6.36-2.85-6.36-6.36s2.85-6.36,6.36-6.36s6.36,2.85,6.36,6.36S35.51,38.36,32,38.36z M49.06,32
		c0-3.51,2.85-6.36,6.36-6.36s6.36,2.85,6.36,6.36s-2.85,6.36-6.36,6.36S49.06,35.51,49.06,32z M55.41,62
		c-3.51,0-6.36-2.85-6.36-6.36c0-3.51,2.85-6.36,6.36-6.36s6.36,2.85,6.36,6.36C61.77,59.15,58.92,62,55.41,62z"/>
</g>
</svg>
