<?xml version="1.0" encoding="utf-8"?>
<!-- Generator: Adobe Illustrator 24.0.1, SVG Export Plug-In . SVG Version: 6.00 Build 0)  -->
<svg version="1.1" id="Layer_1" xmlns="http://www.w3.org/2000/svg" xmlns:xlink="http://www.w3.org/1999/xlink" x="0px" y="0px"
	 viewBox="0 0 64 64" style="enable-background:new 0 0 64 64;" xml:space="preserve">
<style type="text/css">
	.st0{fill:#BFDCE0;}
	.st1{fill:#808080;}
</style>
<g>
	<path class="st0" d="M29.1,0H7.17C3.21,0,0,3.21,0,7.17v49.66C0,60.79,3.21,64,7.17,64H29.1c3.96,0,7.17-3.21,7.17-7.17V9.24V7.17
		C36.27,3.21,33.06,0,29.1,0z"/>
	<path class="st1" d="M25.55,60.12H10.72c-0.55,0-1-0.45-1-1s0.45-1,1-1h14.83c0.55,0,1,0.45,1,1S26.1,60.12,25.55,60.12z"/>
	<path class="st1" d="M24.6,8.67H12.41c-1.73,0-3.28-0.96-4.05-2.52L7.84,5.11C7.6,4.61,7.8,4.01,8.3,3.77
		c0.49-0.25,1.09-0.04,1.34,0.45l0.52,1.05c0.43,0.87,1.29,1.4,2.26,1.4H24.6c0.96,0,1.83-0.54,2.26-1.4l0.52-1.05
		c0.25-0.49,0.84-0.7,1.34-0.45c0.5,0.25,0.7,0.85,0.45,1.34l-0.52,1.05C27.88,7.7,26.33,8.67,24.6,8.67z"/>
	<path class="st1" d="M55.87,44.07L38.33,24.23c-0.19-0.21-0.45-0.33-0.74-0.34c-0.25-0.01-0.55,0.11-0.75,0.32l-5.26,5.65
		l-9.03-9.11c-0.38-0.38-0.99-0.4-1.38-0.04L6.48,34.07c-0.41,0.37-0.44,1-0.07,1.41c0.2,0.22,0.47,0.33,0.74,0.33
		c0.24,0,0.48-0.09,0.67-0.26l13.98-12.71l8.41,8.49l-2.96,3.18c-0.38,0.4-0.35,1.04,0.05,1.41c0.41,0.38,1.04,0.36,1.41-0.05
		l8.83-9.49L52.9,43.73H6.95c-0.55,0-1,0.45-1,1s0.45,1,1,1h48.17c0.39,0,0.75-0.23,0.91-0.59C56.19,44.78,56.13,44.36,55.87,44.07z
		"/>
	<path class="st1" d="M52.92,26.1c-2.17,0-3.93-1.76-3.93-3.93s1.76-3.93,3.93-3.93c2.17,0,3.93,1.76,3.93,3.93
		S55.08,26.1,52.92,26.1z M52.92,20.24c-1.06,0-1.93,0.86-1.93,1.93s0.86,1.93,1.93,1.93s1.93-0.86,1.93-1.93
		S53.98,20.24,52.92,20.24z"/>
</g>
</svg>
