<svg id="Layer_1" data-name="Layer 1" xmlns="http://www.w3.org/2000/svg" viewBox="0 0 1690.87 418.3"><defs><style>.cls-1{fill:#bddbe0;}.cls-2{fill:#fff;}</style></defs><path class="cls-1" d="M1082.27,418.3q-23,0-41.21-10.68a76,76,0,0,1-28.49-29.07,84.54,84.54,0,0,1-.07-80.53A75.89,75.89,0,0,1,1041,268.87q18.32-10.75,41.43-10.75t41.64,10.75A76.81,76.81,0,0,1,1152.77,298a84.13,84.13,0,0,1,.08,80.6,75.79,75.79,0,0,1-28.71,29Q1105.67,418.3,1082.27,418.3Zm.44-41.28a35.19,35.19,0,0,0,18.61-4.94,34.76,34.76,0,0,0,12.79-13.74,45.9,45.9,0,0,0,0-40.26,34.76,34.76,0,0,0-12.79-13.74,37.66,37.66,0,0,0-37.29,0,34.07,34.07,0,0,0-12.79,13.74,43,43,0,0,0-4.58,20.13,43.4,43.4,0,0,0,4.58,20.2A33.32,33.32,0,0,0,1064,372.15,35.87,35.87,0,0,0,1082.71,377Z"/><path class="cls-1" d="M1179.8,262.91h42.73v18.17A42.68,42.68,0,0,1,1234,269a55.17,55.17,0,0,1,16.42-8.07,65.71,65.71,0,0,1,19.41-2.83q20.19,0,33.65,8.86t20,25.51q6.54,16.65,6.54,40.2v80.82h-44.76V333.7q0-18-7.42-26.31t-20.64-8.28a30.81,30.81,0,0,0-16.13,4.43,31.73,31.73,0,0,0-11.93,13.37q-4.5,8.94-4.5,21.88v74.72H1179.8Z"/><path class="cls-1" d="M1456.87,319.17a24.65,24.65,0,0,0-5-12.36,29,29,0,0,0-11.26-8.87,35.59,35.59,0,0,0-15-3.19,36.14,36.14,0,0,0-17.66,4.43q-8.06,4.44-13,14.1T1390,337.92q0,13.38,4.29,22.82A31.17,31.17,0,0,0,1406.43,375a34.09,34.09,0,0,0,18.17,4.8,38.56,38.56,0,0,0,12.93-2,22.85,22.85,0,0,0,8.87-5.38,22.57,22.57,0,0,0,5.09-8.21h48A65.62,65.62,0,0,1,1486,390.54a76.22,76.22,0,0,1-25.73,20.06,78.07,78.07,0,0,1-35,7.7q-22.82,0-41-10.75a75.68,75.68,0,0,1-28.27-29.15,84.87,84.87,0,0,1,0-80.31,76.38,76.38,0,0,1,28.2-29.14q18.09-10.83,41.06-10.83t40.56,10.68a73.33,73.33,0,0,1,27.18,28.71,82.78,82.78,0,0,1,9.6,39.54c0,2.13-.08,4.19-.22,6.17s-.32,4.1-.51,6.33H1382.59l2.32-30.38Z"/><path class="cls-2" d="M359.29,213.27H335.78v-23.8c-10.32,15.2-29.24,27.52-51,27.52-42.43,0-74-34.68-74-77.39s31.53-77.68,74-77.68c21.78,0,40.7,12.32,51,27.23V65.64h23.51ZM284.76,85.14c-27.81,0-49.59,24.65-49.59,54.74,0,29.53,21.78,53.89,49.59,53.89,27.23,0,50.16-24.36,50.16-53.89C334.92,109.79,312,85.14,284.76,85.14Z"/><path class="cls-2" d="M458.13,216.71c-40.7,0-73.95-34.4-73.95-77.11s33.25-77.68,73.95-77.68c33,0,58.76,19.49,68.8,49.3H500.84c-8.31-16-23.5-26.08-42.71-26.08-27.23,0-49.59,24.65-49.59,54.46s22.36,53.89,49.59,53.89c19.49,0,34.69-10,42.71-26.09h26.09C517.18,197.21,491.1,216.71,458.13,216.71Z"/><path class="cls-2" d="M688.66,213.27H665.15v-23.8c-10.31,15.2-29.23,27.52-51,27.52-42.42,0-74-34.68-74-77.39s31.53-77.68,74-77.68c21.79,0,40.71,12.32,51,27.23V65.64h23.51ZM614.13,85.14c-27.8,0-49.59,24.65-49.59,54.74,0,29.53,21.79,53.89,49.59,53.89,27.23,0,50.17-24.36,50.17-53.89C664.3,109.79,641.36,85.14,614.13,85.14Z"/><path class="cls-2" d="M862,213.27H838.53v-23.8c-10.32,15.2-29.24,27.52-51,27.52-42.43,0-74-34.68-74-77.11,0-43,31.53-78,74-78,21.21,0,39.55,11.75,50.16,26.08V0H862ZM787.51,85.14c-27.81,0-49.59,24.65-49.59,54.74,0,29.53,21.78,53.89,49.59,53.89,27.23,0,50.16-24.36,50.16-53.89C837.67,109.79,814.74,85.14,787.51,85.14Z"/><path class="cls-2" d="M1032.26,167.4c-10.32,31.53-35.55,49.31-69.66,49.31-42.42,0-75.67-33.83-75.67-77.11,0-42.71,33.25-77.68,74.24-77.68,38.12,0,74.81,31.53,74.53,84H911.58c3.15,30.68,26.66,48.73,51,48.73,20.93,0,35.83-10,43.86-27.23Zm-23.51-43.28C1002.73,100,982.67,84,961.17,84c-20.35,0-41.85,14.9-48.16,40.13Z"/><path class="cls-2" d="M1269,213.27h-24.36v-92c0-22.93-10.9-37-33.54-37-20.07,0-34.69,16.63-34.69,38.7v90.3h-24.08v-92c0-22.93-11.46-37-33.25-37-20.06,0-35,16.63-35,38.7v90.3H1059.7V65.64h23.5v16a48,48,0,0,1,39.27-19.77c20.93,0,36.41,9.46,45.58,25.22C1177.22,72,1193,61.92,1214.2,61.92c34.11,0,54.75,23.22,54.75,59.91Z"/><path class="cls-2" d="M1327.52,213.27h-24.36V65.64h24.36Z"/><path class="cls-2" d="M1497.91,167.4c-10.32,31.53-35.55,49.31-69.65,49.31-42.43,0-75.68-33.83-75.68-77.11,0-42.71,33.25-77.68,74.24-77.68,38.13,0,74.82,31.53,74.53,84H1377.23c3.15,30.68,26.66,48.73,51,48.73,20.92,0,35.82-10,43.85-27.23Zm-23.51-43.28c-6-24.08-26.08-40.13-47.58-40.13-20.35,0-41.85,14.9-48.16,40.13Z"/></svg>