<svg id="Layer_1" data-name="Layer 1" xmlns="http://www.w3.org/2000/svg" viewBox="0 0 1583.71 418.3"><defs><style>.cls-1{fill:#fff;}</style></defs><path class="cls-1" d="M1028.69,418.3q-23,0-41.21-10.68A76,76,0,0,1,959,378.55a84.54,84.54,0,0,1-.07-80.53,75.89,75.89,0,0,1,28.49-29.15q18.32-10.75,41.43-10.75t41.64,10.75A76.81,76.81,0,0,1,1099.19,298a84.13,84.13,0,0,1,.08,80.6,75.79,75.79,0,0,1-28.71,29Q1052.1,418.3,1028.69,418.3Zm.44-41.28a34.33,34.33,0,0,0,31.4-18.68,45.9,45.9,0,0,0,0-40.26,34.33,34.33,0,0,0-31.4-18.68,35.54,35.54,0,0,0-18.68,4.94,34.07,34.07,0,0,0-12.79,13.74,42.85,42.85,0,0,0-4.58,20.13,43.28,43.28,0,0,0,4.58,20.2,33.32,33.32,0,0,0,12.79,13.74A35.87,35.87,0,0,0,1029.13,377Z"/><path class="cls-1" d="M1126.22,262.91H1169v18.17A42.78,42.78,0,0,1,1180.36,269a55.22,55.22,0,0,1,16.43-8.07,65.69,65.69,0,0,1,19.4-2.83q20.2,0,33.66,8.86t20,25.51q6.54,16.65,6.54,40.2v80.82H1231.6V333.7q0-18-7.41-26.31t-20.64-8.28a30.82,30.82,0,0,0-16.14,4.43,31.77,31.77,0,0,0-11.92,13.37q-4.5,8.94-4.5,21.88v74.72h-44.77Z"/><path class="cls-1" d="M1403.29,319.17a24.65,24.65,0,0,0-5-12.36,29,29,0,0,0-11.27-8.87,35.51,35.51,0,0,0-15-3.19,36.14,36.14,0,0,0-17.66,4.43q-8.07,4.44-13,14.1t-4.94,24.64q0,13.38,4.29,22.82A31.15,31.15,0,0,0,1352.84,375a34.14,34.14,0,0,0,18.17,4.8,38.58,38.58,0,0,0,12.94-2,21.48,21.48,0,0,0,14-13.59h48a65.75,65.75,0,0,1-13.45,26.31,76.22,76.22,0,0,1-25.73,20.06,78.07,78.07,0,0,1-35,7.7q-22.82,0-41-10.75a75.6,75.6,0,0,1-28.27-29.15,84.87,84.87,0,0,1,0-80.31,76.38,76.38,0,0,1,28.2-29.14q18.09-10.83,41.06-10.83t40.56,10.68a73.4,73.4,0,0,1,27.18,28.71,82.77,82.77,0,0,1,9.59,39.54q0,3.19-.21,6.17t-.51,6.33H1329l2.32-30.38Z"/><path class="cls-1" d="M305.71,213.27H282.2v-23.8C271.88,204.67,253,217,231.18,217c-42.43,0-74-34.68-74-77.39s31.53-77.68,74-77.68c21.78,0,40.7,12.32,51,27.23V65.64h23.51ZM231.18,85.14c-27.81,0-49.59,24.65-49.59,54.74,0,29.53,21.78,53.89,49.59,53.89,27.23,0,50.16-24.36,50.16-53.89C281.34,109.79,258.41,85.14,231.18,85.14Z"/><path class="cls-1" d="M404.55,216.71c-40.7,0-74-34.4-74-77.11s33.26-77.68,74-77.68c33,0,58.76,19.49,68.8,49.3H447.26c-8.31-16-23.5-26.08-42.71-26.08-27.23,0-49.59,24.65-49.59,54.46s22.36,53.89,49.59,53.89c19.49,0,34.68-10,42.71-26.09h26.09C463.6,197.21,437.51,216.71,404.55,216.71Z"/><path class="cls-1" d="M635.08,213.27H611.57v-23.8c-10.31,15.2-29.23,27.52-51,27.52-42.42,0-73.95-34.68-73.95-77.39s31.53-77.68,73.95-77.68c21.79,0,40.71,12.32,51,27.23V65.64h23.51ZM560.55,85.14c-27.8,0-49.59,24.65-49.59,54.74,0,29.53,21.79,53.89,49.59,53.89,27.23,0,50.16-24.36,50.16-53.89C610.71,109.79,587.78,85.14,560.55,85.14Z"/><path class="cls-1" d="M808.45,213.27H785v-23.8c-10.32,15.2-29.24,27.52-51,27.52-42.43,0-74-34.68-74-77.11,0-43,31.53-78,74-78,21.21,0,39.55,11.75,50.16,26.08V0h24.36ZM733.93,85.14c-27.81,0-49.59,24.65-49.59,54.74,0,29.53,21.78,53.89,49.59,53.89,27.23,0,50.16-24.36,50.16-53.89C784.09,109.79,761.16,85.14,733.93,85.14Z"/><path class="cls-1" d="M978.68,167.4c-10.32,31.53-35.55,49.31-69.66,49.31-42.42,0-75.68-33.83-75.68-77.11,0-42.71,33.26-77.68,74.25-77.68,38.12,0,74.81,31.53,74.52,84H858c3.15,30.68,26.65,48.73,51,48.73,20.93,0,35.83-10,43.86-27.23Zm-23.51-43.28C949.15,100,929.08,84,907.59,84c-20.36,0-41.85,14.9-48.16,40.13Z"/><path class="cls-1" d="M1215.37,213.27H1191v-92c0-22.93-10.89-37-33.53-37-20.07,0-34.69,16.63-34.69,38.7v90.3H1098.7v-92c0-22.93-11.46-37-33.25-37-20.06,0-35,16.63-35,38.7v90.3h-24.36V65.64h23.5v16a47.94,47.94,0,0,1,39.27-19.77c20.93,0,36.41,9.46,45.58,25.22,9.17-15.19,24.94-25.22,46.15-25.22,34.11,0,54.75,23.22,54.75,59.91Z"/><path class="cls-1" d="M1273.94,213.27h-24.36V65.64h24.36Z"/><path class="cls-1" d="M1444.33,167.4c-10.32,31.53-35.55,49.31-69.66,49.31-42.42,0-75.67-33.83-75.67-77.11,0-42.71,33.25-77.68,74.24-77.68,38.12,0,74.82,31.53,74.53,84H1323.65c3.15,30.68,26.66,48.73,51,48.73,20.93,0,35.83-10,43.86-27.23Zm-23.51-43.28C1414.8,100,1394.74,84,1373.24,84c-20.35,0-41.85,14.9-48.16,40.13Z"/><path class="cls-1" d="M1028.69,418.3q-23,0-41.21-10.68A76,76,0,0,1,959,378.55a84.54,84.54,0,0,1-.07-80.53,75.89,75.89,0,0,1,28.49-29.15q18.32-10.75,41.43-10.75t41.64,10.75A76.81,76.81,0,0,1,1099.19,298a84.13,84.13,0,0,1,.08,80.6,75.79,75.79,0,0,1-28.71,29Q1052.1,418.3,1028.69,418.3Zm.44-41.28a34.33,34.33,0,0,0,31.4-18.68,45.9,45.9,0,0,0,0-40.26,34.33,34.33,0,0,0-31.4-18.68,35.54,35.54,0,0,0-18.68,4.94,34.07,34.07,0,0,0-12.79,13.74,42.85,42.85,0,0,0-4.58,20.13,43.28,43.28,0,0,0,4.58,20.2,33.32,33.32,0,0,0,12.79,13.74A35.87,35.87,0,0,0,1029.13,377Z"/><path class="cls-1" d="M1126.22,262.91H1169v18.17A42.78,42.78,0,0,1,1180.36,269a55.22,55.22,0,0,1,16.43-8.07,65.69,65.69,0,0,1,19.4-2.83q20.2,0,33.66,8.86t20,25.51q6.54,16.65,6.54,40.2v80.82H1231.6V333.7q0-18-7.41-26.31t-20.64-8.28a30.82,30.82,0,0,0-16.14,4.43,31.77,31.77,0,0,0-11.92,13.37q-4.5,8.94-4.5,21.88v74.72h-44.77Z"/><path class="cls-1" d="M1403.29,319.17a24.65,24.65,0,0,0-5-12.36,29,29,0,0,0-11.27-8.87,35.51,35.51,0,0,0-15-3.19,36.14,36.14,0,0,0-17.66,4.43q-8.07,4.44-13,14.1t-4.94,24.64q0,13.38,4.29,22.82A31.15,31.15,0,0,0,1352.84,375a34.14,34.14,0,0,0,18.17,4.8,38.58,38.58,0,0,0,12.94-2,21.48,21.48,0,0,0,14-13.59h48a65.75,65.75,0,0,1-13.45,26.31,76.22,76.22,0,0,1-25.73,20.06,78.07,78.07,0,0,1-35,7.7q-22.82,0-41-10.75a75.6,75.6,0,0,1-28.27-29.15,84.87,84.87,0,0,1,0-80.31,76.38,76.38,0,0,1,28.2-29.14q18.09-10.83,41.06-10.83t40.56,10.68a73.4,73.4,0,0,1,27.18,28.71,82.77,82.77,0,0,1,9.59,39.54q0,3.19-.21,6.17t-.51,6.33H1329l2.32-30.38Z"/><path class="cls-1" d="M305.71,213.27H282.2v-23.8C271.88,204.67,253,217,231.18,217c-42.43,0-74-34.68-74-77.39s31.53-77.68,74-77.68c21.78,0,40.7,12.32,51,27.23V65.64h23.51ZM231.18,85.14c-27.81,0-49.59,24.65-49.59,54.74,0,29.53,21.78,53.89,49.59,53.89,27.23,0,50.16-24.36,50.16-53.89C281.34,109.79,258.41,85.14,231.18,85.14Z"/><path class="cls-1" d="M404.55,216.71c-40.7,0-74-34.4-74-77.11s33.26-77.68,74-77.68c33,0,58.76,19.49,68.8,49.3H447.26c-8.31-16-23.5-26.08-42.71-26.08-27.23,0-49.59,24.65-49.59,54.46s22.36,53.89,49.59,53.89c19.49,0,34.68-10,42.71-26.09h26.09C463.6,197.21,437.51,216.71,404.55,216.71Z"/><path class="cls-1" d="M635.08,213.27H611.57v-23.8c-10.31,15.2-29.23,27.52-51,27.52-42.42,0-73.95-34.68-73.95-77.39s31.53-77.68,73.95-77.68c21.79,0,40.71,12.32,51,27.23V65.64h23.51ZM560.55,85.14c-27.8,0-49.59,24.65-49.59,54.74,0,29.53,21.79,53.89,49.59,53.89,27.23,0,50.16-24.36,50.16-53.89C610.71,109.79,587.78,85.14,560.55,85.14Z"/><path class="cls-1" d="M808.45,213.27H785v-23.8c-10.32,15.2-29.24,27.52-51,27.52-42.43,0-74-34.68-74-77.11,0-43,31.53-78,74-78,21.21,0,39.55,11.75,50.16,26.08V0h24.36ZM733.93,85.14c-27.81,0-49.59,24.65-49.59,54.74,0,29.53,21.78,53.89,49.59,53.89,27.23,0,50.16-24.36,50.16-53.89C784.09,109.79,761.16,85.14,733.93,85.14Z"/><path class="cls-1" d="M978.68,167.4c-10.32,31.53-35.55,49.31-69.66,49.31-42.42,0-75.68-33.83-75.68-77.11,0-42.71,33.26-77.68,74.25-77.68,38.12,0,74.81,31.53,74.52,84H858c3.15,30.68,26.65,48.73,51,48.73,20.93,0,35.83-10,43.86-27.23Zm-23.51-43.28C949.15,100,929.08,84,907.59,84c-20.36,0-41.85,14.9-48.16,40.13Z"/><path class="cls-1" d="M1215.37,213.27H1191v-92c0-22.93-10.89-37-33.53-37-20.07,0-34.69,16.63-34.69,38.7v90.3H1098.7v-92c0-22.93-11.46-37-33.25-37-20.06,0-35,16.63-35,38.7v90.3h-24.36V65.64h23.5v16a47.94,47.94,0,0,1,39.27-19.77c20.93,0,36.41,9.46,45.58,25.22,9.17-15.19,24.94-25.22,46.15-25.22,34.11,0,54.75,23.22,54.75,59.91Z"/><path class="cls-1" d="M1273.94,213.27h-24.36V65.64h24.36Z"/><path class="cls-1" d="M1444.33,167.4c-10.32,31.53-35.55,49.31-69.66,49.31-42.42,0-75.67-33.83-75.67-77.11,0-42.71,33.25-77.68,74.24-77.68,38.12,0,74.82,31.53,74.53,84H1323.65c3.15,30.68,26.66,48.73,51,48.73,20.93,0,35.83-10,43.86-27.23Zm-23.51-43.28C1414.8,100,1394.74,84,1373.24,84c-20.35,0-41.85,14.9-48.16,40.13Z"/></svg>