<?xml version="1.0" encoding="utf-8"?>
<!-- Generator: Adobe Illustrator 24.0.1, SVG Export Plug-In . SVG Version: 6.00 Build 0)  -->
<svg version="1.1" id="Layer_1" xmlns="http://www.w3.org/2000/svg" xmlns:xlink="http://www.w3.org/1999/xlink" x="0px" y="0px"
	 viewBox="0 0 240.5 239.09" style="enable-background:new 0 0 240.5 239.09;" xml:space="preserve">
<style type="text/css">
	.st0{fill:none;stroke:#C7C7C7;stroke-width:2;stroke-linecap:round;stroke-miterlimit:10;stroke-dasharray:0,8;}
	.st1{fill:url(#SVGID_1_);}
	.st2{fill:url(#SVGID_2_);}
	.st3{fill:url(#SVGID_3_);}
	.st4{fill:url(#SVGID_4_);}
	.st5{fill:#B1D7DB;}
	.st6{fill:#FFA4E2;}
	.st7{fill:#FFB48F;}
	.st8{fill:none;stroke:#C7C7C7;stroke-width:2;stroke-linecap:round;stroke-miterlimit:10;}
	.st9{fill:none;stroke:#C7C7C7;stroke-width:2;stroke-linecap:round;stroke-miterlimit:10;stroke-dasharray:0,8.0579;}
	.st10{fill:url(#SVGID_5_);}
	.st11{fill:url(#SVGID_6_);}
	.st12{fill:#A2E6C4;}
	.st13{fill:none;stroke:#8078E1;stroke-width:2;stroke-linecap:round;stroke-miterlimit:10;}
	.st14{fill:none;stroke:#FFB291;stroke-width:4;stroke-linecap:round;stroke-miterlimit:10;stroke-dasharray:43,8;}
	.st15{fill:url(#SVGID_7_);}
	.st16{fill:none;stroke:#A2E6C4;stroke-width:2;stroke-linecap:round;stroke-miterlimit:10;stroke-dasharray:43,8;}
	.st17{fill:none;stroke:#FFA4E2;stroke-width:2;stroke-linecap:round;stroke-miterlimit:10;}
	.st18{fill:none;stroke:#A2E6C4;stroke-width:2;stroke-miterlimit:10;}
	.st19{fill:none;stroke:#FFB291;stroke-width:2;stroke-linecap:round;stroke-miterlimit:10;}
	.st20{fill:none;stroke:#FFB291;stroke-width:2;stroke-linecap:round;stroke-miterlimit:10;stroke-dasharray:43,8;}
	.st21{fill:none;stroke:#8078E1;stroke-linecap:round;stroke-miterlimit:10;}
	.st22{fill:none;}
	.st23{fill:#4D4D4D;stroke:#4D4D4D;stroke-linecap:round;stroke-linejoin:round;stroke-miterlimit:10;}
	.st24{fill:url(#SVGID_8_);}
	.st25{fill:none;stroke:#BAD7DB;stroke-width:2;stroke-linecap:round;stroke-linejoin:round;stroke-miterlimit:10;}
	.st26{fill:#EDEDED;stroke:#4D4D4D;stroke-linecap:round;stroke-linejoin:round;stroke-miterlimit:10;}
	.st27{fill:#FFFFFF;stroke:#4D4D4D;stroke-linecap:round;stroke-linejoin:round;stroke-miterlimit:10;}
	.st28{fill:#445D78;stroke:#4D4D4D;stroke-linecap:round;stroke-linejoin:round;stroke-miterlimit:10;}
	.st29{fill:none;stroke:#4D4D4D;stroke-linecap:round;stroke-linejoin:round;stroke-miterlimit:10;}
	.st30{fill:url(#SVGID_9_);}
	.st31{fill:#6B5641;}
	.st32{fill:#FFFFFF;}
	.st33{fill:#F2DACA;}
	.st34{fill:#333333;}
	.st35{fill:#BDD5DB;}
	.st36{fill:none;stroke:#333333;stroke-linecap:round;stroke-miterlimit:10;}
	.st37{fill:none;stroke:#333333;stroke-linecap:round;stroke-linejoin:round;stroke-miterlimit:10;}
	.st38{fill:#ED9E8C;}
	.st39{fill:url(#SVGID_10_);}
	.st40{fill:url(#SVGID_11_);}
	.st41{fill:url(#SVGID_12_);}
	.st42{fill:none;stroke:#FFFFFF;stroke-linecap:round;stroke-linejoin:round;stroke-miterlimit:10;}
	.st43{fill:url(#SVGID_13_);}
	.st44{fill:url(#SVGID_14_);}
	.st45{fill:#4D4D4D;}
	.st46{fill:none;stroke:#4D4D4D;stroke-linecap:round;stroke-miterlimit:10;}
	.st47{fill:none;stroke:#4D4D4D;stroke-miterlimit:10;}
	.st48{fill:url(#SVGID_15_);}
	.st49{fill:#6A8FBA;}
	.st50{fill:#F7DFCF;}
	.st51{fill:#373F48;}
	.st52{fill:#FFFFFF;stroke:#333333;stroke-linecap:round;stroke-linejoin:round;stroke-miterlimit:10;}
	.st53{fill:#C0D8DE;}
	.st54{fill:url(#SVGID_16_);}
	.st55{fill:none;stroke:#4D4D4D;stroke-width:2;stroke-linecap:round;stroke-miterlimit:10;}
	.st56{fill:none;stroke:#4D4D4D;stroke-width:2;stroke-linecap:round;stroke-miterlimit:10;stroke-dasharray:0,8.0579;}
	.st57{fill:url(#SVGID_17_);}
	.st58{fill:url(#SVGID_18_);}
	.st59{fill:none;stroke:#4D4D4D;stroke-width:2;stroke-linecap:round;stroke-miterlimit:10;stroke-dasharray:0,8;}
	.st60{fill:url(#SVGID_19_);}
	.st61{fill:url(#SVGID_20_);}
	.st62{fill:url(#SVGID_21_);}
	.st63{fill:url(#SVGID_22_);}
	.st64{fill:url(#SVGID_23_);}
</style>
<g>
	<g>
		<polygon class="st53" points="203.72,229.88 83.32,229.28 84.45,11.03 206.56,0.5 		"/>
		<path class="st49" d="M168.5,134.98c-0.18-0.87-1.73-2.24-2.36-2.72c0.64-0.68,1.71-2.64,1.66-3.67c-0.1-1.97-0.78-3.12-2.4-4.23
			c-0.67-0.46-1.63-0.64-2.52-0.53c-2.75-1.15-5.58-1.15-8.07-0.1c-1.28-0.05-2.59,0.43-3.55,1.67c-1.25,1.62-2,3.19-2.75,5.08
			c-0.21,0.53-0.29,1.03-0.28,1.49c-2.79,1.78-3.93,5.35-4.75,8.79c-0.5,1.26-0.94,2.57-1.4,3.85l-6.6,18.56
			c-7.34-6.15-15.49-13.39-23.04-19.28c2.62-2.81,4.73-5.4,6.6-8.83c0.72-1.32,1.67-3.36,1.74-4.57c0.69-0.13,0.72,0.37,1.27-0.11
			l4.81-4.24c1.19-1.04,1.64-3.52,0.63-4.85c-1.99-2.59-4.46-6.3-7.55-7.93c-1.79-2.3-5.97-1.82-6.98,1.35
			c-0.94,0.95-1.76,2.09-2.47,3.15c-2.44-0.49-4.71,0.7-7.22,2.38c-1.88,1.26-3.09,2.13-4.41,3.99c-2.22-1.47-5.54-2.21-8.47-2.58
			c-2.19-0.28-4.37-0.21-6.54-0.01c-8.13-0.98-16.01-2.47-23.92-4.98c-1.67-0.53-3.21-0.42-4.55,0.12
			c-1.44-0.23-2.86-0.38-4.25-0.37c-0.81,0-1.62,0.15-2.39,0.42c-0.94,0.12-1.85,0.45-2.63,1.04c-6.66,5.03-10.33,14.11-7.6,22.26
			c0.01,0.04,0.03,0.07,0.04,0.11c-0.28,3.91,0.96,5.48,3.12,9.14c-0.07,0.65-0.52,4.37-0.6,4.99c-0.53,4.29-0.1,7.94-0.18,12.26
			c-0.09,5.05-0.03,10.12,0.1,15.18c-1.89,7.59-0.3,16.57,0.34,24.37c0.42,5.13,1.17,17.11,1.25,22.26l69.26,1.45
			c0.21-9.62,0.18-42.89,0.21-46.7c0,0,1.96,0.95,2.07,1.01c1.14,0.58,2.31,1.16,3.5,1.72c3.47,2.65,7.37,4.68,11.81,5.7
			c3.8,0.87,7.69,1.62,11.65,0.73c1.22-0.22,3.1-0.88,4.19-1.35c10.26-3.46,14.83-21.13,16.1-25.18c0.71-2.26,1.41-4.53,2.12-6.79
			c1.77-4.88,4.29-15.04,4.64-17.17C168.71,139.07,169.12,138,168.5,134.98z"/>
		<path class="st32" d="M175.06,112.5h-47.71V48.25c0,0,25.37-3.89,47.5-3.1L175.06,112.5z"/>
		<path class="st50" d="M177.86,100.01c-0.34-1.02-1.4-1.52-2.41-1.29c0.02-0.78-1.03-1.34-1.64-0.77c-0.18-0.2-0.43-0.32-0.71-0.29
			c-1.64,0.21-2.97,0.96-4.11,2.15c-0.58,0.61-1.08,1.29-1.57,1.97c-0.21,0.28-1.75,2.49-1.98,2.02c0,0,0,0,0,0
			c-0.05-0.07-0.1-0.13-0.16-0.2c-0.27-0.32-0.61-0.38-0.9-0.28c0.1-0.21,0.2-0.43,0.3-0.64c0.87-1.85,1.76-3.69,3.04-5.29
			c0.3-0.07,0.57-0.27,0.7-0.66c0.03-0.1,0.06-0.19,0.1-0.29c0.29-0.64,0.91-0.52,1.48-0.2c0.36,0.39,0.81,0.72,1.21,0.96
			c0.76,0.45,1.48-0.2,1.47-0.91c0.07,0.02,0.14,0.03,0.22,0.05c1.08,0.28,1.77-1.26,0.77-1.83c-0.6-0.34-1.66-1.14-2.61-1.38
			c-0.31-0.5-1-0.77-1.52-0.21c-0.29,0.31-0.48,0.64-0.58,1c-0.24-0.33-0.68-0.51-1.1-0.42c-0.97,0.22-1.45,0.96-2.01,1.71
			c-0.79,1.05-1.66,2.05-2.57,3c-1.76,1.82-4.01,3.34-5.1,5.7c-0.09,0.2-0.19,0.49-0.28,0.82c-1.54,0.53-1.59,3.67-1.4,5.4
			c-0.73,2.87-1.38,5.75-1.78,8.69c-0.01,0.02-0.01,0.04-0.02,0.06c0,0,0,0,0.01,0c-0.01,0.09-0.03,0.18-0.04,0.27
			c0,0.03,0.01,0.06,0.01,0.09c-0.03,0.08-0.05,0.15-0.08,0.23c-0.41,1.09-0.91,2.11-0.9,3.29c0.01,0.6,0.64,1.2,1.27,0.96
			c1.31-0.49,2.64-0.97,3.96-1.46c0.06,0.03,0.12,0.08,0.2,0.1c0.54,0.14,1.23,0.26,1.92,0.27c0.47,0.09,0.94,0.2,1.41,0.33
			c0.31,0.09,0.59,0,0.81-0.17c0.31,0.54,1.11,0.82,1.57,0.27c1.34-1.6,2.68-3.29,3.88-5.07c1.42-1.06,2.8-2.16,4.16-3.3
			c1.14-0.95,2.63-1.94,2.97-3.48c0.32-1.44-0.11-3.19-0.37-4.61c-0.03-0.18-0.11-0.32-0.21-0.43c0.6-0.88,1.19-1.77,1.72-2.7
			C177.56,102.46,178.26,101.21,177.86,100.01z"/>
		<path class="st51" d="M181.01,96.4c-0.52-1.06-1.75-0.62-2.7-0.55c-1.97,0.15-3.94,0.12-5.9-0.05c-0.88-0.07-1.79-0.11-2.62,0.21
			c-0.42,0.17-0.8,0.41-1.11,0.74c-0.09,0.09-0.18,0.23-0.28,0.36c-0.16,0.12-0.31,0.24-0.46,0.36c0,0,0,0,0,0
			c-1.14,0.37-0.62,2.19,0.61,1.89c0.2-0.05,0.38-0.13,0.55-0.23c1.83-0.21,3.67-0.35,5.52-0.4c1-0.02,2-0.02,2.99,0
			c0.87,0.02,1.94,0.22,2.73-0.26C181,98.06,181.37,97.14,181.01,96.4z"/>
		<path class="st50" d="M144.05,94.48c1.1-0.87,2.43-1.58,2.16-3.17c-0.11-0.66-0.95-0.88-1.47-0.6c-2.41,1.3-4.84,2.64-6.86,4.52
			c-0.57,0.53-0.61-0.25-1.06,0.36c-0.26-0.07-1.01,1.36-1.26,1.62c0.06-0.25,0.12-0.5,0.18-0.74c0.01-0.01,0.01-0.02,0.02-0.02
			c1.66-1.34,3.04-3.49,4.83-4.96c1.48-1.23,3.8-2.63,3.35-4.84c-0.12-0.58-0.73-0.77-1.23-0.7c-1.49,0.21-2.68,1.01-3.9,1.78
			c0.45-0.78,0.52-1.56-0.42-2.1c-1.64-0.95-3.94,1.18-5.1,2.1c-0.33,0.26-0.63,0.54-0.94,0.82c0.35-0.76-0.47-1.83-1.39-1.3
			c-1.79,1.03-3.11,2.68-3.7,4.63c-0.24,0.1-0.45,0.29-0.57,0.6c-0.18,0.48-0.37,0.96-0.55,1.44c-0.09,0.08-0.17,0.18-0.23,0.32
			c-0.03,0.08-0.06,0.16-0.09,0.24c0,0,0,0-0.01,0c-0.01,0.03-0.02,0.05-0.02,0.08c-0.39,0.95-0.74,1.91-1.01,2.9
			c-0.05,0.18-0.04,0.34-0.02,0.49l-0.14,0.46c-0.02,0.03-0.05,0.06-0.07,0.1c-0.06,0.14-0.12,0.28-0.17,0.42
			c-0.34,0.05-0.65,0.27-0.78,0.7c-0.68,2.23-0.84,4.57-1.41,6.82c-0.27,1.05-0.62,2.07-1.18,3c-0.47,0.76-1.43,1.38-1.7,2.24
			c-0.27,0.85,0.25,1.49,0.91,1.94c0.83,0.58,1.65,1.14,2.4,1.84c0.85,0.79,1.57,1.65,2.28,2.57c0.52,0.67,1.16,1.17,2.06,0.85
			c0.9-0.33,1.7-1.23,2.5-1.76c0.89-0.59,1.8-1.13,2.74-1.65c1.75-0.97,3.55-1.86,5.3-2.84c3.18-1.8,7.71-4.46,7.88-8.57
			c0.02-0.49-0.48-1.06-1-1c-1.62,0.19-4.91,3.52-5.75,3.79c-0.49-0.2-2.16,0.91-2.38-0.7c-0.1-0.05-0.2-0.09-0.3-0.17
			c0.66-3.05,2.09-5.82,4.28-8.11C141.39,96.62,142.72,95.54,144.05,94.48z"/>
		<path class="st51" d="M103.68,69.62c-0.15-1.2-3.67-3.89-4.93-4.25c-0.22-0.06-0.8-0.37-1.01-0.44c0.82-0.36,2.53-1.44,3.35-1.79
			c0.74-0.32,0.91-1.41,0.54-2.05c-0.45-0.77,0.17-1.61-0.58-1.29c0,0-1.52,3.42-6.19,2.13c-9.01-2.49-18.38-5.51-27.18-2.17
			c-6.04,2.29-13.16,7.38-13.26,14.38c-0.94,0.6-1.79,1.47-2.5,2.68c-3.17,5.35-1.69,14.02,0.42,19.45c1.95,5,5.11,12.7,10,15.55
			c3.41,1.99,7.76,2.11,11.79,1.2c2.56-0.79,4.75-1.58,7.41-2.37c2.4-0.72,3.34-2.57,3.19-4.39c0.19-0.08,0.37-0.16,0.55-0.27
			c5.3-3.03,2.61-10.52,2.61-10.56c3.55-4.31,0.93-16.64,6.93-17.46c1.4,0.33,2.9,0.21,4.38-0.07c1.23-0.24,2.12,0.13,2.12,0.13
			c0.83-0.98,2.35-3.97,2.48-5.23C103.91,71.76,103.82,70.68,103.68,69.62z"/>
		<path class="st50" d="M104.5,97c-0.1-0.35-0.92-1.31-1.31-1.19c-0.01,0-1.21-0.04-1.28-0.36c-0.13-0.68-0.14-0.97,0.33-2.19
			c0.12-0.69,0.23-1.38,0.34-2.06c0.5-3.11,0.74-9.9-1.47-12.91c0,0-4.7-3.16-7.84,0.39c-4.03,4.57-2.14,13.1-5.17,17.32
			c-1.65-1.64-4.44-2.91-6.27-0.52c-1.92,2.52-2.24,4.36-0.85,6.25c0.08,0.38,0.18,0.78,0.34,1.19c0.51,1.37,1.6,1.53,3.04,1.65
			c0.02,0.41-1.59,5.41-2.79,6.28c-3.64,2.62-14.15,2.44-14.15,2.44c-1.56,4.65-1.05,5.39-1.05,5.39c4.64,0.59,11.61,2.8,19.24,2.76
			c1.06,0.04,3.01-0.17,3.01-0.17c-0.03-1.2,0.03-0.99,0.16-2.18c0.05-0.07,0.12-0.12,0.17-0.2c0.24-0.34,0.27-2.59,0.27-2.59
			s0.98-0.2,2.28,0c0.51,0.08,1.8-0.1,2.26-0.32c1.12,0.02,2.1-1.03,3.01-1.7c0.96-0.7,1.68-1.74,2.01-2.89
			c2.78-3.05,4.34-7.04,4.58-11.27c0.1-0.11,0.2-0.21,0.3-0.32C104.13,99.24,104.61,97.39,104.5,97z"/>
		<path class="st29" d="M83.78,115.19c0,0,5.45,1.87,9.99,0.78c5.53-1.32,10.11-12.53,9.33-16.13c2.11-0.93,1.53-3.88,0.19-3.88
			c-1.13,0-1.97-0.08-1.28-3c2.75-8.58-0.89-14.67-0.89-14.67s-6.33-4.63-9.78,3.6c-2.23,5.32,0.34,8.24-3.43,13.56
			c0,0-4.15-4.22-6.8,0.73c-2.44,4.55,0.79,9.4,4.23,8.2"/>
		<path class="st29" d="M101.12,78.29c0,0,3.41-3.43,2.74-8.24c-0.67-4.8-6.86-4.91-6.86-4.91s5.87-1.17,4.06-5.34
			c0,0-1.28,3.63-6.19,2.13s-17.18-6.51-28.39-1.39s-11.53,8.97-11.53,12.7c0,0-5.02,3.95-4.48,11.74s5.34,27.75,16.97,28.29
			c11.63,0.53,17.22-3.35,16.94-8.72"/>
		<path class="st29" d="M96.88,87.28c0.97-0.97,3.35-1.76,4.83-0.17"/>
		
			<ellipse transform="matrix(0.1723 -0.985 0.985 0.1723 -7.8098 172.9895)" class="st45" cx="99.03" cy="91.14" rx="1.72" ry="1.13"/>
		<path class="st29" d="M98.67,103.81c2.05,2.31,4.05,0,4.05,0"/>
		<line class="st29" x1="89.23" y1="116.29" x2="88.44" y2="121.47"/>
		<line class="st29" x1="67.43" y1="113.28" x2="66.39" y2="118.67"/>
		<path class="st29" d="M103.86,136.45c0,0,1.82-15.21-15.42-14.98c-17.24,0.23-28.1-5.53-38.02-4.63
			c-9.92,0.9-14.38,13.52-12.01,23.89c2.37,10.37,9.69,19.04,15.55,19.49c5.86,0.45,14.87-2.03,25.69-16.34
			C83.82,137.69,94.71,133.3,103.86,136.45z"/>
		<path class="st29" d="M112.44,143.89c0,0,8.68-8.45,8.34-13.41c-0.34-4.96-7.55-13.18-12.4-12.51c-4.85,0.68-9.52,6.25-9.52,6.25"
			/>
		<path class="st29" d="M120.78,130.48c0,0,8.45-4.73,6.99-7.89c-4.73-9.92-10.82-10.93-10.82-10.93s-3.16,0.6-7.1,6.27"/>
		<path class="st29" d="M103.86,136.45c0,0,19.48,16.55,31.38,26.53c5.31-11.26,7.65-29.73,15.09-32.07
			c7.44-2.35,15.51-0.43,17.85,3.39c2.34,3.82-8.14,44.66-17.21,52.91c-10.86,9.88-23.77,4.42-32.06-0.04
			c-8.29-4.46-25.12-15.79-25.12-15.79"/>
		<path class="st29" d="M41.26,148.56c0,0-1.12,29.51,0,55.64c1.12,26.13,1.34,24.22,1.34,24.22"/>
		<path class="st29" d="M112.07,183.18c0,0,0.75,35.86-0.21,46.7"/>
		<path class="st29" d="M148.54,131.84c0,0,1.02-5.9,2.63-7.05s5.96-2.75,10.09-1.95s5.85,2.56,5.85,2.56s1.39,0.8-0.97,6.86"/>
		<g>
			<path class="st29" d="M169.13,99.78c-1.46,1.29-2.82,2.69-4.08,4.18c-0.21-3.39,3.92-5.84,3.82-9.24
				c-0.01-0.51-0.18-1.09-0.64-1.31c-0.64-0.3-1.34,0.26-1.83,0.78c-1.65,1.77-3.31,3.55-4.96,5.32c-1.44,1.54-2.89,3.1-3.97,4.91
				c-0.51,0.85-0.93,1.75-1.16,2.71c-0.29,1.24-0.24,2.54-0.33,3.82c-0.14,1.96-0.61,3.87-1.08,5.78c-0.55,2.21-0.8,4.52-1.42,6.72"
				/>
			<path class="st29" d="M171.35,104.3c0.73-0.98,1.51-1.92,2.35-2.81c0.61-0.65,1.27-1.28,1.64-2.1"/>
			<path class="st29" d="M168.9,93.5c0.24-0.81,1.27-1.13,2.09-0.96c1.5,0.31,2.5,1.69,3.35,2.96"/>
			<path class="st29" d="M177.71,99.37c0.51,0.95,0.18,2.15-0.35,3.09c-0.53,0.94-1.25,1.8-1.56,2.83
				c-0.36,1.18-0.15,2.44-0.04,3.67c0.1,1.23,0.06,2.57-0.7,3.54c-2.3,2.95-5.83,4.88-8.18,7.79c-0.81,1.01-1.59,2.15-1.63,3.44"/>
			<path class="st29" d="M180.35,95.5c0,0,2.03,1.43,0,3.27c-1.58,0.11-13.45,0.59-13.45,0.59l1.79-2.98L180.35,95.5z"/>
		</g>
		<g>
			<path class="st29" d="M132.76,88.72c0.13-1.73-1.11-1.91-1.75-1.72c-2.78,0.82-6.26,9.01-6.84,11.1
				c-0.59,2.14-1.88,8.77-2.09,9.78c-0.35,1.64-1.55,2.66-2.59,3.97"/>
			<path class="st29" d="M127.1,98.16c0,0,0.59-2.16,1.52-3.87c0.74-1.35,1.48-2.71,2.47-3.9c1.47-1.76,3.42-3.06,5.35-4.34
				c0.32-0.21,0.64-0.42,1.02-0.48c0.57-0.09,1.18,0.25,1.41,0.77c0.22,0.52,0.04,1.18-0.43,1.52"/>
			<path class="st29" d="M130.85,98.42c1.53-5.5,5.73-10.2,11.04-12.31c0.58-0.23,1.31-0.41,1.76,0.02
				c0.23,0.22,0.32,0.56,0.34,0.88c0.12,1.73-1.34,3.12-2.77,4.1c-1.43,0.98-3.06,1.93-3.63,3.57"/>
			<path class="st29" d="M126.81,120.05c0.49-1.26,1.84-1.9,2.87-2.77c0.57-0.48,1.06-1.04,1.67-1.46c0.56-0.38,1.19-0.62,1.81-0.87
				c4.86-1.94,9.74-4.81,12.04-9.51c0.37-0.76,0.55-1.89-0.2-2.26c-0.67-0.33-1.39,0.28-1.93,0.79c-1.24,1.18-2.7,2.13-4.28,2.79
				c-0.63,0.26-1.33,0.47-1.97,0.23c-0.63-0.24-0.66-0.82-0.51-1.48c0.95-4.14,3.5-7.9,7.01-10.31c1.13-0.78,2.44-1.52,2.9-2.82
				c0.15-0.42,0.17-0.94-0.13-1.26c-0.46-0.48-1.26-0.2-1.85,0.12c-1.08,0.57-2.17,1.15-3.25,1.72c-1.46,0.77-2.93,1.56-4.18,2.64
				s-2.27,2.5-2.56,4.13"/>
		</g>
		<path class="st29" d="M174.85,95.88V45.15c0,0-35.16,0.31-47.5,3.1c0,15.87,0.19,37.56,0.19,37.56"/>
		<line class="st29" x1="140.4" y1="112.54" x2="154.59" y2="112.54"/>
		<path class="st29" d="M134.22,52.16c-0.34-0.49-1.14-0.4-1.57,0.01s-0.59,1.02-0.73,1.6c-0.2,0.8-0.38,1.71,0.08,2.4
			c0.12,0.19,0.3,0.35,0.51,0.42c0.29,0.09,0.59-0.01,0.87-0.11c0.75-0.28,1.48-0.64,2.16-1.08"/>
		<path class="st29" d="M137.83,51.55c-0.43-0.17-0.95-0.05-1.32,0.24s-0.61,0.7-0.78,1.14c-0.21,0.57-0.3,1.22-0.09,1.79
			c0.2,0.58,0.74,1.06,1.35,1.06c0.77,0.01,1.37-0.69,1.63-1.42c0.38-1.07,0.09-2.51-0.96-2.94"/>
		<path class="st29" d="M140.91,55.23c-0.14-1.3-0.07-2.62,0.22-3.9c0.73,1.3,1.46,2.59,2.19,3.89c0.38-1.47,0.75-2.95,1.13-4.42"/>
		<path class="st29" d="M145.61,51.1c0.06-0.06,0.15-0.07,0.23-0.07c1.13-0.05,2.27-0.09,3.4-0.14"/>
		<path class="st29" d="M151.63,54.29c-0.1-0.93-0.19-1.85-0.29-2.78c-0.04-0.37-0.08-0.75,0.01-1.12c0.09-0.36,0.34-0.71,0.69-0.82
			c0.47-0.14,1,0.21,1.15,0.68c0.14,0.47-0.05,1-0.39,1.36s-0.82,0.56-1.29,0.68c0.88,0.69,1.77,1.37,2.65,2.06"/>
		<path class="st29" d="M164.56,49.86c-0.75-0.21-1.59,0.08-2.11,0.65c-0.52,0.57-0.74,1.39-0.67,2.16
			c0.02,0.24,0.08,0.48,0.24,0.66c0.14,0.15,0.34,0.22,0.54,0.27c1.14,0.27,2.43-0.33,2.96-1.38"/>
		<path class="st29" d="M166.62,49.62c1.48-0.05,2.96-0.1,4.44-0.14"/>
		<path class="st29" d="M147.35,50.8c-0.09,1.24-0.02,2.5,0.21,3.72"/>
		<path class="st29" d="M168.77,49.59c0.04,1.72,0.08,3.44,0.12,5.16"/>
		<g>
			<path class="st29" d="M156.59,54.04c-0.06-1.38,0.16-2.76,0.63-4.06c0.12-0.34,0.41-0.74,0.75-0.61
				c0.21,0.08,0.29,0.32,0.35,0.54c0.38,1.41,0.75,2.82,1.13,4.24"/>
			<path class="st29" d="M155.52,52.5c1.27-0.24,2.55-0.44,3.84-0.6"/>
		</g>
		<line class="st29" x1="132.91" y1="64.48" x2="168.55" y2="62.72"/>
		<path class="st29" d="M132.91,67.48c1.66-0.24,35.64-0.54,35.64-0.54"/>
		<path class="st29" d="M133.35,71.95c0.41-0.01,35.21-1.42,35.21-1.42"/>
		<path class="st29" d="M134.35,76.22c0.89-0.33,34.2-1.54,34.2-1.54"/>
		<path class="st29" d="M203.72,229.88c0-1.41,2.85-229.38,2.85-229.38L84.45,11.03V58.3"/>
		<circle class="st26" cx="188.35" cy="211.86" r="5.84"/>
		<path class="st26" d="M183.7,193.68c1.07,1.4,2.75,2.3,4.64,2.3c3.22,0,5.84-2.61,5.84-5.84c0-3.22-2.61-5.84-5.84-5.84
			c-2.28,0-4.26,1.31-5.22,3.22"/>
		<path class="st29" d="M189.4,209.51c-0.45-0.08-0.9-0.15-1.35-0.05s-0.87,0.38-1.01,0.81c-0.21,0.66,0.34,1.36,0.98,1.63
			c0.6,0.26,1.36,0.25,1.84-0.2c0.48-0.44,0.46-1.37-0.13-1.66"/>
		<path class="st29" d="M188.37,215.69c0.13-0.56,0.05-3.26-0.02-3.83"/>
		<path class="st26" d="M189.79,193.42c-8.04,0.34-16.08,0.69-24.12,1.03c-0.82,0.04-1.86-0.07-2.12-0.85
			c-0.08-0.24-0.06-0.51-0.04-0.77c0.07-0.76,0.13-1.52,0.2-2.28c8.05-1.42,15.96-2.57,24.12-3.01c0.39-0.02,0.84-0.02,1.11,0.26
			c0.2,0.21,0.25,0.51,0.28,0.79C189.41,190.11,189.87,191.89,189.79,193.42z"/>
		<line class="st29" x1="151.94" y1="80.09" x2="168.55" y2="80.09"/>
		<path class="st29" d="M153.72,85.13c0.18-0.14,15.05-0.76,15.05-0.76"/>
	</g>
	<rect x="-1.53" class="st22" width="242.02" height="237.14"/>
</g>
</svg>
