<?xml version="1.0" encoding="utf-8"?>
<!-- Generator: Adobe Illustrator 24.0.1, SVG Export Plug-In . SVG Version: 6.00 Build 0)  -->
<svg version="1.1" id="Layer_1" xmlns="http://www.w3.org/2000/svg" xmlns:xlink="http://www.w3.org/1999/xlink" x="0px" y="0px"
	 viewBox="0 0 594.47 443.26" style="enable-background:new 0 0 594.47 443.26;" xml:space="preserve">
<style type="text/css">
	.st0{fill:url(#SVGID_1_);}
	.st1{fill:#F7DFCF;}
	.st2{fill:#6A8FBA;}
	.st3{fill:#6B5641;}
	.st4{fill:#333333;}
	.st5{fill:#E6E6E6;}
	.st6{fill:#F2A391;}
	.st7{fill:#373F48;}
	.st8{fill:none;stroke:#333333;stroke-miterlimit:10;}
	.st9{fill:#FFFFFF;}
	.st10{fill:#C2DAE0;}
	.st11{fill:none;stroke:#333333;stroke-linecap:round;stroke-miterlimit:10;}
	.st12{fill:none;stroke:#333333;stroke-linecap:round;stroke-linejoin:round;stroke-miterlimit:10;}
	.st13{fill:#FFFFFF;stroke:#333333;stroke-miterlimit:10;}
	.st14{fill:url(#SVGID_2_);}
	.st15{fill:none;stroke:#4D4D4D;stroke-width:2;stroke-linecap:round;stroke-miterlimit:10;}
	.st16{fill:none;stroke:#4D4D4D;stroke-width:2;stroke-linecap:round;stroke-miterlimit:10;stroke-dasharray:0,8.007;}
	.st17{fill:url(#SVGID_3_);}
	.st18{fill:url(#SVGID_4_);}
	.st19{fill:url(#SVGID_5_);}
	.st20{fill:url(#SVGID_6_);}
	.st21{fill:#BFDCE0;}
	.st22{fill:none;stroke:#4D4D4D;stroke-width:2;stroke-linecap:round;stroke-miterlimit:10;stroke-dasharray:0,7.8722;}
	.st23{fill:none;stroke:#4D4D4D;stroke-width:2;stroke-linecap:round;stroke-miterlimit:10;stroke-dasharray:0,8.5451;}
	.st24{fill:url(#SVGID_7_);}
	.st25{fill:none;stroke:#4D4D4D;stroke-width:2;stroke-linecap:round;stroke-miterlimit:10;stroke-dasharray:0,8.0366;}
	.st26{fill:none;stroke:#4D4D4D;stroke-width:2;stroke-linecap:round;stroke-linejoin:round;stroke-miterlimit:10;}
	.st27{clip-path:url(#SVGID_9_);fill:#FFFFFF;}
	.st28{clip-path:url(#SVGID_9_);}
	.st29{clip-path:url(#SVGID_9_);fill:none;stroke:#333333;stroke-miterlimit:10;}
	.st30{fill:#F2A391;stroke:#333333;stroke-linecap:round;stroke-miterlimit:10;}
	.st31{fill:#CCCCCC;}
	.st32{clip-path:url(#SVGID_11_);}
	.st33{fill:#FFFFFF;stroke:#333333;stroke-linejoin:round;stroke-miterlimit:10;}
	.st34{fill:none;stroke:#FFB796;stroke-width:2;stroke-linecap:round;stroke-miterlimit:10;stroke-dasharray:43,8;}
	.st35{fill:none;stroke:#8178E6;stroke-width:2;stroke-linecap:round;stroke-miterlimit:10;}
	.st36{fill:none;stroke:#A7EBC9;stroke-width:2;stroke-linecap:round;stroke-miterlimit:10;stroke-dasharray:43,8;}
	.st37{fill:url(#SVGID_12_);}
	.st38{clip-path:url(#SVGID_9_);fill:#B6DCE0;}
	.st39{clip-path:url(#SVGID_9_);fill:#F2A193;}
	.st40{clip-path:url(#SVGID_9_);fill:url(#SVGID_13_);}
</style>
<g>
	<defs>
		<rect id="SVGID_8_" y="2.26" width="575.01" height="440.99"/>
	</defs>
	<clipPath id="SVGID_1_">
		<use xlink:href="#SVGID_8_"  style="overflow:visible;"/>
	</clipPath>
	<path style="clip-path:url(#SVGID_1_);fill:#FFFFFF;" d="M553.94,240.66l21.07,18.1V2.26H417.71l17.77,42.24
		C473.17,132.89,499.16,184.57,553.94,240.66z"/>
	<g style="clip-path:url(#SVGID_1_);">
		<g>
			<path class="st4" d="M416.51,0.65c8.15,19.7,16.43,39.35,24.92,58.9c9.4,21.64,18.98,43.24,29.47,64.39
				c11.22,22.6,24.24,44.42,38.63,65.15c11.07,15.95,23.19,31.25,36.9,45.02c8.16,8.2,16.98,15.58,25.84,23
				c0.8,0.67,1.59,1.34,2.38,2.01c0.49,0.42,1.2-0.29,0.71-0.71c-8.21-7.04-16.63-13.77-24.42-21.27
				c-13.17-12.69-24.9-26.8-35.62-41.61c-7.71-10.66-14.92-21.67-21.77-32.91c-6.51-10.68-12.78-21.52-18.49-32.64
				c-10.44-20.35-19.78-41.28-28.97-62.22c-8.96-20.43-17.66-40.98-26.22-61.58c-0.8-1.93-1.6-3.86-2.4-5.79
				C417.23-0.2,416.26,0.06,416.51,0.65L416.51,0.65z"/>
		</g>
	</g>
	<g style="clip-path:url(#SVGID_1_);">
		<g>
			<path class="st4" d="M473.34,30.22c1.17,4.6,2.75,9.08,4.48,13.49c2.14,5.46,4.52,10.82,7.03,16.12
				c2.91,6.14,5.99,12.2,9.18,18.2c3.46,6.51,7.05,12.96,10.73,19.35c3.85,6.68,7.8,13.29,11.83,19.86
				c4.06,6.6,8.2,13.15,12.43,19.64c4.1,6.29,8.28,12.53,12.54,18.7c3.99,5.77,8.05,11.48,12.22,17.12
				c3.65,4.94,7.39,9.83,11.25,14.61c3.19,3.95,6.46,7.84,9.91,11.56c0.71,0.77,1.43,1.53,2.16,2.28c0.45,0.46,1.16-0.25,0.71-0.71
				c-3.31-3.39-6.42-6.98-9.45-10.62c-3.79-4.57-7.45-9.26-11.02-14c-4.08-5.41-8.04-10.91-11.93-16.45
				c-4.25-6.06-8.41-12.19-12.5-18.37c-4.23-6.41-8.38-12.87-12.45-19.38c-4.1-6.57-8.11-13.19-12.02-19.87
				c-3.77-6.42-7.44-12.9-11-19.45c-3.3-6.07-6.5-12.2-9.54-18.41c-2.7-5.51-5.29-11.09-7.64-16.76c-1.92-4.63-3.71-9.33-5.13-14.14
				c-0.3-1-0.57-2.01-0.83-3.02C474.14,29.33,473.18,29.6,473.34,30.22L473.34,30.22z"/>
		</g>
	</g>
	<g style="clip-path:url(#SVGID_1_);">
		<g>
			<path class="st4" d="M513.46,0.09c-5.39,3.66-10.62,7.58-15.89,11.4c-6.59,4.78-13.16,9.57-19.73,14.37
				c-1.43,1.04-2.85,2.08-4.28,3.13c-0.33,0.24-0.33,0.79,0.12,0.91c1.99,0.53,3.98,1.06,5.97,1.59c4.44,1.19,8.88,2.37,13.32,3.56
				c4.53,1.21,9.06,2.42,13.59,3.63c1.58,0.42,3.16,0.84,4.74,1.27c0.73,0.19,1.47,0.46,2.21,0.59c0.43,0.08,0.74-0.26,1.07-0.51
				c0.73-0.57,1.46-1.13,2.19-1.7c2.74-2.12,5.48-4.25,8.22-6.37c3.75-2.9,7.49-5.81,11.24-8.71c3.91-3.03,7.81-6.05,11.72-9.08
				c3.21-2.49,6.43-4.98,9.64-7.47c1.68-1.3,3.35-2.6,5.03-3.89c0.08-0.06,0.15-0.12,0.23-0.18c0.51-0.39-0.2-1.1-0.71-0.71
				c-1.62,1.26-3.25,2.52-4.87,3.78c-3.88,3.01-7.76,6.02-11.65,9.03c-4.69,3.64-9.39,7.27-14.08,10.91
				c-4.06,3.14-8.11,6.29-12.17,9.43c-1.34,1.04-2.68,2.08-4.02,3.12c-0.61,0.47-1.37,0.91-1.9,1.47c-0.02,0.03-0.06,0.04-0.08,0.07
				c0.16-0.04,0.32-0.09,0.49-0.13c-4.51-1.2-9.03-2.41-13.54-3.61c-7.14-1.91-14.29-3.81-21.43-5.72
				c-1.64-0.44-3.29-0.88-4.93-1.32c0.04,0.3,0.08,0.61,0.12,0.91c3.99-2.92,7.99-5.83,11.98-8.74c6.93-5.05,13.87-10.1,20.83-15.12
				c2.35-1.69,4.69-3.4,7.09-5.03C514.49,0.59,514-0.28,513.46,0.09L513.46,0.09z"/>
		</g>
	</g>
	<path style="clip-path:url(#SVGID_1_);fill:none;stroke:#333333;stroke-miterlimit:10;" d="M513.71,40.06
		c0,0,42.12,86.28,62.95,96.16"/>
	<g style="clip-path:url(#SVGID_1_);">
		<path class="st6" d="M149.86,109.81c-9.49,2.23-22.95,10.57-28.14,16.42c-2.73,3.08-0.29,9.18,3.98,10.76
			c3.76,1.38,7.29,1.56,11.05,0c2.66-1.1,4.76-3.13,7.47-4.03c2.18-0.72,3.6-2.02,4.38-3.57c0.15-0.11,0.3-0.23,0.45-0.36
			c1.87-0.64,3,3.69,4.16,1.58c0.97-1.75,2.46-4.47,2.11-6.34C150.53,120.14,149.71,118.21,149.86,109.81z"/>
		<path class="st30" d="M144.9,128.43c-7.55-4.15-26.34-8.96-26.09,4.5c0.3,15.65,22.9,92.98,27.12,101.86
			c0.91,1.91,1.98,3.79,3.55,5.21c5.88,5.31,19.07,1.47,26.15-2.1"/>
		<g>
			<g>
				<path class="st4" d="M119.79,129.56c0.47-1.79,1.88-3.28,3.18-4.53c1.91-1.85,4.06-3.43,6.27-4.91
					c4.68-3.13,9.71-5.86,14.91-8.01c1.79-0.74,3.81-1.6,5.71-1.8c0.63-0.07,0.64-1.07,0-1c-1.78,0.18-3.51,0.86-5.16,1.51
					c-2.52,0.99-4.98,2.15-7.38,3.4c-5.14,2.66-10.31,5.71-14.57,9.65c-1.59,1.47-3.34,3.26-3.91,5.42
					C118.66,129.92,119.63,130.18,119.79,129.56L119.79,129.56z"/>
			</g>
		</g>
		<path class="st9" d="M298.22,76.39c-0.54-1.27-2.55-3.09-4.25,0.05c2.36-8.71-3.43-9.72-5.24-2.83c2.7-11.61-4.5-7.26-5.18,0.83
			c-1.08-10.95-6.58-8.1-6.53,2.31c0.01,1.27-0.7,5.13-1.04,6.33c-0.65,0.16-0.31-6.6-3.22-6.02c-3.6,0.72-2.71,10.89-2.25,13.67
			c0.69,4.13,4.85,7.76,4.85,7.76c-0.91,2.3-1.96,3.18-1.96,3.18c-6.33,2.19-10.96,19.02-17.78,19.7
			c-0.92-0.34-30.53-13.37-37.83-9.68c-0.16-1.22-0.04-4.54-5.02-7.72c-3-1.91,2.45-3.63,1.73-7.17c-0.62-3.02-1.58-17.32-1-20.29
			c1.47-7.48,0.19-7.63-3.78-14.44c-3.18-5.44-15.43-9.13-21.28-10.63c-6.09-1.57-29.61-0.15-39.5,25.59
			c-0.95,2.47-2.59,7.59-2.5,10.03c-3.73,1.02-3.68,6.42-3.84,8.26c-0.49,5.92,3.87,8.2,8.1,11.96c-0.74,2.6-1.15,4.89-0.96,7.11
			c0.65,7.55,4.74,8.35,5.7,9.95c-6.87,0.37-12.12,5.27-14.97,9.26c-6.98,9.79-9.33,22.5-6.32,34.04c0.12,3.7,1,7.28,1.98,10.86
			c4.02,14.66,14.99,18.3,25.62,18.49c1.12,7.74,2.26,13.86,6.05,18.3c-0.09,3.13,1.2,7.71,2.42,10.72
			c1.37,3.37,3.62,6.29,5.12,9.58c0,0,2.7,16.75,4.25,23.4c3.19,13.72,8.21,24.5,13.56,37.04c-0.64,1.66-1.18,3.36-1.66,5.08
			c-5.07,12.14-5.87,16.64-8.13,29.6c-7.05,11.31,0.41,36.91,5.63,43.34c5.86,7.22,17.15,8.43,21.5,0.29
			c3.48-6.52,2.5-10.37,2.16-17.53c-0.22-4.8-2.01-15.21-2.01-15.21c1.88-6.79,9.93-22,12.81-28.38c3.87-8.55,3.88-20.87,2.76-30.05
			c-0.75-6.14-4.98-34.63-6.58-42.03c3.98,4.45,5.63,14.2,17.98,18.14c0,0,9.34,7.62,17.04,14.17c-1.49,4.96-2.6,11.41-4.09,16.37
			c-2.2,5.18-4.01,10.51-5.19,16.06c0,0-4.52,4.8-5.53,5.37c-3.27,1.84-1.34,6.41-0.41,9.59c2.38,8.1,5.64,11.8,9.59,19.26
			c3.48,6.57,12.51,18.18,16.58,17.6c0.84-0.12,11.64-1.52,13.83-12.16c2.13-10.37-3.05-19.06-6.47-24.53c0,0,3.48-7.21,3.79-9.77
			c0.27-2.2,1.55-4.35,2.37-6.36c2.15-5.29,3.95-10.74,5.48-16.25c0,0,7.67-17.57,3.68-25.66c-5.69-11.52-13.43-21.87-22.65-30.76
			c-5.71-8.48-11.21-14.2-18-21.86c-0.4-0.45-0.53-8.07-3.64-12.24c3.36-1.47,0.69-24.63-0.42-31.69
			c-0.56-3.6-2.45-10.29-3.31-13.84c0.51,0.21,13.27,5.21,15.62,5.86c5.08,1.4,12.74-0.63,17.3-3.34
			c8.24-4.89,11.04-14.01,14.71-22.64c4.14-9.72,5.25-20.49,2.9-23.91c0,0-1.29-2.46,0.09-4.44
			C294.94,98.24,299.72,79.91,298.22,76.39z M166.46,87.71c-1.66-2.28-1.79-1.72-0.94-4.16c1.83-5.22,4.65-9.96,8.29-14.11
			c1.3-1.48,2.88-3.46,4.75-4.22c0.13-0.04,0.24-0.08,0.32-0.11c0.82,0.1,1.63,0.24,2.42,0.43c1.15,0.25,2.29,0.56,3.42,0.87
			c6.91,1.9,16.27,5.12,15.43,13.45c-0.6,6.04-2.67,11.66-1.9,17.84c0.37,2.96,1.24,5.75,2.38,8.44c-3.67,1.03-7.28,2.24-10.75,3.84
			c-2.51,1.16-4.84,2.49-7.03,3.97c-0.17-0.41-0.36-0.82-0.58-1.22c-3.08-5.64-6.36-11.16-9.9-16.52
			C170.48,93.34,168.5,90.51,166.46,87.71z"/>
		<path class="st31" d="M212.98,361.28c-0.05-3.58-0.41-7.13-0.92-10.67c-0.4-2.74-1.34-9.61-1.34-9.61l2.56-7.17
			c-9.73,5.93-22.71-7.22-23.01-7.53c-0.92-0.95-4.54-7.45-4.54-7.45c-0.72,4.18-1.75,7.49-2.37,11.88
			c-3.04,5.44-4.15,13.65-1.87,23.75c5.85,25.89,16.44,26.57,21.18,25.51C213.28,376.26,213.07,367.69,212.98,361.28z"/>
		<path class="st31" d="M281.85,297.57c0,0-6.41,5.02-16.39,0.6c-2.88-1.27-5.45-1.99-7.55-3.69c-4.71-3.81-7.29-8.72-7.29-8.72
			c-1.29,3.18-3.09,10.73-3.71,14.11c-0.31,1.67-0.69,3.54-0.84,5.38c-1.04,0.35-1.98,1.14-2.61,2.48
			c-0.84,1.77-3.69,3.25-4.77,4.91c-1.47,2.27-3.36,8.63,15.95,31.15c1.57,2.69,10.17,9.06,12.91,9.32
			c13.01,1.22,17.68-13.6,5.41-32.07C273.38,320.54,281.85,297.57,281.85,297.57z"/>
		<path class="st31" d="M183.37,166.42c0,0-5.85,1.44-7.29,9.99c-0.69,4.11,0.35,8.34,1.71,12.14c0.15,0.42,0.5,1.29,0.5,1.29
			c1.35,0.13,3.61-0.72,4.55-1.69c0.15-0.15,0.24-0.36,0.28-0.57c1.21,0.06,1.58-1.56,0.39-2.03c-0.28-0.11-1.3-0.2-2.49-2.15
			c-0.35-1.98-0.24-4.2,0.12-6.1c0.41-2.1,1.15-4.11,2.29-5.89c0.65-0.62,2.69-2.41,3.46-2.89
			C186.89,168.51,184.22,166.5,183.37,166.42z"/>
		<path class="st31" d="M289.87,103.35c-0.15-0.18-0.31-0.34-0.51-0.47c-0.57-0.38-1.25-0.5-1.91-0.65
			c-0.72-0.16-1.44-0.32-2.15-0.49l-1.9-0.43c-0.33-0.12-0.66-0.25-0.99-0.36c-0.59-0.2-1.18-0.38-1.78-0.55
			c-0.32-0.12-0.63-0.23-0.95-0.35c-0.71-0.26-1.43-0.53-2.14-0.79c-0.67-0.24-1.39-0.48-2.06-0.09c-0.14,0.08-0.25,0.18-0.36,0.27
			c-0.17,0.01-1.49,1.78-1.49,1.78c0.22,0.79,4.74,1.28,6.05,1.57c0.6,0.14,1.62,0.9,2.22,1.04c0.45,0.17,0.91,0.34,1.35,0.52
			c1.06,0.44,2.84,0.6,3.77,1.27c0.94,0.67,2.85,1.93,2.85,1.93c0.95,0.19,0.47-0.34,0.56-1.28l0.35-2.23
			C290.85,103.32,290.54,103.4,289.87,103.35z"/>
		<g>
			<defs>
				<path id="SVGID_10_" d="M154.94,100.79c2.55,5.23,12.69,16.75,38.41,13.42c4.29-0.56,8.69-1.65,12.33-4
					c4.92-3.17,13.37-11.44,8.6-30.85c-2.09-8.5-7.84-16.37-16.04-19.44c0,0-30.44-14.39-44.63,17.84
					c-1.23,2.79-2.91,12.11-2.91,12.11C153.13,91.21,155.94,95.23,154.94,100.79"/>
			</defs>
			<use xlink:href="#SVGID_10_"  style="overflow:visible;fill:#333333;"/>
			<clipPath id="SVGID_2_">
				<use xlink:href="#SVGID_10_"  style="overflow:visible;"/>
			</clipPath>
			<g style="clip-path:url(#SVGID_2_);">
				<path class="st3" d="M159.51,105.71c2.83-10.42-0.86-30.57,6.42-35.04c2.09-3.61,5.9-6.42,10.33-7.53
					c7.15-1.79,17.92-1.36,23.92,5.43c3.13,3.55,5.83,8.41,6.48,13.05c1.79,12.72,6.43,18.91,6.43,18.91
					c-6.06,6.87-16.62,8.39-16.62,8.39c-0.98-4.34-3.2-15.95-4.16-20.34c-0.57-2.61-1.32-5.16-2.45-7.59
					c-0.1-0.22-5.29-8.38-5.85-6.3c-0.27,1.02-0.79,1.72-1.44,2.17c-0.22,2.38-1.36,4.75-2.21,6.83c-1.29,3.2-2.55,6.22-3.16,9.54
					c-0.11,0.78-0.22,1.57-0.32,2.35c-0.34,2.47-2.22,3.64-4.13,3.67c-0.07,1.65-0.06,1.42,1.77,2.85c1.55,1.2,3.59,2.04,5.29,3
					c2.71,1.53,3.05,7.27,0.17,8.31c-6.23,2.26-16.27,0.8-22.42-1.78C157.55,111.64,158.75,108.52,159.51,105.71z"/>
				<path class="st1" d="M175.46,95.31c0.59-1.53-0.63-2.5-0.17-3.9c0.1-0.3,3.77-5.28,4.49-8.94c0.13-0.67,0.41-7.41,0.41-7.41
					c2.93-2.03,11.88-4.6,17.28,1.42c1.59,1.56,3.18,3.09,3.34,4.68c0.69,6.86,4.48,13.44,2.29,20.43
					c-1.11,3.53-3.94,6.25-6.64,7.33l1.96,7.62c-1.3,3.76-5.69,5.06-8.98,6.83c-2.24,1.21-8.63-3.2-8.63-3.2s-3.17-11.68-3.17-16.89
					c-1.87,0.87-4.64,1.31-6.89-0.74C167.2,99.28,169.85,91.01,175.46,95.31z"/>
				<g>
					<path class="st12" d="M182.78,108.05c5.25,2.06,11.24,2.86,17.26-1.38c6.01-4.23,3.69-12.89,2.64-17.53
						c-0.77-3.4-2.49-9.87-2.49-9.87s-2.64-3.14-5.31-4.79c-5.89-4.16-14.68,0.58-14.68,0.58s0.64,5.99-1.3,9.33
						c-3.11,5.35-4.07,6.55-3.24,10.61c-3.46-2.78-6.84-0.15-6.33,4.01c0.23,1.89,1.96,5.81,8.32,4.27
						c1.39,7.15,3.17,16.89,3.17,16.89l17.62-3.63l-1.96-7.62c12.06-0.08,17.62-6.82,17.62-6.82s-6.22-7.89-7.43-20.48
						c-1.06-11.09-9.1-18.23-22.07-19.23c-12.97-1-18.66,8.28-18.66,8.28"/>
					<g>
						<g>
							<path class="st4" d="M188.16,83.78c-0.78-0.26-1.64-0.3-2.44-0.07c-0.78,0.23-1.47,0.7-2.02,1.29
								c-0.43,0.47,0.27,1.18,0.71,0.71c0.44-0.48,0.97-0.86,1.58-1.03c0.63-0.19,1.26-0.15,1.9,0.07c0.26,0.09,0.55-0.1,0.62-0.35
								C188.59,84.12,188.42,83.86,188.16,83.78L188.16,83.78z"/>
						</g>
					</g>
					<g>
						<g>
							<path class="st4" d="M190.3,100.27c2.38,1.2,5.51,0.99,7.46-0.94c0.46-0.45-0.25-1.16-0.71-0.71
								c-1.62,1.6-4.27,1.79-6.25,0.79C190.23,99.12,189.73,99.98,190.3,100.27L190.3,100.27z"/>
						</g>
					</g>
					<g>
						<g>
							<path class="st4" d="M196.71,81.93c-0.45-0.19-1.01-0.19-1.48-0.13c-0.65,0.07-1.31,0.25-1.84,0.65
								c-0.21,0.16-0.34,0.44-0.18,0.68c0.13,0.21,0.46,0.35,0.68,0.18c0.11-0.08,0.23-0.16,0.35-0.22
								c0.06-0.03,0.13-0.06,0.19-0.09c-0.06,0.03-0.03,0.01,0.02,0c0.03-0.01,0.07-0.02,0.1-0.04c0.13-0.05,0.27-0.08,0.4-0.11
								c0.07-0.01,0.13-0.03,0.2-0.04c0.01,0,0.13-0.02,0.05-0.01c-0.08,0.01,0.05-0.01,0.05-0.01c0.24-0.02,0.48-0.03,0.72-0.01
								c0.03,0,0.05,0.01,0.08,0.01c0.11,0.01-0.08-0.02-0.02,0c0.05,0.01,0.1,0.02,0.14,0.03c0.09,0.02,0.17,0.04,0.25,0.08
								c0.24,0.1,0.56-0.11,0.62-0.35C197.13,82.25,196.97,82.04,196.71,81.93L196.71,81.93z"/>
						</g>
					</g>
					<g>
						<g>
							<g>
								<path class="st4" d="M186.94,88.65c0.06-0.14,0.14-0.27,0.23-0.39c-0.03,0.03-0.05,0.07-0.08,0.1
									c0.07-0.09,0.16-0.18,0.25-0.26c0.05-0.05,0.08-0.1,0.1-0.16c0.03-0.06,0.05-0.12,0.04-0.19c0-0.07-0.01-0.13-0.04-0.19
									c-0.02-0.06-0.05-0.12-0.1-0.16c-0.1-0.09-0.22-0.15-0.35-0.15c-0.04,0.01-0.09,0.01-0.13,0.02
									c-0.08,0.02-0.16,0.07-0.22,0.13c-0.13,0.12-0.24,0.25-0.35,0.39c-0.08,0.11-0.15,0.23-0.2,0.36
									c-0.04,0.06-0.06,0.12-0.06,0.19c-0.01,0.07-0.01,0.13,0.01,0.2c0.02,0.07,0.05,0.12,0.09,0.17
									c0.04,0.05,0.08,0.1,0.14,0.13c0.12,0.06,0.26,0.09,0.39,0.05c0.04-0.02,0.08-0.03,0.12-0.05
									C186.84,88.79,186.9,88.73,186.94,88.65L186.94,88.65z"/>
							</g>
						</g>
						
							<ellipse transform="matrix(0.969 -0.2469 0.2469 0.969 -16.3681 48.811)" class="st4" cx="186.42" cy="89.66" rx="1.51" ry="1.89"/>
					</g>
					<g>
						<g>
							<g>
								<path class="st4" d="M196.36,86.51c0.06-0.14,0.14-0.27,0.23-0.39c-0.03,0.03-0.05,0.07-0.08,0.1
									c0.07-0.09,0.16-0.18,0.25-0.26c0.05-0.05,0.08-0.1,0.1-0.16c0.03-0.06,0.05-0.12,0.04-0.19c0-0.07-0.01-0.13-0.04-0.19
									c-0.02-0.06-0.05-0.12-0.1-0.16c-0.1-0.09-0.22-0.15-0.35-0.15c-0.04,0.01-0.09,0.01-0.13,0.02
									c-0.08,0.02-0.16,0.07-0.22,0.13c-0.13,0.12-0.24,0.25-0.35,0.39c-0.08,0.11-0.15,0.23-0.2,0.36
									c-0.04,0.06-0.06,0.12-0.06,0.19c-0.01,0.07-0.01,0.13,0.01,0.2c0.02,0.07,0.05,0.12,0.09,0.17
									c0.04,0.05,0.08,0.1,0.14,0.13c0.12,0.06,0.26,0.09,0.39,0.05c0.04-0.02,0.08-0.03,0.12-0.05
									C196.26,86.64,196.32,86.58,196.36,86.51L196.36,86.51z"/>
							</g>
						</g>
						
							<ellipse transform="matrix(0.969 -0.2469 0.2469 0.969 -15.5468 51.0699)" class="st4" cx="195.84" cy="87.52" rx="1.51" ry="1.89"/>
					</g>
					<path class="st11" d="M192.99,93.41c0,0,1.04-0.89,1.8-0.24c0.76,0.65,0.65,1.3-0.23,2.32"/>
					<path class="st11" d="M165.93,70.66c0,0-5.59,3.74-4.57,16.94c0.53,6.84-3.8,24.03-3.8,24.03s10.37,4.96,22.03,1.91"/>
				</g>
			</g>
		</g>
		<g>
			<g>
				<path class="st4" d="M154.51,101.04c1.71,3.48,4.68,6.33,7.88,8.45c5.68,3.77,12.54,5.39,19.27,5.74
					c4.86,0.25,9.84-0.07,14.62-0.98c3.97-0.76,7.86-2.14,11.09-4.61c4.28-3.27,7.09-8.01,8.2-13.27c0.85-4.07,0.76-8.26,0.15-12.36
					c-0.68-4.61-1.97-9.1-4.32-13.14c-2.18-3.75-5.19-7.06-8.87-9.38c-1.51-0.95-3.14-1.65-4.79-2.33
					c-2.81-1.16-5.78-1.95-8.78-2.43c-4.9-0.79-9.97-0.7-14.77,0.65c-6.18,1.74-11.48,5.58-15.41,10.63
					c-1.22,1.57-2.32,3.22-3.3,4.95c-0.97,1.71-1.94,3.5-2.6,5.35c-1.06,2.98-1.62,6.16-2.23,9.26c-0.14,0.72-0.28,1.45-0.41,2.18
					c-0.04,0.22,0.03,0.45,0.23,0.56c3.52,1.99,4.65,6.61,4.01,10.35c-0.11,0.63,0.85,0.9,0.96,0.27c0.72-4.17-0.53-9.25-4.47-11.48
					c0.08,0.19,0.15,0.38,0.23,0.56c0.41-2.28,0.87-4.55,1.39-6.8c0.34-1.49,0.7-2.99,1.19-4.44c0.61-1.79,1.55-3.51,2.47-5.15
					c3.32-5.9,8.07-11.01,14.3-13.85c4.65-2.12,9.83-2.81,14.91-2.45c3.58,0.26,7.14,1.03,10.53,2.24c0.46,0.16,0.92,0.34,1.37,0.52
					c0.07,0.03,0.15,0.06,0.22,0.09c-0.06-0.03,0,0,0.11,0.05c0.08,0.04,0.17,0.08,0.25,0.11c1.15,0.5,2.29,0.97,3.38,1.6
					c1.86,1.08,3.56,2.43,5.07,3.97c3.01,3.07,5.25,6.88,6.64,10.93c1.49,4.34,2.23,9.1,2.17,13.69
					c-0.08,5.99-1.91,11.96-6.15,16.32c-5.44,5.58-13.43,6.94-20.92,7.37c-7.4,0.42-15.13-0.36-21.86-3.65
					c-3.87-1.89-7.48-4.65-9.88-8.27c-0.37-0.56-0.71-1.14-1-1.74C155.09,99.95,154.23,100.46,154.51,101.04L154.51,101.04z"/>
			</g>
		</g>
		<g>
			<g>
				<path class="st4" d="M156.41,128.78c2.99,2.25,3.97,6.45,4.39,9.96c0.22,1.85,0.29,3.71,0.27,5.57
					c-0.01,0.75-0.12,1.53-0.08,2.28c0.02,0.5,0.45,0.79,0.76,1.16c0.45,0.52,0.86,1.06,1.25,1.62c1.63,2.36,2.74,5.03,3.28,7.85
					c0.12,0.63,1.08,0.36,0.96-0.27c-0.76-3.97-2.65-7.65-5.41-10.6c0.05,0.12,0.1,0.24,0.15,0.35c0.15-2.52,0.14-5.06-0.13-7.57
					c-0.3-2.74-0.86-5.55-2.19-8c-0.68-1.26-1.59-2.37-2.74-3.23C156.4,127.53,155.9,128.4,156.41,128.78L156.41,128.78z"/>
			</g>
		</g>
		<g>
			<g>
				<path class="st4" d="M155.82,163.78c1-1.33,2.62-1.89,4.17-2.27c0.97-0.24,1.95-0.49,2.96-0.49c1.96-0.01,3.93,0.43,5.83,0.88
					c4.67,1.12,9.3,2.69,13.69,4.65c0.89,0.4,1.77,0.82,2.62,1.29c0.53,0.3,1.07,0.59,1.46,1.02c0.43,0.48,1.14-0.23,0.71-0.71
					c-0.91-1.02-2.44-1.62-3.65-2.18c-2.18-1.02-4.43-1.89-6.7-2.68c-2.47-0.87-4.98-1.65-7.52-2.28c-2.05-0.5-4.18-0.98-6.29-1
					c-1.2-0.01-2.38,0.28-3.54,0.57c-1.78,0.45-3.46,1.18-4.59,2.68C154.57,163.79,155.43,164.29,155.82,163.78L155.82,163.78z"/>
			</g>
		</g>
		<g>
			<g>
				<path class="st4" d="M199.81,175.97c3.52,0.67,7,1.96,9.86,4.15c0.83,0.63,1.64,1.36,2.28,2.19c0.65,0.86,1.06,2.11,0.22,3.08
					c-1.03,1.21-3.77,0.6-4.61-0.6c-0.37-0.52-1.23-0.02-0.86,0.5c0.97,1.39,3.13,1.96,4.74,1.63c1.9-0.39,2.64-2.62,1.89-4.28
					c-0.39-0.88-1.12-1.63-1.82-2.28c-1.2-1.12-2.59-2.06-4.04-2.83c-2.32-1.23-4.83-2.05-7.4-2.54
					C199.45,174.89,199.18,175.85,199.81,175.97L199.81,175.97z"/>
			</g>
		</g>
		<g>
			<g>
				<path class="st4" d="M196.81,180.01c3.33,0.79,7.06,2.16,9.41,4.76c1,1.11,2.06,2.8,1.8,4.37c-0.15,0.87-0.83,1.38-1.7,1.37
					c-0.99-0.01-1.82-0.59-2.55-1.19c-1.68-1.39-3.37-2.67-5.36-3.6c-0.58-0.27-1.09,0.59-0.5,0.86c1.04,0.49,2.04,1.06,2.99,1.73
					c0.92,0.65,1.75,1.41,2.64,2.09c1.41,1.08,3.77,1.79,5.01,0.05c1.09-1.52,0.28-3.67-0.61-5.08c-1-1.58-2.46-2.8-4.07-3.72
					c-2.09-1.2-4.44-2.06-6.79-2.61C196.45,178.9,196.19,179.87,196.81,180.01L196.81,180.01z"/>
			</g>
		</g>
		<g>
			<g>
				<path class="st4" d="M183.16,185.85c1.91,1.66,4.24,2.26,6.63,2.89c1.18,0.32,2.37,0.67,3.45,1.24
					c1.19,0.63,1.99,1.54,2.95,2.45c1.34,1.27,3.62,2.18,4.94,0.38c0.39-0.54,0.48-1.07,0.44-1.72c-0.08-1.1-0.26-1.97-0.91-2.87
					c-1.51-2.08-3.33-3.54-5.71-4.54c-0.59-0.25-0.85,0.72-0.27,0.96c1.82,0.76,3.36,1.86,4.6,3.41c0.28,0.35,0.55,0.72,0.81,1.09
					c0.3,0.44,0.39,0.92,0.44,1.44c0.06,0.56,0.17,1.07-0.15,1.56c-1.22,1.89-3.42-0.37-4.38-1.34c-1.5-1.53-3.45-2.34-5.49-2.9
					c-2.34-0.65-4.75-1.12-6.64-2.76C183.39,184.73,182.68,185.43,183.16,185.85L183.16,185.85z"/>
			</g>
		</g>
		<g>
			<g>
				<path class="st4" d="M181.65,183.86c-0.54-4.12,0.28-8.71,2.61-12.2c0.81-1.21,1.94-2.45,3.36-2.89
					c1.15-0.36,2.41-0.35,3.6-0.29c3.34,0.18,6.67,1.01,9.87,1.96c2.98,0.88,5.97,1.9,8.74,3.3c1.6,0.8,3.31,1.87,4.26,3.42
					c0.46,0.75,0.43,1.39-0.24,1.98c-0.97,0.86-2.29,0.83-3.43,0.36c-0.59-0.25-0.85,0.72-0.27,0.96c1.76,0.73,4.29,0.35,5.12-1.6
					c0.8-1.87-1.5-3.74-2.79-4.69c-2.48-1.84-5.61-2.89-8.51-3.87c-3.61-1.22-7.34-2.23-11.13-2.68c-1.49-0.18-3.02-0.27-4.51-0.04
					c-1.46,0.22-2.69,0.95-3.71,2.01c-1.66,1.72-2.71,4.02-3.36,6.3c-0.73,2.57-0.98,5.31-0.63,7.97
					C180.73,184.49,181.73,184.49,181.65,183.86L181.65,183.86z"/>
			</g>
		</g>
		<g>
			<g>
				<path class="st4" d="M138.47,185.82c2.97,5.61,8.65,9.02,14.7,10.42c7.14,1.65,14.65,0.28,20.74-3.82
					c0.9-0.61,1.8-1.27,2.81-1.69c1.05-0.43,2.17-0.41,3.26-0.62c1.95-0.38,3.64-1.51,4.84-3.07c0.39-0.51-0.48-1.01-0.86-0.5
					c-1.06,1.38-2.63,2.32-4.34,2.63c-0.93,0.17-1.88,0.17-2.78,0.46c-0.83,0.27-1.59,0.7-2.31,1.17c-1.55,1.01-3.05,2.02-4.74,2.8
					c-1.71,0.79-3.51,1.39-5.34,1.79c-5.98,1.3-12.54,0.28-17.86-2.74c-3.06-1.74-5.6-4.22-7.25-7.34
					C139.03,184.75,138.16,185.25,138.47,185.82L138.47,185.82z"/>
			</g>
		</g>
		<g>
			<g>
				<path class="st4" d="M139.33,185.32c-2.65-3.99-3.72-8.9-4.61-13.54c-0.97-5.01-1.44-10.13-1.18-15.23
					c0.46-9.03,3.39-18.16,9.4-25.05c3.39-3.89,8.36-7.09,13.73-6.67c0.64,0.05,0.64-0.95,0-1c-4.72-0.37-9.48,2.04-12.81,5.24
					c-3.33,3.21-5.89,7.24-7.71,11.47c-3.96,9.22-4.38,19.45-2.8,29.26c0.46,2.86,1.07,5.7,1.86,8.49c0.75,2.64,1.73,5.23,3.25,7.53
					C138.82,186.35,139.69,185.85,139.33,185.32L139.33,185.32z"/>
			</g>
		</g>
		<g>
			<g>
				<path class="st4" d="M217.82,112.09c2.32-0.56,4.7-0.82,7.08-0.48c2.13,0.3,4.19,0.98,6.24,1.58c2.58,0.76,5.2,1.36,7.77,2.15
					c2.59,0.8,5.14,1.72,7.66,2.72c2.93,1.16,5.81,2.41,8.69,3.67c0.58,0.26,1.09-0.61,0.5-0.86c-5.15-2.25-10.33-4.49-15.7-6.2
					c-2.66-0.85-5.39-1.47-8.07-2.25c-2.15-0.63-4.28-1.35-6.5-1.71c-2.68-0.43-5.33-0.21-7.96,0.43
					C216.93,111.27,217.2,112.24,217.82,112.09L217.82,112.09z"/>
			</g>
		</g>
		<g>
			<g>
				<path class="st4" d="M255.65,121.85c1.83-0.9,3.59-1.98,4.95-3.52c1.21-1.38,2.08-3,3.01-4.57c0.65-1.11,1.36-2.19,2.03-3.29
					c0.79-1.29,1.53-2.61,2.42-3.83c1.6-2.23,3.9-4.26,6.78-4.32c1.51-0.03,2.97,0.42,4.4,0.87c0.98,0.31,1.96,0.62,2.93,0.95
					c2.16,0.75,4.35,1.6,6.25,2.9c0.82,0.56,1.59,1.23,2.1,2.09c0.58,0.97,0.87,2.11,0.99,3.23c0.25,2.41-0.15,4.85-0.66,7.2
					c-1.04,4.75-2.38,9.47-4,14.05c-1.71,4.81-3.83,9.59-6.92,13.69c-1.45,1.92-3.19,3.73-5.01,5.32c-1.89,1.65-4.03,3.03-6.36,3.97
					c-7.84,3.14-16.54,1.03-23.92-2.36c-1.44-0.66-2.84-1.38-4.23-2.14c-0.56-0.31-1.07,0.55-0.5,0.86c8,4.38,17.7,7.93,26.85,5.31
					c4.84-1.38,8.62-4.43,12-8.03c3.51-3.74,5.91-8.4,7.82-13.12c1.97-4.87,3.43-9.94,4.7-15.03c0.57-2.3,1.1-4.64,1.25-7.01
					c0.15-2.28-0.02-4.83-1.37-6.76c-1.23-1.77-3.29-2.87-5.21-3.73c-2.07-0.93-4.23-1.64-6.4-2.32c-2.78-0.88-5.58-1.42-8.28,0.03
					c-2.54,1.38-4.19,3.83-5.64,6.23c-1.32,2.19-2.66,4.38-3.98,6.57c-0.95,1.58-2.01,3.03-3.5,4.13c-0.94,0.7-1.97,1.26-3.02,1.78
					C254.57,121.27,255.08,122.13,255.65,121.85L255.65,121.85z"/>
			</g>
		</g>
		<g>
			<g>
				<path class="st4" d="M283.05,79.64c0.11-2.47,0.46-4.92,0.54-7.39c0.06-1.85,0.29-4.78-2.12-5.19c-0.89-0.15-1.97,0.03-2.6,0.73
					c-0.52,0.58-0.8,1.38-1.03,2.12c-0.72,2.31-1,4.75-1.34,7.13c-0.4,2.8-0.71,5.65-1.42,8.4c-0.17,0.64,0.74,0.85,0.96,0.27
					c0.51-1.32,0.4-2.85,0.2-4.22c-0.19-1.34-0.5-2.82-1.23-3.98c-0.8-1.29-2.38-1.82-3.62-0.82c-0.86,0.7-1.47,1.75-1.6,2.85
					c-0.26,2.24-0.05,4.58,0.08,6.82c0.12,1.93,0.15,3.96,0.53,5.86c0.31,1.54,1.57,2.85,2.57,3.98c0.34,0.38,0.67,0.76,0.99,1.16
					c0.29,0.36,0.74,0.85,0.87,1.3c0.14,0.48-0.8,1.32-1.1,1.68c-0.42,0.52-0.83,1.04-1.25,1.56c-0.4,0.5,0.31,1.21,0.71,0.71
					c0.66-0.83,1.32-1.65,1.98-2.48c0.53-0.66,0.95-1.13,0.52-1.98c-0.77-1.5-2.09-2.64-3.12-3.96c-0.59-0.76-1.14-1.68-1.26-2.59
					c-0.11-0.85-0.18-1.7-0.25-2.56c-0.19-2.34-0.34-4.68-0.36-7.02c-0.01-0.84-0.03-1.72,0.09-2.56c0.06-0.43,0.13-0.53,0.35-0.91
					c0.38-0.66,1.06-1.62,1.94-1.39c1.38,0.36,1.77,2.45,2.01,3.61c0.31,1.47,0.52,3.22-0.03,4.66c0.32,0.09,0.64,0.18,0.96,0.27
					c1.17-4.52,1.33-9.25,2.32-13.81c0.19-0.85,0.39-1.72,0.73-2.53c0.26-0.63,0.56-1.13,1.26-1.3c0.96-0.22,1.87,0.13,2.09,1.12
					c0.21,0.91,0.17,1.9,0.15,2.83c-0.07,2.55-0.43,5.08-0.55,7.62C282.02,80.28,283.02,80.28,283.05,79.64L283.05,79.64z"/>
			</g>
		</g>
		<g>
			<g>
				<path class="st4" d="M288.37,78.1c0.49-1.43,0.81-2.94,1.19-4.4c0.37-1.41,0.72-3.19,1.93-4.14c0.31-0.25,0.71-0.41,1.1-0.33
					c0.83,0.17,1.13,1.05,1.21,1.79c0.21,1.84-0.05,3.78-0.37,5.59c-0.37,2.08-0.9,4.2-1.77,6.14c-0.26,0.58,0.6,1.09,0.86,0.5
					c0.89-1.96,1.45-4.07,1.84-6.19c0.38-2.05,0.7-4.27,0.41-6.36c-0.21-1.45-1.38-2.86-2.97-2.41c-1.61,0.45-2.4,2.36-2.83,3.81
					c-0.56,1.9-0.91,3.87-1.56,5.74C287.2,78.44,288.16,78.71,288.37,78.1L288.37,78.1z"/>
			</g>
		</g>
		<g>
			<g>
				<path class="st4" d="M294.09,78.6c0.29-1.12,0.59-2.26,1.07-3.31c0.23-0.5,0.51-1.09,0.96-1.43c0.42-0.31,1-0.26,1.42,0.04
					c0.5,0.36,0.67,1,0.83,1.56c0.16,0.54,0.17,1.03,0.16,1.68c-0.01,1.04-0.09,2.09-0.19,3.13c-0.28,2.88-0.76,5.75-1.36,8.58
					c-0.63,2.96-1.39,5.92-2.5,8.74c-0.49,1.24-1.06,2.48-1.82,3.58c-0.5,0.73-1.17,1.51-2.02,1.77c-0.16,0.05-0.31,0.18-0.35,0.35
					c-0.17,0.77-0.29,1.55-0.37,2.33c-0.1,0.95-0.26,2.26,0.33,3.09c0.36,0.52,1.23,0.03,0.86-0.5c-0.49-0.7-0.26-1.93-0.17-2.72
					c0.07-0.65,0.18-1.29,0.32-1.93c-0.12,0.12-0.23,0.23-0.35,0.35c2.09-0.63,3.27-3.1,4.07-4.93c1.31-2.98,2.16-6.16,2.85-9.34
					c0.68-3.09,1.2-6.23,1.51-9.38c0.17-1.74,0.43-3.65-0.09-5.36c-0.26-0.84-0.67-1.65-1.51-2.04c-0.63-0.29-1.39-0.31-2,0.04
					c-0.62,0.35-1.03,1-1.33,1.62c-0.59,1.2-0.95,2.51-1.29,3.8C292.97,78.96,293.93,79.23,294.09,78.6L294.09,78.6z"/>
			</g>
		</g>
		<g>
			<g>
				<path class="st4" d="M256.46,124.59c2.67,4.32,5.53,8.84,10.08,11.39c0.56,0.32,1.07-0.55,0.5-0.86
					c-4.39-2.47-7.14-6.86-9.72-11.03C256.99,123.53,256.12,124.04,256.46,124.59L256.46,124.59z"/>
			</g>
		</g>
		<g>
			<g>
				<path class="st4" d="M253.92,129.17c-0.64,5-1.25,10.26,0.65,15.08c0.23,0.59,1.2,0.33,0.96-0.27
					c-1.87-4.73-1.24-9.9-0.61-14.81C255,128.53,254,128.54,253.92,129.17L253.92,129.17z"/>
			</g>
		</g>
		<g>
			<g>
				<path class="st4" d="M273.01,113.29c3.26,1.95,6.91,3.13,10.7,3.5c0.64,0.06,0.64-0.94,0-1c-3.6-0.35-7.08-1.51-10.19-3.36
					C272.96,112.09,272.45,112.96,273.01,113.29L273.01,113.29z"/>
			</g>
		</g>
		<g>
			<g>
				<path class="st4" d="M275.3,99.25c5.05,1.33,10.05,2.84,15,4.51c0.61,0.21,0.87-0.76,0.27-0.96c-4.95-1.67-9.95-3.17-15-4.51
					C274.95,98.12,274.68,99.09,275.3,99.25L275.3,99.25z"/>
			</g>
		</g>
		<g>
			<g>
				<path class="st4" d="M178.57,189.08c-1.26-2.21-1.87-4.9-2.13-7.41c-0.36-3.5,0.09-7.17,2-10.2c1.26-2,3.09-3.53,5.18-4.62
					c0.57-0.3,0.07-1.16-0.5-0.86c-3.76,1.98-6.44,5.33-7.37,9.5c-0.75,3.38-0.46,6.98,0.46,10.3c0.36,1.3,0.82,2.62,1.49,3.8
					C178.02,190.15,178.89,189.64,178.57,189.08L178.57,189.08z"/>
			</g>
		</g>
		<g>
			<path class="st31" d="M149.09,93.24c2.47,0.86,3.36,3.3,2.1,5.59c-1.91,3.45-5.6,0.67-5.47-2.46
				C145.88,92.43,149.09,93.24,149.09,93.24z"/>
			<g>
				<path class="st4" d="M148.96,93.73c1.47,0.52,2.47,1.84,2.28,3.44c-0.1,0.8-0.49,1.65-1.07,2.21c-0.21,0.21-0.49,0.39-0.74,0.47
					c-0.25,0.08-0.55,0.1-0.77,0.06c-0.6-0.11-1.09-0.45-1.51-0.91c-0.47-0.52-0.77-1.18-0.89-1.87c-0.13-0.7-0.03-1.51,0.23-2.17
					c0.03-0.09,0.1-0.22,0.17-0.34c0.09-0.16,0.12-0.19,0.21-0.3c0.08-0.09,0.17-0.17,0.26-0.25c-0.08,0.06,0.05-0.03,0.07-0.05
					c0.05-0.03,0.1-0.07,0.16-0.1c0.05-0.03,0.11-0.06,0.16-0.08c0.08-0.04,0,0-0.01,0c0.04-0.01,0.07-0.03,0.11-0.04
					c0.11-0.04,0.22-0.07,0.34-0.09c0.05-0.01,0.1-0.02,0.16-0.03c-0.15,0.02,0.03,0,0.07,0c0.09-0.01,0.18-0.01,0.28-0.01
					c0.08,0,0.17,0,0.25,0.01c0.03,0,0.07,0.01,0.1,0.01c0.12,0.01-0.13-0.03-0.02,0C148.84,93.71,148.9,93.71,148.96,93.73
					c0.62,0.16,0.89-0.81,0.27-0.96c-0.72-0.18-1.52-0.1-2.19,0.21c-1.47,0.67-1.96,2.53-1.79,4.02c0.18,1.65,1.28,3.36,2.94,3.83
					c1.94,0.55,3.44-1.16,3.91-2.88c0.29-1.04,0.2-2.17-0.32-3.12c-0.54-1-1.49-1.68-2.55-2.05
					C148.62,92.55,148.35,93.51,148.96,93.73z"/>
			</g>
		</g>
		<g>
			<g>
				<path class="st4" d="M213.72,100.45c0.81,0.41,1.34,1.27,1.77,2.03c0.61,1.07,1.06,2.21,1.42,3.38
					c0.35,1.15,0.62,2.34,0.66,3.54c0.04,1.14-0.19,1.93-0.91,2.83c-2.06,2.56-5.33,3.97-8.3,5.17c-3.16,1.27-6.41,2.29-9.71,3.13
					c-6.94,1.77-14.06,2.79-21.19,3.43c-3.4,0.31-6.81,0.52-10.22,0.68c-3.17,0.14-6.42,0.3-9.52-0.52c-3.13-0.82-5.69-2.8-6.81-5.9
					c-0.55-1.53-0.77-3.16-0.79-4.79c-0.02-1.6,0.08-3.26,0.54-4.8c0.13-0.43,0.27-0.86,0.44-1.28c0.08-0.21-0.06-0.45-0.23-0.56
					c-1.01-0.65-2.05-1.25-3.05-1.9c-1.65-1.08-2.93-2.66-3.76-4.45c-1.65-3.55-1.42-8.03,0.83-11.28c0.45-0.66,1.05-1.36,1.72-1.73
					c0.15-0.08,0.26-0.26,0.25-0.43c-0.14-2.54,0.23-5.17,0.75-7.64c1.19-5.68,3.69-11.1,7.52-15.48
					c5.74-6.57,14.23-10.53,22.8-11.72c9.17-1.27,18.73,1.09,26.49,6.07c1.12,0.72,2.21,1.5,3.22,2.38c1.39,1.22,2.49,2.75,3.4,4.35
					c1.81,3.2,2.77,7.14,2.04,10.8c-0.04,0.19-0.08,0.38-0.13,0.56c-0.19,0.62,0.78,0.88,0.96,0.27c0.77-2.55,0.43-5.58-0.29-8.09
					c-1.1-3.79-3.38-7.21-6.5-9.6c-6.81-5.21-15.68-8.08-24.22-8.08c-9.42,0.01-19.28,3.56-26.21,10.02
					c-4.67,4.35-7.9,10.05-9.54,16.19c-0.57,2.13-0.96,4.31-1.16,6.51c-0.07,0.71-0.11,1.43-0.13,2.15c-0.01,0.37-0.06,0.8,0,1.17
					c0.01,0.05,0,0.1,0.01,0.16c0.08-0.14,0.17-0.29,0.25-0.43c-0.67,0.38-1.24,1-1.71,1.59c-1.22,1.55-1.94,3.46-2.25,5.39
					c-0.67,4.15,0.83,8.67,4.08,11.39c1.26,1.05,2.77,1.83,4.14,2.71c-0.08-0.19-0.15-0.38-0.23-0.56c-1.09,2.79-1.26,6.01-0.8,8.96
					c0.51,3.28,2.21,6.24,5.16,7.88c2.9,1.61,6.37,1.87,9.62,1.83c3.56-0.04,7.12-0.29,10.67-0.56c7.53-0.58,15.06-1.53,22.42-3.26
					c3.53-0.83,7.03-1.85,10.42-3.15c3.17-1.21,6.52-2.58,8.99-4.99c0.89-0.87,1.74-1.89,1.92-3.16c0.16-1.14,0-2.32-0.23-3.43
					c-0.49-2.35-1.4-5-3.05-6.8c-0.29-0.32-0.62-0.61-1.01-0.8C213.65,99.29,213.14,100.15,213.72,100.45L213.72,100.45z"/>
			</g>
		</g>
		<g>
			<g>
				<path class="st4" d="M133.37,157.45c3.27-3.39,7.66-5.73,12.37-6.23c4.39-0.46,8.87,0.76,12.33,3.54
					c1.87,1.5,3.36,3.41,4.32,5.6c0.26,0.59,1.12,0.08,0.86-0.5c-1.83-4.17-5.54-7.27-9.8-8.77c-4.57-1.6-9.62-1.13-14.01,0.84
					c-2.55,1.14-4.85,2.8-6.78,4.81C132.22,157.21,132.92,157.92,133.37,157.45L133.37,157.45z"/>
			</g>
		</g>
		<g>
			<g>
				<path class="st4" d="M142.31,175.89c1.72-3.31,4.43-6.03,7.74-7.74c0.57-0.3,0.07-1.16-0.5-0.86c-3.45,1.79-6.31,4.65-8.1,8.1
					C141.15,175.96,142.01,176.46,142.31,175.89L142.31,175.89z"/>
			</g>
		</g>
		<g>
			<g>
				<path class="st4" d="M163.05,178.58c-1.79-4.3-2.31-9.04-1.45-13.63c0.12-0.63-0.85-0.9-0.96-0.27
					c-0.89,4.75-0.4,9.69,1.45,14.16C162.33,179.43,163.3,179.17,163.05,178.58L163.05,178.58z"/>
			</g>
		</g>
		<g>
			<g>
				<path class="st4" d="M161.17,197.05c0.59,2.82,1.07,5.66,1.74,8.46c0.4,1.68,0.84,3.36,1.4,5c0.45,1.32,0.96,2.69,1.77,3.84
					c2.12,3.02,6.72,1.94,9.77,1.31c2.25-0.46,4.48-0.99,6.71-1.53c6.33-1.53,12.64-3.17,18.94-4.82c7.03-1.84,14.05-3.72,21.08-5.6
					c5.55-1.48,11.09-2.97,16.65-4.41c1.53-0.4,3.07-0.79,4.61-1.15c1.03-0.24,1.75-0.72,1.9-1.83c0.04-0.32,0.05-0.64,0.05-0.97
					c0-0.51-0.01-1.02-0.03-1.53c-0.13-4.28-0.47-8.56-0.89-12.83c-0.64-6.56-1.5-13.1-2.65-19.59c-1.26-7.14-2.86-14.25-5.09-21.15
					c-2-6.19-4.49-12.4-8.25-17.75c-0.79-1.13-1.65-2.22-2.57-3.24c-0.43-0.48-1.14,0.23-0.71,0.71c4.09,4.53,6.8,10.24,8.94,15.9
					c2.5,6.62,4.27,13.5,5.69,20.43c1.36,6.64,2.38,13.35,3.15,20.08c0.56,4.93,1.01,9.89,1.26,14.84c0.07,1.32,0.13,2.64,0.14,3.96
					c0,0.17,0,0.35,0,0.52c-0.01,0.45-0.02,0.95-0.43,1.23c-0.27,0.18-0.64,0.22-0.95,0.29c-0.65,0.15-1.31,0.31-1.96,0.48
					c-4.82,1.21-9.61,2.51-14.41,3.79c-6.72,1.79-13.43,3.59-20.16,5.37c-6.59,1.74-13.19,3.48-19.81,5.13
					c-2.62,0.66-5.25,1.3-7.88,1.91c-2.65,0.61-5.45,1.41-8.17,1.44c-1.59,0.02-3.22-0.23-4.15-1.61c-0.79-1.17-1.28-2.54-1.72-3.87
					c-1.05-3.18-1.73-6.49-2.37-9.77c-0.21-1.1-0.41-2.21-0.64-3.31C162,196.16,161.04,196.43,161.17,197.05L161.17,197.05z"/>
			</g>
		</g>
		<g>
			<g>
				<path class="st4" d="M134.23,169.64c3.67-5.49,9.67-10.04,16.57-9.52c2.29,0.17,4.49,0.92,6.51,1.98
					c0.57,0.3,1.08-0.56,0.5-0.86c-3.57-1.87-7.57-2.66-11.54-1.78c-3.47,0.78-6.6,2.72-9.15,5.16c-1.42,1.36-2.67,2.89-3.76,4.52
					C133,169.67,133.87,170.17,134.23,169.64L134.23,169.64z"/>
			</g>
		</g>
		<g>
			<g>
				<g>
					<path class="st4" d="M243.54,198.39c1.58,1.69,2.25,4.14,2.73,6.35c0.38,1.72,0.61,3.47,0.74,5.22
						c0.06,0.73,0.56,1.12,1.04,1.66c0.98,1.12,1.96,2.24,2.94,3.36c1.93,2.22,3.84,4.44,5.74,6.68c4.07,4.8,8.08,9.64,12.06,14.51
						c2.27,2.77,4.52,5.55,6.77,8.33c2.46,3.04,4.98,6.03,7.26,9.2c2.94,4.1,5.77,8.7,6.48,13.79c0.51,3.7-0.32,7.31-1.38,10.84
						c-2.31,7.73-5.11,15.29-7.96,22.83c-2.44,6.45-4.93,12.88-7.45,19.29c-0.05,0.12-0.09,0.23-0.14,0.35
						c-0.07,0.17,0.02,0.36,0.13,0.49c2.19,2.56,3.75,5.85,4.89,8.98c1.2,3.3,2,6.82,2.14,10.33c0.1,2.67-0.25,5.51-1.85,7.73
						c-1.25,1.74-3.15,2.82-5.17,3.43c-1.04,0.31-2.11,0.52-3.18,0.66c-0.81,0.1-1.69,0.26-2.51,0.14
						c-1.52-0.22-2.94-1.16-4.17-2.02c-1.85-1.31-3.53-2.85-5.13-4.45c-3.83-3.81-7.26-8.04-10.39-12.44
						c-2.7-3.79-5.24-7.76-6.96-12.1c-0.82-2.05-1.87-4.42-1.69-6.69c0.15-1.83,1.43-3.24,2.68-4.47c0.97-0.96,2-1.86,3.01-2.77
						c0.59-0.53,1.47-1.09,1.93-1.75c0.23-0.34,0.26-0.83,0.34-1.23c0.45-2.05,0.97-4.09,1.5-6.12c2.14-8.22,4.52-16.38,6.95-24.52
						c0.05-0.17,0.1-0.34,0.15-0.51c0.06-0.22-0.04-0.45-0.23-0.56c-2.98-1.85-5.83-3.91-8.64-6.01
						c-6.22-4.66-12.15-9.74-17.5-15.38c-2.99-3.15-5.8-6.49-8.26-10.07c-0.23-0.33-0.57-1.17-1.13-0.84
						c-0.21,0.12-0.23,0.3-0.25,0.51c-0.02,0.31,0.09,0.67,0.14,0.98c0.59,3.86,1.27,7.71,1.91,11.57
						c2.04,12.45,4.14,24.94,5.28,37.51c0.2,2.24,0.45,4.53,0.4,6.79c-0.04,1.82-0.57,3.78-0.97,5.58
						c-0.92,4.09-2.18,8.14-4.02,11.91c-1,2.05-2.24,3.97-3.32,5.99c-1.08,2.02-2.08,4.09-3.02,6.18
						c-1.54,3.41-2.94,6.89-4.21,10.41c-0.34,0.95-0.68,1.9-1,2.85c-0.1,0.31-0.19,0.53-0.14,0.85c0.17,1.24,0.52,2.47,0.74,3.7
						c0.46,2.53,0.83,5.07,1.1,7.62c0.63,5.92,1.02,12.38-0.78,18.14c-0.89,2.87-2.44,4.99-4.98,6.63
						c-3.14,2.02-6.9,2.68-10.39,1.17c-3.66-1.59-6.3-4.93-8.11-8.38c-1.97-3.78-3.3-8.02-4.43-12.12
						c-1.19-4.3-2.06-8.72-2.29-13.19c-0.21-4.05,0.07-8.24,1.58-12.04c0.33-0.82,0.85-1.57,1.17-2.38
						c0.33-0.84,0.32-1.98,0.47-2.88c0.34-1.96,0.76-3.91,1.21-5.85c0.94-3.97,2.05-7.9,3.26-11.8c1-3.22,2.06-6.42,3.18-9.59
						c0.36-1.03,0.74-2.07,1.11-3.1c0.18-0.48,0.44-1,0.56-1.5c0.08-0.37-0.09-0.59-0.27-0.92c-0.51-0.9-1-1.82-1.48-2.74
						c-0.97-1.88-1.88-3.78-2.73-5.72c-1.74-3.95-3.24-8.01-4.59-12.11c-2.46-7.49-4.38-15.15-5.95-22.87
						c-1.03-5.08-1.89-10.18-2.67-15.3c-0.16-1.06-0.23-2.19-0.68-3.18c-0.96-2.09-2.49-3.92-3.56-5.96
						c-1.89-3.6-2.96-7.54-3.34-11.59c-0.06-0.64-1.06-0.64-1,0c0.38,4.09,1.42,8.07,3.29,11.74c1.08,2.12,2.62,4,3.66,6.14
						c0.47,0.97,0.51,2.16,0.67,3.2c0.32,2.11,0.65,4.21,1,6.31c2.55,15.12,6.17,30.29,12.39,44.35c0.85,1.93,1.76,3.83,2.74,5.71
						c0.46,0.89,1.15,1.8,1.49,2.73c-0.04-0.1,0.09-0.21-0.03,0.13c-0.64,1.79-1.31,3.57-1.94,5.37
						c-2.53,7.26-4.84,14.63-6.49,22.14c-0.42,1.9-0.79,3.82-1.08,5.74c-0.06,0.4-0.07,0.83-0.23,1.21
						c-0.17,0.42-0.45,0.82-0.64,1.23c-0.39,0.82-0.71,1.67-0.99,2.53c-1.25,3.95-1.38,8.22-1.05,12.32
						c0.36,4.37,1.25,8.69,2.46,12.9c1.17,4.09,2.52,8.32,4.57,12.06c1.8,3.29,4.38,6.41,7.82,8.07c3.15,1.52,6.66,1.5,9.84,0.08
						c2.76-1.24,5.17-3.24,6.49-5.99c1.22-2.54,1.73-5.37,1.98-8.16c0.55-5.97-0.06-12.04-0.99-17.94
						c-0.28-1.81-0.61-3.61-0.99-5.41c-0.06-0.29-0.12-0.59-0.19-0.88c0.09,0.35-0.02,0.23,0.1-0.05c0.15-0.35,0.25-0.74,0.37-1.1
						c2.55-7.38,5.58-14.7,9.58-21.41c3.61-6.05,5.66-13.13,6.61-20.08c0.24-1.74-0.02-3.6-0.15-5.34c-0.21-2.77-0.5-5.53-0.83-8.29
						c-0.78-6.58-1.74-13.14-2.75-19.68c-0.89-5.79-1.84-11.57-2.8-17.35c-0.3-1.79-0.6-3.59-0.89-5.38
						c-0.07-0.46-0.15-0.92-0.21-1.38c0.01,0.04,0.04-0.14-0.02-0.21c-0.09-0.1,0.15,0.21-0.02,0.08c-0.25,0.11-0.51,0.23-0.76,0.34
						c0.1,0.15,0.2,0.29,0.3,0.44c0.2,0.29,0.4,0.58,0.61,0.87c4.91,6.92,10.98,12.97,17.41,18.47c4.6,3.93,9.43,7.62,14.45,10.99
						c0.75,0.51,1.51,1.01,2.28,1.49c-0.08-0.19-0.15-0.38-0.23-0.56c-2.27,7.56-4.46,15.14-6.5,22.76
						c-0.62,2.31-1.23,4.63-1.78,6.96c-0.11,0.45-0.21,0.9-0.31,1.36c-0.05,0.23-0.08,0.47-0.15,0.69
						c-0.12,0.37-0.33,0.52-0.63,0.78c-1.18,1.07-2.38,2.12-3.54,3.21c-1.39,1.31-2.92,2.76-3.48,4.65
						c-0.58,1.94,0.02,4.02,0.65,5.86c1.63,4.77,4.09,9.07,6.92,13.21c3.13,4.57,6.61,8.96,10.45,12.96
						c1.69,1.76,3.47,3.46,5.4,4.96c1.39,1.08,2.91,2.14,4.61,2.68c1.67,0.54,3.56,0.16,5.24-0.16c2.09-0.4,4.15-1.14,5.83-2.48
						c4.76-3.82,4.08-10.86,2.89-16.16c-1.06-4.71-3.03-9.39-5.95-13.26c-0.17-0.23-0.35-0.46-0.53-0.68
						c0.04,0.16,0.09,0.32,0.13,0.49c2.2-5.59,4.37-11.19,6.51-16.81c2.97-7.79,5.93-15.58,8.39-23.54
						c1.11-3.57,2.26-7.21,2.22-10.99c-0.05-4.51-1.84-8.73-4.13-12.54c-1.79-2.98-3.9-5.75-6.07-8.46c-2.41-3-4.83-5.99-7.26-8.97
						c-4.18-5.14-8.38-10.26-12.64-15.33c-3.88-4.62-7.8-9.2-11.79-13.72c-0.14-0.16-0.28-0.35-0.44-0.5
						c0.02,0.02-0.27-0.3-0.12,0.05c-0.01-0.03,0-0.08-0.01-0.11c-0.06-0.19-0.03-0.47-0.05-0.67c-0.07-0.84-0.17-1.68-0.29-2.51
						c-0.33-2.26-0.82-4.54-1.75-6.63c-0.43-0.97-0.97-1.88-1.69-2.66C243.8,197.21,243.1,197.92,243.54,198.39L243.54,198.39z"/>
				</g>
			</g>
			<path class="st8" d="M247.53,210.28c0,0-17.32,12.68-27.99,30.79c0,0-10.32-20.07-44.58-6.76"/>
			<g>
				<g>
					<path class="st4" d="M247.7,309.68c4.06,6.88,10.32,13.53,18.92,13.48c2.27-0.01,4.51-0.55,6.49-1.67
						c0.56-0.31,0.06-1.18-0.5-0.86c-3.41,1.91-7.51,1.9-11.15,0.66c-3.65-1.24-6.69-3.79-9.14-6.71c-1.41-1.68-2.63-3.52-3.75-5.41
						C248.23,308.62,247.37,309.12,247.7,309.68L247.7,309.68z"/>
				</g>
			</g>
			<g>
				<g>
					<path class="st4" d="M250.6,286.64c2.87,4.47,6.33,8.8,11.34,10.94c2.66,1.14,5.59,1.92,8.44,2.39
						c2.13,0.35,4.29,0.48,6.43,0.15c1.91-0.29,3.72-1.02,5.3-2.12c0.52-0.36,0.03-1.23-0.5-0.86c-3.03,2.11-6.66,2.46-10.25,1.97
						c-2.77-0.37-5.51-1.15-8.13-2.09c-2.41-0.87-4.56-2.31-6.41-4.07c-2.1-2.01-3.8-4.38-5.36-6.81
						C251.11,285.59,250.25,286.1,250.6,286.64L250.6,286.64z"/>
				</g>
			</g>
			<g>
				<g>
					<path class="st4" d="M185.3,319.11c1.94,4.15,4.83,7.85,8.38,10.76c3.53,2.89,7.82,5.25,12.41,5.82
						c2.57,0.32,5.21-0.05,7.45-1.42c0.55-0.33,0.05-1.2-0.5-0.86c-3.94,2.4-8.94,1.35-12.86-0.55c-3.91-1.89-7.36-4.66-10.11-8.02
						c-1.55-1.9-2.86-4-3.9-6.22C185.89,318.02,185.02,318.53,185.3,319.11L185.3,319.11z"/>
				</g>
			</g>
			<g>
				<g>
					<path class="st4" d="M185.28,339.24c1.72,3.28,4.21,6.26,7.46,8.11c3.1,1.77,6.84,2.34,10.29,1.3
						c1.86-0.56,3.57-1.59,4.86-3.05c0.43-0.48-0.28-1.19-0.71-0.71c-2.2,2.48-5.55,3.5-8.8,3.23c-3.42-0.28-6.49-2.13-8.83-4.57
						c-1.37-1.43-2.49-3.07-3.41-4.82C185.85,338.16,184.98,338.67,185.28,339.24L185.28,339.24z"/>
				</g>
			</g>
			<g>
				<g>
					<path class="st4" d="M204.97,298.84c5.73,1.22,11.82,0.13,16.75-3.04c0.54-0.35,0.04-1.21-0.5-0.86
						c-4.7,3.02-10.51,4.1-15.98,2.94C204.61,297.74,204.34,298.7,204.97,298.84L204.97,298.84z"/>
				</g>
			</g>
			<g>
				<g>
					<path class="st4" d="M201.97,308.62c5.24,2.56,11.72,2.07,16.48-1.31c0.52-0.37,0.02-1.24-0.5-0.86
						c-4.46,3.17-10.54,3.72-15.47,1.31C201.9,307.47,201.39,308.33,201.97,308.62L201.97,308.62z"/>
				</g>
			</g>
			<g>
				<g>
					<path class="st4" d="M263.72,276.87c4.54,3.65,10.96,4.63,16.36,2.38c0.59-0.24,0.33-1.21-0.27-0.96
						c-5.05,2.11-11.11,1.31-15.39-2.13C263.93,275.76,263.22,276.47,263.72,276.87L263.72,276.87z"/>
				</g>
			</g>
			<g>
				<g>
					<path class="st4" d="M257.42,263.09c2.56-3.22,6.21-5.43,10.25-6.2c0.63-0.12,0.36-1.08-0.27-0.96
						c-4.19,0.8-8.04,3.12-10.69,6.45C256.32,262.88,257.02,263.59,257.42,263.09L257.42,263.09z"/>
				</g>
			</g>
			<g>
				<g>
					<path class="st4" d="M232.7,250.98c0.72-4.19,3.78-7.57,6.93-10.22c3.17-2.66,6.87-4.69,10.8-5.96
						c2.24-0.73,4.56-1.21,6.9-1.42c0.64-0.06,0.64-1.06,0-1c-8.56,0.79-17.12,5-22.48,11.82c-1.51,1.92-2.7,4.09-3.12,6.52
						C231.62,251.34,232.59,251.61,232.7,250.98L232.7,250.98z"/>
				</g>
			</g>
			<g>
				<g>
					<path class="st4" d="M187.45,262.09c3.42-2.82,7.72-4.19,11.95-5.3c4.42-1.16,8.95-2.38,13.54-2.44
						c2.62-0.04,5.25,0.36,7.65,1.46c0.58,0.26,1.09-0.6,0.5-0.86c-4.4-2.01-9.28-1.82-13.94-0.98c-2.39,0.43-4.76,1.03-7.12,1.63
						c-2.25,0.57-4.5,1.19-6.67,2.03c-2.39,0.93-4.65,2.12-6.63,3.76C186.24,261.79,186.95,262.5,187.45,262.09L187.45,262.09z"/>
				</g>
			</g>
		</g>
		<path class="st33" d="M154.94,100.79c1-5.55-1.32-9.05-4.24-10.91c-1.37-3.19,3.52-13.45,3.52-13.45s8.7,40.71,46.76,36.05
			c0,0-5.07,1.4-7.64,1.73C167.63,117.54,157.49,106.02,154.94,100.79"/>
		<g>
			<path class="st9" d="M215.67,91.12c0.01-0.31,0.01-0.62,0.02-0.93c0,0-17-31.75-53.24-25.53c15.49-14.77,35.8-4.74,35.8-4.74
				c8.2,3.07,13.95,10.94,16.04,19.44c1,4.08,1.42,7.67,1.41,10.83"/>
			<g>
				<path class="st4" d="M216.17,91.12c0.01-0.46,0.09-0.92-0.13-1.33c-0.1-0.19-0.21-0.37-0.32-0.56
					c-0.45-0.75-0.92-1.48-1.42-2.21c-1.79-2.61-3.8-5.08-5.98-7.37c-3.04-3.19-6.44-6.05-10.15-8.45
					c-4.43-2.87-9.31-5.05-14.42-6.35c-6.13-1.56-12.53-1.86-18.8-1.06c-0.88,0.11-1.76,0.24-2.64,0.39
					c0.16,0.28,0.32,0.56,0.49,0.84c4.26-4.04,9.55-6.7,15.36-7.58c4.42-0.67,8.97-0.33,13.31,0.71c2.2,0.53,4.45,1.28,6.43,2.16
					c2.01,0.89,3.92,1.8,5.69,3.13c2.33,1.75,4.33,3.94,5.95,6.36c3.97,5.92,5.65,13.32,5.65,20.39c0,0.64,1,0.64,1,0
					c0-3.53-0.5-7.05-1.31-10.48c-0.7-2.98-1.8-5.85-3.31-8.52c-1.47-2.6-3.33-5.01-5.55-7.02c-2.22-2.02-4.72-3.5-7.47-4.66
					c-5.93-2.5-12.32-3.88-18.79-3.27c-6.67,0.63-12.81,3.46-17.67,8.07c-0.39,0.37,0.03,0.91,0.49,0.84
					c6.28-1.07,12.75-1.1,19,0.22c5.16,1.09,10.1,3.07,14.62,5.78c3.81,2.29,7.3,5.07,10.44,8.22c2.29,2.29,4.4,4.77,6.28,7.42
					c0.57,0.81,1.12,1.63,1.65,2.47c0.21,0.33,0.58,0.77,0.68,1.15c0,0.01,0.01,0.02,0.02,0.03c0,0,0,0,0,0
					c-0.05-0.25-0.13,0.77-0.07,0.22c-0.02,0.15-0.01,0.31-0.01,0.46C215.16,91.77,216.16,91.77,216.17,91.12L216.17,91.12z"/>
			</g>
		</g>
		<g>
			<g>
				<path class="st4" d="M283.05,79.64c0.27-3.23,0.54-6.52,1.33-9.67c0.21-0.84,0.46-1.69,0.89-2.45c0.25-0.43,0.62-0.87,0.99-1.03
					c3.19-1.32,1.79,7.41,1.59,8.67c-0.33,2.01-0.75,4.01-1.27,5.98c-0.16,0.62,0.8,0.89,0.96,0.27c0.5-1.89,0.9-3.8,1.23-5.72
					c0.4-2.4,0.79-4.94,0.46-7.36c-0.21-1.54-0.99-3.23-2.83-2.9c-1.5,0.26-2.22,1.85-2.65,3.14c-0.47,1.4-0.72,2.87-0.94,4.32
					c-0.34,2.24-0.56,4.49-0.75,6.75C281.99,80.28,282.99,80.27,283.05,79.64L283.05,79.64z"/>
			</g>
		</g>
		<g>
			<g>
				<path class="st4" d="M280.98,89.02c1.91,1.46,3.31,3.53,4,5.83c0.18,0.61,1.15,0.35,0.96-0.27c-0.77-2.56-2.34-4.8-4.46-6.42
					c-0.21-0.16-0.56-0.03-0.68,0.18C280.65,88.59,280.76,88.86,280.98,89.02L280.98,89.02z"/>
			</g>
		</g>
		<g>
			<g>
				<path class="st4" d="M154.42,166.6c-1.51,2.11-1.61,4.95-1.45,7.45c0.17,2.77,0.87,5.47,2.01,8c0.26,0.59,1.13,0.08,0.86-0.5
					c-1.07-2.36-1.71-4.91-1.87-7.5c-0.15-2.33-0.1-4.97,1.32-6.95C155.66,166.58,154.8,166.08,154.42,166.6L154.42,166.6z"/>
			</g>
		</g>
		<g>
			<g>
				<path class="st4" d="M258.72,136.13c2.22,3.79,5.19,7.01,8.85,9.45c0.54,0.36,1.04-0.51,0.5-0.86
					c-3.51-2.34-6.36-5.45-8.49-9.09C259.26,135.07,258.4,135.57,258.72,136.13L258.72,136.13z"/>
			</g>
		</g>
		<g>
			<path class="st31" d="M140.66,210.92c-0.59-1.1-0.16-2.57,0.8-3.38s2.32-1.01,3.55-0.81c0.8,0.13,1.58,0.43,2.19,0.97
				c0.61,0.54,0.99,1.29,1.31,2.05c0.59,1.42,0.98,2.97,0.77,4.49c-0.21,1.52-1.12,3.01-2.54,3.61c-1.07,0.45-2.35,0.34-3.33-0.29
				s-1.61-1.74-1.65-2.9"/>
			<g>
				<path class="st4" d="M141.1,210.67c-0.77-1.56,0.63-3.07,2.09-3.41c1.66-0.38,3.51,0.21,4.39,1.71
					c0.89,1.51,1.49,3.54,1.19,5.29c-0.24,1.44-1.17,2.89-2.66,3.26c-1.9,0.47-3.74-0.94-3.86-2.87c-0.04-0.64-1.04-0.64-1,0
					c0.13,2.11,1.74,3.82,3.87,3.95c2.1,0.13,3.78-1.4,4.41-3.31c0.72-2.15,0.06-4.67-0.97-6.61c-1.07-2.02-3.37-2.88-5.57-2.42
					c-2.18,0.45-3.84,2.73-2.77,4.89C140.52,211.75,141.38,211.25,141.1,210.67L141.1,210.67z"/>
			</g>
		</g>
		<g>
			<path class="st9" d="M592.28,122.76C516.47,139,393.65,344.1,328.54,388.33c-23.3,15.83-49.72,26.75-76.99,33.7
				c-24.27,6.19-49.68,9.3-74.43,5.38c-18.4-2.91-35.99-9.63-53.06-17.11c-15.68-6.87-31.48-14.74-42.94-27.5
				c-13.2-14.71-19.39-34.88-19.61-54.67s5.14-39.29,12.73-57.56c10.86-26.14,41.16-55.6,68.99-60.16c0,0,1.08-0.44,1.78,0.95
				c0.7,1.39-0.36,2.64-0.36,2.64c-26.96,4.41-54.22,32.11-64.74,57.31c-7.35,17.61-12.55,36.42-12.35,55.5
				c0.2,19.08,6.19,38.53,18.97,52.7c11.09,12.3,26.39,19.88,41.58,26.5c16.53,7.21,33.56,13.68,51.38,16.48
				c23.96,3.77,48.57,0.76,72.08-5.22c26.42-6.72,52-17.26,74.58-32.53c63.07-42.67,180.48-251.69,267.82-266.33"/>
			<g>
				<path class="st4" d="M592.14,122.28c-15.74,3.43-29.78,13.06-42.21,22.89c-17.44,13.79-33.1,29.81-48.09,46.18
					c-17.28,18.87-33.69,38.53-49.88,58.33c-16.29,19.93-32.33,40.06-48.67,59.94c-14.32,17.42-28.81,34.77-44.43,51.04
					c-6.22,6.48-12.62,12.79-19.45,18.63c-8.87,7.59-18.7,13.88-28.94,19.45c-16.36,8.91-33.81,15.75-51.72,20.83
					c-18.99,5.37-38.63,9.02-58.41,9.07c-19.9,0.05-39.06-4.29-57.64-11.25c-16.77-6.28-34.22-13.39-48.82-23.93
					c-14.61-10.54-24.48-25.51-28.96-42.93c-4.69-18.24-3.28-37.39,1.47-55.47c4.43-16.89,11.03-33.04,21.87-46.84
					c9.89-12.59,22.34-23.73,36.66-31.02c3.46-1.76,7.04-3.28,10.75-4.45c1.62-0.51,3.25-0.96,4.91-1.32
					c0.6-0.13,1.89-0.64,2.44-0.48c0.12-0.02,0.23-0.04,0.35-0.06c0.32,0.9,0.64,1.81,0.96,2.71c-0.06,0.08-1.45,0.21-1.64,0.25
					c-7.22,1.46-14.09,4.45-20.41,8.2c-13.57,8.06-25.13,19.7-33.92,32.76c-9.57,14.21-15.5,31.2-18.88,47.9
					c-3.43,16.93-3.46,34.66,1.96,51.19c5.18,15.79,15.16,28.75,28.87,38.09c14.45,9.84,31.4,16.68,47.77,22.61
					c17.93,6.49,36.41,10.3,55.53,10.04c19.09-0.26,38.06-3.86,56.37-9.12c17.4-5,34.35-11.71,50.22-20.44
					c9.62-5.29,18.85-11.21,27.14-18.42c14.46-12.57,27.09-27.26,39.37-41.91c15.68-18.71,30.69-37.97,45.8-57.14
					c16.16-20.51,32.38-40.98,49.27-60.9c15.91-18.76,32.39-37.13,50.36-53.94c14.87-13.91,31.01-27.29,49.41-36.28
					c7.15-3.49,14.7-6.24,22.57-7.58c0.63-0.11,0.36-1.07-0.27-0.96c-17.45,2.98-33.3,12.52-47.31,22.93
					c-18.36,13.64-34.74,29.87-50.26,46.6c-17.68,19.05-34.28,39.07-50.56,59.32c-16.25,20.21-32.14,40.71-48.32,60.98
					c-13.84,17.35-27.83,34.67-43.03,50.86c-5.97,6.36-12.15,12.56-18.79,18.23c-9.36,7.99-19.99,14.39-30.91,20.03
					c-16.73,8.64-34.53,15.11-52.76,19.78c-19.34,4.95-39.38,7.92-59.38,6.72c-19.85-1.19-38.78-7.19-57.03-14.77
					c-16.49-6.85-33.73-14.32-46.47-27.21c-12.52-12.66-19.14-30.1-20.62-47.66c-1.62-19.23,2.78-38.47,9.62-56.35
					c6.08-15.9,15.4-29.94,27.84-41.62c6.16-5.78,12.99-10.91,20.47-14.86c3.56-1.88,7.27-3.48,11.12-4.69
					c1.69-0.53,3.41-0.98,5.14-1.35c1.07-0.23,2.07-0.1,2.72-0.98c1.14-1.54,0.09-3.98-1.8-4.06c-2.74-0.12-6.24,1.31-8.81,2.16
					c-6.95,2.29-13.49,5.73-19.56,9.78c-13.06,8.7-24.42,20.26-33.1,33.33c-9.43,14.21-15.16,31.25-18.52,47.87
					c-3.48,17.19-3.61,35.17,1.63,52.02c4.92,15.85,14.45,29.29,27.87,39.06c14.23,10.37,31.19,17.32,47.55,23.58
					c18.25,6.99,37.12,11.65,56.73,11.97c19.46,0.32,38.85-2.94,57.6-7.95c17.61-4.71,34.82-11.08,51.05-19.4
					c11.19-5.74,22.1-12.28,31.82-20.29c14.92-12.29,28-26.82,40.69-41.35c16.22-18.58,31.72-37.77,47.22-56.95
					c16.54-20.46,33.03-40.97,50.05-61.05c15.88-18.75,32.19-37.22,49.78-54.39c14.09-13.76,29.18-27.28,46.49-36.89
					c6.42-3.56,13.23-6.55,20.43-8.11C593.04,123.1,592.77,122.14,592.14,122.28L592.14,122.28z"/>
			</g>
		</g>
		<g>
			<g>
				<path class="st4" d="M220.47,170.98c1.05-2.02,3.52-2.63,5.57-3.09c1.11-0.25,2.23-0.44,3.33-0.7c1.26-0.3,2.42-0.64,3.72-0.3
					c2.26,0.59,4.11,2.97,3.67,5.37c-0.04,0.23-0.12,0.42-0.23,0.62c0.13-0.23-0.1,0.18-0.06,0.07c-0.11,0.27-0.02,0.55,0.02,0.83
					c0.19,1.18,0.35,2.35,0.48,3.54c0.27,2.36,0.51,4.76,0.42,7.15c-0.02,0.71-0.03,1.54-0.32,2.2c-0.29,0.66-1.34,1.11-2,1.42
					c-2.22,1.06-4.7,1.56-7.08,2.07c-0.75,0.16-1.6,0.36-2.35,0.1c-0.17-0.06-0.15-0.05-0.29-0.26c-0.35-0.51-0.59-1.11-0.83-1.67
					c-0.93-2.21-1.66-4.51-2.32-6.81c-0.7-2.4-1.33-4.85-1.69-7.32c-0.09-0.63-1.06-0.36-0.96,0.27c0.47,3.22,1.36,6.39,2.34,9.48
					c0.45,1.42,0.93,2.84,1.49,4.22c0.34,0.85,0.68,1.77,1.22,2.51c0.89,1.19,2.86,0.62,4.07,0.36c1.74-0.38,3.49-0.77,5.17-1.37
					c0.79-0.28,1.58-0.6,2.32-1.01c0.56-0.31,1.24-0.69,1.62-1.22c0.57-0.8,0.58-2.03,0.61-2.97c0.13-3.79-0.41-7.66-1.02-11.4
					c-0.04,0.16-0.09,0.32-0.13,0.49c0.83-0.85,0.58-2.48,0.32-3.48c-0.42-1.61-1.58-3-3.07-3.73c-0.83-0.41-1.74-0.62-2.67-0.62
					c-0.94,0-1.82,0.28-2.72,0.49c-1.74,0.41-3.52,0.66-5.23,1.2c-1.71,0.54-3.41,1.4-4.27,3.05
					C219.31,171.05,220.18,171.56,220.47,170.98L220.47,170.98z"/>
			</g>
		</g>
		<g>
			<path class="st6" d="M181.96,134.64c-3.75-0.04-9.06,8.99-0.86,13.2c2.74,1.41,6.33-0.16,8.1-2.92c1.77-2.76,1.27-7.27-1.36-8.92
				C186.26,135,183.78,134.46,181.96,134.64"/>
			<g>
				<path class="st4" d="M181.96,134.14c-2.11,0.01-3.84,1.95-4.73,3.69c-1.17,2.27-1.34,5.03,0.01,7.26
					c0.84,1.39,2.17,2.47,3.61,3.19c1.56,0.78,3.35,0.74,4.96,0.09c3.31-1.35,5.31-4.68,4.88-8.23c-0.22-1.77-1.01-3.51-2.53-4.52
					C186.42,134.46,184.03,133.96,181.96,134.14c-0.64,0.06-0.64,1.06,0,1c1.69-0.15,3.5,0.19,5.02,0.95
					c1.31,0.65,2.14,1.75,2.52,3.15c0.84,3.06-0.48,6.22-3.23,7.79c-1.3,0.75-2.89,1.09-4.35,0.61c-1.35-0.44-2.68-1.47-3.52-2.61
					c-1.32-1.8-1.41-4.11-0.58-6.13c0.66-1.59,2.19-3.75,4.13-3.76C182.61,135.14,182.61,134.14,181.96,134.14L181.96,134.14z"/>
			</g>
		</g>
		<g>
			<g>
				<path class="st4" d="M234.93,172.96c-1.1,0.48-2.2,0.97-3.29,1.45c-1.07,0.47-2.17,0.98-3.34,1.17
					c-1.06,0.17-2.17,0.04-3.07-0.58c-0.83-0.58-1.4-1.46-1.94-2.29c-0.35-0.54-1.22-0.03-0.86,0.5c0.61,0.93,1.25,1.87,2.15,2.53
					c0.94,0.7,2.1,0.97,3.25,0.89c1.25-0.09,2.42-0.53,3.57-1.03c1.35-0.58,2.7-1.19,4.04-1.78
					C236.02,173.56,235.51,172.7,234.93,172.96L234.93,172.96z"/>
			</g>
		</g>
	</g>
	<g style="clip-path:url(#SVGID_1_);">
		<line class="st34" x1="91.4" y1="18.27" x2="91.4" y2="28.36"/>
		<line class="st34" x1="91.4" y1="34.93" x2="91.4" y2="45.02"/>
		<g>
			<line class="st34" x1="99.73" y1="31.65" x2="94.68" y2="31.65"/>
			<line class="st34" x1="88.11" y1="31.65" x2="83.07" y2="31.65"/>
		</g>
	</g>
	<g style="clip-path:url(#SVGID_1_);">
		<line class="st35" x1="480.1" y1="349.99" x2="476.22" y2="353.88"/>
		<line class="st35" x1="471.57" y1="358.52" x2="467.69" y2="362.41"/>
		<g>
			<line class="st35" x1="479.79" y1="362.09" x2="476.22" y2="358.52"/>
			<line class="st35" x1="471.57" y1="353.88" x2="468.01" y2="350.31"/>
		</g>
	</g>
	<g style="clip-path:url(#SVGID_1_);">
		<line class="st36" x1="390.53" y1="92.17" x2="386.89" y2="95.82"/>
		<line class="st36" x1="382.53" y1="100.17" x2="378.89" y2="103.82"/>
		<g>
			<line class="st36" x1="390.23" y1="103.52" x2="386.89" y2="100.17"/>
			<line class="st36" x1="382.53" y1="95.82" x2="379.19" y2="92.47"/>
		</g>
	</g>
	<g style="clip-path:url(#SVGID_1_);">
		
			<linearGradient id="SVGID_3_" gradientUnits="userSpaceOnUse" x1="-187.6868" y1="751.322" x2="-147.0367" y2="751.322" gradientTransform="matrix(0.9879 0.1553 -0.1553 0.9879 672.019 -526.0119)">
			<stop  offset="0" style="stop-color:#B6DCE0"/>
			<stop  offset="1" style="stop-color:#8178E6"/>
		</linearGradient>
		<circle class="st17" cx="379.79" cy="188.6" r="9.97"/>
	</g>
	<circle style="clip-path:url(#SVGID_1_);fill:#B6DCE0;" cx="66.49" cy="101.57" r="3.65"/>
	<circle style="clip-path:url(#SVGID_1_);fill:#F2A193;" cx="326.31" cy="14.47" r="3.65"/>
	<linearGradient id="SVGID_4_" gradientUnits="userSpaceOnUse" x1="511.0286" y1="289.0514" x2="520.5285" y2="289.0514">
		<stop  offset="0" style="stop-color:#FFB796"/>
		<stop  offset="1" style="stop-color:#8178E6"/>
	</linearGradient>
	<circle style="clip-path:url(#SVGID_1_);fill:url(#SVGID_4_);" cx="515.78" cy="289.05" r="4.75"/>
</g>
</svg>
