<?xml version="1.0" encoding="utf-8"?>
<!-- Generator: Adobe Illustrator 24.0.1, SVG Export Plug-In . SVG Version: 6.00 Build 0)  -->
<svg version="1.1" id="Layer_1" xmlns="http://www.w3.org/2000/svg" xmlns:xlink="http://www.w3.org/1999/xlink" x="0px" y="0px"
	 viewBox="0 0 242.52 232.54" style="enable-background:new 0 0 242.52 232.54;" xml:space="preserve">
<style type="text/css">
	.st0{fill:none;stroke:#C7C7C7;stroke-width:2;stroke-linecap:round;stroke-miterlimit:10;stroke-dasharray:0,8;}
	.st1{fill:url(#SVGID_1_);}
	.st2{fill:url(#SVGID_2_);}
	.st3{fill:url(#SVGID_3_);}
	.st4{fill:url(#SVGID_4_);}
	.st5{fill:#B1D7DB;}
	.st6{fill:#FFA4E2;}
	.st7{fill:#FFB48F;}
	.st8{fill:none;stroke:#C7C7C7;stroke-width:2;stroke-linecap:round;stroke-miterlimit:10;}
	.st9{fill:none;stroke:#C7C7C7;stroke-width:2;stroke-linecap:round;stroke-miterlimit:10;stroke-dasharray:0,8.0579;}
	.st10{fill:url(#SVGID_5_);}
	.st11{fill:url(#SVGID_6_);}
	.st12{fill:#A2E6C4;}
	.st13{fill:none;stroke:#8078E1;stroke-width:2;stroke-linecap:round;stroke-miterlimit:10;}
	.st14{fill:none;stroke:#FFB291;stroke-width:4;stroke-linecap:round;stroke-miterlimit:10;stroke-dasharray:43,8;}
	.st15{fill:url(#SVGID_7_);}
	.st16{fill:none;stroke:#A2E6C4;stroke-width:2;stroke-linecap:round;stroke-miterlimit:10;stroke-dasharray:43,8;}
	.st17{fill:none;stroke:#FFA4E2;stroke-width:2;stroke-linecap:round;stroke-miterlimit:10;}
	.st18{fill:none;stroke:#A2E6C4;stroke-width:2;stroke-miterlimit:10;}
	.st19{fill:none;stroke:#FFB291;stroke-width:2;stroke-linecap:round;stroke-miterlimit:10;}
	.st20{fill:none;stroke:#FFB291;stroke-width:2;stroke-linecap:round;stroke-miterlimit:10;stroke-dasharray:43,8;}
	.st21{fill:none;stroke:#8078E1;stroke-linecap:round;stroke-miterlimit:10;}
	.st22{fill:none;}
	.st23{fill:#4D4D4D;stroke:#4D4D4D;stroke-linecap:round;stroke-linejoin:round;stroke-miterlimit:10;}
	.st24{fill:url(#SVGID_8_);}
	.st25{fill:none;stroke:#BAD7DB;stroke-width:2;stroke-linecap:round;stroke-linejoin:round;stroke-miterlimit:10;}
	.st26{fill:#EDEDED;stroke:#4D4D4D;stroke-linecap:round;stroke-linejoin:round;stroke-miterlimit:10;}
	.st27{fill:#FFFFFF;stroke:#4D4D4D;stroke-linecap:round;stroke-linejoin:round;stroke-miterlimit:10;}
	.st28{fill:#445D78;stroke:#4D4D4D;stroke-linecap:round;stroke-linejoin:round;stroke-miterlimit:10;}
	.st29{fill:none;stroke:#4D4D4D;stroke-linecap:round;stroke-linejoin:round;stroke-miterlimit:10;}
	.st30{fill:url(#SVGID_9_);}
	.st31{fill:#6B5641;}
	.st32{fill:#FFFFFF;}
	.st33{fill:#F2DACA;}
	.st34{fill:#333333;}
	.st35{fill:#BDD5DB;}
	.st36{fill:none;stroke:#333333;stroke-linecap:round;stroke-miterlimit:10;}
	.st37{fill:none;stroke:#333333;stroke-linecap:round;stroke-linejoin:round;stroke-miterlimit:10;}
	.st38{fill:#ED9E8C;}
	.st39{fill:url(#SVGID_10_);}
	.st40{fill:url(#SVGID_11_);}
	.st41{fill:url(#SVGID_12_);}
	.st42{fill:none;stroke:#FFFFFF;stroke-linecap:round;stroke-linejoin:round;stroke-miterlimit:10;}
	.st43{fill:url(#SVGID_13_);}
	.st44{fill:url(#SVGID_14_);}
	.st45{fill:#4D4D4D;}
	.st46{fill:none;stroke:#4D4D4D;stroke-linecap:round;stroke-miterlimit:10;}
	.st47{fill:none;stroke:#4D4D4D;stroke-miterlimit:10;}
	.st48{fill:url(#SVGID_15_);}
	.st49{fill:#6A8FBA;}
	.st50{fill:#F7DFCF;}
	.st51{fill:#373F48;}
	.st52{fill:#FFFFFF;stroke:#333333;stroke-linecap:round;stroke-linejoin:round;stroke-miterlimit:10;}
	.st53{fill:#C0D8DE;}
	.st54{fill:url(#SVGID_16_);}
	.st55{fill:none;stroke:#4D4D4D;stroke-width:2;stroke-linecap:round;stroke-miterlimit:10;}
	.st56{fill:none;stroke:#4D4D4D;stroke-width:2;stroke-linecap:round;stroke-miterlimit:10;stroke-dasharray:0,8.0579;}
	.st57{fill:url(#SVGID_17_);}
	.st58{fill:url(#SVGID_18_);}
	.st59{fill:none;stroke:#4D4D4D;stroke-width:2;stroke-linecap:round;stroke-miterlimit:10;stroke-dasharray:0,8;}
	.st60{fill:url(#SVGID_19_);}
	.st61{fill:url(#SVGID_20_);}
	.st62{fill:url(#SVGID_21_);}
	.st63{fill:url(#SVGID_22_);}
	.st64{fill:url(#SVGID_23_);}
</style>
<g>
	<g>
		<path class="st50" d="M46.78,147.85c-0.24-1.03-0.95-1.95-2.07-2.16c-2.03-0.39-4.02-0.9-5.99-1.55c-1.54-0.5-3.28,0.59-3.69,2.1
			c-0.33,1.21,0.13,2.38,1.03,3.1c-0.11,1.31,0.7,2.98,2.15,3.19c0.27,0.04,0.53,0.06,0.8,0.1c0,0,0,0.01,0,0.01
			c0.02,0,0.03,0,0.05,0c1.8,0.22,3.55,0.28,5.37,0.04c1.61-0.21,3-1.23,3-3C47.44,149.06,47.18,148.4,46.78,147.85z"/>
		<path class="st50" d="M130.17,174.03c-0.76-0.31-1.76-0.29-2.56,0.07c-0.44-0.24-0.93-0.39-1.4-0.39c-1.76,0-2.83,1.38-3,3
			c-0.18,1.74-0.36,3.48-0.54,5.22c-0.12,1.15,0.85,2.34,1.84,2.74c0.78,0.31,1.53,0.29,2.22,0.01c1.63,0.41,3.08-0.6,3.62-2.11
			c0.59-1.65,1.11-3.32,1.55-5.01C132.29,176.13,131.56,174.58,130.17,174.03z"/>
		<path class="st50" d="M178.43,43.2c-1.5-1.22-2.37-2.5-3.21-4.21c-0.9-1.84-1.41-3.46-3.4-2.31c-0.56,0.32-1.52,1.52-1.99,1.84
			c-0.31,0.01-1.11-0.83-1.44-0.67c-0.59,0.02-1.56,0.86-2.04,1.03c-2.01,0.73-2.94,2.55-3.71,4.4c-0.75,1.8,0.49,4.35,2.25,4.53
			c0.81,2.88,0.84,4.01,3.5,4.67c2.53,0.63,3.96-1.08,5.83-2.35c1.91-1.3,4.29-1.49,4.98-4.02
			C179.46,45.18,179.24,43.86,178.43,43.2z"/>
		<path class="st50" d="M137.85,17.5c0.26-1.37,0.13-2.83-0.35-4.11c-0.07-0.44-0.16-0.89-0.26-1.34c-0.36-1.65-1.99-2.29-3.45-2.07
			c-0.85-0.15-1.82-0.06-2.88,0.37c-1.05,0.43-1.73,1.07-2.2,1.86c-2.11-2.57-6.68,0.3-4.86,3.49c0.08,0.14,0.18,0.37,0.29,0.65
			c-0.45,0.24-0.84,0.6-1.13,1.11c-0.83,1.5-1.58,3.01-2.25,4.56c-1.5-0.77-3.05-0.19-4.01,1.12c-0.64,0.87-0.83,1.34-1.06,2.4
			c-0.38,1.78,0.84,3.93,2.89,3.8c0.11,0,0.22-0.01,0.34-0.02c-0.46,1.75-0.94,4.33-1.15,4.94c-0.41,1.17,0.26,2.83,1.38,3.39
			c0.88,0.44,1.76,0.87,2.64,1.31c-0.01,0.09-0.02,0.17-0.03,0.26c-0.28,3.35,5.23,4.11,5.89,0.8l0.42-2.1
			c0.53-1.3,1.06-2.59,1.58-3.89c1.41,0,2.95-0.54,4.41-1.77C138.14,28.8,138.31,22.82,137.85,17.5z"/>
		<path class="st51" d="M139.15,4.82c-0.24-0.08-0.47-0.12-0.7-0.14c-1.28-0.23-2.56-0.28-3.84-0.14c0.47-0.63,0.83-1.35,1.06-2.13
			c0.36-1.24-1.57-1.77-1.93-0.53c-0.09,0.31-0.22,0.6-0.37,0.88c-0.2-0.1-0.43-0.13-0.66-0.04c-3.52,1.38-7.34,1.37-10.95,2.38
			c-2.68,0.75-5.9,2.35-6.77,5.14c-0.3-0.06-0.63,0-0.87,0.27c-2.02,2.24-3.19,5.12-3.22,8.15c-0.04,3.46,1.57,6.26,3.49,9.01
			c0.5,0.72,1.84,1.19,1.72,0.11c-0.11-0.92,0.01-2.46,0.18-3.38c0.05-0.27,0.31-1.84,0.66-1.98c0.1-0.01,0.21-0.03,0.31-0.06
			c0.17-0.05,0.3-0.15,0.4-0.26c0.47,0.32,0.98,0.37,1.42,0.18c0.55,0.25,1.31,0.08,1.46-0.6c0.23-1.05,1.04-1.67,1.73-2.43
			c0.69-0.76,1.24-1.59,1.62-2.54c0.45-1.11,0.65-2.34,0.58-3.55c1.31-1.41,3.86-1.34,5.64-1.4c1.1-0.04,2.19,0,3.26,0.27
			c0.87,0.22,1.69,0.57,2.59,0.67c0.15,0.02,0.31,0.02,0.47,0.02c0.21,0.08,0.42,0.16,0.64,0.21c0.87,0.19,1.59-0.33,1.84-1.13
			c0.23-0.23,0.43-0.5,0.56-0.82c0.55-1.28,0.04-2.87-0.63-4.2C139.92,6.8,140.29,5.19,139.15,4.82z"/>
		<path class="st51" d="M122.65,103.93c-5.15,4.27-22.07-3.78-22.81-4.13c-2.42-1.18-10.77-4.32-10.77-4.32
			c-4.03,6.18-8.67,27.36-21.07,35.69c-5.39,3.62-17.17,8.08-23.52,8.88c-2.02,7.87,1.38,15.81,1.38,15.81
			c9.63,0,27.83-5.72,30.34-6.73c7.98-3.23,16.55-5.43,28.6-27.27c0.22-0.4,7.27,5.09,10.55,7.09c3.34,2.03,9.02,5.25,10.78,8.91
			c2.1,4.36,0.58,10.56-0.17,15.16c-1,6.08-4.43,14.62-5.52,20.68c1.96,3.58,11.59,2.95,15.43,2.05c3.8-8.62,9.83-35.27,9.95-36.27
			C147.19,128.35,126.78,109.07,122.65,103.93z"/>
		<path class="st49" d="M158.68,48.12c-1.46-1.98-9.85,4.25-15.15,8.12c-1.01,0.74-7.22,1.59-7.05,0.77
			c0.71-1.55,0.55-10.96-0.41-12.31c0.2-1.85,0.45-1.09,1.03-3.02c0.9-2.95-0.84-7.5-3.2-8.71c0,0-2.9,0.57-4.09,1.04
			c-1.58,3.66-2.07,6.45-2.07,6.45s-1.81-0.45-3.12-1.24c0,0-5.74-2.98-7.28-4.21c0.7-1.48,2.54-6.54,2.54-6.54
			c-1.96,1.35-4.23-0.37-5.33-0.75c1.09-1.42-4.41-1.1-6.25,0.71c-2.46,2.42-3.17,6.75-1.77,10.52c-3.8,2.11-5.72,7.79-7.6,13.21
			c0,0-2.24,1.57-4.64,3.25c-2.02,1.41-4.24,3.28-5.62,5.38c-1.69,2.58-2.4,3.04-1.15,7.58c0.46,1.65,1.45,5.72,3.29,8.68
			c-2.45,6.54-1.43,8.89-1.41,9.19c-1.63,2.91-3.35,7.21,0.76,9.19c5.39,2.6,9.64,4.91,15.43,6.47c4.97,1.34,13.56,4.11,17.27,1.36
			c1.16-0.86,1.56-5.66,1.56-5.66c4.22-1.73,4.87-9.28,6.12-14.41c0.97-4.01,2.35-5.6,3.18-9.62c13.1,4.6,21.29-6.2,28.83-12.97
			c2.43-2.18,2.59-3.81,2.59-3.81c1.02-1.07,2.28-1.62,3.17-2.62c0.6-0.68-2.36-6.7-5.37-8.03
			C162.93,46.14,160.45,47.68,158.68,48.12z"/>
		<g>
			<g>
				<g>
					<polyline class="st53" points="207.43,145.43 177.8,145.43 177.8,169.59 145.27,169.59 145.27,190.91 110.02,190.91 
						110.02,215.8 124.64,227.93 224.34,227.93 					"/>
					<polyline class="st53" points="224.34,156.76 207.43,145.43 193.55,180.2 161.71,180.2 161.71,202.84 124.64,202.84 
						124.64,227.93 224.34,227.93 					"/>
					<line class="st37" x1="193.55" y1="156.76" x2="177.8" y2="145.43"/>
					<line class="st37" x1="161.71" y1="180.2" x2="145.27" y2="169.59"/>
					<line class="st37" x1="124.64" y1="202.84" x2="110.02" y2="190.91"/>
					<polyline class="st37" points="207.43,145.43 177.8,145.43 177.8,169.59 145.27,169.59 145.27,190.91 110.02,190.91 
						110.02,215.8 124.64,227.93 					"/>
					<polyline class="st37" points="224.34,156.76 193.55,156.76 193.55,180.2 161.71,180.2 161.71,202.84 124.64,202.84 
						124.64,227.93 224.34,227.93 					"/>
				</g>
			</g>
			<g>
				<g>
					<path class="st36" d="M133.68,74.36c0,0-2.77,6.84-4.68,16.09c-1.9,9.24-6.33,9.09-22.32,4.81
						c-13.69-3.67-16.09-5.18-17.38-9.61c-1.29-4.44,4.81-12.02,8.51-28.29c3.7-16.27,8.87-18.12,8.87-18.12s5.67-0.43,9.22,2.9"/>
					<path class="st36" d="M117.04,45.89c0,0,17.2,12.94,23.3,11.83c6.1-1.11,13.5-9.61,17.2-9.61c3.7,0,9.61,7.86,6.47,11.37
						c-3.14,3.51-13.13,13.04-17.56,14.33s-9.06,2.16-17.44-2.22c-10.29-5.38-18.62-11.05-18.62-11.05"/>
					<path class="st36" d="M159.23,48.56c0,0,3.12-1.83,3.87-2.16c0.8-0.35,5.05,5.31,5.56,6.99c0.52,1.68-3.77,3.88-3.77,3.88"/>
					<path class="st36" d="M168.66,53.4c0,0,7.12-2.85,8.93-4.92c1.81-2.07,1.68-3.62,0.65-4.92c-1.04-1.29-3.63-7.52-5.82-6.99
						c-1.39,0.34-3.36,3.23-5.31,3.88"/>
					<path class="st36" d="M163.09,46.41c0,0-1.68-2.46,0-4.66c1.68-2.2,4.88-4.82,6.91-3.57"/>
					<path class="st36" d="M136.23,44.97c0,0,2.27,7.02,0.41,12.31"/>
					<path class="st36" d="M106.68,39.23c0,0-1.98-5.85,1.1-9.42c3-3.48,6.02-2.74,6.02-2.74"/>
					<path class="st36" d="M138.19,12.99c0,0,0.35,3.72,0,5.76s-0.35,2.04,0,4.34c0.42,2.75-2.48,14.35-10.81,10.05
						c-3.21-1.66-3.81-2.79-3.81-2.79"/>
					<path class="st37" d="M117.39,28.99c0,0-2.67,1.1-5.15-5.01s0.9-12.14,2.58-13.82s3.27-5.05,9.65-5.67s10.1-2.48,10.81-3.99
						c0,0,1.02,1.58-0.62,3.7c5.23-0.49,5.72,1.63,5.89,2.45l-1.6-0.09c0,0,1.81,2.41,0.78,4.49s-1.55,2.38-4,1.93
						s-8.75-2.25-11.44,0c0.25,3.8-0.98,5.68-2.45,6.74c-1.47,1.06-1.26,3.44-1.26,3.44c-1.24-1.68-4.34-1.77-4.78,2.04
						s2.39,4.61,4.25,3.54c-0.44,2.3-2.45,6.27-2.54,6.54"/>
					<path class="st37" d="M114.7,28.01c0,0-2.54,2.54,0,5.13s12.91,8.99,16.26,7.79c2.05-0.74,1.63-2.79,0.74-4.38
						s-1.8-2.46-1.8-2.46s-1.57,4.28-2,6.66"/>
					<path class="st36" d="M133.68,45.89c0,0,4.38-0.9,3.7-6.02c-0.69-5.12-3.49-6.75-3.49-6.75"/>
					<line class="st36" x1="125.95" y1="44.01" x2="125.95" y2="51.84"/>
					<line class="st36" x1="130.96" y1="45.09" x2="130.96" y2="54.83"/>
					<path class="st36" d="M98.44,53.02c0,0-12.39,7.24-11.52,12.62c0.87,5.38,4.05,11.68,4.05,11.68"/>
					<path class="st36" d="M128.14,18.69c0,0,1.53-1.27,2.83-0.42"/>
					<path class="st36" d="M135.56,18.34c1.56-1.14,2.63,0.41,2.63,0.41"/>
					<path class="st36" d="M133.22,23.32c0,0,1.16,0.44,0.78,1.25c-0.37,0.82-1.24,0.9-1.24,0.9"/>
					<path class="st36" d="M129.97,28.21c0,0,0.88,0.95,2.03,0.84s1.52-0.53,1.52-0.53"/>
					
						<ellipse transform="matrix(0.1413 -0.99 0.99 0.1413 90.1844 146.7742)" class="st34" cx="129.69" cy="21.4" rx="1.14" ry="0.9"/>
					
						<ellipse transform="matrix(0.1413 -0.99 0.99 0.1413 95.564 152.2855)" class="st34" cx="135.56" cy="21.06" rx="1.14" ry="0.9"/>
					<path class="st37" d="M122.65,103.93c0,0,19.95,22.44,22.87,29.86c2.93,7.42-9.65,41.96-9.65,41.96s-11.27,3.8-15.43-2.05
						c2.97-10.02,9.39-31.02,5.69-35.84s-21.33-16-21.33-16"/>
					<path class="st36" d="M107.78,114.05c-0.57,3.42-8.8,23.93-23.6,31.84c-14.79,7.91-38.32,9.96-38.32,9.96
						s-3.76-11.05-1.38-15.81c8.87-2.45,24.47-5.95,30.73-15.93s13.86-28.65,13.86-28.65"/>
					<path class="st36" d="M124.58,97.87l-1.35,5.15c0,0-0.29,3.94-13.3,0.37s-20.69-7.36-22.17-10.15
						c-0.59-1.11,1.79-6.73,1.79-6.73"/>
				</g>
				<g>
					<path class="st52" d="M120.99,182.46c0.43,0.13,7.18,1.41,10.1-0.86c2.92-2.28,4.11,1.58,8.38,3.69
						c4.27,2.1,10.81,3.54,10.81,3.54s4.12,5.17-5.84,7.66c-9.96,2.49-25.53-2.61-26.39-4.46S120.99,182.46,120.99,182.46z"/>
					<path class="st37" d="M122.4,189.24c0,0,12.61,5.94,23.54,1.84"/>
				</g>
				<line class="st37" x1="123.72" y1="176.17" x2="122.4" y2="182.71"/>
				<polyline class="st37" points="131.09,181.6 131.52,179.34 132.04,176.64 				"/>
				<g>
					<path class="st52" d="M38.08,143.44c-0.1,0.44-0.92,7.26,1.55,10.02c2.47,2.76-1.3,4.21-3.1,8.62
						c-1.81,4.4-2.79,11.03-2.79,11.03s-4.88,4.47-8.04-5.3s0.85-25.65,2.64-26.63C30.13,140.18,38.08,143.44,38.08,143.44z"/>
					<path class="st37" d="M31.42,145.31c0,0-5.06,12.99-0.22,23.61"/>
				</g>
				<line class="st37" x1="43.35" y1="144.74" x2="38.14" y2="144.68"/>
				<polyline class="st37" points="39.38,152.99 41.67,153 44.43,153 				"/>
			</g>
		</g>
		<path class="st37" d="M148.12,80.77c5.75-1.47,11.14-4.32,15.6-8.24"/>
		<path class="st37" d="M80.77,46.42c-4.32,3.53-6.12,9.85-4.31,15.13"/>
		<path class="st37" d="M76.23,165.19c5.94-1.2,11.62-3.69,16.53-7.26"/>
	</g>
	<rect x="0.5" class="st22" width="242.02" height="232.04"/>
</g>
</svg>
