<svg id="Layer_1" data-name="Layer 1" xmlns="http://www.w3.org/2000/svg" xmlns:xlink="http://www.w3.org/1999/xlink" viewBox="0 0 251.75 200.68"><defs><style>.cls-1,.cls-9{fill:none;}.cls-1{stroke:#c7c7c7;stroke-linecap:round;stroke-miterlimit:10;stroke-width:2px;stroke-dasharray:0 8;}.cls-2{fill:url(#linear-gradient);}.cls-3{fill:url(#linear-gradient-2);}.cls-4{fill:url(#linear-gradient-3);}.cls-5{fill:url(#linear-gradient-4);}.cls-6{fill:#b1d7db;}.cls-7{fill:#ffa4e2;}.cls-8{fill:#ffb48f;}</style><linearGradient id="linear-gradient" x1="115.38" y1="96.78" x2="139.35" y2="103.9" gradientUnits="userSpaceOnUse"><stop offset="0" stop-color="#b1d7db"/><stop offset="1" stop-color="#8078e1"/></linearGradient><linearGradient id="linear-gradient-2" x1="36.14" y1="55.17" x2="56.14" y2="55.17" gradientUnits="userSpaceOnUse"><stop offset="0" stop-color="#ffb291"/><stop offset="1" stop-color="#8078e1"/></linearGradient><linearGradient id="linear-gradient-3" x1="195.61" y1="55.17" x2="215.61" y2="55.17" gradientUnits="userSpaceOnUse"><stop offset="0" stop-color="#ffb291"/><stop offset="1" stop-color="#e6c0e3"/></linearGradient><linearGradient id="linear-gradient-4" x1="117.37" y1="190.68" x2="137.37" y2="190.68" gradientUnits="userSpaceOnUse"><stop offset="0" stop-color="#a7e6e1"/><stop offset="1" stop-color="#e6c0e3"/></linearGradient></defs><polygon class="cls-1" points="46.14 55.17 205.61 55.17 127.37 190.68 46.14 55.17"/><polygon class="cls-1" points="127.37 10 49.13 145.51 205.61 145.51 127.37 10"/><polygon class="cls-1" points="205.61 55.17 127.37 10 49.13 55.17 49.13 145.51 127.37 190.68 205.61 145.51 205.61 55.17"/><polyline class="cls-1" points="205.61 55.17 127.37 100.34 49.13 55.17"/><polyline class="cls-1" points="49.13 145.51 127.37 100.34 205.61 145.51"/><line class="cls-1" x1="127.37" y1="190.68" x2="127.37" y2="100.34"/><line class="cls-1" x1="127.37" y1="100.34" x2="127.37" y2="10"/><circle class="cls-2" cx="127.37" cy="100.34" r="12.5"/><circle class="cls-3" cx="46.14" cy="55.17" r="10"/><circle class="cls-4" cx="205.61" cy="55.17" r="10"/><circle class="cls-5" cx="127.37" cy="190.68" r="10"/><circle class="cls-6" cx="205.61" cy="145.51" r="10"/><circle class="cls-7" cx="49.13" cy="145.51" r="10"/><circle class="cls-8" cx="127.37" cy="10" r="10"/><rect class="cls-9" y="-0.69" width="251.75" height="203.89"/></svg>