<?xml version="1.0" encoding="utf-8"?>
<!-- Generator: Adobe Illustrator 24.0.1, SVG Export Plug-In . SVG Version: 6.00 Build 0)  -->
<svg version="1.1" id="Layer_1" xmlns="http://www.w3.org/2000/svg" xmlns:xlink="http://www.w3.org/1999/xlink" x="0px" y="0px"
	 viewBox="0 0 242.52 230.59" style="enable-background:new 0 0 242.52 230.59;" xml:space="preserve">
<style type="text/css">
	.st0{fill:none;stroke:#C7C7C7;stroke-width:2;stroke-linecap:round;stroke-miterlimit:10;stroke-dasharray:0,8;}
	.st1{fill:url(#SVGID_1_);}
	.st2{fill:url(#SVGID_2_);}
	.st3{fill:url(#SVGID_3_);}
	.st4{fill:url(#SVGID_4_);}
	.st5{fill:#B1D7DB;}
	.st6{fill:#FFA4E2;}
	.st7{fill:#FFB48F;}
	.st8{fill:none;stroke:#C7C7C7;stroke-width:2;stroke-linecap:round;stroke-miterlimit:10;}
	.st9{fill:none;stroke:#C7C7C7;stroke-width:2;stroke-linecap:round;stroke-miterlimit:10;stroke-dasharray:0,8.0579;}
	.st10{fill:url(#SVGID_5_);}
	.st11{fill:url(#SVGID_6_);}
	.st12{fill:#A2E6C4;}
	.st13{fill:none;stroke:#8078E1;stroke-width:2;stroke-linecap:round;stroke-miterlimit:10;}
	.st14{fill:none;stroke:#FFB291;stroke-width:4;stroke-linecap:round;stroke-miterlimit:10;stroke-dasharray:43,8;}
	.st15{fill:url(#SVGID_7_);}
	.st16{fill:none;stroke:#A2E6C4;stroke-width:2;stroke-linecap:round;stroke-miterlimit:10;stroke-dasharray:43,8;}
	.st17{fill:none;stroke:#FFA4E2;stroke-width:2;stroke-linecap:round;stroke-miterlimit:10;}
	.st18{fill:none;stroke:#A2E6C4;stroke-width:2;stroke-miterlimit:10;}
	.st19{fill:none;stroke:#FFB291;stroke-width:2;stroke-linecap:round;stroke-miterlimit:10;}
	.st20{fill:none;stroke:#FFB291;stroke-width:2;stroke-linecap:round;stroke-miterlimit:10;stroke-dasharray:43,8;}
	.st21{fill:none;stroke:#8078E1;stroke-linecap:round;stroke-miterlimit:10;}
	.st22{fill:none;}
	.st23{fill:#4D4D4D;stroke:#4D4D4D;stroke-linecap:round;stroke-linejoin:round;stroke-miterlimit:10;}
	.st24{fill:url(#SVGID_8_);}
	.st25{fill:none;stroke:#BAD7DB;stroke-width:2;stroke-linecap:round;stroke-linejoin:round;stroke-miterlimit:10;}
	.st26{fill:#EDEDED;stroke:#4D4D4D;stroke-linecap:round;stroke-linejoin:round;stroke-miterlimit:10;}
	.st27{fill:#FFFFFF;stroke:#4D4D4D;stroke-linecap:round;stroke-linejoin:round;stroke-miterlimit:10;}
	.st28{fill:#445D78;stroke:#4D4D4D;stroke-linecap:round;stroke-linejoin:round;stroke-miterlimit:10;}
	.st29{fill:none;stroke:#4D4D4D;stroke-linecap:round;stroke-linejoin:round;stroke-miterlimit:10;}
	.st30{fill:url(#SVGID_9_);}
	.st31{fill:#6B5641;}
	.st32{fill:#FFFFFF;}
	.st33{fill:#F2DACA;}
	.st34{fill:#333333;}
	.st35{fill:#BDD5DB;}
	.st36{fill:none;stroke:#333333;stroke-linecap:round;stroke-miterlimit:10;}
	.st37{fill:none;stroke:#333333;stroke-linecap:round;stroke-linejoin:round;stroke-miterlimit:10;}
	.st38{fill:#ED9E8C;}
	.st39{fill:url(#SVGID_10_);}
	.st40{fill:url(#SVGID_11_);}
	.st41{fill:url(#SVGID_12_);}
	.st42{fill:none;stroke:#FFFFFF;stroke-linecap:round;stroke-linejoin:round;stroke-miterlimit:10;}
	.st43{fill:url(#SVGID_13_);}
	.st44{fill:url(#SVGID_14_);}
	.st45{fill:#4D4D4D;}
	.st46{fill:none;stroke:#4D4D4D;stroke-linecap:round;stroke-miterlimit:10;}
	.st47{fill:none;stroke:#4D4D4D;stroke-miterlimit:10;}
	.st48{fill:url(#SVGID_15_);}
	.st49{fill:#6A8FBA;}
	.st50{fill:#F7DFCF;}
	.st51{fill:#373F48;}
	.st52{fill:#FFFFFF;stroke:#333333;stroke-linecap:round;stroke-linejoin:round;stroke-miterlimit:10;}
	.st53{fill:#C0D8DE;}
	.st54{fill:url(#SVGID_16_);}
	.st55{fill:none;stroke:#4D4D4D;stroke-width:2;stroke-linecap:round;stroke-miterlimit:10;}
	.st56{fill:none;stroke:#4D4D4D;stroke-width:2;stroke-linecap:round;stroke-miterlimit:10;stroke-dasharray:0,8.0579;}
	.st57{fill:url(#SVGID_17_);}
	.st58{fill:url(#SVGID_18_);}
	.st59{fill:none;stroke:#4D4D4D;stroke-width:2;stroke-linecap:round;stroke-miterlimit:10;stroke-dasharray:0,8;}
	.st60{fill:url(#SVGID_19_);}
	.st61{fill:url(#SVGID_20_);}
	.st62{fill:url(#SVGID_21_);}
	.st63{fill:url(#SVGID_22_);}
	.st64{fill:url(#SVGID_23_);}
</style>
<g>
	<rect x="51.34" y="176.5" class="st32" width="98.36" height="4.68"/>
	<path class="st49" d="M239.25,154.66c-3.22-7.98-5.32-13.16-8.86-19.39c-6.43-11.29-13.1-28.26-29.56-29.99
		c-0.21-0.02-3.04-4.47-5.09-6.35c-1.06-0.97-3.36-1.88-4.51-2.12c-4.73-3.12-9.69,1.67-10.26,6.22c-0.42,3.35-0.99,6.68-1.68,9.98
		c-1.07,0.06-2.19,0.46-3.32,1.29c-5.5,4.04-6.03,10.15-6.83,16.55c-0.79,6.34-3.43,9.46-2.83,15.8c-1.01,0.35,0.59,3.87-0.38,4.17
		c-5.3,1.65-10.6-1.31-15.85-1.07c-0.84-1.26-2.07,1.52-3.76,1.12c-5.97-1.43-11.94-0.94-17.29,1.07
		c-3.45-0.59-6.91-1.28-10.38-2.03c-5.2-1.12-9.99,3.24-8.61,8.61c0.66,2.55,1.16,5.45,1.83,8.28c-1.04,2.5-1.29,4.35-0.63,7.19
		c0.9,3.87-0.22,2.74,2.92,2.31c1.68,1.03,7.12,0.08,9.76,0c5-0.15,8.35,0.53,13.21,0.2c4.24-0.28,10.6-0.2,10.6-0.2
		c8.01,0.28,11.86-9.22,19.82-11.41c-0.03,3.16,0.08,6.32,0.32,9.49c0.53,6.9,5.53,6.45,9.1,4.63c2.16,3.79,15.31,2.76,20.89,3.4
		c12.46,1.42,31.05,2.58,41.58-6.17C244.05,172.42,242.54,161.93,239.25,154.66z"/>
	<path class="st49" d="M73.85,152.41c-5.19-0.3-14.01,2.47-18.92,4.4c-4.88,1.91-5.77,2.57-6.41,5.71
		c-3.52-0.22-6.89,0.82-6.89,0.82c1.32,0.75,3.47,6.28,4.06,7.73c0.12,0.31,0.17,0.65,0.2,0.97c-0.19,0.66-0.51,1.32-0.96,1.97
		c-1.41,2.02-3.05,2.81-1.12,3.56c2.1,0.81,6.65-0.27,7.68-1.72c0,0,7.03,0,10.17-0.02c2.69-0.02,11.55,0.48,11.55,0.48
		c0.33-2.41,6.08-23.91,6.08-23.91S76.49,152.56,73.85,152.41z"/>
	<path class="st32" d="M37.24,170.87c-0.95-1.06-2.54-1.37-3.9-1.56c-5.66-0.79-10.71,2.35-12.97,7.43
		c-3.86,0.34-7.73,0.95-11.63,0.62c-1.35-0.12-2.5,1.23-2.5,2.5c0,1.45,1.15,2.38,2.5,2.5c6.39,0.55,12.86-1.84,19.2-0.56
		c2.65,0.53,3.95-2.54,2.45-4.12c1.91-0.81,3.96-1.26,5.81-2.24C37.88,174.55,38.6,172.39,37.24,170.87z"/>
	<path class="st50" d="M44.72,167.15c-0.46-0.58-1.01-1.1-1.61-1.54c-0.37-0.68-0.76-1.88-1.47-2.28c-0.49-0.28-2.78-0.36-3.52-0.27
		c-4.48,0.51-8.8-1.11-13.22-1.55c-2.63-0.27-6.23-0.37-8.51,1.22c-0.56-0.32-1.22-0.46-1.85-0.3c-2.99,0.75-5.8,2.34-7.92,4.6
		c-2.17,2.32-3.67,5.23-5.67,7.7c-1.74,2.14-0.25,4.5,2.38,3.1c0,0,0.83-0.36,0.84-0.36c0.17,0.42,0.25,1.97,0.61,2.24
		c0.77,0.57,1.62,0.63,2.4,0.32c0.35,0.06,0.81-0.46,1.16-0.48c1.32-0.09,1.99-0.68,2.82-1.58c-0.09,1.06,0.83,1.97,1.7,1.86
		c1.1-0.14,3.33,0,4.98-1.8c2.09-2.28,4.28-4.47,6.36-6.76c4.55-0.94,15.15-0.15,13.38,2.33c-2.6,1.55-5.32,2.8-8.21,3.71
		c-2.34,0.74-2.41,4.11,0,4.82c1.74,0.51,7.06-1.32,7.2-1.37c2.68-0.94,4.71-0.78,6.37-2.37c0.74-0.72,2.81-3.61,3.1-4.49
		C46.79,171.57,46.23,169.05,44.72,167.15z"/>
	<path class="st50" d="M168.85,162.74c-2.27-0.63-7.14-1.06-9.39-1.75c-1.07-0.33-2.07-0.9-3.16-1.19c-0.81-0.22-1.62-0.26-2.43-0.2
		c-1.04-0.23-2.17-0.25-3.13-0.2c-3.21,0.17-5.84,1.56-8.58,3.1c-2.89,1.63-5.79,3.26-8.68,4.89c-0.49,0.28-0.83,0.7-1.02,1.19
		c-1.57,0.99-2.86,2.31-3.83,3.91c-1.32,2.2,1.15,4.24,3.04,3.59c0.47,0.54,1.13,0.9,1.84,0.84c0.82-0.06,1.57-0.25,2.29-0.5
		c0.43,0.12,0.88,0.15,1.34,0.08c1.85-0.31,3.79-0.4,5.37-1.49c0.54-0.37,1.08-0.63,1.64-0.77c0.13,0,0.27,0,0.4,0.01
		c3.16,2.17,6.87,3.34,10.6,4.23c2.3,0.55,5.03,0.95,7.22,0.1c1.8-0.7,4.35-0.58,6.63,0.58c1.67,0.84-0.75-2.79-0.81-4.65
		C168.09,171.91,167.84,165.9,168.85,162.74z"/>
	<path class="st50" d="M194.79,56.51c-1.77-0.48-3.46-0.64-5.05-0.54c-1.71-0.89-3.51-1-5.17-0.52c-3.38-1.62-7.76-1.2-10.28,2.91
		c-4.49,7.33-4.88,17.19-5.36,25.6c-0.23,3.98-1.15,7.36-1.81,11.25c-0.58,3.43-1.08,6.19-2.73,9.04c-0.28,0.39-0.55,0.8-0.8,1.26
		c-5.06,9.13,7.55,14.23,7.21,14.17c0.02,0.01,11.66-8.77,11.66-8.77c0.79-2.05,1.76-10.33,1.85-10.58
		c1.02-0.11,3.22-1.35,4.24-1.95c4.32-2.56,7.56-6.51,9.07-11.11c1.54-3.15,2.22-5.26,3.93-8.34
		C206.35,70.3,205.05,59.28,194.79,56.51z"/>
	<path class="st51" d="M211.35,55.45c-0.2-1.58-1.2-2.9-2.04-4.18c0.48-1.11,2.04-3.49,2.04-3.49c-3.24,0.13-10.21-7.44-17.57-5.57
		c1.14-2.25,2.41-4.51,1.48-4.99c-4.32,4.55-22.56,2.38-23.44,9.61c-6.67-0.86-12.27,2.72-12.77,9.57c0,0,11.99,10.47,13.07,7.97
		c0.71-1.66,3.41-6.68,4.18-7.4c0.04-0.01,0.07-0.01,0.11-0.02c4.64-1.43,9.08-2.25,13.89-1.45c3.33,0.56,13.66,1.76,13.58,10.95
		C211.72,64.53,211.46,56.27,211.35,55.45z"/>
	<path class="st37" d="M191.6,96.24c0,0,14.17,6.74,9.1,18.32c-4.1,9.35-18.22,9.35-18.22,9.35"/>
	<line class="st52" x1="184.34" y1="100.33" x2="182.48" y2="110.9"/>
	<path class="st37" d="M186.55,109.01c0,0-13.16,4.98-18.36,14.9"/>
	<path class="st37" d="M201.2,105.83c0,0,9.78-0.06,14.94,6.74c5.16,6.8,27.18,40.02,25.82,57.72c-0.72,9.38-12.2,13.13-34.35,12.42
		c-22.15-0.7-30.13-0.75-30.84-4.33c-1.83-9.17-2.89-19.92,3.2-20.1c8.06-0.24,32.93,0.31,32.93,0.31s-13.54-14.82-16.7-23.73"/>
	<path class="st37" d="M175.44,161.62c0,0-2.93-1.24-5.76,0.14c-2.6,1.27-2.35,14.97,0.11,17.4c1.45,1.42,7.57,0.39,7.57,0.39"/>
	<g>
		<path class="st37" d="M168.69,70.17c0,0,4.4-7.3,6.66-12.21c1.08-2.35,11.76-4.44,21.81-0.77c7.28,2.66,6.73,9.28,6.73,9.28
			s0.72,7.29-2.04,11.95c-3.14,5.29-2.62,13.45-13.04,19.76c-10.42,6.3-18.42-1.59-22.04-7.83"/>
		<path class="st37" d="M156.76,70.73c0,0,0.1-10.58,3-17.32c3.55-8.26,11.97-6.95,11.98-6.94c2.86-7.52,17.72-4.2,22.1-8.59
			c0.39-0.39,0.91-0.85,1.43-0.64c0.47,1.77-0.13,3.77-1.48,4.99c3.1-0.16,6.65,0.27,9.4,1.71c1.53,0.8,6.57,4.5,8.17,3.86
			c-0.6,2.09-2.44,2.76-2.04,3.49c2.07,3.8,2.42,7.09,1.16,9.96s-3.85,5.44-6.59,5.23"/>
		<path class="st37" d="M196.2,70.22c2.61-0.35,4.04,0.51,4.95,2.98"/>
		<path class="st37" d="M181.54,66.01c2.02-1.27,4.92-0.89,6.55,0.86"/>
		<path class="st37" d="M187.76,79.42c0.66,0.08,1.47,0.3,1.6,0.95c0.09,0.44-0.16,1.53-1.55,2.02"/>
		<path class="st37" d="M179.28,85.77c0.55,3.05,6.09,5.27,8.81,3.5"/>
		
			<ellipse transform="matrix(0.3544 -0.9351 0.9351 0.3544 49.9449 217.758)" class="st34" cx="182.67" cy="72.71" rx="2.22" ry="1.66"/>
		
			<ellipse transform="matrix(0.3544 -0.9351 0.9351 0.3544 54.1828 232.4621)" class="st34" cx="195.43" cy="76.99" rx="2.22" ry="1.66"/>
	</g>
	<path class="st37" d="M169.9,179.2c-0.47,0.05-0.95-0.07-1.41-0.2c-1.25-0.35-2.49-0.73-3.72-1.15c-1.67,0.41-3.56,1.28-5.26,1.5
		c-1,0.13-2.02,0.03-3.01-0.13c-3.58-0.57-7.04-1.87-10.12-3.79c-0.5-0.31-1-0.65-1.58-0.74c-0.46-0.08-0.92,0-1.38,0.09
		c-2.21,0.42-4.4,1.02-6.52,1.78c-0.9,0.32-1.82,0.68-2.78,0.67c-0.96-0.01-1.99-0.5-2.32-1.4c-0.3-0.81,0.04-1.75,0.63-2.39
		c0.59-0.64,1.39-1.03,2.17-1.41c3.16-1.53,6.39-3.05,9.86-3.6c1.59-0.25,3.29-0.28,4.73,0.43"/>
	<path class="st37" d="M168.41,162.52c-3.35-0.29-6.62-1.18-9.87-2.06c-4-1.07-6.26-1.67-10.28-0.68
		c-1.27,0.31-10.95,3.65-17.28,9.71"/>
	<path class="st37" d="M131.76,176.19c0,0-3.62,1.48-3.63-2c-0.03-6.46,15.49-10.76,21.17-10.76"/>
	<polyline class="st37" points="149.7,177.18 149.7,181.17 114.98,181.17 	"/>
	<polyline class="st37" points="72.31,181.17 51.34,181.17 51.34,176.3 73.21,176.3 	"/>
	<line class="st37" x1="114.17" y1="176.3" x2="128.89" y2="176.3"/>
	<line class="st37" x1="137.87" y1="176.5" x2="147.74" y2="176.3"/>
	<g>
		<path class="st52" d="M25.55,152.59H161.8c4.98,0,9.02-4.04,9.02-9.02V65.44c0-4.98-4.04-9.02-9.02-9.02H25.55
			c-4.98,0-9.02,4.04-9.02,9.02v78.13C16.52,148.55,20.56,152.59,25.55,152.59z"/>
		<path class="st52" d="M103.29,127.1H84.06c-1.32,0-2.46,0.93-2.68,2.21l-9.92,57.08c-0.28,1.62,1,3.11,2.68,3.11h39.08
			c1.68,0,2.96-1.48,2.68-3.11l-9.92-57.08C105.74,128.04,104.61,127.1,103.29,127.1z"/>
		<circle class="st53" cx="93.67" cy="93.38" r="10.99"/>
	</g>
	<path class="st37" d="M11.28,177.38c-0.76,1.58-3.17,2.63-5.53,2.45c-2.36-0.18-1.9-2.9-0.45-4.62s5.56-7.27,7.74-10.08
		s6.21-4.57,11.02-3.75c4.8,0.82,17.22,2.06,17.59,1.96c0,0,4.8,4.62,4.17,9.61c0,0-0.73,4.44-3.44,5.8
		c-2.72,1.36-10.42,4.35-12.69,3.44c-2.27-0.91-2.9-2.82-1.09-4.54c1.81-1.72,7.79-2.89,9.43-4.71c-2.99-2.27-9.44-1.89-12.37-1.71
		c-1.73,0.11-7.2,7.69-10.1,8.32C12.64,180.19,10.55,179.91,11.28,177.38c0.73-2.54,6.16-8.43,7.16-9.52c1-1.09,3.53-2.36,5.44-2.18
		"/>
	<path class="st37" d="M43.81,177.56c0,0,6.05,0.91,7.68-1.72c2.11-6.98-1.38-12.45-2.97-13.32c0,0-4.18-1.22-6.89,0.82"/>
	<path class="st37" d="M48.53,162.51c0,0,0-6.36,22.06-9.93"/>
	<line class="st37" x1="119.8" y1="152.59" x2="115.93" y2="176.3"/>
	<path class="st37" d="M16.36,162.4c-2.1,0-7.93,1.87-10.44,5.31c-2.27,3.11-5.33,7.17-5.41,8.55c-0.18,3.26,3.66,1.2,3.66,1.2"/>
	<path class="st37" d="M29.68,182.18c0,0-18.44,0.73-21.25,0.17c-2.8-0.56-2.68-2.52-2.68-2.52"/>
</g>
<line class="st37" x1="-1.45" y1="223.33" x2="245.66" y2="223.33"/>
</svg>
