<?xml version="1.0" encoding="utf-8"?>
<!-- Generator: Adobe Illustrator 24.0.1, SVG Export Plug-In . SVG Version: 6.00 Build 0)  -->
<svg version="1.1" id="Layer_1" xmlns="http://www.w3.org/2000/svg" xmlns:xlink="http://www.w3.org/1999/xlink" x="0px" y="0px"
	 viewBox="0 0 343.39 423.57" style="enable-background:new 0 0 343.39 423.57;" xml:space="preserve">
<style type="text/css">
	.st0{fill:#6B5641;}
	.st1{fill:#FFFFFF;}
	.st2{fill:#F7DFCF;}
	.st3{fill:#333333;}
	.st4{fill:#C2DAE0;}
	.st5{fill:none;stroke:#333333;stroke-linecap:round;stroke-miterlimit:10;}
	.st6{fill:none;stroke:#333333;stroke-linecap:round;stroke-linejoin:round;stroke-miterlimit:10;}
	.st7{fill:#F2A391;}
	.st8{fill:#FFFFFF;stroke:#333333;stroke-miterlimit:10;}
	.st9{clip-path:url(#SVGID_2_);fill:#FFFFFF;}
	.st10{clip-path:url(#SVGID_2_);}
	.st11{clip-path:url(#SVGID_2_);fill:none;stroke:#333333;stroke-miterlimit:10;}
	.st12{fill:#F2A391;stroke:#333333;stroke-linecap:round;stroke-miterlimit:10;}
	.st13{fill:#CCCCCC;}
	.st14{clip-path:url(#SVGID_4_);}
	.st15{fill:none;stroke:#333333;stroke-miterlimit:10;}
	.st16{fill:#FFFFFF;stroke:#333333;stroke-linejoin:round;stroke-miterlimit:10;}
	.st17{fill:none;stroke:#FFB796;stroke-width:2;stroke-linecap:round;stroke-miterlimit:10;stroke-dasharray:43,8;}
	.st18{fill:none;stroke:#8178E6;stroke-width:2;stroke-linecap:round;stroke-miterlimit:10;}
	.st19{fill:none;stroke:#A7EBC9;stroke-width:2;stroke-linecap:round;stroke-miterlimit:10;stroke-dasharray:43,8;}
	.st20{fill:url(#SVGID_5_);}
	.st21{clip-path:url(#SVGID_2_);fill:#B6DCE0;}
	.st22{clip-path:url(#SVGID_2_);fill:#F2A193;}
	.st23{clip-path:url(#SVGID_2_);fill:url(#SVGID_6_);}
	.st24{fill:url(#SVGID_7_);}
	.st25{fill:none;stroke:#FFFFFF;stroke-width:2;stroke-linecap:round;stroke-miterlimit:10;stroke-dasharray:0,8.0366;}
	.st26{fill:none;stroke:#FFFFFF;stroke-width:2;stroke-linecap:round;stroke-linejoin:round;stroke-miterlimit:10;}
	.st27{fill:none;}
	.st28{fill:url(#SVGID_8_);}
	.st29{fill:url(#SVGID_9_);}
	.st30{fill:url(#SVGID_10_);}
	.st31{fill:#BFDCE0;}
	.st32{fill:none;stroke:#FFFFFF;stroke-width:2;stroke-linecap:round;stroke-miterlimit:10;}
	.st33{fill:none;stroke:#FFFFFF;stroke-width:2;stroke-linecap:round;stroke-miterlimit:10;stroke-dasharray:0,7.8722;}
	.st34{fill:none;stroke:#FFFFFF;stroke-width:2;stroke-linecap:round;stroke-miterlimit:10;stroke-dasharray:0,8.5451;}
	.st35{fill:url(#SVGID_11_);}
	.st36{fill:none;stroke:#FFFFFF;stroke-width:2;stroke-linecap:round;stroke-miterlimit:10;stroke-dasharray:0,8.007;}
	.st37{fill:url(#SVGID_12_);}
	.st38{fill:url(#SVGID_13_);}
	.st39{fill:none;stroke:#4D4D4D;stroke-width:2;stroke-linecap:round;stroke-miterlimit:10;stroke-dasharray:0,8.0366;}
	.st40{fill:none;stroke:#4D4D4D;stroke-width:2;stroke-linecap:round;stroke-linejoin:round;stroke-miterlimit:10;}
	.st41{fill:url(#SVGID_14_);}
	.st42{fill:url(#SVGID_15_);}
	.st43{fill:url(#SVGID_16_);}
	.st44{fill:none;stroke:#4D4D4D;stroke-width:2;stroke-linecap:round;stroke-miterlimit:10;}
	.st45{fill:none;stroke:#4D4D4D;stroke-width:2;stroke-linecap:round;stroke-miterlimit:10;stroke-dasharray:0,7.8722;}
	.st46{fill:none;stroke:#4D4D4D;stroke-width:2;stroke-linecap:round;stroke-miterlimit:10;stroke-dasharray:0,8.5451;}
	.st47{fill:url(#SVGID_17_);}
	.st48{fill:none;stroke:#4D4D4D;stroke-width:2;stroke-linecap:round;stroke-miterlimit:10;stroke-dasharray:0,8.007;}
	.st49{fill:url(#SVGID_18_);}
	.st50{fill:url(#SVGID_19_);}
	.st51{fill:#6A8FBA;}
	.st52{fill:#E6E6E6;}
	.st53{fill:#373F48;}
</style>
<g>
	<g>
		<linearGradient id="SVGID_2_" gradientUnits="userSpaceOnUse" x1="49.0934" y1="212.0073" x2="453.9591" y2="212.0073">
			<stop  offset="0" style="stop-color:#B6DCE0"/>
			<stop  offset="1" style="stop-color:#8178E6"/>
		</linearGradient>
		<circle style="fill:url(#SVGID_2_);" cx="171.69" cy="212.01" r="122.6"/>
		<g>
			<g>
				<path class="st2" d="M131.31,88.48c-1.14-5.61-4.79-10.04-11.66-10.73c-1.01-0.1-1.95,0.11-2.8,0.53
					c-3.02-4.24-8.18-4.14-8.18-4.14c-0.58,2.01-4.66,9.69-5.24,11.7c-0.16,0.57-0.33,1.14-0.49,1.71c-0.23,0.02-0.46,0.05-0.68,0.1
					c-0.84,0.16-1.68,0.32-2.52,0.49c-2.84,0.55-4.69,3.57-4.77,6.27c-0.06,1.94,0.15,3.41,0.58,5.3c0.58,2.51,3.17,4.51,5.82,4.82
					c0.78,1.09,1.65,2.11,2.67,3.03c1.77,1.59,3.1,3.76,5.99,5.1c0.02,0.15,0.3,3.21,0.04,6.19c0,0,2.33,4.61,5.79,5.08
					c2.92,0.4,5.22-5.47,5.76-8.66c0.1-0.61,0.16-1.18,0.19-1.73c0.02,0,0.03,0,0.05,0.01c-0.01-0.04-0.01-0.08-0.02-0.13
					c3.53-2.51,7.42-6.8,9.05-10.86c1.19-0.21,2.14,0.63,3.12-0.37c0.68-0.69,0.52-1.8,0.87-2.71
					C137.19,93.54,135.68,89.47,131.31,88.48z"/>
				<path class="st2" d="M158.04,216.69l-5.42-0.39h-4.6c-0.95,3.84-1.72,10.03-2.67,13.87c-0.42,1.7,2.63,6.47,3.59,4.14
					c-0.55,1.34-1.3,6.84-1.09,7.67c0.62,2.4,6.94-2.03,8.35-3.65C161.69,231.99,160.33,223.56,158.04,216.69z"/>
				<path class="st2" d="M84.68,231.22c-0.13-0.48-0.24-0.97-0.35-1.45c0.45-4.17-0.31-7.96-1.94-11.8
					c-0.86-2.01-3.47-1.79-4.8-0.45c-0.4-0.08-0.81-0.09-1.2-0.03c-1.29-1.15-3.47-1.33-4.55,0.61c-2.35,4.21-2.49,8.73-0.58,13.15
					c1.5,3.49,4.05,8.6,8.16,9.14c1.08,0.14,2.02-0.69,2.59-1.49c0.79-1.1,0.94-2.6,0.85-4.2
					C84.15,234.22,85.15,232.95,84.68,231.22z"/>
				<path class="st51" d="M163.49,203.61c-3.35-16.97-4.41-33.03-8.14-49.09c-2.54-10.93-4.09-29.09-17.33-31.13
					c-1.93-0.93-4.57-1.07-6.54-1.13c-3.76-6.23-8.08-6.65-9.86-7.01l0.15,3.58c-2.43,1.81-3.49,3.27-5.92,5.08
					c-1.24-0.68-4.84-4-5.79-5.08l-0.18-3.43c-5.5,0-9.96,6.26-10.15,6.24c-8.84-0.79-16.28,6.19-19.36,14.6
					c-4.2,11.47-5.31,23.91-7.44,35.9c-2.27,12.8-7.17,32.51-5.03,40.21c0.61,2.17,1.59,4.57,1.59,4.57
					c3.44-0.45,13.08-0.38,17.17-1.69c0,0,1.55-6.49,2.12-7.74c0.95,30.64,5.83,96.54,5.83,96.54c0.86,9.46,0.44,19.59,1.05,29.66
					c0.21,3.42,0.43,14.08,0.43,14.08s6.78,1.18,10.28,1.06c3.58-0.12,8.39,1.09,8.39,1.09c3.44-1.42,18.51-2.21,18.51-2.21
					s2.34-31.61,3.26-45.2c0.18-2.62,3.21-38.61,4.19-55.56c0.86-14.85,0.8-32.99,0.06-48.57c0.51,3.68,2.18,8.44,2.38,12.18
					c0.15,2.84,1.11,4.65,1.11,4.65c2.95,0.48,17.17,1.69,17.17,1.69C163.8,213.51,163.94,205.74,163.49,203.61z"/>
				<path class="st0" d="M130.96,67.25c-3.02-2.23-10.79-4.64-15.58-4.38c-4.46,0.24-5.89,1-6.97,2c-0.38,0.35-3.76,1.91-3.73,2.28
					c-3.75,0.75-5.81,4.28-7.21,7.62c-1.34,1.97-1.68,4.41-2.32,6.31c-1.27,3.8-5.69,26.32-5.69,26.32s13.73,2.81,17.68,3.9
					c0,0-5.35-5.99-6.27-9.17c-2.19,1.83-4.47-1.6-4.32-4.01c-0.38-1.76-0.44-3.77,0.85-4.22c0.14-0.05,0,0,1.08-0.42l2.48,1.34
					c0,0,1.1-6.71,1.93-8.95c5.18-4.77,4.92-7.74,5.79-11.72c1.83,2.23,6.37,5.09,8.05,5.93c2.09,1.39,10.27,2.64,13.86,8.5
					L132,93.9c1.4-1.17,2.99-0.46,3.58,1.21c0.02,0.05-0.64,3.82-0.7,4.36c-0.11,1-0.05,2.99-1.26,3.32
					c-0.61,0.16-0.43-0.18-1.09-0.04c-0.55,0.12-0.94-1.01-1.33-0.61c-0.8,0.82-1.28,3.42-1.88,4.37c-0.73,1.14-4.48,4.44-5.6,5.19
					c0,0,6.88,0.31,8.06,0.19c1.12-0.11,11.78-0.87,12.04-2.16C143.9,109.34,140.06,73.97,130.96,67.25z"/>
				<g>
					<g>
						<path class="st3" d="M116.56,96.94c0.03,0,0.07,0.01,0.1,0.01c-0.1,0.01-0.07-0.01-0.01,0c0.06,0.01,0.11,0.03,0.17,0.05
							c0.06,0.02-0.1-0.05-0.02-0.01c0.03,0.01,0.06,0.03,0.09,0.05c0.03,0.02,0.05,0.03,0.08,0.05c0.08,0.05-0.06-0.05-0.01-0.01
							c0.04,0.04,0.09,0.08,0.13,0.12c0.02,0.02,0.04,0.05,0.06,0.07c-0.01-0.02-0.03-0.03-0.04-0.05c0.01,0.02,0.02,0.04,0.04,0.05
							c0.01,0.01,0.08,0.14,0.08,0.14c-0.03-0.07-0.03-0.08-0.01-0.03c0,0.01,0.01,0.02,0.01,0.03c0.01,0.03,0.02,0.06,0.03,0.09
							c0.01,0.03,0,0.1,0.01,0.03c-0.01-0.05-0.01-0.05,0,0c0,0.02,0,0.03,0,0.05c0,0.06-0.01,0.12,0,0.18
							c-0.01-0.11,0.01-0.06,0-0.01c-0.01,0.03-0.01,0.05-0.02,0.08c-0.01,0.03-0.02,0.06-0.03,0.09c-0.03,0.08-0.02,0.02,0.01-0.01
							c-0.04,0.05-0.06,0.12-0.09,0.17c-0.01,0.01-0.01,0.02-0.02,0.03c-0.03,0.03-0.02,0.04,0,0c0.03-0.03,0.03-0.03,0,0
							c-0.01,0.01-0.01,0.02-0.02,0.02c-0.04,0.05-0.1,0.08-0.14,0.13c0.02-0.01,0.03-0.03,0.05-0.04
							c-0.02,0.01-0.04,0.02-0.05,0.04c-0.03,0.02-0.06,0.03-0.08,0.05c-0.23,0.12-0.32,0.46-0.18,0.68
							c0.15,0.23,0.44,0.31,0.68,0.18c0.67-0.36,1.03-1.19,0.85-1.93c-0.18-0.75-0.9-1.28-1.65-1.3c-0.26-0.01-0.51,0.23-0.5,0.5
							C116.07,96.71,116.28,96.93,116.56,96.94L116.56,96.94z"/>
					</g>
				</g>
				<g>
					<g>
						<path class="st3" d="M121.41,86.99c1.07-0.32,2.2-0.35,3.29-0.07c0.04-0.33,0.09-0.65,0.13-0.98
							c-1.39,0.02-2.77,0.18-4.13,0.47c-0.26,0.06-0.42,0.37-0.35,0.62c0.08,0.27,0.35,0.41,0.62,0.35
							c1.27-0.27,2.56-0.42,3.86-0.44c0.55-0.01,0.69-0.84,0.13-0.98c-1.25-0.32-2.58-0.3-3.82,0.07
							C120.52,86.21,120.79,87.18,121.41,86.99L121.41,86.99z"/>
					</g>
				</g>
				<g>
					<g>
						<path class="st3" d="M108.75,87.14c0.88,0.09,1.75,0.18,2.63,0.27c0.25,0.03,0.46-0.21,0.49-0.43
							c0.03-0.24-0.12-0.48-0.36-0.55c-1.12-0.31-2.28-0.43-3.44-0.35c-0.26,0.02-0.51,0.22-0.5,0.5c0.01,0.26,0.22,0.52,0.5,0.5
							c1.09-0.07,2.13,0.03,3.17,0.31c0.04-0.33,0.09-0.65,0.13-0.98c-0.88-0.09-1.75-0.18-2.63-0.27c-0.26-0.03-0.51,0.25-0.5,0.5
							C108.26,86.93,108.47,87.11,108.75,87.14L108.75,87.14z"/>
					</g>
				</g>
				<g>
					<g>
						<path class="st3" d="M113,104.86c1.65,1.28,4.01,1.27,5.63-0.06c0.21-0.17,0.18-0.53,0-0.71c-0.21-0.21-0.5-0.17-0.71,0
							c-1.16,0.95-3.03,0.98-4.22,0.06c-0.21-0.17-0.5-0.21-0.71,0C112.83,104.32,112.78,104.69,113,104.86L113,104.86z"/>
					</g>
				</g>
				<g>
					<g>
						<g>
							<path class="st3" d="M100.59,94.36c-0.5-1.01-1.68-1.56-2.77-1.22c-1.26,0.39-1.7,1.56-1.79,2.77
								c-0.11,1.38-0.01,2.81,0.33,4.15c0.26,1.05,0.76,2.15,1.73,2.74c0.97,0.59,2.35,0.58,3.14-0.31
								c0.42-0.48-0.28-1.19-0.71-0.71c-0.61,0.7-1.69,0.47-2.29-0.14c-0.79-0.8-1-2.05-1.14-3.12c-0.08-0.65-0.11-1.31-0.09-1.97
								c0.01-0.59,0.02-1.26,0.3-1.8c0.55-1.04,1.94-0.88,2.43,0.1C100.01,95.44,100.87,94.94,100.59,94.36L100.59,94.36z"/>
						</g>
					</g>
					<g>
						<g>
							<path class="st3" d="M100.53,102.37c1.89,4.3,4.64,8.81,9.23,10.57c0.6,0.23,0.86-0.74,0.27-0.96
								c-4.32-1.65-6.87-6.09-8.64-10.11C101.13,101.28,100.27,101.79,100.53,102.37L100.53,102.37z"/>
						</g>
					</g>
					<g>
						<g>
							<path class="st3" d="M109.53,112.65c-0.05,2.06-0.04,4.13,0.04,6.19c0.02,0.64,1.03,0.64,1,0c-0.08-2.06-0.09-4.13-0.04-6.19
								C110.55,112.01,109.55,112.01,109.53,112.65L109.53,112.65z"/>
						</g>
					</g>
				</g>
				<g>
					<g>
						<g>
							<path class="st3" d="M132.35,94.87c0.47-0.96,1.8-1.14,2.39-0.17c0.31,0.52,0.32,1.19,0.33,1.78
								c0.02,0.68-0.01,1.37-0.09,2.05c-0.13,1.05-0.34,2.28-1.09,3.07c-0.59,0.63-1.7,0.9-2.33,0.18
								c-0.43-0.48-1.13,0.23-0.71,0.71c0.69,0.79,1.85,0.88,2.77,0.49c1.03-0.44,1.64-1.44,1.96-2.47c0.41-1.28,0.52-2.7,0.48-4.03
								c-0.04-1.2-0.21-2.55-1.4-3.17c-1.17-0.6-2.6-0.12-3.19,1.05C131.2,94.94,132.07,95.44,132.35,94.87L132.35,94.87z"/>
						</g>
					</g>
					<g>
						<g>
							<path class="st3" d="M130.46,101.87c-1.81,4.14-4,8.61-8.64,10.11c-0.61,0.2-0.35,1.16,0.27,0.96
								c2.72-0.88,4.85-2.81,6.45-5.14c1.16-1.7,1.97-3.56,2.79-5.43C131.58,101.79,130.72,101.28,130.46,101.87L130.46,101.87z"/>
						</g>
					</g>
					<g>
						<g>
							<path class="st3" d="M121.32,112.65c0.05,2.06,0.04,4.13-0.04,6.19c-0.02,0.64,0.98,0.64,1,0c0.08-2.06,0.09-4.13,0.04-6.19
								C122.3,112.01,121.3,112,121.32,112.65L121.32,112.65z"/>
						</g>
					</g>
				</g>
				<g>
					<g>
						<path class="st3" d="M112.7,113.2c1.99,0.31,4,0.23,5.96-0.23c0.63-0.15,0.36-1.11-0.27-0.96c-1.77,0.42-3.62,0.51-5.43,0.23
							c-0.27-0.04-0.54,0.07-0.62,0.35C112.28,112.82,112.43,113.16,112.7,113.2L112.7,113.2z"/>
					</g>
				</g>
				<g>
					<g>
						<path class="st3" d="M107.92,118.16c2.5,2.13,5.07,4.19,7.69,6.19c0.22,0.16,0.56,0.03,0.68-0.18
							c0.15-0.26,0.03-0.52-0.18-0.68c-2.55-1.94-5.04-3.95-7.48-6.03C108.14,117.04,107.43,117.74,107.92,118.16L107.92,118.16z"/>
					</g>
				</g>
				<g>
					<g>
						<path class="st3" d="M116.83,124.1c1.37-1.86,3.08-3.47,5.01-4.73c0.54-0.35,0.04-1.22-0.5-0.86
							c-2.08,1.37-3.89,3.09-5.37,5.09c-0.16,0.22-0.04,0.56,0.18,0.68C116.4,124.43,116.67,124.32,116.83,124.1L116.83,124.1z"/>
					</g>
				</g>
				<g>
					<g>
						<path class="st3" d="M110.59,121.6c-0.9,0.82-1.95,1.48-2.94,2.16c-1.12,0.77-2.26,1.53-3.34,2.37
							c-0.17,0.13-0.33,0.3-0.51,0.42c0,0-0.11,0.1-0.03,0.08c0.06-0.01-0.1-0.12-0.17-0.19c-0.21-0.23-0.41-0.47-0.61-0.7
							c-0.74-0.85-1.48-1.7-2.22-2.55c-0.36-0.42-0.63-0.79-0.46-1.37c0.16-0.55,0.57-1,0.94-1.41c0.64-0.72,1.35-1.4,2.11-1.99
							c1.64-1.27,3.53-2.16,5.58-2.51c0.63-0.11,0.36-1.07-0.27-0.96c-2.05,0.35-3.98,1.23-5.64,2.48c-0.9,0.68-1.74,1.44-2.49,2.28
							c-0.68,0.76-1.4,1.67-1.27,2.75c0.12,1.06,1.22,1.92,1.87,2.68c0.43,0.5,0.87,1,1.3,1.5c0.32,0.37,0.68,0.99,1.22,1.03
							c0.58,0.05,1.17-0.68,1.61-1.01c0.63-0.47,1.28-0.92,1.93-1.37c1.37-0.95,2.85-1.84,4.09-2.96
							C111.77,121.87,111.06,121.16,110.59,121.6L110.59,121.6z"/>
					</g>
				</g>
				<g>
					<g>
						<path class="st3" d="M121.27,122.3c1.13,1.04,2.28,2.07,3.42,3.1c0.57,0.51,1.14,1.02,1.7,1.54c0.49,0.45,1.03,1.01,1.68,0.47
							c0.42-0.34,0.75-0.83,1.11-1.24c0.43-0.5,0.87-1,1.3-1.5c0.61-0.7,1.49-1.43,1.51-2.43c0.02-1.01-0.66-1.85-1.29-2.56
							c-0.69-0.77-1.44-1.48-2.26-2.11c-1.72-1.33-3.72-2.28-5.87-2.65c-0.63-0.11-0.9,0.86-0.27,0.96c1.6,0.27,3.1,0.87,4.47,1.73
							c0.75,0.47,1.45,1.02,2.1,1.62c0.65,0.6,1.37,1.28,1.82,2.05c0.26,0.43,0.42,0.93,0.15,1.4c-0.22,0.4-0.62,0.75-0.92,1.09
							c-0.69,0.79-1.38,1.58-2.06,2.38c-0.07,0.08-0.33,0.48-0.43,0.48c0.15,0-0.09-0.2-0.13-0.23c-0.21-0.19-0.42-0.38-0.63-0.57
							c-0.49-0.44-0.97-0.88-1.46-1.32c-1.08-0.98-2.17-1.94-3.24-2.93C121.5,121.16,120.79,121.87,121.27,122.3L121.27,122.3z"/>
					</g>
				</g>
				<g>
					<g>
						<path class="st3" d="M109.16,74.28c0.23-0.84-0.89-1.07-1.23-0.34c-0.44,0.95-0.4,2.27-0.51,3.3
							c-0.12,1.19-0.29,2.38-0.85,3.45c-0.52,1-1.27,1.84-1.98,2.71c-1.4,1.7-2.4,3.54-2.97,5.67c-0.57,2.14-0.76,4.37-0.88,6.58
							c-0.03,0.64,0.97,0.64,1,0c0.21-3.88,0.68-7.91,3.17-11.06c1.12-1.42,2.4-2.73,2.99-4.47c0.32-0.93,0.43-1.91,0.53-2.88
							c0.05-0.5,0.09-1.01,0.16-1.51c0.04-0.34,0.05-1.17,0.3-1.41c-0.16,0.04-0.32,0.09-0.49,0.13c-0.02-0.01-0.03-0.02-0.05-0.03
							c-0.04-0.16-0.09-0.32-0.13-0.49c-0.01,0.03-0.02,0.06-0.02,0.09C108.02,74.63,108.99,74.9,109.16,74.28L109.16,74.28z"/>
					</g>
				</g>
				<g>
					<g>
						<path class="st3" d="M108.47,74.33c2.86,3.05,6.32,5.53,10.14,7.22c3.67,1.62,7.98,2.58,10.46,6.02
							c1.37,1.9,2.07,4.18,2.45,6.47c0.1,0.63,1.07,0.36,0.96-0.27c-0.67-4.11-2.53-7.83-6.22-9.99c-1.79-1.04-3.75-1.73-5.67-2.48
							c-2-0.79-3.92-1.74-5.73-2.91c-2.09-1.35-3.99-2.96-5.69-4.77C108.74,73.15,108.03,73.86,108.47,74.33L108.47,74.33z"/>
					</g>
				</g>
				<g>
					<g>
						<path class="st3" d="M106.57,65.34C101.31,67.25,98,71.81,96,76.85c-2.4,6.05-3.06,12.61-4.13,18.99
							c-0.65,3.88-1.45,7.76-2.9,11.43c-0.1,0.26,0.11,0.54,0.35,0.62c2.92,0.91,5.88,1.72,8.86,2.41c2.94,0.68,5.94,1.29,8.96,1.51
							c0.64,0.05,0.64-0.95,0-1c-3-0.22-5.97-0.84-8.89-1.52c-2.91-0.68-5.8-1.48-8.66-2.36c0.12,0.21,0.23,0.41,0.35,0.62
							c2.53-6.42,3.11-13.4,4.32-20.14c0.98-5.47,2.33-11.17,5.66-15.74c1.75-2.41,4.11-4.33,6.92-5.35
							C107.43,66.09,107.18,65.12,106.57,65.34L106.57,65.34z"/>
					</g>
				</g>
				<g>
					<g>
						<path class="st3" d="M108.65,65.3c1.94-1.28,4.32-1.78,6.61-1.93c2.64-0.17,5.31,0.11,7.87,0.76
							c2.46,0.62,4.87,1.58,6.93,3.07c1.5,1.09,2.67,2.53,3.62,4.11c2.29,3.79,3.56,8.17,4.61,12.43c1.15,4.69,1.96,9.46,2.73,14.22
							c0.38,2.3,0.74,4.6,1.16,6.89c0.31,1.68,0.63,3.38,1.15,5.01c0.2,0.61,1.16,0.35,0.96-0.27c-1.11-3.47-1.54-7.19-2.12-10.77
							c-0.79-4.86-1.59-9.72-2.72-14.52c-1.05-4.44-2.33-8.98-4.6-12.97c-0.9-1.58-1.99-3.1-3.38-4.28
							c-1.95-1.66-4.34-2.77-6.78-3.52c-2.88-0.89-5.95-1.31-8.96-1.18c-2.62,0.11-5.38,0.62-7.6,2.09
							C107.62,64.79,108.12,65.66,108.65,65.3L108.65,65.3z"/>
					</g>
				</g>
				<g>
					<g>
						<path class="st3" d="M123.2,112.75c5.43-0.75,10.93-0.88,16.37-1.6c1.28-0.17,2.56-0.35,3.82-0.66
							c0.62-0.15,0.36-1.12-0.27-0.96c-2.47,0.6-5.04,0.83-7.56,1.07c-2.92,0.28-5.84,0.5-8.76,0.77c-1.29,0.12-2.58,0.24-3.86,0.42
							C122.3,111.87,122.57,112.83,123.2,112.75L123.2,112.75z"/>
					</g>
				</g>
				<g>
					<g>
						<path class="st3" d="M111.29,90.19c0.1-0.14,0.23-0.26,0.36-0.36c-0.03,0.03-0.07,0.05-0.1,0.08c0.1-0.08,0.21-0.15,0.33-0.2
							c0.06-0.03,0.11-0.07,0.14-0.13c0.04-0.05,0.07-0.1,0.09-0.17c0.02-0.07,0.02-0.13,0.01-0.2c0-0.07-0.02-0.13-0.06-0.19
							c-0.07-0.11-0.17-0.2-0.3-0.23c-0.04-0.01-0.09-0.01-0.13-0.02c-0.09,0-0.17,0.02-0.25,0.07c-0.17,0.09-0.33,0.2-0.47,0.32
							c-0.12,0.1-0.22,0.21-0.32,0.33c-0.05,0.05-0.08,0.1-0.1,0.16c-0.03,0.06-0.05,0.12-0.04,0.19c0,0.07,0.01,0.13,0.04,0.19
							c0.02,0.06,0.05,0.12,0.1,0.16c0.1,0.09,0.22,0.15,0.35,0.15c0.04-0.01,0.09-0.01,0.13-0.02
							C111.16,90.29,111.23,90.25,111.29,90.19L111.29,90.19z"/>
					</g>
				</g>
				<g>
					<g>
						<path class="st3" d="M123.87,90.11c0.14-0.16,0.28-0.32,0.42-0.49c0.05-0.05,0.08-0.1,0.1-0.16c0.03-0.06,0.05-0.12,0.04-0.19
							c0-0.07-0.01-0.13-0.04-0.19c-0.02-0.06-0.05-0.12-0.1-0.16c-0.03-0.03-0.07-0.05-0.1-0.08c-0.08-0.05-0.16-0.07-0.25-0.07
							c-0.04,0.01-0.09,0.01-0.13,0.02c-0.08,0.02-0.16,0.07-0.22,0.13c-0.14,0.16-0.28,0.32-0.42,0.49
							c-0.05,0.05-0.08,0.1-0.1,0.16c-0.03,0.06-0.05,0.12-0.04,0.19c0,0.07,0.01,0.13,0.04,0.19c0.02,0.06,0.05,0.12,0.1,0.16
							c0.03,0.03,0.07,0.05,0.1,0.08c0.08,0.05,0.16,0.07,0.25,0.07c0.04-0.01,0.09-0.01,0.13-0.02
							C123.74,90.22,123.81,90.17,123.87,90.11L123.87,90.11z"/>
					</g>
				</g>
				<g>
					<g>
						<path class="st3" d="M131.49,122.76c2.93,0.32,5.97,0.73,8.7,1.89c2.34,1,4.26,2.63,5.86,4.59c4.73,5.83,6.31,13.5,7.85,20.67
							c1.78,8.32,3.22,16.71,4.52,25.12c1.09,7.08,2,14.18,3.3,21.22c0.56,3.05,1.06,6.12,1.22,9.22c0.16,3.08,0.02,6.25-1,9.19
							c-0.24,0.7-0.54,1.37-0.89,2.02c-0.31,0.57,0.56,1.07,0.86,0.5c3.03-5.57,2.22-12.52,1.24-18.52
							c-0.44-2.65-1.02-5.28-1.41-7.94c-0.64-4.31-1.24-8.62-1.89-12.93c-1.31-8.65-2.73-17.29-4.5-25.87
							c-1.55-7.49-3-15.57-7.49-21.95c-1.54-2.19-3.41-4.19-5.77-5.51c-2.45-1.37-5.23-1.98-7.98-2.38
							c-0.87-0.13-1.74-0.23-2.61-0.33C130.85,121.69,130.85,122.69,131.49,122.76L131.49,122.76z"/>
					</g>
				</g>
				<g>
					<g>
						<path class="st3" d="M142.68,132.44c-0.52,4.62-1.04,9.25-1.57,13.87c-0.07,0.64,0.93,0.63,1,0
							c0.52-4.62,1.04-9.25,1.57-13.87C143.75,131.8,142.75,131.81,142.68,132.44L142.68,132.44z"/>
					</g>
				</g>
				<g>
					<g>
						<path class="st3" d="M140.7,151.42c-0.38,6.78,0.81,13.5,1.74,20.19c0.79,5.77,0.9,11.57,0.06,17.34
							c-0.44,3.04-1.12,6.07-2.23,8.94c-0.23,0.6,0.73,0.86,0.96,0.27c2.02-5.24,2.74-11,2.85-16.59
							c0.12-6.26-1.08-12.36-1.84-18.54c-0.47-3.85-0.77-7.73-0.55-11.61C141.73,150.78,140.73,150.78,140.7,151.42L140.7,151.42z"
							/>
					</g>
				</g>
				<g>
					<g>
						<path class="st3" d="M89.02,134.61c0.55,3.46,1.09,6.91,1.64,10.37c0.08,0.49,0.16,0.98,0.23,1.47
							c0.1,0.63,1.06,0.36,0.96-0.27c-0.55-3.46-1.09-6.91-1.64-10.37c-0.08-0.49-0.16-0.98-0.23-1.47
							C89.89,133.71,88.92,133.98,89.02,134.61L89.02,134.61z"/>
					</g>
				</g>
				<g>
					<g>
						<path class="st3" d="M90.4,151.07c-0.67,6.53-1.35,13.06-2.01,19.6c-0.62,6.14-1.18,12.34-0.7,18.52
							c0.27,3.4,0.86,6.78,1.9,10.03c0.2,0.61,1.16,0.35,0.96-0.27c-1.87-5.84-2.22-11.99-1.97-18.08
							c0.26-6.26,1.04-12.5,1.68-18.73c0.38-3.69,0.76-7.38,1.14-11.07C91.47,150.43,90.47,150.44,90.4,151.07L90.4,151.07z"/>
					</g>
				</g>
				<g>
					<g>
						<path class="st3" d="M90.94,199.09c12.88-1.6,25.88-1.5,38.83-1.03c3.66,0.14,7.33,0.3,10.99,0.47c0.64,0.03,0.64-0.97,0-1
							c-12.95-0.59-25.93-1.17-38.88-0.42c-3.65,0.21-7.3,0.53-10.93,0.98C90.31,198.17,90.3,199.17,90.94,199.09L90.94,199.09z"/>
					</g>
				</g>
				<g>
					<g>
						<path class="st3" d="M88.92,200.29c-1.2,9.52-0.74,19.14,0.08,28.68c0.82,9.53,1.81,19.05,2.53,28.59
							c1.46,19.26,2.35,38.56,3.05,57.86c0.39,10.79,0.72,21.59,1.04,32.38c0.01,0.29,0.22,0.47,0.5,0.5
							c6.02,0.63,12.04,1.27,18.06,1.9c0.64,0.07,0.63-0.93,0-1c-6.02-0.63-12.04-1.27-18.06-1.9c0.17,0.17,0.33,0.33,0.5,0.5
							c-0.58-19.31-1.17-38.62-2.11-57.91c-0.47-9.6-1.03-19.19-1.72-28.77c-0.7-9.65-1.61-19.28-2.5-28.92
							c-0.98-10.6-1.7-21.3-0.37-31.9C90,199.65,89,199.66,88.92,200.29L88.92,200.29z"/>
					</g>
				</g>
				<g>
					<g>
						<path class="st3" d="M115.29,349.95c-0.19-3.83-0.32-7.66-0.41-11.49c-0.12-4.58-0.19-9.17-0.25-13.76
							c-0.06-5.11-0.1-10.23-0.11-15.35c-0.02-5.33-0.02-10.66-0.01-15.99c0.01-5.3,0.04-10.61,0.07-15.91
							c0.03-5.03,0.08-10.07,0.13-15.1c0.04-4.47,0.1-8.94,0.15-13.41c0.05-3.62,0.1-7.25,0.15-10.87c0.04-2.53,0.08-5.07,0.12-7.6
							c0.02-1.18,0.08-2.36,0.06-3.54c0-0.05,0-0.1,0-0.15c0.01-0.64-0.99-0.64-1,0c-0.01,0.81-0.03,1.61-0.04,2.42
							c-0.04,2.23-0.07,4.45-0.11,6.68c-0.05,3.4-0.1,6.8-0.14,10.2c-0.06,4.27-0.11,8.55-0.15,12.82c-0.05,4.9-0.1,9.79-0.14,14.69
							c-0.04,5.28-0.07,10.56-0.09,15.84c-0.02,5.37-0.03,10.75-0.02,16.12c0.01,5.17,0.04,10.35,0.08,15.52
							c0.05,4.73,0.11,9.47,0.21,14.2c0.09,4.05,0.2,8.09,0.37,12.14c0.04,0.85,0.08,1.7,0.12,2.55
							C114.32,350.59,115.32,350.59,115.29,349.95L115.29,349.95z"/>
					</g>
				</g>
				<g>
					<g>
						<path class="st3" d="M115.2,350.13c0.56-0.38,1.63-0.47,2.36-0.59c1.49-0.23,2.99-0.39,4.5-0.53
							c3.06-0.29,6.12-0.49,9.18-0.67c0.69-0.04,1.38-0.08,2.07-0.11c0.27-0.01,0.5-0.22,0.5-0.5c0.05-7.36,0.6-14.72,1.19-22.06
							c0.76-9.43,1.67-18.86,2.55-28.28c0.99-10.66,1.95-21.32,2.73-32c0.8-10.91,1.44-21.84,1.72-32.79
							c0.26-10.33,0.22-20.68-0.47-30.99c-0.08-1.2-0.17-2.39-0.27-3.59c-0.05-0.64-1.05-0.64-1,0c0.84,10.21,0.99,20.47,0.82,30.7
							c-0.19,10.92-0.76,21.82-1.52,32.71c-0.75,10.76-1.69,21.51-2.68,32.25c-0.88,9.62-1.82,19.23-2.63,28.86
							c-0.64,7.62-1.25,15.25-1.42,22.89c-0.02,0.76-0.03,1.53-0.03,2.29c0.17-0.17,0.33-0.33,0.5-0.5
							c-5.22,0.25-10.49,0.52-15.66,1.29c-0.92,0.14-2.15,0.2-2.95,0.74C114.16,349.62,114.66,350.49,115.2,350.13L115.2,350.13z"/>
					</g>
				</g>
				<g>
					<g>
						<path class="st3" d="M140.27,198.16c0.78,4.73,1.86,9.4,2.69,14.11c0.17,0.96,0.21,2.08,0.71,2.94
							c0.47,0.8,1.27,1.02,2.14,1.09c2.44,0.2,4.89,0.35,7.33,0.53c2.78,0.2,5.55,0.4,8.33,0.6c0.64,0.05,0.64-0.95,0-1
							c-4.6-0.33-9.2-0.66-13.8-1c-0.54-0.04-1.08-0.08-1.62-0.12c-0.48-0.04-1.06-0.03-1.4-0.43c-0.59-0.69-0.58-2.03-0.73-2.88
							c-0.39-2.2-0.83-4.39-1.27-6.58c-0.5-2.51-1-5.01-1.42-7.53C141.13,197.26,140.17,197.53,140.27,198.16L140.27,198.16z"/>
					</g>
				</g>
				<g>
					<g>
						<g>
							<path class="st3" d="M157.56,216.82c2.67,6.83,3.5,15.89-1.97,21.62c-0.44,0.47,0.26,1.17,0.71,0.71
								c5.73-5.99,5.04-15.4,2.23-22.59C158.29,215.96,157.32,216.22,157.56,216.82L157.56,216.82z"/>
						</g>
					</g>
					<g>
						<g>
							<path class="st3" d="M147.56,215.97c-0.48,4.09-1.37,8.11-1.97,12.18c-0.26,1.77-0.84,4.02,0.09,5.68
								c0.71,1.26,2.47,1.85,3.62,0.85c0.49-0.42-0.22-1.13-0.71-0.71c-0.54,0.47-1.36,0.15-1.8-0.31c-0.6-0.63-0.62-1.63-0.57-2.45
								c0.1-1.7,0.41-3.4,0.7-5.08c0.57-3.38,1.25-6.75,1.64-10.16C148.64,215.33,147.64,215.33,147.56,215.97L147.56,215.97z"/>
						</g>
					</g>
					<g>
						<g>
							<path class="st3" d="M150.4,224.44c-0.91,5.05-1.82,10.1-2.73,15.15c-0.1,0.56-0.21,1.12-0.3,1.69
								c-0.07,0.39-0.12,0.79,0.2,1.1c0.58,0.57,1.71,0.13,2.33-0.16c1.85-0.88,2.86-2.77,3.45-4.65c0.82-2.61,1.27-5.36,1.56-8.07
								c0.07-0.64-0.93-0.63-1,0c-0.24,2.17-0.62,4.32-1.15,6.44c-0.44,1.76-1,3.64-2.46,4.84c-0.34,0.28-0.72,0.51-1.12,0.66
								c-0.17,0.06-0.35,0.12-0.53,0.15c-0.08,0.01-0.23,0.07-0.31,0.04c-0.14-0.05,0.01,0.13,0-0.09
								c-0.03-0.44,0.18-1.02,0.26-1.46c0.1-0.56,0.2-1.12,0.3-1.67c0.38-2.12,0.77-4.24,1.15-6.36c0.44-2.45,0.88-4.89,1.32-7.34
								C151.48,224.08,150.51,223.81,150.4,224.44L150.4,224.44z"/>
						</g>
					</g>
					<g>
						<g>
							<path class="st3" d="M157.1,229.28c-0.35,2.27-0.79,4.53-1.33,6.76c-0.22,0.9-0.34,2.17-1,2.87
								c-0.65,0.7-1.73,0.69-2.61,0.66c-0.64-0.03-0.64,0.97,0,1c0.97,0.04,2.03-0.01,2.86-0.57c0.92-0.62,1.21-1.68,1.47-2.7
								c0.65-2.56,1.17-5.15,1.57-7.76C158.17,228.92,157.2,228.65,157.1,229.28L157.1,229.28z"/>
						</g>
					</g>
				</g>
				<g>
					<g>
						<path class="st3" d="M99.75,121.16c-3.6,0.08-7.37,1.51-10.34,3.46c-3,1.96-5.21,4.64-7.05,7.69
							c-2.03,3.36-3.56,6.99-4.65,10.76c-1.27,4.36-2.09,8.87-2.95,13.33c-0.89,4.62-1.69,9.25-2.44,13.9
							c-0.75,4.65-1.44,9.3-2.12,13.95c-0.52,3.59-1.02,7.17-1.69,10.73c-0.62,3.3-1.2,6.61-1.42,9.96
							c-0.22,3.36-0.11,6.88,1.03,10.08c0.26,0.75,0.59,1.48,0.97,2.18c0.31,0.57,1.17,0.06,0.86-0.5
							c-1.58-2.91-1.97-6.29-1.94-9.55c0.03-3.38,0.53-6.74,1.13-10.06c0.57-3.14,1.12-6.26,1.57-9.41
							c0.66-4.54,1.32-9.07,2.03-13.6c1.41-9.05,2.97-18.08,4.99-27.01c0.87-3.84,2.05-7.61,3.8-11.15c1.64-3.3,3.62-6.57,6.45-8.98
							c3.19-2.72,7.37-4.45,11.56-4.76c0.07-0.01,0.15-0.01,0.22-0.01C100.39,122.14,100.39,121.14,99.75,121.16L99.75,121.16z"/>
					</g>
				</g>
				<g>
					<g>
						<path class="st3" d="M89.37,197.94c-0.74,4.47-1.47,8.94-2.21,13.41c-0.16,0.98-0.23,2.04-0.55,2.98
							c-0.4,1.16-1.66,0.99-2.68,1.06c-2.24,0.16-4.48,0.32-6.71,0.48c-2.57,0.19-5.14,0.37-7.71,0.56c-0.64,0.05-0.64,1.05,0,1
							c4.85-0.35,9.7-0.7,14.54-1.05c0.89-0.06,1.99,0.01,2.74-0.57c0.69-0.53,0.87-1.44,1.01-2.25c0.41-2.41,0.79-4.82,1.19-7.23
							c0.45-2.71,0.89-5.41,1.34-8.12C90.43,197.58,89.47,197.31,89.37,197.94L89.37,197.94z"/>
					</g>
				</g>
				<g>
					<g>
						<g>
							<path class="st3" d="M72.45,217.16c-2.78,7.08-3.4,16.08,2.24,21.99c0.45,0.47,1.15-0.24,0.71-0.71
								c-5.4-5.65-4.63-14.28-1.99-21.01C73.65,216.83,72.68,216.57,72.45,217.16L72.45,217.16z"/>
						</g>
					</g>
					<g>
						<g>
							<path class="st3" d="M82.42,215.97c0.4,3.41,1.08,6.78,1.64,10.16c0.28,1.64,0.58,3.3,0.69,4.97
								c0.06,0.83,0.06,1.83-0.51,2.5c-0.43,0.5-1.3,0.85-1.86,0.37c-0.48-0.42-1.19,0.28-0.71,0.71c1.15,1,2.91,0.41,3.62-0.85
								c0.93-1.65,0.35-3.91,0.09-5.68c-0.6-4.07-1.49-8.09-1.97-12.18C83.35,215.34,82.35,215.33,82.42,215.97L82.42,215.97z"/>
						</g>
					</g>
					<g>
						<g>
							<path class="st3" d="M79.62,224.71c0.77,4.28,1.55,8.57,2.32,12.85c0.19,1.03,0.37,2.06,0.56,3.09
								c0.05,0.26,0.08,0.53,0.14,0.79c0.07,0.27,0.13,0.19-0.06,0.2c-0.41,0.03-0.97-0.26-1.3-0.45c-1.63-0.94-2.37-2.77-2.84-4.5
								c-0.65-2.35-1.08-4.76-1.35-7.18c-0.07-0.63-1.07-0.64-1,0c0.27,2.44,0.69,4.87,1.33,7.24c0.52,1.95,1.32,3.92,3.05,5.11
								c0.65,0.45,1.67,0.93,2.49,0.77c1.05-0.21,0.66-1.39,0.53-2.12c-0.45-2.5-0.9-4.99-1.35-7.49c-0.52-2.86-1.03-5.71-1.55-8.57
								C80.47,223.81,79.5,224.08,79.62,224.71L79.62,224.71z"/>
						</g>
					</g>
					<g>
						<g>
							<path class="st3" d="M72.92,229.55c0.4,2.61,0.92,5.2,1.57,7.76c0.25,1,0.53,2.02,1.41,2.65c0.84,0.6,1.93,0.66,2.93,0.62
								c0.64-0.03,0.64-1.03,0-1c-0.86,0.03-1.9,0.04-2.56-0.6c-0.71-0.69-0.84-2.01-1.06-2.93c-0.54-2.23-0.98-4.49-1.33-6.76
								C73.78,228.65,72.82,228.92,72.92,229.55L72.92,229.55z"/>
						</g>
					</g>
				</g>
				<g>
					<path class="st52" d="M101.91,348.49c-2.12,2.24-4.78,4.85-6.91,7.09c-0.77,0.82-1.55,1.64-2.19,2.57
						c-1.46,2.11-2.16,4.74-1.93,7.3c0.06,0.66,0.2,1.35,0.65,1.82c0.35,0.36,0.84,0.55,1.33,0.7c2.46,0.78,5.05,1.03,7.63,1.05
						c1.94,0.02,3.93-0.11,5.69-0.92c3.77-1.74,6.79-6.13,9.43-8.01c0,0-0.88-6.68-0.83-10.15L101.91,348.49z"/>
					<g>
						<path class="st3" d="M101.56,348.14c-2.53,2.67-5.2,5.2-7.67,7.92c-2.36,2.59-3.83,5.83-3.5,9.4c0.07,0.72,0.2,1.46,0.67,2.03
							c0.53,0.64,1.35,0.89,2.12,1.11c1.77,0.51,3.6,0.76,5.44,0.87c1.85,0.11,3.75,0.14,5.58-0.21c1.63-0.31,3.09-1.05,4.41-2.03
							c1.4-1.04,2.63-2.27,3.85-3.51c1.08-1.1,2.14-2.27,3.4-3.18c0.13-0.09,0.27-0.25,0.25-0.43c-0.44-3.35-0.86-6.77-0.83-10.15
							c0-0.29-0.23-0.47-0.5-0.5c-3.75-0.43-7.51-0.85-11.26-1.28c-0.54-0.06-1.07-0.12-1.61-0.18c-0.64-0.07-0.63,0.93,0,1
							c3.75,0.43,7.51,0.85,11.26,1.28c0.54,0.06,1.07,0.12,1.61,0.18c-0.17-0.17-0.33-0.33-0.5-0.5c-0.04,3.38,0.39,6.8,0.83,10.15
							c0.08-0.14,0.17-0.29,0.25-0.43c-2.15,1.54-3.81,3.67-5.76,5.44c-1.02,0.92-2.11,1.79-3.35,2.41c-1.57,0.79-3.35,0.98-5.08,1
							c-1.82,0.02-3.65-0.07-5.44-0.38c-0.84-0.14-1.68-0.33-2.5-0.58c-0.83-0.25-1.49-0.54-1.73-1.45
							c-0.4-1.53-0.11-3.36,0.35-4.84c0.52-1.65,1.45-3.06,2.59-4.34c2.51-2.79,5.25-5.36,7.83-8.08
							C102.71,348.38,102,347.67,101.56,348.14z"/>
					</g>
				</g>
				<g>
					<g>
						<path class="st3" d="M92.7,365.4c2.32,0.48,4.65,1.07,7.01,1.32c1.98,0.21,3.95,0.01,5.7-1c1.48-0.85,2.84-1.96,4.14-3.06
							c1.42-1.21,2.8-2.49,4.07-3.86c0.44-0.47-0.27-1.18-0.71-0.71c-2.29,2.45-4.89,4.88-7.77,6.62c-1.68,1.01-3.51,1.21-5.43,1
							c-2.27-0.24-4.51-0.83-6.74-1.28C92.33,364.31,92.06,365.27,92.7,365.4L92.7,365.4z"/>
					</g>
				</g>
				<g>
					<path class="st52" d="M117.77,349.21c0.05,3.47-0.5,10.89-0.5,10.89c3.75,1.79,5.66,6.27,9.43,8.01
						c1.76,0.81,3.75,0.93,5.69,0.92c2.58-0.02,5.17-0.27,7.63-1.05c0.48-0.15,0.97-0.34,1.33-0.7c0.46-0.47,0.6-1.17,0.65-1.82
						c0.23-2.56-0.47-5.19-1.93-7.3c-0.64-0.93-1.42-1.75-2.19-2.57c-2.12-2.24-5.02-5.46-7.14-7.7L117.77,349.21z"/>
					<g>
						<path class="st3" d="M117.27,349.21c0.04,3.63-0.23,7.27-0.5,10.89c-0.01,0.16,0.1,0.36,0.25,0.43
							c2.24,1.09,3.78,3.08,5.45,4.86c1.8,1.91,3.79,3.44,6.44,3.9c2.98,0.51,6.26,0.29,9.21-0.31c1.23-0.25,2.99-0.5,3.79-1.6
							c0.75-1.03,0.7-2.59,0.6-3.8c-0.24-2.96-1.59-5.45-3.58-7.61c-1.94-2.11-3.9-4.2-5.84-6.31c-0.45-0.49-0.9-0.98-1.36-1.47
							c-0.27-0.28-0.57-0.78-0.99-0.82c-0.24-0.02-0.51,0.05-0.75,0.08c-1.32,0.14-2.64,0.27-3.96,0.41
							c-2.75,0.28-5.51,0.57-8.26,0.85c-0.63,0.07-0.64,1.07,0,1c3.78-0.39,7.55-0.78,11.33-1.16c0.55-0.06,1.1-0.11,1.65-0.17
							c-0.12-0.05-0.24-0.1-0.35-0.15c2.19,2.32,4.32,4.7,6.5,7.03c1.19,1.27,2.44,2.49,3.3,4.02c0.8,1.44,1.27,3.07,1.34,4.71
							c0.03,0.75,0.05,1.58-0.19,2.3c-0.33,1.01-1.44,1.21-2.35,1.45c-1.77,0.47-3.6,0.67-5.42,0.74c-1.82,0.07-3.71,0.08-5.48-0.41
							c-1.43-0.4-2.65-1.21-3.73-2.21c-2.26-2.09-4-4.81-6.83-6.2c0.08,0.14,0.17,0.29,0.25,0.43c0.26-3.62,0.54-7.26,0.5-10.89
							C118.26,348.57,117.26,348.57,117.27,349.21z"/>
					</g>
				</g>
				<g>
					<g>
						<path class="st3" d="M139.92,364.43c-2.23,0.46-4.47,1.04-6.74,1.28c-1.91,0.2-3.71,0.01-5.39-0.97
							c-2.84-1.67-5.4-3.92-7.79-6.16c-0.47-0.44-1.18,0.27-0.71,0.71c1.32,1.23,2.69,2.41,4.11,3.54c1.31,1.05,2.66,2.1,4.13,2.92
							c1.74,0.98,3.69,1.17,5.65,0.97c2.36-0.25,4.69-0.84,7.01-1.32C140.82,365.27,140.55,364.31,139.92,364.43L139.92,364.43z"/>
					</g>
				</g>
				<g>
					<g>
						<path class="st3" d="M114.57,126.96c-0.17,9.89-0.2,19.78-0.08,29.67c0.01,0.64,1.01,0.64,1,0
							c-0.12-9.89-0.09-19.78,0.08-29.67C115.59,126.32,114.59,126.32,114.57,126.96L114.57,126.96z"/>
					</g>
				</g>
				<g>
					<path class="st7" d="M105.49,137.41c-2.48-1.58-5.34-0.59-6.58,0.8c-1.66,1.85-1.73,4.82-0.19,6.77
						c1.78,2.26,5.68,2.28,7.58,0.12C108.2,142.92,107.76,139.18,105.49,137.41"/>
					<g>
						<path class="st3" d="M105.74,136.98c-2.13-1.32-4.98-1.11-6.86,0.56c-1.76,1.56-2.19,4.31-1.31,6.44
							c0.87,2.1,2.94,3.31,5.19,3.22c2.21-0.09,4.17-1.39,4.91-3.5c0.81-2.29,0.08-5.11-1.83-6.63c-0.5-0.4-1.21,0.31-0.71,0.71
							c1.41,1.12,2.1,3.02,1.8,4.8c-0.31,1.83-1.62,3.17-3.43,3.54c-1.71,0.35-3.63-0.24-4.61-1.74c-1.08-1.66-1.04-3.97,0.17-5.56
							c1.42-1.88,4.24-2.16,6.17-0.96C105.78,138.18,106.29,137.32,105.74,136.98L105.74,136.98z"/>
					</g>
				</g>
				<g>
					<g>
						<path class="st3" d="M124.54,138.85c0.28,2.15,0.57,4.3,0.85,6.46c0.03,0.25,0.2,0.53,0.5,0.5c1.93-0.2,3.86-0.4,5.79-0.59
							c0.95-0.1,1.9-0.18,2.84-0.29c0.64-0.07,1.3-0.23,1.56-0.89c0.28-0.74,0.03-1.73-0.03-2.5c-0.07-0.96-0.12-1.92-0.22-2.87
							c-0.07-0.69-0.38-1.2-1.1-1.31c-0.88-0.13-1.85-0.03-2.74-0.02c-2.17,0-4.33,0.01-6.5,0.01c-0.64,0-0.64,1,0,1
							c2.03,0,4.06-0.01,6.08-0.01c0.56,0,1.12,0,1.68,0c0.21,0,0.42,0,0.63,0c0.2,0,0.55-0.07,0.74,0.02
							c0.35,0.15,0.26,0.88,0.29,1.22c0.04,0.52,0.08,1.04,0.12,1.55c0.04,0.52,0.08,1.04,0.12,1.55c0.03,0.37,0.19,0.96-0.2,1.17
							c-0.33,0.17-0.89,0.13-1.26,0.17c-0.53,0.05-1.05,0.11-1.58,0.16c-2.07,0.21-4.14,0.42-6.21,0.64c0.17,0.17,0.33,0.33,0.5,0.5
							c-0.28-2.15-0.57-4.3-0.85-6.46C125.45,138.22,124.45,138.21,124.54,138.85L124.54,138.85z"/>
					</g>
				</g>
				<ellipse class="st3" cx="110.5" cy="91.16" rx="1.67" ry="2.09"/>
				<ellipse class="st3" cx="122.83" cy="91.3" rx="1.67" ry="2.09"/>
				<g>
					<g>
						<path class="st3" d="M112.2,70.22c3.07,2.91,7.19,3.99,10.97,5.64c3.53,1.54,7.4,4.1,7.84,8.29c0.07,0.63,1.07,0.64,1,0
							c-0.44-4.14-3.78-6.99-7.32-8.69c-3.95-1.9-8.51-2.85-11.78-5.95C112.44,69.07,111.73,69.78,112.2,70.22L112.2,70.22z"/>
					</g>
				</g>
				<g>
					<g>
						<path class="st3" d="M122.69,69.11c4.2,0.41,6.74,4.32,7.97,7.98c0.2,0.61,1.17,0.35,0.96-0.27
							c-0.72-2.15-1.74-4.24-3.33-5.89c-1.49-1.55-3.45-2.62-5.61-2.82C122.05,68.05,122.05,69.05,122.69,69.11L122.69,69.11z"/>
					</g>
				</g>
				<g>
					<g>
						<path class="st3" d="M103.71,72.54c-0.66,5.97-6.53,10.03-6.58,16.2c0,0.64,1,0.64,1,0c0.02-3.03,1.65-5.66,3.18-8.17
							c1.53-2.5,3.07-5.06,3.4-8.04C104.78,71.9,103.78,71.91,103.71,72.54L103.71,72.54z"/>
					</g>
				</g>
			</g>
			<g>
				<path class="st51" d="M261.78,120.75c-0.82-1.17-22.94-9.66-22.94-9.66l-3.58-5.03c0,0-2.48-1.23-5.27-1.97v3.31
					c-0.76,0.53-4.47,3.31-5.42,2.98c-4.7-1.64-5.17-0.44-6.56-1.35l-0.39-4.94c0,0-3.42,0.6-4.97,1.94l-4.03,5.06
					c0,0-0.9,0.1-3.79,1.36c-3.31,1.45-17.76,7.94-20.55,9.37c0,0-2.51,8.52-3.85,14.46c-1.97,8.72-10.87,53.87-8.33,79.29
					c0,0,21.17-0.04,21.6,1.35c0,0,6.56,120.73,7.81,125.52c1.19,4.54,0.5,6.59,0.5,6.59c7.65-1.02,13.19,3.03,17.28,3.74
					c4.33,0.75,5.87-2.93,5.87-2.93c-0.23,2.15,1.02,3.87,5.39,1.93c5.57-2.48,15-2.45,15-2.45s1.26-10.23,1.75-14.87
					c2.58-24.35,7.89-84.85,7.87-102.3c0-1.77,0.71-13.52,0.09-15.12c2.18-0.24,4.97-0.94,4.97-0.94c3.15-0.87,12.27-0.5,15.53-0.53
					c0,0,0.5-8.07,0.53-16.1c0.03-10.08-3.78-45.98-9.56-68.69C265.86,127.31,263.41,123.06,261.78,120.75z"/>
				<path class="st2" d="M242.97,80.32c-1.14-5.61-8.06-12.14-14.93-12.83c-1.01-0.1-1.95,0.11-2.8,0.53
					c-3.02-4.24-8.14-8.82-9.87-2.85c-0.58,2.01-4.12,7.94-4.71,9.95c-0.16,0.57-0.37,1.8-0.54,2.37c-0.23,0.02,0.74-0.14,0.52-0.1
					c-0.84,0.16-1.68,0.32-2.52,0.49c-2.84,0.55-4.69,3.57-4.77,6.27c-0.06,1.94,0.15,3.41,0.58,5.3c0.58,2.51,3.23,3.9,5.05,2.41
					c0.78,1.09,2.42,4.51,3.43,5.43c1.78,1.62,3.9,3.78,5.41,4.14c0.01,0.08-0.04,5.56,0.18,7.61l6.49,3.91l5.49-3.91
					c0.1-0.61,0.18-5.21,0.2-5.77c0.02,0,0.03,0,0.05,0.01c-0.01-0.04-0.33-1.8-0.34-1.84c4.17-1.75,7.3-6.28,8.93-10.34
					c0,0,2,1.45,2.98,0.44C242.5,90.84,248.2,84.32,242.97,80.32z"/>
				<path class="st2" d="M190.58,241.81c-0.38-2.53-2.42-7-2.29-7.32c1.24,1.82,2.12-0.27,1.99-1.5c-0.25-2.52,0.12-5.21-0.22-7.71
					c-0.53-2.84-1.07-8.51-1.07-8.51c-0.08-0.52-3.54-1.15-4.75-1.13c-1.2,0.01-7.99-0.33-7.99-0.33
					c-0.49,4.42-2.06,14.27-0.34,18.53c0.6,1.48,1.79,4.03,1.99,4.34c1.66,2.5,8.21,7.53,9.81,6.38
					C190.69,248.38,191.08,245.16,190.58,241.81z"/>
				<path class="st2" d="M272.96,215.95c-0.26-1.21-12.48-2.16-12.81,1.1c-0.4,3.93-1.1,10.01-1.3,13.93
					c-0.29,5.71,1.71,4.57,1.71,4.57c-4.42,13.79-0.61,11.15,1.65,9.38c1.24-0.97,1.29,0.22,4.58-3.91
					c0.75,0.21,1.55,0.16,2.22-0.27C275.36,236.77,274.24,222.01,272.96,215.95z"/>
				<g>
					<path class="st53" d="M245.19,66.42C245.19,66.41,245.19,66.41,245.19,66.42c-0.34-3.58-1.9-6.72-4.69-8.83
						c-0.74-0.78-1.72-1.36-2.97-1.7c-1.19-1.2-2.46-2.32-3.81-3.36c-0.37-1.62-1.47-2.97-3.44-3.24c-3.71-0.51-7.87-1.52-11.24,0.3
						c-1.9,0.38-3.6,1.23-4.76,2.9c-0.71,0.58-1.29,1.34-1.66,2.2c-0.08,0.08-0.16,0.16-0.23,0.27c-0.22,0.3-0.35,0.63-0.45,0.98
						c-0.14,0.15-0.26,0.33-0.35,0.55c-0.37,0.93-1.38,1.5-2.18,2.01c-0.96,0.61-1.89,1.24-2.74,1.99c-1.74,1.54-3.13,3.5-4.04,5.64
						c-1.7,3.98-1.63,8.45-0.01,12.39c0.02,0.88,0.46,1.76,1.43,2.38c0,0,0.63-0.46,0.96-0.54c1.48-1.15,3.27,1.88,3.27,1.88
						c1.18-2.41,1.84-5.52,2.85-8c1.66-2.9,3.08-5.93,4.23-9.07c0.79,0.52,1.72,0.89,2.59,1.12c0.14,0.04,0.27,0.05,0.39,0.05
						c0.09,0.09,0.19,0.19,0.3,0.28c1.57,1.21,3.86,1.75,5.78,2.06c1.63,0.26,3.81-0.28,5.49-0.1c1.04,0.74,2.2,1.16,3.81,1.5
						c1.73,0.36,0.5-0.28,2.09,0.46c3.52,3.05,3.47,13.22,3.47,13.22c1.77-2.35,2.62-2.2,2.93-2.95c0.07-0.18,0.15-0.35,0.22-0.53
						c0.17,0.05,0.35,0.06,0.54,0.04c0.84,0.22,1.83-0.23,1.87-1.39c0.04-1.19-0.13-5.86-0.57-6.96c0.68,0.02,1.37-0.37,1.54-1.08
						C246.17,69.34,245.97,67.8,245.19,66.42z"/>
					<g>
						<g>
							<path class="st3" d="M224.51,85.91c0.03,0,0.07,0.01,0.1,0.01c-0.1,0.01-0.07-0.01-0.01,0c0.06,0.01,0.11,0.03,0.17,0.05
								c0.06,0.02-0.1-0.05-0.02-0.01c0.03,0.01,0.06,0.03,0.09,0.05c0.03,0.02,0.05,0.03,0.08,0.05c0.08,0.05-0.06-0.05-0.01-0.01
								c0.04,0.04,0.09,0.08,0.13,0.12c0.02,0.02,0.04,0.05,0.06,0.07c-0.01-0.02-0.03-0.03-0.04-0.05
								c0.01,0.02,0.02,0.04,0.04,0.05c0.01,0.01,0.08,0.14,0.08,0.14c-0.03-0.07-0.03-0.08-0.01-0.03c0,0.01,0.01,0.02,0.01,0.03
								c0.01,0.03,0.02,0.06,0.03,0.09c0.01,0.03,0,0.1,0.01,0.03c-0.01-0.05-0.01-0.05,0,0c0,0.02,0,0.03,0,0.05
								c0,0.06-0.01,0.12,0,0.18c-0.01-0.11,0.01-0.06,0-0.01c-0.01,0.03-0.01,0.05-0.02,0.08c-0.01,0.03-0.02,0.06-0.03,0.09
								c-0.03,0.08-0.02,0.02,0.01-0.01c-0.04,0.05-0.06,0.12-0.09,0.17c-0.01,0.01-0.01,0.02-0.02,0.03c-0.03,0.03-0.02,0.04,0,0
								c0.03-0.03,0.03-0.03,0,0c-0.01,0.01-0.01,0.02-0.02,0.02c-0.04,0.05-0.1,0.08-0.14,0.13c0.02-0.01,0.03-0.03,0.05-0.04
								c-0.02,0.01-0.04,0.02-0.05,0.04c-0.03,0.02-0.06,0.03-0.08,0.05c-0.23,0.12-0.32,0.46-0.18,0.68
								c0.15,0.23,0.44,0.31,0.68,0.18c0.67-0.36,1.03-1.19,0.85-1.93c-0.18-0.75-0.9-1.28-1.65-1.3c-0.26-0.01-0.51,0.23-0.5,0.5
								C224.02,85.68,224.23,85.9,224.51,85.91L224.51,85.91z"/>
						</g>
					</g>
					<g>
						<g>
							<path class="st3" d="M229.35,75.92c1.08-0.29,2.21-0.29,3.29,0.02c0.04-0.33,0.09-0.65,0.13-0.98
								c-1.39-0.01-2.77,0.12-4.14,0.37c-0.27,0.05-0.42,0.37-0.35,0.62c0.08,0.28,0.35,0.4,0.62,0.35
								c1.28-0.24,2.57-0.35,3.87-0.34c0.57,0.01,0.68-0.83,0.13-0.98c-1.25-0.35-2.57-0.36-3.82-0.02
								C228.46,75.13,228.73,76.09,229.35,75.92L229.35,75.92z"/>
						</g>
					</g>
					<g>
						<g>
							<path class="st3" d="M216.69,76.1c0.88,0.1,1.75,0.2,2.63,0.29c0.25,0.03,0.46-0.21,0.49-0.43c0.03-0.24-0.12-0.48-0.36-0.55
								c-1.11-0.31-2.28-0.44-3.44-0.37c-0.26,0.02-0.51,0.22-0.5,0.5c0.01,0.26,0.22,0.52,0.5,0.5c1.09-0.07,2.13,0.04,3.17,0.34
								c0.04-0.33,0.09-0.65,0.13-0.98c-0.88-0.1-1.75-0.2-2.63-0.29c-0.26-0.03-0.51,0.25-0.5,0.5
								C216.21,75.9,216.41,76.07,216.69,76.1L216.69,76.1z"/>
						</g>
					</g>
					<g>
						<g>
							<path class="st3" d="M221.53,92.78c1.63,1.2,4.01,1.03,5.53-0.28c0.2-0.18,0.18-0.53,0-0.71c-0.2-0.2-0.5-0.18-0.71,0
								c-1.2,1.04-3.06,1.05-4.31,0.12c-0.22-0.16-0.56-0.04-0.68,0.18C221.2,92.35,221.31,92.62,221.53,92.78L221.53,92.78z"/>
						</g>
					</g>
					<g>
						<g>
							<g>
								<path class="st3" d="M218.52,110.22c-0.11-2.93-0.14-5.87-0.18-8.8c0-0.24-0.16-0.4-0.37-0.48
									c-4.32-1.66-6.87-6.08-8.64-10.11c-0.26-0.59-1.12-0.08-0.86,0.5c1.89,4.3,4.64,8.8,9.23,10.57
									c-0.12-0.16-0.24-0.32-0.37-0.48c0.04,2.93,0.07,5.87,0.18,8.8C217.54,110.86,218.54,110.87,218.52,110.22L218.52,110.22z"
									/>
							</g>
						</g>
					</g>
					<g>
						<g>
							<g>
								<path class="st3" d="M230.5,110.38c-0.03-2.99-0.06-5.97-0.09-8.96c-0.12,0.16-0.24,0.32-0.37,0.48
									c2.71-0.88,4.83-2.79,6.43-5.11c1.17-1.7,1.98-3.58,2.81-5.46c0.26-0.58-0.61-1.09-0.86-0.5c-1.81,4.14-4.01,8.6-8.64,10.11
									c-0.21,0.07-0.37,0.26-0.37,0.48c0.03,2.99,0.06,5.97,0.09,8.96C229.5,111.02,230.5,111.03,230.5,110.38L230.5,110.38z"/>
							</g>
						</g>
					</g>
					<g>
						<g>
							<path class="st3" d="M208.74,91.75c-1.05,0.72-2.48,0.47-3.17-0.61c-0.82-1.27-1.27-2.89-1.6-4.35
								c-0.31-1.37-0.66-2.99-0.3-4.37c0.16-0.61,0.48-1.16,1.06-1.43c0.5-0.24,1.1-0.26,1.52,0.16c0.45,0.46,1.16-0.25,0.71-0.71
								c-1.08-1.09-2.91-0.62-3.73,0.55c-1.08,1.54-0.68,3.74-0.35,5.45c0.21,1.07,0.51,2.12,0.89,3.14
								c0.32,0.84,0.65,1.76,1.23,2.46c1.02,1.25,2.94,1.48,4.26,0.57C209.77,92.25,209.27,91.38,208.74,91.75L208.74,91.75z"/>
						</g>
					</g>
					<g>
						<g>
							<path class="st3" d="M241.34,82.3c0.54-1.27,2.25-1.87,3.04-0.45c0.72,1.31,0.42,3.01,0.01,4.36
								c-0.38,1.27-0.88,2.58-1.64,3.67c-0.54,0.78-2.47,2.64-3.24,1.12c-0.29-0.58-1.15-0.07-0.86,0.5
								c0.94,1.88,3.28,0.82,4.33-0.32c1.27-1.37,2.01-3.34,2.49-5.11c0.45-1.69,0.67-4.12-0.77-5.43c-1.4-1.28-3.53-0.46-4.22,1.15
								C240.22,82.38,241.08,82.89,241.34,82.3L241.34,82.3z"/>
						</g>
					</g>
					<g>
						<g>
							<path class="st3" d="M214.59,64.67c-0.42,6.72-6.64,11.51-6.8,18.33c-0.02,0.64,0.98,0.64,1,0c0.08-3.38,1.81-6.37,3.42-9.24
								c1.59-2.84,3.18-5.78,3.38-9.09C215.63,64.02,214.63,64.03,214.59,64.67L214.59,64.67z"/>
						</g>
					</g>
					<g>
						<g>
							<path class="st3" d="M203.77,80.09c-3.49-6.27-2.35-14.22,2.8-19.22c1.33-1.29,2.87-2.34,4.56-3.11
								c0.58-0.27,0.08-1.13-0.5-0.86c-6.69,3.06-10.7,10.29-9.74,17.59c0.28,2.15,0.97,4.22,2.02,6.11
								C203.22,81.16,204.09,80.66,203.77,80.09L203.77,80.09z"/>
						</g>
					</g>
					<g>
						<g>
							<path class="st3" d="M211.94,55.54c1.77-3.21,4.99-5.32,8.5-6.18c4.26-1.04,8.73-0.2,12.76,1.32c0-0.32,0-0.64,0-0.96
								c-0.57,0.17-1.05,0.45-1.45,0.89c-0.23,0.25-0.17,0.59,0.1,0.79c3.56,2.54,7.18,5.14,9.92,8.59
								c2.62,3.29,4.39,7.57,3.75,11.83c0.24-0.1,0.49-0.2,0.73-0.3c-0.48-0.21-0.97-0.43-1.45-0.64c-0.31-0.14-0.79,0.01-0.75,0.43
								c0.32,3.17,0.27,6.36-0.15,9.51c-0.08,0.64,0.92,0.63,1,0c0.42-3.16,0.47-6.34,0.15-9.51c-0.25,0.14-0.5,0.29-0.75,0.43
								c0.48,0.21,0.97,0.43,1.45,0.64c0.26,0.11,0.68,0.05,0.73-0.3c1.08-7.3-3.78-13.5-9.13-17.82c-1.62-1.31-3.31-2.52-5.01-3.74
								c0.03,0.26,0.07,0.52,0.1,0.79c0.29-0.31,0.6-0.51,1.01-0.63c0.5-0.15,0.45-0.8,0-0.96c-4.26-1.61-9-2.42-13.48-1.27
								c-3.68,0.95-7.06,3.22-8.92,6.59C210.76,55.6,211.63,56.1,211.94,55.54L211.94,55.54z"/>
						</g>
					</g>
					<g>
						<g>
							<path class="st3" d="M214.77,65.16c4.68,2.15,9.61,3.67,14.69,4.5c0.44,0.07,0.76-0.32,0.56-0.73
								c-0.23-0.48-0.46-0.95-0.69-1.43c-0.23,0.23-0.46,0.46-0.68,0.68c0.82,0.37,1.64,0.75,2.45,1.12
								c0.66,0.3,1.32,0.67,2.03,0.83c1.01,0.23,2.17,0.12,2.55-0.98c-0.3,0.04-0.61,0.08-0.91,0.12c3.12,4.13,4.29,9.39,4.02,14.5
								c-0.03,0.64,0.97,0.64,1,0c0.28-5.26-0.94-10.74-4.15-15c-0.26-0.35-0.76-0.31-0.91,0.12c-0.26,0.75-1.63,0.22-2.11,0.01
								c-1.16-0.51-2.3-1.05-3.46-1.58c-0.46-0.21-0.91,0.22-0.68,0.68c0.23,0.48,0.46,0.95,0.69,1.43
								c0.19-0.24,0.38-0.49,0.56-0.73c-4.99-0.81-9.86-2.28-14.45-4.39C214.7,64.03,214.19,64.9,214.77,65.16L214.77,65.16z"/>
						</g>
					</g>
					<g>
						<g>
							<path class="st3" d="M221.2,102.08c1.37,0.06,2.74,0.04,4.11-0.06c0.27-0.02,0.5-0.22,0.5-0.5c0-0.26-0.23-0.52-0.5-0.5
								c-1.37,0.1-2.74,0.12-4.11,0.06c-0.27-0.01-0.5,0.24-0.5,0.5C220.7,101.86,220.93,102.06,221.2,102.08L221.2,102.08z"/>
						</g>
					</g>
					<g>
						<g>
							<path class="st3" d="M231.73,106.72c0.34,1.35,0.06,2.94-0.52,4.17c-0.6,1.28-1.65,2.19-2.46,3.32
								c-0.57,0.79-1.02,1.66-1.36,2.57c-0.91,2.46-1.79,4.92-2.69,7.38c-0.34,0.93-0.68,1.86-1.02,2.79c0.32,0,0.64,0,0.96,0
								c-0.61-2.44-1.22-4.88-1.83-7.31c-0.24-0.95-0.46-1.91-0.72-2.85c-0.28-1.03-0.82-1.94-1.58-2.7
								c-0.96-0.95-1.8-1.92-2.45-3.11c-0.72-1.31-1.33-3.04-1.45-4.4c-0.05-0.64-1.05-0.64-1,0c0.11,1.25,0.49,2.5,0.98,3.65
								c0.46,1.09,1.05,2.1,1.78,3.03c0.85,1.09,2.05,1.89,2.57,3.21c0.35,0.9,0.51,1.91,0.75,2.84c0.4,1.58,0.79,3.16,1.19,4.74
								c0.26,1.05,0.53,2.1,0.79,3.15c0.13,0.51,0.8,0.44,0.96,0c0.85-2.34,1.7-4.68,2.55-7.01c0.37-1.03,0.75-2.06,1.12-3.09
								c0.32-0.86,0.75-1.66,1.29-2.41c0.82-1.13,1.86-2.04,2.46-3.32c0.69-1.48,1.03-3.33,0.62-4.94
								C232.53,105.83,231.57,106.09,231.73,106.72L231.73,106.72z"/>
						</g>
					</g>
					<g>
						<g>
							<path class="st3" d="M208.15,111.22c0.96,3.81,2.51,7.51,4.05,11.12c0.12,0.28,0.6,0.33,0.79,0.1c0.6-0.76,1.24-1.49,1.9-2.2
								c0.99-1.08,2.07-2.29,3.39-2.97c0.57-0.3,0.07-1.16-0.5-0.86c-1.36,0.7-2.48,1.93-3.5,3.03c-0.69,0.74-1.36,1.51-1.99,2.3
								c0.26,0.03,0.52,0.07,0.79,0.1c-1.45-3.38-3.02-7.19-3.95-10.88C208.96,110.34,207.99,110.6,208.15,111.22L208.15,111.22z"/>
						</g>
					</g>
					<g>
						<g>
							<path class="st3" d="M238.36,110.96c-0.92,3.69-1.96,7.35-3,11c0.3-0.04,0.61-0.08,0.91-0.12c-0.58-0.81-1.21-1.59-1.86-2.35
								c-0.97-1.13-2.04-2.39-3.38-3.08c-0.57-0.3-1.08,0.57-0.5,0.86c1.26,0.66,2.27,1.86,3.18,2.92c0.59,0.69,1.17,1.41,1.7,2.15
								c0.24,0.34,0.79,0.32,0.91-0.12c1.04-3.65,2.08-7.31,3-11C239.48,110.6,238.51,110.33,238.36,110.96L238.36,110.96z"/>
						</g>
					</g>
					<g>
						<g>
							<path class="st3" d="M255.41,217.53c6.58-1.66,13.62-2.18,20.37-1.45c0.27,0.03,0.5-0.25,0.5-0.5
								c0.04-4.44,0.38-8.87,0.49-13.31c0.12-4.63-0.17-9.26-0.45-13.87c-0.54-9.08-1.39-18.15-2.74-27.15
								c-1.35-9.02-3.23-17.96-5.6-26.77c-0.63-2.34-1.29-4.67-1.98-7c-0.56-1.89-1.26-3.64-2.43-5.25
								c-1.07-1.48-2.34-2.61-3.97-3.42c-1.46-0.73-2.95-1.4-4.45-2.05c-5.07-2.2-10.25-4.18-15.46-6.04
								c-0.1-0.04-0.21-0.07-0.31-0.11c0.1,0.08,0.2,0.15,0.3,0.23c-1.75-3.56-5.23-7.2-9.43-7.25c-0.64-0.01-0.64,0.99,0,1
								c3.33,0.04,5.95,2.62,7.67,5.23c0.25,0.38,0.49,0.77,0.71,1.18c0.14,0.25,0.2,0.44,0.48,0.57c0.5,0.23,1.05,0.38,1.57,0.56
								c3.11,1.13,6.2,2.3,9.27,3.53c1.88,0.75,3.76,1.53,5.61,2.35c0.87,0.39,1.74,0.78,2.6,1.2c0.82,0.39,1.68,0.77,2.42,1.31
								c1.76,1.3,3.1,3.36,3.87,5.39c0.47,1.22,0.78,2.52,1.15,3.77c0.38,1.31,0.75,2.63,1.11,3.94c1.42,5.2,2.68,10.44,3.75,15.71
								c2.07,10.17,3.43,20.46,4.27,30.8c0.45,5.48,0.76,10.97,0.99,16.47c0.22,5.13-0.17,10.26-0.37,15.39
								c-0.05,1.19-0.08,2.38-0.09,3.58c0.17-0.17,0.33-0.33,0.5-0.5c-6.83-0.74-13.97-0.19-20.63,1.48
								C254.52,216.72,254.79,217.69,255.41,217.53L255.41,217.53z"/>
						</g>
					</g>
					<g>
						<g>
							<path class="st3" d="M189.42,128.11c-0.19,0.69,0.13,1.64,0.24,2.31c0.26,1.51,0.56,3.01,0.86,4.51
								c0.67,3.33,1.37,6.65,2.05,9.98c0.12,0.58,0.24,1.16,0.34,1.74c0.03,0.18,0.07,0.35,0.09,0.53c0.03,0.16,0.01,0.05,0.01,0.07
								c0.01,0.09-0.03,0.11,0.02-0.05c-0.18,0.62,0.78,0.88,0.96,0.27c0.07-0.23-0.02-0.51-0.06-0.74
								c-0.08-0.43-0.16-0.87-0.25-1.3c-0.29-1.46-0.59-2.91-0.89-4.36c-0.7-3.36-1.41-6.71-2.02-10.09
								c-0.11-0.62-0.22-1.24-0.31-1.87c-0.02-0.14-0.05-0.32-0.06-0.52c-0.01-0.07-0.01-0.14-0.01-0.21c0-0.16-0.02,0.05-0.01-0.01
								C190.55,127.75,189.59,127.48,189.42,128.11L189.42,128.11z"/>
						</g>
					</g>
					<g>
						<g>
							<path class="st3" d="M258.49,128.11c-0.64,2.31-1.27,4.62-1.91,6.94c-1.02,3.71-2.05,7.42-3.07,11.13
								c-0.23,0.85-0.47,1.7-0.7,2.55c-0.17,0.62,0.79,0.89,0.96,0.27c0.64-2.31,1.27-4.62,1.91-6.94
								c1.02-3.71,2.05-7.42,3.07-11.13c0.23-0.85,0.47-1.7,0.7-2.55C259.62,127.75,258.66,127.48,258.49,128.11L258.49,128.11z"/>
						</g>
					</g>
					<g>
						<g>
							<path class="st3" d="M272.48,216.08c0.83,4.65,1.69,9.42,1.08,14.15c-0.39,3-1.3,6.25-3.25,8.64
								c-1.08,1.33-2.49,2.26-4.21,2.51c-0.63,0.09-0.36,1.05,0.27,0.96c3.35-0.48,5.48-3.35,6.69-6.28
								c1.52-3.66,1.88-7.68,1.61-11.6c-0.2-2.91-0.72-5.78-1.23-8.65C273.33,215.19,272.36,215.45,272.48,216.08L272.48,216.08z"/>
						</g>
					</g>
					<g>
						<g>
							<path class="st3" d="M259.66,216.92c-0.8,4.51-1.24,9.08-1.31,13.66c-0.02,1.14-0.02,2.29,0.02,3.43
								c0.02,0.67,0.11,1.46,0.66,1.91c0.55,0.45,1.3,0.32,1.76-0.18c0.56-0.61,0.67-1.54,0.83-2.32c0.54-2.54,1.09-5.08,1.63-7.63
								c0.13-0.63-0.83-0.9-0.96-0.27c-0.51,2.38-1.02,4.77-1.53,7.15c-0.07,0.33-0.37,2.8-1.07,2.49
								c-0.36-0.16-0.32-0.98-0.33-1.29c-0.02-0.61-0.02-1.23-0.03-1.84c-0.02-4.98,0.42-9.96,1.28-14.86
								C260.74,216.55,259.78,216.28,259.66,216.92L259.66,216.92z"/>
						</g>
					</g>
					<g>
						<g>
							<path class="st3" d="M266.22,233.63c-0.74,2.19-1.62,4.33-2.64,6.4c-0.47,0.95-0.97,1.89-1.5,2.81
								c-0.54,0.94-1.07,2.04-1.81,2.85c-0.3,0.32-0.81,0.77-1.23,0.37c-0.3-0.29-0.3-0.86-0.3-1.24c0.02-1.09,0.21-2.18,0.44-3.24
								c0.5-2.29,1.33-4.49,2.15-6.67c0.23-0.6-0.74-0.86-0.96-0.27c-0.75,2.01-1.51,4.02-2.02,6.11c-0.25,1.02-0.44,2.06-0.54,3.11
								c-0.08,0.79-0.16,1.65,0.18,2.4c0.28,0.62,0.87,1.02,1.57,0.96c0.81-0.07,1.43-0.76,1.86-1.38c1.18-1.69,2.17-3.56,3.08-5.4
								c1.04-2.12,1.94-4.3,2.69-6.54C267.39,233.28,266.43,233.02,266.22,233.63L266.22,233.63z"/>
						</g>
					</g>
					<g>
						<g>
							<path class="st3" d="M269.59,233.55c-0.8,2.3-1.83,4.5-3.07,6.6c-0.61,1.02-1.24,2.05-1.98,2.98
								c-0.63,0.8-1.59,1.79-2.71,1.43c-0.61-0.2-0.88,0.77-0.27,0.96c2.52,0.81,4.32-2.46,5.39-4.18c1.48-2.37,2.67-4.9,3.6-7.53
								C270.77,233.21,269.8,232.94,269.59,233.55L269.59,233.55z"/>
						</g>
					</g>
					<g>
						<g>
							<path class="st3" d="M222.67,238.41c0.74,14.62,1.12,29.26,1.3,43.9c0.19,14.96,0.17,29.92,0.06,44.88
								c-0.06,8.13-0.15,16.26-0.24,24.39c-0.01,0.64,0.99,0.64,1,0c0.18-14.64,0.32-29.29,0.33-43.93
								c0.01-14.96-0.12-29.92-0.52-44.87c-0.22-8.13-0.51-16.25-0.93-24.37C223.64,237.77,222.64,237.77,222.67,238.41
								L222.67,238.41z"/>
						</g>
					</g>
					<g>
						<path class="st52" d="M202.29,349.33c-2.83,1.82-5.78,3.57-8.29,5.81c-1.32,1.17-2.69,2.63-2.62,4.39
							c0.04,1,0.55,1.92,1.04,2.79l-0.24,1.2c-0.08,3.76,5.4,5.51,19.04,3.76c3.79-0.49,9.79-6.28,12.69-8.77l0.37-6.91"/>
						<g>
							<path class="st3" d="M202.03,348.9c-2.88,1.84-5.83,3.61-8.39,5.89c-1.07,0.96-2.17,2.07-2.6,3.48
								c-0.47,1.55,0.19,2.97,0.94,4.3c-0.02-0.13-0.03-0.26-0.05-0.39c-0.19,0.95-0.38,1.8-0.02,2.73c0.33,0.86,0.99,1.52,1.77,2
								c1.03,0.63,2.24,0.95,3.41,1.16c1.77,0.32,3.59,0.39,5.38,0.38c2.53-0.02,5.05-0.24,7.56-0.53c0.97-0.11,1.9-0.21,2.82-0.57
								c0.86-0.33,1.67-0.77,2.44-1.25c1.82-1.13,3.5-2.49,5.12-3.87c0.76-0.65,1.51-1.31,2.25-1.97c0.31-0.28,0.63-0.56,0.94-0.84
								c0.3-0.26,0.73-0.51,0.79-0.92c0.18-1.12,0.13-2.32,0.19-3.45c0.06-1.15,0.12-2.3,0.19-3.45c0.03-0.64-0.97-0.64-1,0
								c-0.12,2.3-0.25,4.61-0.37,6.91c0.05-0.12,0.1-0.24,0.15-0.35c-2.84,2.45-5.56,5.1-8.76,7.08c-0.76,0.47-1.55,0.92-2.39,1.22
								c-0.91,0.33-1.86,0.41-2.82,0.52c-2.33,0.26-4.67,0.45-7.01,0.48c-2.68,0.03-5.92,0.05-8.31-1.36
								c-0.63-0.37-1.19-0.9-1.43-1.58c-0.06-0.17-0.1-0.34-0.13-0.51c-0.01-0.09-0.03-0.44-0.03-0.38
								c0.06-0.63,0.39-1.14,0.07-1.73c-0.73-1.36-1.22-2.64-0.41-4.1c0.64-1.14,1.69-2.04,2.69-2.87c2.34-1.95,4.96-3.51,7.51-5.15
								C203.08,349.41,202.58,348.55,202.03,348.9L202.03,348.9z"/>
						</g>
					</g>
					<g>
						<g>
							<path class="st3" d="M194.43,363.44c3.72,0.79,7.57,1.13,11.37,0.85c3.69-0.27,7.43-1.12,10.59-3.12
								c0.54-0.34,0.04-1.21-0.5-0.86c-3.07,1.93-6.7,2.75-10.29,2.99c-3.65,0.25-7.34-0.07-10.91-0.83
								C194.07,362.34,193.8,363.3,194.43,363.44L194.43,363.44z"/>
						</g>
					</g>
					<g>
						<g>
							<path class="st3" d="M224.16,351.11c-1.58,0.36-3.27,0.23-4.87,0.07c-2.06-0.2-4.09-0.55-6.13-0.91
								c-3.54-0.62-7.26-1.59-10.88-1.45c0.17,0.17,0.33,0.33,0.5,0.5c-0.33-2.98-0.62-5.96-0.91-8.94
								c-0.4-4.19-0.78-8.38-1.15-12.57c-0.45-5.14-0.88-10.28-1.29-15.42c-0.46-5.77-0.91-11.55-1.33-17.32
								c-0.44-6.08-0.86-12.15-1.25-18.23c-0.39-6.14-0.76-12.28-1.08-18.42c-0.31-5.87-0.59-11.74-0.81-17.62
								c-0.2-5.28-0.35-10.56-0.42-15.84c-0.06-4.44-0.07-8.89,0.06-13.33c0.1-3.28,0.24-6.57,0.66-9.82
								c0.07-0.57,0.16-1.13,0.26-1.69c0.11-0.63-0.85-0.9-0.96-0.27c-0.51,2.91-0.7,5.87-0.84,8.82
								c-0.19,4.16-0.23,8.33-0.21,12.49c0.02,5.11,0.14,10.22,0.31,15.33c0.18,5.76,0.43,11.51,0.72,17.27
								c0.3,6.1,0.65,12.2,1.02,18.3c0.38,6.15,0.79,12.29,1.22,18.43c0.42,5.92,0.86,11.83,1.33,17.75
								c0.42,5.33,0.85,10.66,1.31,15.98c0.38,4.47,0.78,8.94,1.2,13.4c0.31,3.31,0.63,6.62,0.98,9.92c0.06,0.6,0.13,1.19,0.19,1.79
								c0.03,0.26,0.21,0.51,0.5,0.5c1.65-0.06,3.31,0.18,4.94,0.43c2.1,0.33,4.19,0.73,6.28,1.09c2.01,0.35,4.02,0.68,6.05,0.86
								c1.61,0.14,3.27,0.22,4.86-0.14C225.05,351.93,224.78,350.97,224.16,351.11L224.16,351.11z"/>
						</g>
					</g>
					<g>
						<path class="st52" d="M245.82,349.04c2.83,1.82,5.52,3.86,8.03,6.1c1.32,1.17,2.69,2.63,2.62,4.39
							c-0.04,1-0.55,1.92-1.04,2.79c0,0,1.07,2.89-1.04,4.35c-1.93,1.34-13.39,0.88-18.59-0.56c-3.69-1.02-8.98-5.11-11.88-7.61
							l0.37-6.91"/>
						<g>
							<path class="st3" d="M245.57,349.48c2.15,1.39,4.22,2.89,6.19,4.52c0.89,0.74,1.8,1.49,2.61,2.32
								c0.77,0.79,1.53,1.77,1.6,2.92c0.03,0.58-0.13,1.15-0.37,1.68c-0.2,0.44-0.74,1.03-0.66,1.53c0.05,0.32,0.18,0.63,0.22,0.95
								c0.16,1.27-0.29,2.69-1.62,3.09c-1.14,0.35-2.39,0.4-3.57,0.44c-1.68,0.07-3.37,0.03-5.06-0.06c-1.8-0.1-3.59-0.26-5.37-0.52
								c-1.48-0.22-2.99-0.46-4.4-0.97c-2.06-0.75-3.95-1.98-5.74-3.22c-1.79-1.24-3.5-2.59-5.15-4.01c0.05,0.12,0.1,0.24,0.15,0.35
								c0.12-2.3,0.25-4.61,0.37-6.91c0.03-0.64-0.97-0.64-1,0c-0.12,2.14-0.23,4.29-0.35,6.43c-0.02,0.38-0.08,0.63,0.23,0.93
								c0.69,0.65,1.46,1.23,2.2,1.81c1.71,1.35,3.48,2.64,5.35,3.77c1.59,0.96,3.26,1.79,5.08,2.23c1.69,0.41,3.43,0.65,5.16,0.83
								c3.49,0.38,7.12,0.61,10.61,0.19c1.33-0.16,2.62-0.38,3.45-1.54c0.81-1.13,0.85-2.77,0.38-4.05
								c-0.02,0.13-0.03,0.26-0.05,0.39c0.76-1.33,1.41-2.75,0.94-4.3c-0.42-1.38-1.48-2.48-2.52-3.42
								c-2.56-2.3-5.32-4.38-8.21-6.24C245.53,348.26,245.03,349.13,245.57,349.48L245.57,349.48z"/>
						</g>
					</g>
					<g>
						<g>
							<path class="st3" d="M252.72,362.97c-6.69,1.41-13.81,0.11-19.59-3.54c-0.55-0.35-1.05,0.52-0.5,0.86
								c6.01,3.8,13.41,5.11,20.36,3.64C253.62,363.8,253.35,362.84,252.72,362.97L252.72,362.97z"/>
						</g>
					</g>
					<g>
						<g>
							<path class="st3" d="M252.8,200.12c1.55,8.63,1.82,17.51,1.89,26.26c0.09,11.11-0.36,22.22-1.01,33.3
								c-0.69,11.65-1.63,23.29-2.71,34.91c-0.97,10.37-2.05,20.73-3.21,31.09c-0.81,7.28-1.67,14.56-2.5,21.85
								c-0.07,0.6-0.14,1.21-0.2,1.81c0.17-0.17,0.33-0.33,0.5-0.5c-3.51-0.14-7.09,0.7-10.53,1.28c-1.97,0.33-3.94,0.67-5.93,0.88
								c-1.53,0.17-3.14,0.33-4.68,0.12c-0.63-0.09-0.9,0.88-0.27,0.96c3.45,0.48,7.11-0.33,10.51-0.9
								c3.56-0.6,7.26-1.49,10.89-1.35c0.29,0.01,0.47-0.24,0.5-0.5c0.75-6.82,1.57-13.64,2.34-20.46
								c1.14-10.08,2.21-20.17,3.18-30.27c1.11-11.6,2.09-23.21,2.84-34.83c0.72-11.27,1.24-22.56,1.27-33.86
								c0.02-9.12-0.18-18.31-1.49-27.35c-0.13-0.9-0.28-1.81-0.44-2.71C253.65,199.22,252.69,199.49,252.8,200.12L252.8,200.12z"/>
						</g>
					</g>
					<ellipse class="st3" cx="217.8" cy="80.36" rx="1.67" ry="2.09"/>
					<ellipse class="st3" cx="230.77" cy="80.36" rx="1.67" ry="2.09"/>
					<g>
						<g>
							<g>
								<path class="st3" d="M175.71,215.53c-0.88,4.88-1.76,9.87-1.06,14.83c0.45,3.21,1.48,6.6,3.63,9.1
									c1.16,1.36,2.72,2.34,4.51,2.59c0.63,0.09,0.9-0.87,0.27-0.96c-3.17-0.45-5.1-3.23-6.17-6.02
									c-1.35-3.51-1.66-7.28-1.39-11.01c0.2-2.78,0.69-5.52,1.19-8.26C176.78,215.17,175.82,214.9,175.71,215.53L175.71,215.53z"
									/>
							</g>
						</g>
						<g>
							<g>
								<path class="st3" d="M188.52,216.9c0.87,4.91,1.3,9.88,1.28,14.86c0,0.61-0.01,1.23-0.03,1.84
									c-0.01,0.32,0.03,1.03-0.28,1.24c-0.7,0.47-1.02-1.98-1.1-2.32c-0.52-2.42-1.04-4.85-1.56-7.27
									c-0.13-0.63-1.1-0.36-0.96,0.27c0.48,2.22,0.95,4.45,1.43,6.67c0.23,1.09,0.48,4.17,2.33,3.69c0.68-0.18,0.98-0.86,1.08-1.5
									c0.16-1.01,0.09-2.09,0.08-3.11c-0.01-2.33-0.11-4.66-0.31-6.98c-0.22-2.57-0.56-5.12-1.01-7.66
									C189.37,216,188.41,216.27,188.52,216.9L188.52,216.9z"/>
							</g>
						</g>
						<g>
							<g>
								<path class="st3" d="M181.96,233.61c1.34,3.96,3.13,7.77,5.36,11.3c0.44,0.7,0.92,1.47,1.69,1.85
									c0.66,0.32,1.43,0.18,1.9-0.38c0.45-0.54,0.52-1.32,0.49-1.99c-0.04-1.01-0.2-2.02-0.4-3.01c-0.5-2.41-1.36-4.72-2.23-7.01
									c-0.22-0.6-1.19-0.34-0.96,0.27c0.82,2.19,1.65,4.39,2.15,6.67c0.23,1.06,0.42,2.15,0.44,3.24c0.01,0.38,0.01,0.96-0.3,1.24
									c-0.42,0.39-0.93-0.04-1.23-0.37c-0.74-0.81-1.27-1.9-1.81-2.85c-0.53-0.92-1.03-1.86-1.5-2.81
									c-1.03-2.07-1.9-4.21-2.64-6.4C182.72,232.74,181.75,233,181.96,233.61L181.96,233.61z"/>
							</g>
						</g>
						<g>
							<g>
								<path class="st3" d="M178.59,233.53c0.92,2.63,2.12,5.16,3.6,7.53c1.08,1.72,2.87,4.99,5.39,4.18
									c0.61-0.2,0.35-1.16-0.27-0.96c-1.09,0.35-2.02-0.58-2.65-1.36c-0.76-0.95-1.41-2.01-2.04-3.05
									c-1.24-2.09-2.27-4.3-3.07-6.6C179.35,232.66,178.38,232.92,178.59,233.53L178.59,233.53z"/>
							</g>
						</g>
					</g>
					<path class="st3" d="M218.02,109.03c0,0,6.45,2.86,11.98,0c2.12,0.78,2.12,0.78,2.12,0.78l-1.87,3.36l-3.07,5.65l-3.01,8.27
						l-2.97-11.27l-1.17-1.51l-2.23-2.79L218.02,109.03z"/>
					<g>
						<g>
							<path class="st3" d="M193.34,155.31c-0.51,6.51-1.01,13.02-1.52,19.52c-0.25,3.23-0.5,6.47-0.75,9.7
								c-0.13,1.61-0.25,3.23-0.38,4.84c-0.12,1.58-0.22,3.17-0.02,4.75c0.34,2.67,1.67,5.26,4.24,6.34
								c0.59,0.25,0.85-0.72,0.27-0.96c-2.42-1.02-3.43-3.77-3.59-6.2c-0.1-1.47,0.03-2.95,0.14-4.41c0.12-1.53,0.24-3.07,0.36-4.6
								c0.48-6.18,0.96-12.35,1.44-18.53c0.27-3.48,0.54-6.96,0.81-10.45C194.39,154.67,193.39,154.67,193.34,155.31L193.34,155.31z
								"/>
						</g>
					</g>
					<g>
						<g>
							<path class="st3" d="M253.99,155.31c0.48,6.18,0.96,12.35,1.44,18.53c0.24,3.11,0.48,6.22,0.73,9.33
								c0.23,3.01,0.63,6.05,0.62,9.07c-0.01,2.75-0.81,6.09-3.62,7.27c-0.58,0.25-0.33,1.21,0.27,0.96
								c5.67-2.38,4.31-9.87,3.94-14.69c-0.51-6.51-1.01-13.02-1.52-19.52c-0.28-3.65-0.57-7.3-0.85-10.94
								C254.94,154.67,253.94,154.67,253.99,155.31L253.99,155.31z"/>
						</g>
					</g>
					<g>
						<g>
							<path class="st3" d="M199.56,200.02c7.04-0.27,14.08-0.53,21.11-0.78c3.56-0.12,7.12-0.25,10.68-0.36
								c3.17-0.1,6.35-0.31,9.52-0.21c3.22,0.1,6.5,0.63,9.16,2.58c0.52,0.38,1.02-0.49,0.5-0.86c-4.93-3.6-11.71-2.74-17.44-2.56
								c-7.12,0.23-14.24,0.48-21.36,0.74c-4.06,0.15-8.11,0.3-12.17,0.46C198.91,199.05,198.91,200.05,199.56,200.02L199.56,200.02
								z"/>
						</g>
					</g>
					<g>
						<g>
							<path class="st3" d="M193.18,216.57c-6.66-1.68-13.8-2.22-20.63-1.48c0.17,0.17,0.33,0.33,0.5,0.5
								c-0.05-5.12-0.49-10.22-0.53-15.34c-0.03-5.39,0.38-10.8,0.76-16.18c0.73-10.42,1.94-20.81,3.86-31.08
								c0.96-5.15,2.1-10.28,3.4-15.36c0.69-2.7,1.42-5.38,2.2-8.05c0.69-2.37,1.31-4.64,2.76-6.68c0.64-0.9,1.4-1.77,2.3-2.42
								c0.74-0.53,1.6-0.9,2.42-1.29c1.77-0.84,3.56-1.63,5.37-2.38c3.42-1.43,6.87-2.76,10.34-4.04c0.95-0.35,1.9-0.7,2.86-1.04
								c0.46-0.17,0.67-0.31,0.91-0.74c1.31-2.38,3.27-4.77,5.83-5.85c0.81-0.34,1.67-0.52,2.55-0.53c0.64-0.01,0.64-1.01,0-1
								c-4.2,0.05-7.68,3.69-9.43,7.25c0.1-0.08,0.2-0.15,0.3-0.23c-4.53,1.6-9.03,3.32-13.46,5.17c-1.58,0.66-3.15,1.34-4.71,2.05
								c-1.45,0.67-2.98,1.3-4.19,2.36c-3.24,2.83-4.2,6.98-5.31,10.94c-2.5,8.86-4.53,17.84-6.02,26.93
								c-1.46,8.92-2.41,17.91-3.02,26.92c-0.32,4.66-0.65,9.35-0.7,14.02c-0.04,4.48,0.29,8.96,0.45,13.43
								c0.04,1.05,0.07,2.1,0.07,3.15c0,0.25,0.23,0.53,0.5,0.5c6.75-0.73,13.79-0.21,20.37,1.45
								C193.54,217.69,193.81,216.72,193.18,216.57L193.18,216.57z"/>
						</g>
					</g>
				</g>
				<g>
					<g>
						<path class="st3" d="M223.64,126.96c-0.17,9.89-0.2,19.78-0.08,29.67c0.01,0.64,1.01,0.64,1,0
							c-0.12-9.89-0.09-19.78,0.08-29.67C224.65,126.32,223.65,126.32,223.64,126.96L223.64,126.96z"/>
					</g>
				</g>
				<g>
					<path class="st7" d="M211.55,133.41c-2.48-1.58-5.34-0.59-6.58,0.8c-1.66,1.85-1.73,4.82-0.19,6.77
						c1.78,2.26,5.68,2.28,7.58,0.12C214.26,138.92,213.82,135.18,211.55,133.41"/>
					<g>
						<path class="st3" d="M211.8,132.98c-2.13-1.32-4.98-1.11-6.86,0.56c-1.76,1.56-2.19,4.31-1.31,6.44
							c0.87,2.1,2.94,3.31,5.19,3.22c2.21-0.09,4.17-1.39,4.91-3.5c0.81-2.29,0.08-5.11-1.83-6.63c-0.5-0.4-1.21,0.31-0.71,0.71
							c1.41,1.12,2.1,3.02,1.8,4.8c-0.31,1.83-1.62,3.17-3.43,3.54c-1.71,0.35-3.63-0.24-4.61-1.74c-1.08-1.66-1.04-3.97,0.17-5.56
							c1.42-1.88,4.24-2.16,6.17-0.96C211.84,134.18,212.35,133.32,211.8,132.98L211.8,132.98z"/>
					</g>
				</g>
				<g>
					<g>
						<path class="st3" d="M236.6,135.85c-0.05,2.15-0.1,4.3-0.15,6.46c-0.01,0.27,0.23,0.5,0.5,0.5c3.1,0,6.21,0,9.31,0
							c0.44,0,0.88,0,1.32,0c0.27,0,0.5-0.23,0.5-0.5c-0.02-1.52-0.05-3.04-0.09-4.56c-0.02-0.81,0.07-1.8-0.17-2.58
							c-0.21-0.66-0.83-0.84-1.46-0.85c-0.87-0.01-1.75,0-2.62,0.01c-2.06,0-4.12,0.01-6.19,0.01c-0.64,0-0.64,1,0,1
							c2.1,0,4.19-0.01,6.29-0.01c0.56,0,1.12,0,1.68,0c0.31,0,1.11-0.15,1.33,0.1c0.19,0.23,0.1,1.1,0.11,1.38
							c0.07,1.83,0.1,3.66,0.12,5.5c0.17-0.17,0.33-0.33,0.5-0.5c-3.1,0-6.21,0-9.31,0c-0.44,0-0.88,0-1.32,0
							c0.17,0.17,0.33,0.33,0.5,0.5c0.05-2.15,0.1-4.3,0.15-6.46C237.61,135.21,236.61,135.21,236.6,135.85L236.6,135.85z"/>
					</g>
				</g>
			</g>
		</g>
	</g>
	<rect class="st27" width="343.39" height="423.57"/>
</g>
</svg>
