<?xml version="1.0" encoding="utf-8"?>
<!-- Generator: Adobe Illustrator 24.0.1, SVG Export Plug-In . SVG Version: 6.00 Build 0)  -->
<svg version="1.1" id="Layer_1" xmlns="http://www.w3.org/2000/svg" xmlns:xlink="http://www.w3.org/1999/xlink" x="0px" y="0px"
	 viewBox="0 0 502.04 240.31" style="enable-background:new 0 0 502.04 240.31;" xml:space="preserve">
<style type="text/css">
	.st0{fill:#F2A391;}
	.st1{fill:#FFFFFF;}
	.st2{fill:#B6DCE1;}
	.st3{fill:none;stroke:#FFFFFF;stroke-width:2;stroke-linecap:round;stroke-miterlimit:10;}
	.st4{fill:none;stroke:#FFFFFF;stroke-width:2;stroke-linecap:round;stroke-miterlimit:10;stroke-dasharray:0,7.966;}
	.st5{fill:none;}
	.st6{fill:none;stroke:#4D4D4D;stroke-width:2;stroke-linecap:round;stroke-miterlimit:10;}
	.st7{fill:none;stroke:#4D4D4D;stroke-width:2;stroke-linecap:round;stroke-miterlimit:10;stroke-dasharray:0,7.966;}
</style>
<g>
	<g>
		<g>
			<g>
				<path class="st0" d="M423.95,96.89c-3.13-7.73-7.74-14.67-13.69-20.62c-5.95-5.95-12.89-10.55-20.62-13.69
					c-7.47-3.03-15.36-4.56-23.45-4.56c-8.09,0-15.98,1.54-23.45,4.56c-7.73,3.13-14.67,7.74-20.62,13.69
					c-5.95,5.95-10.55,12.89-13.69,20.62c-3.03,7.47-4.56,15.36-4.56,23.45s1.54,15.98,4.56,23.45c3.13,7.73,7.74,14.67,13.69,20.62
					c5.95,5.95,12.89,10.55,20.62,13.69c7.47,3.03,15.36,4.56,23.45,4.56c8.09,0,15.98-1.54,23.45-4.56
					c7.73-3.13,14.67-7.74,20.62-13.69c5.95-5.95,10.55-12.89,13.69-20.62c3.03-7.47,4.56-15.36,4.56-23.45
					S426.98,104.36,423.95,96.89"/>
				<path class="st1" d="M381.63,131.81c0.48,0,0.9-0.11,1.27-0.34c0.37-0.23,0.66-0.54,0.87-0.94c0.21-0.4,0.32-0.86,0.32-1.37
					c0-0.52-0.11-0.97-0.32-1.37c-0.21-0.4-0.5-0.71-0.87-0.94c-0.37-0.23-0.79-0.34-1.27-0.34c-0.48,0-0.9,0.11-1.28,0.34
					c-0.37,0.23-0.67,0.54-0.87,0.94c-0.21,0.4-0.31,0.86-0.31,1.37c0,0.52,0.1,0.98,0.31,1.38c0.21,0.4,0.5,0.72,0.87,0.94
					C380.73,131.7,381.15,131.81,381.63,131.81 M381.6,134.63c-1.05,0-1.98-0.24-2.81-0.73c-0.83-0.49-1.48-1.15-1.95-1.99
					c-0.47-0.84-0.7-1.75-0.7-2.75c0-0.99,0.23-1.91,0.7-2.74c0.46-0.84,1.11-1.5,1.95-1.99c0.83-0.49,1.78-0.73,2.83-0.73
					c1.06,0,2.01,0.25,2.84,0.73c0.84,0.49,1.49,1.15,1.96,1.99c0.47,0.84,0.7,1.75,0.7,2.74c0,1.01-0.23,1.93-0.7,2.76
					c-0.47,0.83-1.12,1.49-1.96,1.98C383.62,134.38,382.66,134.63,381.6,134.63"/>
				<path class="st1" d="M388.26,124.02h2.92v1.24c0.19-0.31,0.45-0.59,0.78-0.82c0.33-0.24,0.7-0.42,1.12-0.55
					c0.42-0.13,0.86-0.19,1.33-0.19c0.92,0,1.69,0.2,2.3,0.61c0.61,0.4,1.07,0.98,1.36,1.74c0.3,0.76,0.45,1.67,0.45,2.74v5.52
					h-3.06v-5.45c0-0.82-0.17-1.42-0.51-1.8c-0.34-0.38-0.81-0.57-1.41-0.57c-0.4,0-0.76,0.1-1.1,0.3c-0.34,0.2-0.61,0.51-0.81,0.91
					c-0.2,0.41-0.31,0.9-0.31,1.49v5.1h-3.06V124.02z"/>
				<path class="st1" d="M407.18,127.86c-0.03-0.3-0.15-0.59-0.34-0.84c-0.2-0.26-0.45-0.46-0.77-0.6
					c-0.32-0.15-0.66-0.22-1.02-0.22c-0.44,0-0.84,0.1-1.21,0.3c-0.37,0.2-0.66,0.52-0.89,0.96c-0.23,0.44-0.34,1-0.34,1.68
					c0,0.61,0.1,1.13,0.29,1.56c0.19,0.43,0.47,0.75,0.83,0.97c0.36,0.22,0.77,0.33,1.24,0.33c0.34,0,0.63-0.05,0.88-0.13
					c0.25-0.09,0.45-0.21,0.61-0.37c0.15-0.16,0.27-0.34,0.35-0.56h3.27c-0.15,0.64-0.46,1.23-0.92,1.8
					c-0.46,0.56-1.05,1.02-1.76,1.37c-0.71,0.35-1.51,0.53-2.39,0.53c-1.04,0-1.97-0.25-2.8-0.73c-0.83-0.49-1.47-1.15-1.93-1.99
					c-0.46-0.84-0.69-1.75-0.69-2.74c0-0.99,0.23-1.91,0.69-2.74c0.46-0.83,1.1-1.5,1.93-1.99c0.82-0.49,1.76-0.74,2.8-0.74
					c1.05,0,1.97,0.24,2.77,0.73c0.8,0.49,1.42,1.14,1.86,1.96c0.44,0.82,0.65,1.72,0.65,2.7c0,0.15,0,0.29-0.01,0.42
					c-0.01,0.14-0.02,0.28-0.03,0.43h-8.15l0.16-2.07H407.18z"/>
				<path class="st1" d="M328.07,119.49c0.66,0,1.27-0.17,1.82-0.5c0.55-0.34,0.99-0.79,1.31-1.37c0.32-0.58,0.48-1.22,0.48-1.92
					c0-0.7-0.16-1.33-0.48-1.91c-0.32-0.58-0.76-1.04-1.31-1.37c-0.55-0.34-1.16-0.5-1.81-0.5c-0.66,0-1.27,0.16-1.82,0.49
					c-0.55,0.32-0.99,0.78-1.32,1.35c-0.32,0.58-0.49,1.23-0.49,1.95c0,0.74,0.16,1.39,0.49,1.97c0.33,0.58,0.76,1.02,1.32,1.35
					C326.81,119.33,327.42,119.49,328.07,119.49 M327.68,121.11c-0.92,0-1.75-0.24-2.51-0.72s-1.35-1.14-1.79-1.96
					c-0.44-0.83-0.66-1.74-0.66-2.73c0-0.98,0.22-1.89,0.66-2.72c0.44-0.83,1.04-1.48,1.79-1.96c0.75-0.48,1.59-0.72,2.5-0.72
					c0.61,0,1.18,0.1,1.71,0.3c0.53,0.2,1,0.49,1.41,0.86c0.41,0.37,0.72,0.81,0.95,1.32v-2.2h1.66v10.25h-1.66v-2.18
					c-0.23,0.5-0.54,0.94-0.95,1.31c-0.4,0.37-0.87,0.66-1.41,0.86C328.85,121.01,328.29,121.11,327.68,121.11"/>
			</g>
			<polygon class="st1" points="334.63,110.57 336.47,110.57 339.36,117.81 339.61,118.72 339.85,117.81 342.74,110.57 
				344.59,110.57 340.42,120.82 338.79,120.82 			"/>
			<path class="st1" d="M350.09,119.49c0.66,0,1.27-0.17,1.82-0.5c0.55-0.34,0.99-0.79,1.31-1.37c0.32-0.58,0.48-1.22,0.48-1.92
				c0-0.7-0.16-1.33-0.48-1.91c-0.32-0.58-0.76-1.04-1.31-1.37c-0.55-0.34-1.16-0.5-1.81-0.5c-0.66,0-1.27,0.16-1.82,0.49
				c-0.55,0.32-0.99,0.78-1.32,1.35c-0.32,0.58-0.49,1.23-0.49,1.95c0,0.74,0.16,1.39,0.49,1.97c0.33,0.58,0.76,1.02,1.32,1.35
				C348.84,119.33,349.44,119.49,350.09,119.49 M349.71,121.11c-0.92,0-1.75-0.24-2.51-0.72s-1.35-1.14-1.79-1.96
				c-0.44-0.83-0.66-1.74-0.66-2.73c0-0.98,0.22-1.89,0.66-2.72c0.44-0.83,1.03-1.48,1.79-1.96c0.75-0.48,1.59-0.72,2.5-0.72
				c0.61,0,1.18,0.1,1.71,0.3c0.53,0.2,1,0.49,1.41,0.86c0.41,0.37,0.72,0.81,0.95,1.32v-2.2h1.66v10.25h-1.66v-2.18
				c-0.23,0.5-0.54,0.94-0.95,1.31c-0.4,0.37-0.87,0.66-1.41,0.86C350.88,121.01,350.31,121.11,349.71,121.11"/>
			<path class="st1" d="M357.78,110.57h1.66v1.98c0.19-0.44,0.48-0.83,0.85-1.17c0.38-0.34,0.81-0.61,1.32-0.81
				c0.5-0.19,1.04-0.29,1.61-0.29c0.9,0,1.67,0.19,2.29,0.56c0.62,0.37,1.09,0.93,1.4,1.67c0.31,0.74,0.47,1.66,0.47,2.75v5.56
				h-1.73v-5.52c0-1.15-0.25-2.01-0.74-2.56c-0.5-0.56-1.2-0.83-2.12-0.83c-0.58,0-1.11,0.14-1.61,0.43c-0.5,0.29-0.9,0.7-1.2,1.24
				c-0.3,0.54-0.45,1.16-0.45,1.86v5.38h-1.73V110.57z"/>
			<path class="st1" d="M373.37,120.82c-0.6,0-1.14-0.1-1.61-0.31c-0.47-0.2-0.86-0.59-1.16-1.15c-0.3-0.56-0.46-1.34-0.46-2.34
				v-4.93h-2.28v-1.52h2.28v-3.04l1.73-0.01v3.05h3.39v1.52h-3.39v5.01c0,0.6,0.09,1.06,0.26,1.4c0.17,0.34,0.39,0.56,0.65,0.68
				c0.26,0.12,0.57,0.18,0.93,0.18h1.55v1.47H373.37z"/>
			<path class="st1" d="M380.62,119.49c0.66,0,1.27-0.17,1.82-0.5c0.55-0.34,0.99-0.79,1.31-1.37c0.32-0.58,0.48-1.22,0.48-1.92
				c0-0.7-0.16-1.33-0.48-1.91c-0.32-0.58-0.76-1.04-1.31-1.37c-0.55-0.34-1.16-0.5-1.81-0.5c-0.66,0-1.27,0.16-1.82,0.49
				c-0.55,0.32-0.99,0.78-1.32,1.35c-0.32,0.58-0.49,1.23-0.49,1.95c0,0.74,0.16,1.39,0.49,1.97c0.33,0.58,0.76,1.02,1.32,1.35
				C379.37,119.33,379.97,119.49,380.62,119.49 M380.24,121.11c-0.92,0-1.75-0.24-2.51-0.72c-0.75-0.48-1.35-1.14-1.79-1.96
				c-0.44-0.83-0.66-1.74-0.66-2.73c0-0.98,0.22-1.89,0.66-2.72c0.44-0.83,1.03-1.48,1.79-1.96c0.75-0.48,1.59-0.72,2.5-0.72
				c0.61,0,1.18,0.1,1.71,0.3c0.53,0.2,1,0.49,1.41,0.86c0.41,0.37,0.72,0.81,0.95,1.32v-2.2h1.66v10.25h-1.66v-2.18
				c-0.23,0.5-0.54,0.94-0.95,1.31c-0.4,0.37-0.87,0.66-1.41,0.86C381.41,121.01,380.85,121.11,380.24,121.11"/>
			<path class="st1" d="M393.19,121.03c-0.99,0-1.9-0.23-2.73-0.7c-0.83-0.47-1.48-1.11-1.96-1.92c-0.48-0.81-0.72-1.72-0.72-2.72
				c0-1,0.24-1.9,0.73-2.72c0.49-0.81,1.14-1.46,1.97-1.92c0.83-0.47,1.74-0.7,2.74-0.7c0.76,0,1.49,0.14,2.19,0.42
				c0.7,0.28,1.29,0.69,1.78,1.23c0.49,0.54,0.83,1.18,1,1.93h-1.71c-0.17-0.44-0.42-0.81-0.75-1.12c-0.32-0.31-0.7-0.54-1.13-0.7
				c-0.43-0.16-0.9-0.24-1.4-0.24c-0.68,0-1.31,0.16-1.88,0.49c-0.57,0.33-1.02,0.79-1.36,1.37c-0.34,0.59-0.51,1.24-0.51,1.97
				c0,0.72,0.17,1.38,0.5,1.96c0.33,0.59,0.78,1.04,1.36,1.38c0.57,0.33,1.2,0.5,1.88,0.5c0.68,0,1.27-0.14,1.79-0.43
				c0.52-0.29,0.92-0.66,1.21-1.11c0.29-0.46,0.45-0.94,0.49-1.45h-3.53v-1.08h5.3c0.01,1.06-0.19,2.02-0.6,2.86
				c-0.41,0.84-1.02,1.5-1.81,1.99C395.25,120.79,394.3,121.03,393.19,121.03"/>
			<path class="st1" d="M408.2,114.62c-0.03-0.48-0.2-0.92-0.51-1.34c-0.31-0.42-0.71-0.75-1.21-1c-0.5-0.25-1.03-0.37-1.6-0.37
				c-0.62,0-1.19,0.15-1.72,0.44c-0.53,0.29-0.95,0.72-1.27,1.28c-0.32,0.56-0.48,1.23-0.48,2c0,0.76,0.16,1.44,0.47,2.02
				c0.31,0.59,0.74,1.04,1.27,1.36c0.53,0.32,1.1,0.48,1.71,0.48c0.46,0,0.88-0.06,1.25-0.2c0.37-0.13,0.69-0.33,0.96-0.59
				c0.27-0.26,0.48-0.59,0.63-0.97h1.94c-0.19,0.63-0.52,1.2-0.97,1.71c-0.46,0.51-1.01,0.92-1.66,1.21
				c-0.65,0.29-1.35,0.44-2.1,0.44c-0.97,0-1.85-0.24-2.65-0.72c-0.79-0.48-1.42-1.13-1.88-1.96c-0.46-0.82-0.69-1.73-0.69-2.72
				c0-0.99,0.23-1.89,0.69-2.72c0.46-0.83,1.08-1.48,1.88-1.97c0.79-0.49,1.68-0.73,2.65-0.73c0.95,0,1.81,0.24,2.59,0.71
				c0.77,0.48,1.38,1.11,1.82,1.89c0.44,0.79,0.66,1.64,0.66,2.56c0,0.09,0,0.19-0.01,0.3c-0.01,0.11-0.01,0.25-0.02,0.41h-8.83
				l0.08-1.53H408.2z"/>
		</g>
		<g>
			<path class="st2" d="M195.79,96.89c-3.13-7.73-7.74-14.67-13.69-20.62c-5.95-5.95-12.89-10.55-20.62-13.69
				c-7.47-3.03-15.36-4.56-23.45-4.56c-8.09,0-15.98,1.54-23.45,4.56c-7.73,3.13-14.67,7.74-20.62,13.69
				c-5.95,5.95-10.55,12.89-13.69,20.62c-3.03,7.47-4.56,15.36-4.56,23.45s1.54,15.98,4.56,23.45c3.14,7.73,7.74,14.67,13.69,20.62
				c5.95,5.95,12.89,10.55,20.62,13.69c7.47,3.03,15.36,4.56,23.45,4.56c8.09,0,15.98-1.54,23.45-4.56
				c7.73-3.13,14.67-7.74,20.62-13.69c5.95-5.95,10.55-12.89,13.69-20.62c3.03-7.47,4.56-15.36,4.56-23.45
				S198.82,104.36,195.79,96.89"/>
			<path class="st1" d="M153.47,131.81c0.48,0,0.9-0.11,1.27-0.34c0.37-0.23,0.66-0.54,0.87-0.94c0.21-0.4,0.32-0.86,0.32-1.37
				c0-0.52-0.11-0.97-0.32-1.37c-0.21-0.4-0.5-0.71-0.87-0.94c-0.37-0.23-0.79-0.34-1.27-0.34c-0.48,0-0.9,0.11-1.28,0.34
				c-0.37,0.23-0.66,0.54-0.87,0.94c-0.21,0.4-0.31,0.86-0.31,1.37c0,0.52,0.1,0.98,0.31,1.38c0.21,0.4,0.5,0.72,0.87,0.94
				C152.57,131.7,152.99,131.81,153.47,131.81 M153.44,134.63c-1.05,0-1.98-0.24-2.81-0.73c-0.83-0.49-1.48-1.15-1.95-1.99
				c-0.47-0.84-0.7-1.75-0.7-2.75c0-0.99,0.23-1.91,0.7-2.74c0.46-0.84,1.11-1.5,1.95-1.99c0.83-0.49,1.78-0.73,2.83-0.73
				c1.06,0,2.01,0.25,2.84,0.73c0.84,0.49,1.49,1.15,1.96,1.99c0.47,0.84,0.7,1.75,0.7,2.74c0,1.01-0.23,1.93-0.7,2.76
				c-0.47,0.83-1.12,1.49-1.96,1.98C155.46,134.38,154.5,134.63,153.44,134.63"/>
			<path class="st1" d="M160.1,124.02h2.92v1.24c0.19-0.31,0.45-0.59,0.78-0.82c0.33-0.24,0.7-0.42,1.12-0.55
				c0.42-0.13,0.86-0.19,1.33-0.19c0.92,0,1.69,0.2,2.3,0.61c0.61,0.4,1.07,0.98,1.36,1.74c0.3,0.76,0.45,1.67,0.45,2.74v5.52h-3.06
				v-5.45c0-0.82-0.17-1.42-0.51-1.8c-0.34-0.38-0.81-0.57-1.41-0.57c-0.4,0-0.76,0.1-1.1,0.3c-0.34,0.2-0.61,0.51-0.81,0.91
				c-0.2,0.41-0.31,0.9-0.31,1.49v5.1h-3.06V124.02z"/>
			<path class="st1" d="M179.02,127.86c-0.03-0.3-0.15-0.59-0.34-0.84c-0.2-0.26-0.45-0.46-0.77-0.6c-0.32-0.15-0.66-0.22-1.02-0.22
				c-0.44,0-0.84,0.1-1.21,0.3c-0.37,0.2-0.66,0.52-0.89,0.96c-0.23,0.44-0.34,1-0.34,1.68c0,0.61,0.1,1.13,0.29,1.56
				c0.2,0.43,0.47,0.75,0.83,0.97c0.36,0.22,0.77,0.33,1.24,0.33c0.34,0,0.63-0.05,0.88-0.13c0.25-0.09,0.45-0.21,0.61-0.37
				c0.15-0.16,0.27-0.34,0.35-0.56h3.27c-0.15,0.64-0.46,1.23-0.92,1.8c-0.46,0.56-1.05,1.02-1.76,1.37
				c-0.71,0.35-1.51,0.53-2.39,0.53c-1.04,0-1.97-0.25-2.8-0.73c-0.83-0.49-1.47-1.15-1.93-1.99c-0.46-0.84-0.69-1.75-0.69-2.74
				c0-0.99,0.23-1.91,0.69-2.74c0.46-0.83,1.1-1.5,1.93-1.99c0.82-0.49,1.76-0.74,2.8-0.74c1.04,0,1.97,0.24,2.77,0.73
				c0.8,0.49,1.42,1.14,1.86,1.96c0.44,0.82,0.65,1.72,0.65,2.7c0,0.15,0,0.29-0.01,0.42c-0.01,0.14-0.02,0.28-0.03,0.43h-8.15
				l0.16-2.07H179.02z"/>
			<path class="st1" d="M98.98,111.88c-1.9,0-3.39,1.68-3.39,3.74c0,2.02,1.49,3.68,3.39,3.68c1.86,0,3.43-1.66,3.43-3.68
				C102.41,113.56,100.84,111.88,98.98,111.88 M104.07,120.63h-1.61V119c-0.71,1.04-2,1.88-3.48,1.88c-2.9,0-5.05-2.37-5.05-5.28
				c0-2.92,2.15-5.3,5.05-5.3c1.49,0,2.78,0.84,3.48,1.86v-1.61h1.61V120.63z"/>
			<path class="st1" d="M110.82,120.86c-2.78,0-5.05-2.35-5.05-5.27c0-2.92,2.27-5.3,5.05-5.3c2.25,0,4.01,1.33,4.7,3.37h-1.78
				c-0.57-1.1-1.61-1.78-2.92-1.78c-1.86,0-3.39,1.68-3.39,3.72s1.53,3.68,3.39,3.68c1.33,0,2.37-0.68,2.92-1.78h1.78
				C114.85,119.53,113.07,120.86,110.82,120.86"/>
			<path class="st1" d="M121.47,111.88c-1.9,0-3.39,1.68-3.39,3.74c0,2.02,1.49,3.68,3.39,3.68c1.86,0,3.43-1.66,3.43-3.68
				C124.9,113.56,123.33,111.88,121.47,111.88 M126.56,120.63h-1.61V119c-0.71,1.04-2,1.88-3.48,1.88c-2.9,0-5.05-2.37-5.05-5.28
				c0-2.92,2.15-5.3,5.05-5.3c1.49,0,2.78,0.84,3.48,1.86v-1.61h1.61V120.63z"/>
			<path class="st1" d="M133.31,111.88c-1.9,0-3.39,1.68-3.39,3.74c0,2.02,1.49,3.68,3.39,3.68c1.86,0,3.43-1.66,3.43-3.68
				C136.74,113.56,135.17,111.88,133.31,111.88 M138.4,120.63h-1.61V119c-0.71,1.04-2,1.88-3.48,1.88c-2.9,0-5.05-2.37-5.05-5.26
				c0-2.94,2.15-5.32,5.05-5.32c1.45,0,2.7,0.8,3.43,1.78v-6.01h1.66V120.63z"/>
			<path class="st1" d="M148.42,114.54c-0.41-1.64-1.78-2.74-3.25-2.74c-1.39,0-2.86,1.02-3.29,2.74H148.42z M150.02,117.49
				c-0.71,2.15-2.43,3.37-4.76,3.37c-2.9,0-5.17-2.31-5.17-5.27c0-2.92,2.27-5.3,5.07-5.3c2.6,0,5.11,2.15,5.09,5.73h-8.48
				c0.22,2.09,1.82,3.33,3.48,3.33c1.43,0,2.45-0.68,2.99-1.86H150.02z"/>
			<path class="st1" d="M166.19,120.63h-1.66v-6.28c0-1.57-0.74-2.53-2.29-2.53c-1.37,0-2.37,1.14-2.37,2.64v6.17h-1.64v-6.28
				c0-1.57-0.78-2.53-2.27-2.53c-1.37,0-2.39,1.14-2.39,2.64v6.17h-1.66v-10.08h1.61v1.1c0.63-0.84,1.57-1.35,2.68-1.35
				c1.43,0,2.49,0.65,3.11,1.72c0.63-1.04,1.7-1.72,3.15-1.72c2.33,0,3.74,1.58,3.74,4.09V120.63z"/>
			<rect x="168.52" y="110.55" class="st1" width="1.66" height="10.08"/>
			<path class="st1" d="M180.22,114.54c-0.41-1.64-1.78-2.74-3.25-2.74c-1.39,0-2.86,1.02-3.29,2.74H180.22z M181.82,117.49
				c-0.71,2.15-2.43,3.37-4.76,3.37c-2.9,0-5.17-2.31-5.17-5.27c0-2.92,2.27-5.3,5.07-5.3c2.6,0,5.11,2.15,5.09,5.73h-8.47
				c0.21,2.09,1.82,3.33,3.48,3.33c1.43,0,2.45-0.68,2.99-1.86H181.82z"/>
		</g>
		<g>
			<g>
				<line class="st6" x1="251.12" y1="120.34" x2="251.12" y2="120.34"/>
				<path class="st7" d="M256.1,114.13c14.95-17.96,61.45-68.63,110.1-68.63c41.34,0,74.85,33.51,74.85,74.85
					s-33.51,74.85-74.85,74.85c-49.74,0-100.81-57.65-112.56-71.76"/>
			</g>
		</g>
		<g>
			<g>
				<line class="st6" x1="250.89" y1="120.34" x2="250.89" y2="120.34"/>
				<path class="st7" d="M245.92,126.56c-14.95,17.96-61.45,68.63-110.1,68.63c-41.34,0-74.85-33.51-74.85-74.85
					S94.48,45.5,135.82,45.5c49.74,0,100.81,57.65,112.56,71.76"/>
			</g>
		</g>
	</g>
	<rect class="st5" width="502.04" height="240.31"/>
</g>
</svg>
