<svg id="Layer_1" data-name="Layer 1" xmlns="http://www.w3.org/2000/svg" xmlns:xlink="http://www.w3.org/1999/xlink" viewBox="0 0 193.93 193.98"><defs><style>.cls-1{fill:url(#linear-gradient);}.cls-2{fill:url(#linear-gradient-2);}.cls-3{fill:url(#linear-gradient-3);}.cls-4{fill:#bfdce0;}.cls-5,.cls-6,.cls-7,.cls-8{fill:none;}.cls-5,.cls-6,.cls-7{stroke:#fff;stroke-linecap:round;stroke-miterlimit:10;stroke-width:2px;}.cls-6{stroke-dasharray:0 7.87;}.cls-7{stroke-dasharray:0 8.55;}</style><linearGradient id="linear-gradient" x1="22.48" y1="151.44" x2="178.21" y2="151.44" gradientUnits="userSpaceOnUse"><stop offset="0" stop-color="#b6dce0"/><stop offset="1" stop-color="#8178e6"/></linearGradient><linearGradient id="linear-gradient-2" x1="22.48" y1="127.35" x2="178.21" y2="127.35" gradientUnits="userSpaceOnUse"><stop offset="0" stop-color="#b9dce0"/><stop offset="1" stop-color="#9699e4"/></linearGradient><linearGradient id="linear-gradient-3" x1="22.48" y1="103.26" x2="178.21" y2="103.26" gradientUnits="userSpaceOnUse"><stop offset="0" stop-color="#bcdce0"/><stop offset="1" stop-color="#aabbe2"/></linearGradient></defs><polygon class="cls-1" points="96.97 116.22 22.48 151.44 96.97 186.65 171.45 151.44 96.97 116.22"/><polygon class="cls-2" points="96.97 92.13 22.48 127.35 96.97 162.56 171.45 127.35 96.97 92.13"/><polygon class="cls-3" points="96.97 68.05 22.48 103.26 96.97 138.48 171.45 103.26 96.97 68.05"/><polygon class="cls-4" points="96.97 43.96 22.48 79.18 96.97 114.39 171.45 79.18 96.97 43.96"/><line class="cls-5" x1="96.97" y1="79.18" x2="96.97" y2="79.18"/><line class="cls-6" x1="96.97" y1="71.3" x2="96.97" y2="12.26"/><line class="cls-5" x1="96.97" y1="8.33" x2="96.97" y2="8.33"/><line class="cls-5" x1="78.84" y1="26.45" x2="78.84" y2="26.45"/><line class="cls-7" x1="84.88" y1="20.41" x2="93.95" y2="11.35"/><line class="cls-5" x1="96.97" y1="8.33" x2="96.97" y2="8.33"/><line class="cls-7" x1="103.01" y1="14.37" x2="112.07" y2="23.43"/><line class="cls-5" x1="115.09" y1="26.45" x2="115.09" y2="26.45"/><rect class="cls-8" y="0.52" width="193.93" height="193.93"/></svg>