<?xml version="1.0" encoding="utf-8"?>
<!-- Generator: Adobe Illustrator 25.2.0, SVG Export Plug-In . SVG Version: 6.00 Build 0)  -->
<svg version="1.1" id="Layer_1" xmlns="http://www.w3.org/2000/svg" xmlns:xlink="http://www.w3.org/1999/xlink" x="0px" y="0px"
	 viewBox="0 0 1612.08 676.76" style="enable-background:new 0 0 1612.08 676.76;" xml:space="preserve">
<style type="text/css">
	.st0{fill:#FFFFFF;}
	.st1{fill:#111820;}
	.st2{fill:#BDDBE0;}
</style>
<g>
	<g>
		<path class="st2" d="M1102.74,396.29c-6.88-12.26-16.45-21.97-28.71-29.14c-12.26-7.17-26.14-10.76-41.64-10.76
			c-15.41,0-29.22,3.59-41.43,10.76c-12.21,7.17-21.71,16.89-28.49,29.14c-6.78,12.26-10.17,25.66-10.17,40.19
			c0,14.63,3.42,28.08,10.25,40.34c6.83,12.26,16.33,21.95,28.49,29.07c12.16,7.12,25.9,10.68,41.21,10.68
			c15.6,0,29.56-3.56,41.86-10.68c12.31-7.12,21.88-16.79,28.71-29c6.83-12.21,10.25-25.68,10.25-40.41
			C1113.06,421.95,1109.62,408.55,1102.74,396.29z"/>
		<path class="st1" d="M1129.76,361.18h42.74v18.17c2.81-4.55,6.62-8.58,11.41-12.06c4.8-3.49,10.27-6.18,16.43-8.07
			c6.15-1.89,12.62-2.83,19.4-2.83c13.47,0,24.69,2.96,33.65,8.87c8.96,5.91,15.63,14.42,19.99,25.51
			c4.36,11.1,6.54,24.49,6.54,40.19v80.82h-44.77v-79.8c0-12.01-2.47-20.79-7.41-26.31c-4.94-5.52-11.83-8.29-20.64-8.29
			c-5.82,0-11.2,1.48-16.14,4.44c-4.94,2.96-8.92,7.41-11.92,13.37c-3,5.96-4.5,13.25-4.5,21.88v74.71h-44.77V361.18z"/>
		<path class="st1" d="M1406.83,417.44c-0.49-4.46-2.16-8.58-5.02-12.35c-2.86-3.78-6.62-6.74-11.27-8.87
			c-4.65-2.13-9.64-3.2-14.97-3.2c-6.4,0-12.28,1.48-17.66,4.44c-5.38,2.96-9.72,7.66-13.01,14.1c-3.3,6.45-4.94,14.66-4.94,24.64
			c0,8.92,1.43,16.52,4.29,22.82c2.86,6.3,6.9,11.05,12.14,14.25c5.23,3.2,11.29,4.8,18.17,4.8c4.94,0,9.25-0.65,12.94-1.96
			c3.68-1.31,6.64-3.1,8.87-5.38c2.23-2.27,3.92-5.02,5.09-8.21h47.97c-2.23,9.3-6.71,18.07-13.44,26.31
			c-6.74,8.24-15.31,14.93-25.73,20.06c-10.42,5.13-22.07,7.7-34.96,7.7c-15.21,0-28.88-3.59-40.99-10.76
			c-12.12-7.17-21.54-16.89-28.27-29.14s-10.1-25.66-10.1-40.19c0-14.53,3.37-27.91,10.1-40.12c6.74-12.21,16.14-21.92,28.2-29.14
			c12.06-7.22,25.75-10.83,41.06-10.83s28.83,3.56,40.56,10.68c11.72,7.12,20.79,16.69,27.18,28.71c6.4,12.02,9.59,25.2,9.59,39.54
			c0,2.13-0.07,4.19-0.22,6.18c-0.15,1.99-0.32,4.1-0.51,6.32h-119.34l2.33-30.38H1406.83z"/>
	</g>
	<g>
		<g>
			<g>
				<g>
					<path class="st1" d="M309.25,311.54h-23.51v-23.79c-10.32,15.19-29.24,27.52-51.02,27.52c-42.42,0-73.95-34.68-73.95-77.39
						s31.53-77.68,73.95-77.68c21.79,0,40.7,12.33,51.02,27.23v-23.5h23.51V311.54z M234.72,183.41
						c-27.81,0-49.59,24.65-49.59,54.75c0,29.52,21.78,53.89,49.59,53.89c27.23,0,50.16-24.37,50.16-53.89
						C284.88,208.06,261.95,183.41,234.72,183.41z"/>
					<path class="st1" d="M408.1,314.98c-40.7,0-73.96-34.4-73.96-77.11s33.25-77.68,73.96-77.68c32.96,0,58.76,19.49,68.79,49.3
						h-26.08c-8.31-16.05-23.51-26.08-42.71-26.08c-27.23,0-49.59,24.65-49.59,54.46c0,29.81,22.36,53.89,49.59,53.89
						c19.49,0,34.68-10.03,42.71-26.08h26.08C467.15,295.48,441.06,314.98,408.1,314.98z"/>
					<path class="st1" d="M638.63,311.54h-23.51v-23.79c-10.32,15.19-29.24,27.52-51.02,27.52c-42.42,0-73.95-34.68-73.95-77.39
						s31.53-77.68,73.95-77.68c21.79,0,40.7,12.33,51.02,27.23v-23.5h23.51V311.54z M564.1,183.41c-27.81,0-49.59,24.65-49.59,54.75
						c0,29.52,21.78,53.89,49.59,53.89c27.23,0,50.16-24.37,50.16-53.89C614.26,208.06,591.33,183.41,564.1,183.41z"/>
					<path class="st1" d="M812,311.54h-23.51v-23.79c-10.32,15.19-29.24,27.52-51.02,27.52c-42.42,0-73.96-34.68-73.96-77.11
						c0-43,31.53-77.97,73.96-77.97c21.21,0,39.56,11.75,50.16,26.09v-88H812V311.54z M737.47,183.41
						c-27.81,0-49.59,24.65-49.59,54.75c0,29.52,21.79,53.89,49.59,53.89c27.23,0,50.16-24.37,50.16-53.89
						C787.63,208.06,764.7,183.41,737.47,183.41z"/>
					<path class="st1" d="M982.22,265.68c-10.32,31.53-35.54,49.3-69.65,49.3c-42.42,0-75.68-33.82-75.68-77.11
						c0-42.71,33.25-77.68,74.24-77.68c38.12,0,74.82,31.53,74.53,83.99H861.54c3.15,30.67,26.66,48.73,51.02,48.73
						c20.92,0,35.83-10.03,43.86-27.23H982.22z M958.72,222.39c-6.02-24.08-26.08-40.13-47.58-40.13
						c-20.35,0-41.85,14.9-48.16,40.13H958.72z"/>
					<path class="st1" d="M1218.92,311.54h-24.37v-92.01c0-22.93-10.89-36.98-33.54-36.98c-20.07,0-34.69,16.63-34.69,38.7v90.29
						h-24.08v-92.01c0-22.93-11.46-36.98-33.25-36.98c-20.07,0-34.97,16.63-34.97,38.7v90.29h-24.37V163.92h23.5v16.05
						c9.17-12.33,22.93-19.78,39.27-19.78c20.92,0,36.41,9.46,45.58,25.22c9.17-15.19,24.94-25.22,46.15-25.22
						c34.11,0,54.75,23.22,54.75,59.91V311.54z"/>
					<path class="st1" d="M1277.49,311.54h-24.36V163.92h24.36V311.54z"/>
					<path class="st1" d="M1447.87,265.68c-10.32,31.53-35.54,49.3-69.65,49.3c-42.42,0-75.68-33.82-75.68-77.11
						c0-42.71,33.25-77.68,74.24-77.68c38.12,0,74.82,31.53,74.53,83.99H1327.2c3.15,30.67,26.66,48.73,51.02,48.73
						c20.92,0,35.83-10.03,43.85-27.23H1447.87z M1424.37,222.39c-6.02-24.08-26.09-40.13-47.58-40.13
						c-20.35,0-41.85,14.9-48.16,40.13H1424.37z"/>
				</g>
			</g>
		</g>
	</g>
</g>
</svg>
