<?xml version="1.0" encoding="utf-8"?>
<!-- Generator: Adobe Illustrator 24.0.1, SVG Export Plug-In . SVG Version: 6.00 Build 0)  -->
<svg version="1.1" id="Layer_1" xmlns="http://www.w3.org/2000/svg" xmlns:xlink="http://www.w3.org/1999/xlink" x="0px" y="0px"
	 viewBox="0 0 64 64" style="enable-background:new 0 0 64 64;" xml:space="preserve">
<style type="text/css">
	.st0{fill:#BFDCE0;}
	.st1{fill:#4D4D4D;}
</style>
<g>
	<path class="st0" d="M63.06,62.74c0,0-9.44,0-13.73-16s-4.86-35.49-11.73-35.49s-7.44,19.49-11.73,35.49s-13.73,16-13.73,16"/>
	<path class="st1" d="M39.18,19.32c-0.21,0-0.43-0.07-0.61-0.21c-0.44-0.34-0.52-0.96-0.19-1.4l11.94-15.6
		c0.19-0.25,0.48-0.39,0.79-0.39H62.9c0.55,0,1,0.45,1,1s-0.45,1-1,1H51.62L39.98,18.93C39.78,19.19,39.48,19.32,39.18,19.32z"/>
	<path class="st1" d="M63.06,62H43.07c-0.28,0-6.97-0.18-10.15-9.55c-1-2.94-1.73-5.9-2.44-8.76c-1.75-7.08-3.27-13.2-7.98-13.2
		s-6.23,6.12-7.98,13.2c-0.71,2.87-1.44,5.83-2.44,8.76C8.99,61.58,2.58,61.98,1.99,62V1.01c0-0.55-0.45-1-1-1s-1,0.45-1,1V63
		c0,0.55,0.45,1,1,1h62.07c0.55,0,1-0.45,1-1S63.61,62,63.06,62z M7.68,62c2.26-1.52,4.7-4.2,6.29-8.91
		c1.02-3.02,1.8-6.16,2.48-8.93c1.55-6.27,2.89-11.68,6.04-11.68s4.49,5.41,6.04,11.68c0.69,2.77,1.46,5.91,2.48,8.93
		c1.6,4.71,4.03,7.39,6.29,8.91H7.68z"/>
	<path class="st1" d="M62.9,8.8H52.36c-0.55,0-1-0.45-1-1s0.45-1,1-1H62.9c0.55,0,1,0.45,1,1S63.46,8.8,62.9,8.8z"/>
</g>
</svg>
