<?xml version="1.0" encoding="utf-8"?>
<!-- Generator: Adobe Illustrator 24.0.1, SVG Export Plug-In . SVG Version: 6.00 Build 0)  -->
<svg version="1.1" id="Layer_1" xmlns="http://www.w3.org/2000/svg" xmlns:xlink="http://www.w3.org/1999/xlink" x="0px" y="0px"
	 viewBox="0 0 64 64" style="enable-background:new 0 0 64 64;" xml:space="preserve">
<style type="text/css">
	.st0{fill:#BFDCE0;}
	.st1{fill:#4D4D4D;}
</style>
<g>
	<g>
		<path class="st1" d="M31.81,54c-0.55,0-1-0.45-1-1v-5.59c0-0.55,0.45-1,1-1s1,0.45,1,1V53C32.81,53.55,32.36,54,31.81,54z"/>
		<path class="st1" d="M24.81,61H0.98c-0.55,0-1-0.45-1-1s0.45-1,1-1h23.83c0.55,0,1,0.45,1,1S25.36,61,24.81,61z"/>
		<path class="st1" d="M31.81,64c-2.21,0-4-1.79-4-4s1.79-4,4-4s4,1.79,4,4S34.01,64,31.81,64z M31.81,58c-1.1,0-2,0.9-2,2
			s0.9,2,2,2s2-0.9,2-2S32.91,58,31.81,58z"/>
		<path class="st1" d="M63,61H38.81c-0.55,0-1-0.45-1-1s0.45-1,1-1H63c0.55,0,1,0.45,1,1S63.55,61,63,61z"/>
	</g>
	<g>
		<rect class="st0" width="64" height="18"/>
		<rect y="22.11" class="st0" width="64" height="18"/>
		<path class="st1" d="M55.56,10H32c-0.55,0-1-0.45-1-1s0.45-1,1-1h23.56c0.55,0,1,0.45,1,1S56.11,10,55.56,10z"/>
		<path class="st1" d="M55.56,32.11H32c-0.55,0-1-0.45-1-1s0.45-1,1-1h23.56c0.55,0,1,0.45,1,1S56.11,32.11,55.56,32.11z"/>
		<path class="st1" d="M20.16,9c0-0.55,0.45-1,1-1l0,0c0.55,0,1,0.45,1,1l0,0c0,0.55-0.45,1-1,1l0,0C20.61,10,20.16,9.55,20.16,9z
			 M14.16,9c0-0.55,0.45-1,1-1l0,0c0.55,0,1,0.45,1,1l0,0c0,0.55-0.45,1-1,1l0,0C14.61,10,14.16,9.55,14.16,9z M8.16,9
			c0-0.55,0.45-1,1-1l0,0c0.55,0,1,0.45,1,1l0,0c0,0.55-0.45,1-1,1l0,0C8.61,10,8.16,9.55,8.16,9z"/>
		<path class="st1" d="M20.16,31.11c0-0.55,0.45-1,1-1l0,0c0.55,0,1,0.45,1,1l0,0c0,0.55-0.45,1-1,1l0,0
			C20.61,32.11,20.16,31.66,20.16,31.11z M14.16,31.11c0-0.55,0.45-1,1-1l0,0c0.55,0,1,0.45,1,1l0,0c0,0.55-0.45,1-1,1l0,0
			C14.61,32.11,14.16,31.66,14.16,31.11z M8.16,31.11c0-0.55,0.45-1,1-1l0,0c0.55,0,1,0.45,1,1l0,0c0,0.55-0.45,1-1,1l0,0
			C8.61,32.11,8.16,31.66,8.16,31.11z"/>
	</g>
</g>
</svg>
