<?xml version="1.0" encoding="utf-8"?>
<!-- Generator: Adobe Illustrator 24.0.1, SVG Export Plug-In . SVG Version: 6.00 Build 0)  -->
<svg version="1.1" id="Layer_1" xmlns="http://www.w3.org/2000/svg" xmlns:xlink="http://www.w3.org/1999/xlink" x="0px" y="0px"
	 viewBox="0 0 64 64" style="enable-background:new 0 0 64 64;" xml:space="preserve">
<style type="text/css">
	.st0{fill:#BFDCE0;}
	.st1{fill:#4D4D4D;}
</style>
<g>
	<rect y="22.29" class="st0" width="64" height="18.47"/>
	<path class="st1" d="M57.6,19.73c-2.06-4.45-5.21-8.19-9.04-10.98c-0.07-0.06-0.14-0.12-0.23-0.16C43.64,5.26,37.96,3.35,32,3.35
		c-6.23,0-12.16,2.08-16.97,5.71c-0.05,0.03-0.1,0.07-0.14,0.12C11.3,11.91,8.35,15.5,6.4,19.73c-0.23,0.5-0.01,1.1,0.49,1.33
		c0.14,0.06,0.28,0.09,0.42,0.09c0.38,0,0.74-0.21,0.91-0.58c1.73-3.74,4.29-6.93,7.4-9.42c1.21,0.78,2.46,1.47,3.76,2.05
		c-1.01,1.99-1.86,4.24-2.51,6.7c-0.14,0.53,0.18,1.08,0.71,1.22c0.53,0.14,1.08-0.18,1.22-0.71c0.63-2.39,1.46-4.55,2.42-6.45
		c3.1,1.16,6.4,1.78,9.79,1.82v4.37c0,0.55,0.45,1,1,1s1-0.45,1-1v-4.41c3.33-0.18,6.57-0.89,9.59-2.14
		c1.05,1.99,1.94,4.27,2.62,6.81c0.12,0.45,0.52,0.74,0.97,0.74c0.08,0,0.17-0.01,0.26-0.03c0.53-0.14,0.85-0.69,0.71-1.22
		c-0.7-2.64-1.63-5.03-2.74-7.13c1.19-0.59,2.34-1.28,3.45-2.04c3.35,2.55,6.1,5.89,7.92,9.85c0.23,0.5,0.83,0.72,1.33,0.49
		C57.61,20.83,57.83,20.23,57.6,19.73z M17.34,9.87c2.16-1.46,4.53-2.61,7.04-3.38c-1.49,1.3-2.85,2.96-4.04,4.95
		C19.31,10.98,18.31,10.46,17.34,9.87z M22.21,12.2c2.41-3.91,5.5-6.37,8.79-6.78v8.37C27.96,13.74,25.01,13.2,22.21,12.2z
		 M33,13.74V5.41c3.2,0.4,6.2,2.72,8.58,6.44C38.86,12.94,35.98,13.57,33,13.74z M43.4,11.03C42.27,9.23,41,7.7,39.62,6.5
		c2.3,0.7,4.48,1.71,6.49,3C45.23,10.06,44.33,10.57,43.4,11.03z"/>
	<path class="st1" d="M57.11,42.94c-0.5-0.23-1.1-0.01-1.33,0.49c-1.73,3.74-4.29,6.93-7.4,9.43c-1.21-0.78-2.46-1.47-3.76-2.05
		c1.01-1.99,1.86-4.24,2.51-6.7c0.14-0.53-0.18-1.08-0.71-1.22c-0.53-0.14-1.08,0.18-1.22,0.71c-0.63,2.39-1.46,4.55-2.42,6.45
		c-3.1-1.16-6.4-1.78-9.79-1.82v-4.37c0-0.55-0.45-1-1-1s-1,0.45-1,1v4.41c-3.33,0.18-6.57,0.89-9.59,2.14
		c-1.05-1.99-1.94-4.27-2.62-6.81c-0.14-0.53-0.69-0.85-1.22-0.71c-0.53,0.14-0.85,0.69-0.71,1.22c0.7,2.64,1.63,5.03,2.74,7.13
		c-1.19,0.59-2.34,1.28-3.45,2.04c-3.35-2.55-6.1-5.89-7.93-9.85c-0.23-0.5-0.83-0.72-1.33-0.49s-0.72,0.83-0.49,1.33
		c2.07,4.48,5.25,8.24,9.11,11.03c0.06,0.04,0.11,0.09,0.18,0.12c4.69,3.33,10.36,5.24,16.31,5.24c6.23,0,12.16-2.08,16.97-5.71
		c0.05-0.03,0.1-0.07,0.14-0.11c3.58-2.74,6.53-6.33,8.49-10.57C57.83,43.76,57.61,43.17,57.11,42.94z M41.79,51.8
		c-2.41,3.91-5.5,6.37-8.79,6.78v-8.37C36.04,50.26,38.99,50.8,41.79,51.8z M31,50.26v8.33c-3.2-0.4-6.2-2.72-8.58-6.44
		C25.14,51.06,28.02,50.43,31,50.26z M17.89,54.51c0.88-0.57,1.78-1.08,2.71-1.54c1.13,1.81,2.4,3.33,3.78,4.54
		C22.09,56.8,19.9,55.8,17.89,54.51z M43.66,52.56c1.03,0.46,2.03,0.98,3,1.57c-2.16,1.46-4.53,2.61-7.04,3.38
		C41.1,56.21,42.47,54.55,43.66,52.56z"/>
	<path class="st1" d="M15.34,38.02c-0.14,0-0.29-0.03-0.42-0.09c-0.5-0.23-0.72-0.83-0.48-1.33l5.13-10.98
		c0.23-0.5,0.83-0.71,1.33-0.48c0.5,0.23,0.72,0.83,0.48,1.33l-5.13,10.98C16.07,37.8,15.71,38.02,15.34,38.02z"/>
	<path class="st1" d="M22.48,38.02c-0.14,0-0.29-0.03-0.42-0.09c-0.5-0.23-0.72-0.83-0.48-1.33l5.13-10.98
		c0.23-0.5,0.83-0.71,1.33-0.48c0.5,0.23,0.72,0.83,0.48,1.33l-5.13,10.98C23.21,37.8,22.85,38.02,22.48,38.02z"/>
	<path class="st1" d="M8.63,34.13c0-0.55,0.45-1,1-1l0,0c0.55,0,1,0.45,1,1l0,0c0,0.55-0.45,1-1,1l0,0
		C9.08,35.13,8.63,34.68,8.63,34.13z M8.63,28.13c0-0.55,0.45-1,1-1l0,0c0.55,0,1,0.45,1,1l0,0c0,0.55-0.45,1-1,1l0,0
		C9.08,29.13,8.63,28.68,8.63,28.13z"/>
</g>
</svg>
