<svg id="Layer_1" data-name="Layer 1" xmlns="http://www.w3.org/2000/svg" xmlns:xlink="http://www.w3.org/1999/xlink" viewBox="0 0 513 634"><defs><style>.cls-1{fill:none;}.cls-2{clip-path:url(#clip-path);}.cls-3{fill:url(#linear-gradient);}.cls-4{fill:#6b90ba;}.cls-5{fill:#f7dfcf;}.cls-6{fill:#384049;}.cls-7{fill:#333;}.cls-8{fill:#f2a391;}</style><clipPath id="clip-path"><rect class="cls-1" x="15.29" y="26.08" width="482.43" height="595.08"/></clipPath><linearGradient id="linear-gradient" x1="-69.54" y1="502.9" x2="1019.21" y2="502.9" gradientUnits="userSpaceOnUse"><stop offset="0" stop-color="#b8dce0"/><stop offset="1" stop-color="#7a76b7"/></linearGradient></defs><g class="cls-2"><circle class="cls-3" cx="260.15" cy="502.9" r="329.69"/><path class="cls-4" d="M380.89,328.55c-2.73-3.88-75.95-32-75.95-32L293.09,279.9a107.11,107.11,0,0,0-17.43-6.51v11c-2.52,1.75-14.79,11-18,9.86-15.56-5.41-17.11-1.47-21.7-4.46l-1.28-16.36s-11.31,2-16.45,6.42l-13.35,16.75s-3,.32-12.55,4.52c-11,4.82-58.78,26.29-68,31,0,0-8.32,28.21-12.76,47.88-6.51,28.87-36,178.35-27.58,262.5,0,0,70.1-.14,71.53,4.48,0,0,21.71,399.69,25.85,415.55,3.93,15,1.66,21.83,1.66,21.83,25.31-3.39,43.68,10,57.2,12.39a17.41,17.41,0,0,0,19.42-9.71c-.76,7.11,3.39,12.8,17.85,6.38,18.45-8.2,49.67-8.12,49.67-8.12s4.18-33.87,5.81-49.22c8.54-80.61,26.1-280.9,26.06-338.68,0-5.86,2.35-44.75.31-50a151.23,151.23,0,0,0,16.46-3.09c10.43-2.89,40.61-1.66,51.41-1.76,0,0,1.66-26.7,1.75-53.31.1-33.37-12.52-152.21-31.67-227.42C394.4,350.25,386.27,336.2,380.89,328.55Z"/><path class="cls-5" d="M318.62,194.68c-3.77-18.56-26.7-40.17-49.44-42.47a16.87,16.87,0,0,0-9.26,1.75c-10-14-27-29.19-32.68-9.43-1.92,6.65-13.65,26.28-15.58,32.93-.54,1.89-1.23,6-1.78,7.86a15.13,15.13,0,0,1,1.73-.34l-8.35,1.61c-9.4,1.81-15.52,11.82-15.8,20.75a63.67,63.67,0,0,0,1.92,17.54c1.91,8.3,10.71,12.91,16.74,8,2.59,3.61,8,14.93,11.37,18,5.91,5.38,12.9,12.53,17.92,13.71,0,.25-.11,18.41.6,25.19l21.48,13,18.17-13c.34-2,.59-17.26.67-19.11l.15,0c0-.14-1.1-6-1.12-6.1,13.8-5.78,24.17-20.8,29.58-34.22,0,0,6.63,4.78,9.88,1.46C317.06,229.51,335.94,207.93,318.62,194.68Z"/><path class="cls-6" d="M326,148.65h0c-1.12-11.85-6.28-22.24-15.53-29.25a20.75,20.75,0,0,0-9.84-5.62A121.52,121.52,0,0,0,288,102.66c-1.21-5.35-4.86-9.83-11.37-10.72-12.27-1.7-26.06-5-37.22,1-6.31,1.26-11.91,4.06-15.75,9.6a19.42,19.42,0,0,0-5.48,7.29,5.16,5.16,0,0,0-.78.88,10.2,10.2,0,0,0-1.48,3.24,5.52,5.52,0,0,0-1.16,1.83c-1.21,3.09-4.57,5-7.22,6.65a71.72,71.72,0,0,0-9.08,6.59,52.58,52.58,0,0,0-13.39,59.7,9.51,9.51,0,0,0,4.72,7.89,13.69,13.69,0,0,1,3.18-1.78c4.91-3.8,10.83,6.23,10.83,6.23,3.91-8,6.09-18.27,9.43-26.5a198.81,198.81,0,0,0,14-30,30,30,0,0,0,8.57,3.7,5.15,5.15,0,0,0,1.31.18,8.82,8.82,0,0,0,1,.92c5.2,4,12.76,5.79,19.12,6.82,5.4.87,12.62-.94,18.17-.33,3.44,2.45,7.3,3.85,12.62,5,5.72,1.2,1.64-.93,6.9,1.53,11.64,10.09,11.5,43.78,11.5,43.78,5.86-7.77,8.67-7.28,9.7-9.77.24-.58.48-1.17.73-1.76a4.39,4.39,0,0,0,1.77.12,4.74,4.74,0,0,0,6.18-4.59c.12-3.93-.42-19.39-1.89-23.05a4.92,4.92,0,0,0,5.11-3.59A20.37,20.37,0,0,0,326,148.65Z"/><path class="cls-7" d="M257.49,212a3.53,3.53,0,0,1,1.57,6.68c-.57.3-.06,1.17.51.86a4.53,4.53,0,0,0-2.08-8.54c-.64,0-.64,1,0,1Z"/><path class="cls-7" d="M273.22,179a21.42,21.42,0,0,1,11.51.06l.13-1a69,69,0,0,0-13.38,1.19c-.64.12-.37,1.08.26,1a67.18,67.18,0,0,1,13.12-1.16.51.51,0,0,0,.13-1,22.57,22.57,0,0,0-12-.06.5.5,0,0,0,.27,1Z"/><path class="cls-7" d="M231.62,179.57l8.69,1c.58.06.66-.84.14-1a33.65,33.65,0,0,0-11.07-1.2c-.64,0-.64,1,0,1a32.26,32.26,0,0,1,10.8,1.17l.13-1-8.69-1c-.64-.08-.63.93,0,1Z"/><path class="cls-7" d="M248.2,234.93a13.82,13.82,0,0,0,16.9-.75c.48-.42-.23-1.13-.71-.7a12.81,12.81,0,0,1-15.68.58c-.52-.38-1,.49-.51.87Z"/><path class="cls-7" d="M236.51,293.69c-.17-4.27-.24-8.54-.32-12.81q-.13-6.74-.23-13.48c0-.95,0-1.89-.05-2.84a.5.5,0,0,0-.36-.48C229,261.6,223.5,257,219,251.66a78.25,78.25,0,0,1-9.86-15.35c-1-2.05-2-4.13-2.9-6.23-.26-.58-1.12-.07-.87.51a109.83,109.83,0,0,0,6.6,12.92A60.56,60.56,0,0,0,225,259a36.77,36.77,0,0,0,10.28,6l-.37-.48c0,2.64.09,5.29.13,7.93q.12,7.42.29,14.84c0,2.12.09,4.24.18,6.36,0,.64,1,.64,1,0Z"/><path class="cls-7" d="M276.16,294.21l-.1-10-.17-16,0-3.65-.37.48a38.07,38.07,0,0,0,17.5-12.3A70.11,70.11,0,0,0,302.58,237c1-2.12,1.85-4.28,2.79-6.42.25-.58-.61-1.09-.87-.51-1.89,4.31-3.68,8.64-6,12.75A51.81,51.81,0,0,1,286,258.24a33.51,33.51,0,0,1-10.8,5.84.51.51,0,0,0-.36.48l.1,10,.16,16,0,3.65a.5.5,0,0,0,1,0Z"/><path class="cls-7" d="M205.86,233.52a8.64,8.64,0,0,1-9.46.25,10,10,0,0,1-3.56-4.4,56.27,56.27,0,0,1-2.54-6.19A62.84,62.84,0,0,1,187.23,210c-.47-3.86-.81-8.27,1.41-11.7,1.84-2.85,6.57-4.54,9.18-1.73.44.48,1.14-.23.71-.7-2.43-2.62-6.57-1.95-9.13.1-3.32,2.67-3.7,7.5-3.43,11.44a61.85,61.85,0,0,0,2.82,14.39,65.81,65.81,0,0,0,2.63,6.88A13.71,13.71,0,0,0,195,234a9.62,9.62,0,0,0,11.33.35c.52-.37,0-1.24-.51-.86Z"/><path class="cls-7" d="M312.26,200.53c1.42-3.52,5.52-5.88,9.18-4.14s4.49,6.92,4.35,10.61c-.17,4.37-1.6,8.59-3.2,12.61a29.47,29.47,0,0,1-5.75,9.81,11.5,11.5,0,0,1-5.48,3.44,4.46,4.46,0,0,1-5.21-2.23c-.25-.59-1.12-.08-.86.51a5.17,5.17,0,0,0,4.47,2.86,9.3,9.3,0,0,0,5.95-2.23c3.42-2.62,5.57-6.49,7.22-10.39,1.87-4.38,3.53-9,3.83-13.81.25-4.07-.48-9.56-4.38-11.82a7.43,7.43,0,0,0-6.64-.28,8.71,8.71,0,0,0-4.44,4.8c-.24.59.72.85,1,.26Z"/><path class="cls-7" d="M225.81,142.86c-.48,8.59-4.11,16.52-8.12,24S209,181.71,206,189.79a42.39,42.39,0,0,0-2.75,13.76.5.5,0,0,0,1,0c.16-8.57,3.59-16.54,7.53-24s8.69-14.9,11.82-22.94a44.69,44.69,0,0,0,3.17-13.75c0-.64-1-.64-1,0Z"/><path class="cls-7" d="M187.84,194.52a54.67,54.67,0,0,1-6.15-35.7A54.24,54.24,0,0,1,212.61,119c.58-.26.07-1.12-.51-.86a55.59,55.59,0,0,0-24.7,22.28,54.57,54.57,0,0,0-7,34.77A55.2,55.2,0,0,0,187,195a.5.5,0,0,0,.86-.5Z"/><path class="cls-7" d="M214.88,112.06c4.58-8.42,12.33-14.7,21.09-18.41,10-4.23,21.06-4.92,31.69-3.31a92.08,92.08,0,0,1,18.94,5.11v-1a8.6,8.6,0,0,0-4.28,2.64.5.5,0,0,0,.1.78c9.43,6.75,18.92,13.55,27.06,21.85,7.9,8.06,14.42,17.65,17.47,28.61a44,44,0,0,1,1.28,18.47l.73-.3-4.8-2.13c-.31-.14-.8,0-.75.43a135.24,135.24,0,0,1,.26,24.56c-.19,2.32-.45,4.63-.75,6.94-.09.63.91.63,1,0a135.2,135.2,0,0,0,1-24.55q-.18-3.48-.53-6.95l-.75.43,4.8,2.13c.26.12.68,0,.73-.3,1.74-11.24-1.36-22.6-6.92-32.37-5.81-10.19-14.31-18.51-23.39-25.81-5.17-4.15-10.57-8-16-11.87l.1.78a7.7,7.7,0,0,1,3.85-2.38.5.5,0,0,0,0-1c-11.07-4.21-23-6.74-34.89-5.74a51.26,51.26,0,0,0-27.5,10.52A40.27,40.27,0,0,0,214,111.56c-.31.56.56,1.07.86.5Z"/><path class="cls-7" d="M225.85,143.51a186.42,186.42,0,0,0,37.42,12.67q5.44,1.22,10.94,2.1a.51.51,0,0,0,.57-.74l-2.3-4.73-.68.69,11.58,5.3c2.23,1,5,1.87,7.48,1.11a3.65,3.65,0,0,0,2.52-2.52l-.91.12c8,10.58,12.27,23.7,13.32,36.86a84.89,84.89,0,0,1,.13,11.72c0,.64,1,.64,1,0,.76-13.61-1.57-27.58-7.77-39.79a60.78,60.78,0,0,0-5.82-9.29.5.5,0,0,0-.91.12c-.89,3-5.23,2.06-7.39,1.28s-4-1.8-6-2.71l-6.7-3.07a.5.5,0,0,0-.68.69l2.29,4.73.57-.74a185.72,185.72,0,0,1-37.78-10.26q-5.25-2-10.35-4.4c-.58-.27-1.09.59-.5.86Z"/><path class="cls-7" d="M246.55,265.56a114.25,114.25,0,0,0,13.6-.18c.64-.05.64-1.05,0-1a114.25,114.25,0,0,1-13.6.18c-.64,0-.64,1,0,1Z"/><path class="cls-7" d="M282.51,281.77a17.28,17.28,0,0,1,.45,4.05,24.52,24.52,0,0,1-1.84,9.68,25,25,0,0,1-3.36,5.73c-1.47,1.87-3.18,3.53-4.63,5.43a34.63,34.63,0,0,0-5,9L264.77,325l-5.5,15.12-2.19,6a29.11,29.11,0,0,0-1.14,3.12.58.58,0,0,1-.05.14h1l-2.1-8.39-4-15.82-2.37-9.46a17.13,17.13,0,0,0-1.71-4.24,22.73,22.73,0,0,0-4.3-5.18A39.85,39.85,0,0,1,234.78,296a42,42,0,0,1-4.51-14.15,1.94,1.94,0,0,1,0-.24c-.06-.64-1.06-.64-1,0a39.2,39.2,0,0,0,3.23,11.86,42.07,42.07,0,0,0,6.21,10.25c.72.88,1.48,1.73,2.28,2.54s1.7,1.58,2.49,2.43a16.8,16.8,0,0,1,3.57,5.87,34,34,0,0,1,.89,3.29l1.43,5.71,4,15.83c.84,3.35,1.58,6.76,2.53,10.09,0,.05,0,.1,0,.16a.5.5,0,0,0,1,0l2.82-7.73,5.49-15.1L269,316.3a33.1,33.1,0,0,1,3.59-7.16,45.67,45.67,0,0,1,4.51-5.6,26.73,26.73,0,0,0,4-5.63,24.58,24.58,0,0,0,2.45-16.12l-.06-.29a.5.5,0,0,0-1,.27Z"/><path class="cls-7" d="M204.45,296.7a171.78,171.78,0,0,0,5.93,18.11q2.9,7.72,6.07,15.35l1.29,3.07a.51.51,0,0,0,.79.11,105.5,105.5,0,0,1,12.88-13.84,23.75,23.75,0,0,1,4.85-3.48c.57-.29.07-1.16-.51-.87a23.2,23.2,0,0,0-4.34,3c-1.61,1.34-3.12,2.8-4.59,4.29-2.63,2.67-5.12,5.47-7.52,8.35-.5.59-1,1.19-1.48,1.8l.79.1c-1.19-2.78-2.39-5.73-3.54-8.6-2.37-5.91-4.65-11.86-6.69-17.89-1.1-3.24-2.13-6.5-3-9.81a.5.5,0,0,0-1,.27Z"/><path class="cls-7" d="M304.45,296.43c-1.51,6-3.14,12.05-4.79,18.05q-2.1,7.68-4.28,15.34c-.28,1-.57,2-.86,3l.92-.12c-1.25-1.73-2.56-3.4-3.9-5.05a79.3,79.3,0,0,0-8.27-9,22.6,22.6,0,0,0-4.78-3.52c-.57-.29-1.08.58-.51.87,3.31,1.67,6,4.6,8.5,7.29s4.63,5.34,6.76,8.14c.45.59.9,1.18,1.33,1.78a.51.51,0,0,0,.92-.12c.81-2.86,1.62-5.73,2.42-8.59q2.52-9,4.94-18,1.32-4.92,2.57-9.86a.5.5,0,0,0-1-.27Z"/><path class="cls-7" d="M359.51,647.84A194.38,194.38,0,0,1,427.25,643a.5.5,0,0,0,.5-.5c.15-17.38,1.71-34.72,1.75-52.1,0-18-1.37-36.18-2.66-54.17a903.34,903.34,0,0,0-13.09-103.54q-5-26-11.64-51.72-3.54-13.62-7.51-27.12a87,87,0,0,0-3.67-11.07,48.16,48.16,0,0,0-5.91-9.87,34.42,34.42,0,0,0-7.21-7.15,52.76,52.76,0,0,0-8.06-4.3c-5.82-2.78-11.74-5.35-17.69-7.85-11.53-4.83-23.2-9.33-34.92-13.66-3.18-1.17-6.35-2.33-9.54-3.47-.27-.09-.55-.22-.84-.3s-.17-.15,0,.09c-.47-.68-.8-1.51-1.22-2.22-4.74-8.13-11.59-16.09-20.57-19.56a24,24,0,0,0-8.42-1.6.5.5,0,0,0,0,1c11.44.12,20.43,8.86,26.38,17.85.84,1.28,1.64,2.59,2.38,3.93a3.58,3.58,0,0,0,.91,1.38,7,7,0,0,0,1.46.52l3.8,1.37q15.5,5.63,30.81,11.74c6.43,2.58,12.84,5.24,19.17,8.06q4.33,1.92,8.62,4a45.62,45.62,0,0,1,7.66,4.21c6.12,4.57,10.75,11.73,13.36,18.86,1.51,4.15,2.6,8.49,3.83,12.73s2.48,8.73,3.67,13.1q6.95,25.51,12.24,51.44A865.45,865.45,0,0,1,425,525.21c1.48,18.07,2.51,36.17,3.27,54.29.72,17-.56,34-1.21,51-.15,4-.27,8-.3,12l.5-.5a195.46,195.46,0,0,0-68,4.87.5.5,0,0,0,.27,1Z"/><path class="cls-7" d="M142.44,353.2a6.53,6.53,0,0,0,.09,2.45c.21,1.65.48,3.29.77,4.92.86,5,1.85,10,2.85,15q1.78,8.9,3.63,17.76c1.06,5.12,2.13,10.24,3.17,15.36q.53,2.6,1,5.19c.11.56.21,1.11.3,1.66l.09.58c0,.17,0-.09,0,.09s0,.11,0,.16,0,.17,0,.05c-.24.6.73.86,1,.27a1.73,1.73,0,0,0,0-.75q-.09-.63-.21-1.26c-.26-1.48-.56-3-.85-4.44-1-4.84-2-9.68-3-14.52q-1.83-8.87-3.63-17.73c-1.06-5.25-2.11-10.5-3.06-15.78-.33-1.85-.66-3.71-.93-5.58a20.61,20.61,0,0,1-.29-3c0-.06,0-.12,0-.18,0,.15,0,.06,0,0,.19-.61-.78-.88-1-.26Z"/><path class="cls-7" d="M371.1,353.2,369.23,360l-4.49,16.32L359.3,396l-4.7,17.06-1.55,5.61c-.24.88-.54,1.76-.73,2.65l0,.11a.5.5,0,0,0,1,.27l1.87-6.8,4.5-16.31,5.44-19.74,4.7-17.05,1.55-5.61c.24-.88.54-1.76.73-2.65l0-.12a.5.5,0,0,0-1-.26Z"/><path class="cls-7" d="M256.63,1092.3c-4.75,1.08-9.77.85-14.6.46-6.26-.51-12.48-1.5-18.67-2.56-11.49-2-23-4.64-34.69-5.34-1-.06-2-.1-3-.1-.2,0-1.43,0-1.25.17s0-.32-.06-.65c-.1-1.13-.25-2.25-.37-3.37-.26-2.53-.53-5.06-.79-7.59q-.93-9.16-1.8-18.33-2.28-23.87-4.33-47.75-2.52-29.26-4.81-58.55-2.58-32.85-4.88-65.71-2.37-34.07-4.4-68.14-2-33.48-3.49-67c-.9-20.36-1.63-40.73-2.06-61.1-.36-17.19-.52-34.4-.15-51.59a372,372,0,0,1,2.22-37.46c.27-2.24.59-4.47,1-6.69.11-.63-.85-.9-1-.27a229,229,0,0,0-2.73,28.88c-.65,13.77-.76,27.56-.7,41.35.08,16.92.47,33.84,1,50.75q.91,28.59,2.37,57.16,1.5,30.3,3.39,60.58,1.88,30.52,4.05,61,2.08,29.38,4.39,58.76,2.07,26.46,4.34,52.9,1.89,22.2,4,44.38,1.53,16.42,3.23,32.84c.21,2,.42,4,.64,5.93a.51.51,0,0,0,.5.5c5.57-.22,11.18.62,16.67,1.47,7,1.08,13.87,2.41,20.8,3.61,6.55,1.13,13.12,2.21,19.73,2.8,5.22.46,10.64.75,15.78-.41.63-.14.36-1.11-.27-1Z"/><path class="cls-7" d="M352.29,591c5.92,33.08,6.45,67.19,6.31,100.71-.17,42.22-2.35,84.42-5.29,126.53-3,42.75-6.84,85.43-11.18,128-3.48,34.24-7.31,68.43-11.26,102.61-1.31,11.34-2.64,22.68-3.91,34a6.9,6.9,0,0,1-.18,1.58c-.19.52-.13.32,0,.26a4.79,4.79,0,0,1-1.36,0c-2.25,0-4.49.15-6.73.35-5.06.47-10.09,1.24-15.1,2.05-11.28,1.83-22.54,4.1-33.93,5.11a56.54,56.54,0,0,1-12.74,0c-.63-.08-.9.88-.27,1,11.21,1.55,23.17-1.12,34.19-3,11.9-2,24.25-5,36.38-4.5a.51.51,0,0,0,.5-.5c2.5-22.59,5.21-45.15,7.76-67.73Q341.1,967.5,346,917.35c3.69-38.39,6.93-76.83,9.4-115.32,2.39-37.31,4.11-74.7,4.21-112.09.08-30.08-.58-60.43-4.91-90.24q-.65-4.49-1.45-9c-.11-.63-1.08-.36-1,.27Z"/><ellipse class="cls-7" cx="235.3" cy="194.82" rx="5.53" ry="6.91"/><ellipse class="cls-7" cx="278.24" cy="194.82" rx="5.53" ry="6.91"/><path class="cls-7" d="M236,289.75s21.35,9.46,39.65,0l7,2.57-6.18,11.12-10.18,18.72-10,27.38-9.82-37.3-3.88-5L235.3,298Z"/><path class="cls-7" d="M155.47,443,153,474.79l-2.47,31.68-2.46,31.68-1.24,15.91a99,99,0,0,0-.44,15.2c.62,8,3.72,16.5,10.9,20.84a17.54,17.54,0,0,0,2.53,1.26c.59.24.85-.73.26-1-7.86-3.19-11.69-11.79-12.56-19.74a79.55,79.55,0,0,1,.16-14.72q.6-7.78,1.22-15.57l2.43-31.24L153.75,478l2.43-31.23.29-3.84c.05-.64-.95-.63-1,0Z"/><path class="cls-7" d="M356.25,443l2.43,31.24,2.42,31.09,2.43,31.24,1.2,15.47a137.25,137.25,0,0,1,.72,15c-.27,8.24-2.86,17.38-10.25,22a16.3,16.3,0,0,1-2.56,1.32c-.59.24-.33,1.21.26,1,7.57-3.08,11.78-10.9,13-18.64a64.51,64.51,0,0,0,.26-14.83c-.37-5.25-.81-10.51-1.22-15.76l-2.46-31.68L360,478.62l-2.46-31.68-.31-4c-.05-.63-1.05-.64-1,0Z"/><path class="cls-7" d="M174.88,589.84q17.61-.69,35.2-1.34l35-1.26q17.61-.62,35.2-1.19l17.6-.58c4.78-.15,9.57-.27,14.35-.11,9.44.33,19.2,1.77,27.41,6.72,1,.61,2,1.26,2.9,1.95.52.38,1-.49.5-.86-7.61-5.63-17-7.83-26.28-8.56-10.39-.81-20.89-.08-31.28.26q-17.68.58-35.37,1.2t-35.53,1.27q-17.69.64-35.37,1.33l-4.36.17c-.64,0-.64,1,0,1Z"/><path class="cls-7" d="M153.48,646.87a195.44,195.44,0,0,0-68-4.87l.5.5c-.15-17-1.64-33.88-1.74-50.85-.11-17.78,1.26-35.67,2.51-53.4A907.32,907.32,0,0,1,99.46,435.51q4.82-25.85,11.35-51.31Q114.2,371,118,357.85c2.27-7.87,4.33-15.53,9-22.35a36.21,36.21,0,0,1,8-8.57,47.46,47.46,0,0,1,8.07-4.41c5.95-2.86,12-5.49,18.1-8C172.5,309.73,184,305.3,195.52,301c3.19-1.18,6.4-2.35,9.6-3.5a3.13,3.13,0,0,0,2.34-1.94c4.47-8.11,11.13-16.14,19.82-19.84a23.27,23.27,0,0,1,8.9-1.87.5.5,0,0,0,0-1C225,273,216.1,281,210,289.69c-1.49,2.1-2.55,4.53-4,6.6.14-.2.43-.24,0-.12s-.67.24-1,.36l-3.76,1.35q-15.73,5.72-31.29,11.93c-6.28,2.52-12.53,5.12-18.72,7.86-2.9,1.29-5.8,2.61-8.66,4a48.45,48.45,0,0,0-8.07,4.4c-13.09,9.72-16.24,26.9-20.32,41.62q-7.24,26.22-12.79,52.87A861.8,861.8,0,0,0,86.9,523.22c-1.54,18.37-2.61,36.78-3.39,55.2-.74,17.29.48,34.53,1.15,51.8.16,4.09.28,8.19.31,12.28a.51.51,0,0,0,.5.5,194.38,194.38,0,0,1,67.74,4.84.5.5,0,0,0,.27-1Z"/><path class="cls-7" d="M255.77,349.11q-.35,19.18-.46,38.36t0,38.37q.06,10.74.19,21.49a.5.5,0,0,0,1,0q-.23-19.18-.24-38.36t.21-38.37q.12-10.74.31-21.49a.5.5,0,0,0-1,0Z"/><path class="cls-8" d="M214.59,370.45a17.46,17.46,0,0,0-21.78,2.64,17.84,17.84,0,0,0-.63,22.41c5.91,7.5,18.81,7.56,25.1.38s4.84-19.56-2.69-25.43"/><path class="cls-7" d="M214.84,370a18.09,18.09,0,0,0-21.4,1.74c-5.48,4.93-6.77,13.5-3.95,20.13a15.53,15.53,0,0,0,6.72,7.65,18.26,18.26,0,0,0,18.62-.83,15.73,15.73,0,0,0,5.91-7.87,19.35,19.35,0,0,0-3.93-19,16.94,16.94,0,0,0-1.87-1.72c-.5-.39-1.21.31-.7.71A18.06,18.06,0,0,1,220.45,388a15.4,15.4,0,0,1-4.29,8.34,15.61,15.61,0,0,1-8.08,4.06c-6.15,1.17-12.89-1-16.36-6.39a17.49,17.49,0,0,1,.72-19.68c4.3-5.6,12.59-7.46,19-4.91a17.17,17.17,0,0,1,2.86,1.47c.54.34,1-.52.5-.86Z"/><path class="cls-7" d="M298.68,378.54l-.17,7.19-.27,11.54-.07,2.65a.51.51,0,0,0,.5.5h35.18a.51.51,0,0,0,.5-.5q-.09-7.2-.29-14.41-.06-2.26-.15-4.53c-.05-1.2-.07-2.43-.24-3.63a2.84,2.84,0,0,0-1.59-2.36,8.05,8.05,0,0,0-3.28-.34l-8.72,0-19.45,0a.5.5,0,0,0,0,1l16.71,0,8.47,0c1.36,0,2.72,0,4.08,0,1.12,0,2.34.11,2.7,1.36a16.68,16.68,0,0,1,.31,3.74c.06,1.43.11,2.85.15,4.27.09,3.14.15,6.27.21,9.41l.09,5.49.5-.5H298.67l.5.5.17-7.2.27-11.54.07-2.64a.5.5,0,0,0-1,0Z"/></g><rect class="cls-1" y="1.86" width="513" height="632.14"/></svg>