<svg id="Layer_1" data-name="Layer 1" xmlns="http://www.w3.org/2000/svg" xmlns:xlink="http://www.w3.org/1999/xlink" viewBox="0 0 513 634"><defs><style>.cls-1{fill:none;}.cls-2{clip-path:url(#clip-path);}.cls-3{fill:#6b90ba;}.cls-4{fill:#f7dfcf;}.cls-5{fill:#384049;}.cls-6{fill:#333;}.cls-7{fill:#f2a391;}</style><clipPath id="clip-path"><rect class="cls-1" x="8.67" y="24.94" width="493.36" height="597.34"/></clipPath></defs><g class="cls-2"><path class="cls-3" d="M383.31,331.52c-2.79-3.88-77.67-32-77.67-32l-12.11-16.68a110.65,110.65,0,0,0-17.83-6.52v11c-2.58,1.74-15.13,11-18.35,9.87-15.92-5.43-17.51-1.47-22.2-4.47l-1.31-16.38s-11.56,2-16.82,6.43L203.37,299.5s-3.05.32-12.83,4.52c-11.23,4.82-60.12,26.32-69.57,31.08,0,0-8.5,28.25-13,47.94-6.66,28.9-36.81,178.55-28.2,262.81,0,0,71.68-.15,73.14,4.49,0,0,22.21,400.15,26.44,416,4,15.06,1.69,21.85,1.69,21.85,25.89-3.39,44.67,10.06,58.5,12.41,14.64,2.5,19.86-9.72,19.86-9.72-.78,7.12,3.46,12.82,18.26,6.38,18.86-8.21,50.79-8.13,50.79-8.13s4.27-33.9,5.94-49.27c8.74-80.71,26.7-281.24,26.65-339.08,0-5.86,2.4-44.81.31-50.1a159.77,159.77,0,0,0,16.85-3.1c10.66-2.9,41.53-1.67,52.56-1.76,0,0,1.71-26.74,1.79-53.38.11-33.4-12.8-152.39-32.38-227.69C397.13,353.26,388.82,339.18,383.31,331.52Z"/><path class="cls-4" d="M319.64,197.5c-3.86-18.58-27.31-40.22-50.56-42.52a17.57,17.57,0,0,0-9.47,1.75c-10.23-14-27.57-29.23-33.42-9.44-2,6.65-14,26.31-15.94,33-.55,1.89-1.26,6-1.82,7.87a14.21,14.21,0,0,1,1.77-.34l-8.54,1.61c-9.61,1.82-15.87,11.83-16.15,20.78a61.92,61.92,0,0,0,2,17.55c1.95,8.31,10.95,12.93,17.11,8,2.65,3.61,8.21,15,11.63,18,6,5.38,13.19,12.54,18.33,13.72,0,.25-.12,18.43.61,25.22l22,13,18.58-13c.35-2,.6-17.28.69-19.13l.15,0c0-.14-1.13-6-1.15-6.11,14.12-5.79,24.72-20.82,30.25-34.26,0,0,6.78,4.79,10.11,1.46C318,232.37,337.35,210.76,319.64,197.5Z"/><path class="cls-5" d="M327.15,151.42h0c-1.14-11.86-6.42-22.26-15.88-29.28a21.38,21.38,0,0,0-10.06-5.63,124.88,124.88,0,0,0-12.9-11.13c-1.24-5.36-5-9.84-11.63-10.74-12.55-1.69-26.64-5-38.06,1-6.45,1.26-12.18,4.07-16.1,9.61a19.39,19.39,0,0,0-5.61,7.3,5.2,5.2,0,0,0-.79.88,10,10,0,0,0-1.52,3.25,5.53,5.53,0,0,0-1.19,1.82c-1.23,3.1-4.68,5-7.38,6.66a72.25,72.25,0,0,0-9.28,6.61,52.85,52.85,0,0,0-13.68,18.68,52,52,0,0,0,0,41.08,9.5,9.5,0,0,0,4.83,7.91,13.86,13.86,0,0,1,3.25-1.79c5-3.81,11.07,6.23,11.07,6.23,4-8,6.24-18.28,9.65-26.53a197.45,197.45,0,0,0,14.34-30.05A31.21,31.21,0,0,0,235,151a5.84,5.84,0,0,0,1.33.17,9.1,9.1,0,0,0,1,.92c5.32,4,13,5.81,19.55,6.83,5.53.87,12.91-.93,18.59-.33,3.52,2.46,7.46,3.85,12.9,5,5.85,1.2,1.68-.93,7.06,1.53,11.91,10.1,11.76,43.83,11.76,43.83,6-7.77,8.86-7.28,9.92-9.78l.74-1.76a4.64,4.64,0,0,0,1.82.12c2.83.73,6.2-.76,6.32-4.6s-.43-19.41-1.93-23.08a5,5,0,0,0,5.21-3.59A19.92,19.92,0,0,0,327.15,151.42Z"/><path class="cls-6" d="M257.12,214.87a3.71,3.71,0,0,1,3.5,2.78,3.64,3.64,0,0,1-1.89,3.9c-.57.3-.06,1.17.51.87a4.65,4.65,0,0,0,2.34-5,4.72,4.72,0,0,0-4.46-3.51c-.64,0-.64,1,0,1Z"/><path class="cls-6" d="M273.2,181.82a22.32,22.32,0,0,1,11.78.06l.13-1a72.11,72.11,0,0,0-13.68,1.19c-.64.12-.37,1.08.26,1a70.26,70.26,0,0,1,13.42-1.16.51.51,0,0,0,.14-1,23.58,23.58,0,0,0-12.31-.06.5.5,0,0,0,.26,1Z"/><path class="cls-6" d="M230.67,182.37l8.89,1c.57.06.66-.84.13-1a35.15,35.15,0,0,0-11.32-1.2c-.64,0-.64,1,0,1a33.78,33.78,0,0,1,11,1.17l.14-1-8.89-1c-.64-.07-.64.93,0,1Z"/><path class="cls-6" d="M247.63,237.79a14.32,14.32,0,0,0,17.26-.74c.49-.42-.22-1.13-.7-.71a13.34,13.34,0,0,1-16.06.59c-.52-.38-1,.49-.5.86Z"/><path class="cls-6" d="M235.65,296.62c-.17-4.27-.24-8.54-.32-12.82q-.14-6.75-.24-13.5c0-.94,0-1.89-.05-2.84a.5.5,0,0,0-.36-.48c-6.67-2.47-12.3-7.08-16.89-12.42a78.15,78.15,0,0,1-10.12-15.42c-1-2-2-4.11-2.94-6.19-.27-.59-1.13-.08-.87.5a107.83,107.83,0,0,0,6.75,12.92,60.59,60.59,0,0,0,13.27,15.52,37.85,37.85,0,0,0,10.53,6.05l-.37-.48c0,2.65.09,5.3.13,7.94.09,5,.18,9.91.3,14.86.05,2.12.1,4.24.18,6.36,0,.64,1,.65,1,0Z"/><path class="cls-6" d="M276.2,297.15l-.1-10.06-.17-15.95,0-3.68-.36.48a38.93,38.93,0,0,0,17.84-12.25,69.93,69.93,0,0,0,9.84-15.8c1-2.13,1.9-4.3,2.86-6.44.26-.58-.6-1.09-.86-.5-1.94,4.33-3.79,8.68-6.15,12.81a52.33,52.33,0,0,1-12.74,15.37A34.69,34.69,0,0,1,275.26,267a.51.51,0,0,0-.37.48l.11,10.06.16,16,0,3.68a.5.5,0,0,0,1,0Z"/><path class="cls-6" d="M204.33,236.38a9,9,0,0,1-9.64.29,10.15,10.15,0,0,1-3.7-4.44,57.91,57.91,0,0,1-2.63-6.31,62.22,62.22,0,0,1-3.12-13.19c-.48-3.92-.79-8.45,1.63-11.85,1.95-2.73,6.67-4.18,9.24-1.48.44.47,1.15-.24.7-.7-2.43-2.57-6.57-2-9.18,0-3.42,2.6-3.91,7.37-3.65,11.35a60.3,60.3,0,0,0,2.86,14.5,62.45,62.45,0,0,0,2.73,7,13.61,13.61,0,0,0,3.67,5.34,10,10,0,0,0,11.6.37c.52-.37,0-1.24-.51-.87Z"/><path class="cls-6" d="M313.12,203.36c1.47-3.58,5.61-5.82,9.32-4.19S327.1,206,327,209.72c-.15,4.41-1.63,8.69-3.27,12.73a29.68,29.68,0,0,1-5.84,9.79,11.88,11.88,0,0,1-5.66,3.48c-2,.46-4.42-.2-5.33-2.23-.27-.58-1.13-.08-.87.51a5.25,5.25,0,0,0,4.57,2.86,9.61,9.61,0,0,0,6.14-2.28c3.41-2.61,5.6-6.41,7.29-10.28,1.91-4.4,3.63-9.07,3.94-13.9.26-4.11-.54-9.67-4.55-11.87a7.71,7.71,0,0,0-6.71-.24,8.8,8.8,0,0,0-4.53,4.8c-.25.6.72.85,1,.27Z"/><path class="cls-6" d="M224.74,145.62c-.5,8.64-4.24,16.61-8.35,24.07s-8.84,14.82-11.87,22.89a41.57,41.57,0,0,0-2.82,13.8.5.5,0,0,0,1,0c.16-8.63,3.71-16.63,7.75-24.1s8.84-14.85,12-22.88a44.29,44.29,0,0,0,3.25-13.78c0-.64-1-.64-1,0Z"/><path class="cls-6" d="M185.89,197.34a52.92,52.92,0,0,1,9.7-65.18,55.11,55.11,0,0,1,15.62-10.43c.59-.26.08-1.12-.5-.86a56.45,56.45,0,0,0-25.24,22.26,53.78,53.78,0,0,0-7.18,34.75,54.4,54.4,0,0,0,6.73,20,.5.5,0,0,0,.87-.5Z"/><path class="cls-6" d="M213.54,114.78c4.73-8.52,12.74-14.82,21.69-18.48,10.26-4.22,21.61-4.88,32.5-3.23a96.16,96.16,0,0,1,19.16,5.08v-1a8.83,8.83,0,0,0-4.37,2.64.51.51,0,0,0,.1.79c9.62,6.74,19.32,13.53,27.67,21.86,8,8,14.69,17.56,17.84,28.54a43.19,43.19,0,0,1,1.34,18.6l.74-.3-4.91-2.13c-.31-.13-.8,0-.76.43a131.42,131.42,0,0,1-.48,31.4c-.09.63.88.91,1,.27a131.18,131.18,0,0,0,1.07-24.58q-.18-3.56-.55-7.09l-.75.43,4.91,2.14c.26.11.68.05.73-.3,1.79-11.33-1.44-22.77-7.15-32.54-6-10.19-14.62-18.45-23.83-25.69-5.29-4.17-10.81-8-16.33-11.91l.1.79a7.9,7.9,0,0,1,3.94-2.39.5.5,0,0,0,0-1c-11.27-4.2-23.39-6.72-35.44-5.76A53,53,0,0,0,223.39,102a40.44,40.44,0,0,0-10.71,12.32c-.32.56.55,1.07.86.5Z"/><path class="cls-6" d="M224.77,146.27A193.41,193.41,0,0,0,263,159c3.71.81,7.46,1.51,11.21,2.1a.51.51,0,0,0,.57-.73l-2.35-4.74-.68.69,11.85,5.3c2.28,1,5.13,1.87,7.61,1.12a3.73,3.73,0,0,0,2.6-2.52l-.84.22c8.18,10.51,12.49,23.67,13.55,36.85a84.31,84.31,0,0,1,.13,11.68c0,.64,1,.64,1,0,.78-13.72-1.65-27.82-8.06-40a61.17,61.17,0,0,0-5.91-9.19.51.51,0,0,0-.84.22c-.92,3.06-5.4,2-7.58,1.28s-4.13-1.8-6.17-2.71l-6.84-3.07a.51.51,0,0,0-.68.69l2.34,4.73.57-.73a193.37,193.37,0,0,1-38.62-10.27c-3.57-1.36-7.11-2.84-10.6-4.41-.58-.27-1.09.6-.5.86Z"/><path class="cls-6" d="M245.94,268.46a119.4,119.4,0,0,0,13.9-.18c.64,0,.64-1,0-1a119.4,119.4,0,0,1-13.9.18c-.65,0-.64,1,0,1Z"/><path class="cls-6" d="M282.72,284.69a17.07,17.07,0,0,1,.46,4,24.13,24.13,0,0,1-1.85,9.64A24.52,24.52,0,0,1,278,304c-1.5,1.91-3.27,3.57-4.77,5.49a34.46,34.46,0,0,0-5.15,9.11l-3.45,9.27L259,343.08l-2.25,6.05-.75,2a8.54,8.54,0,0,0-.41,1.1.59.59,0,0,1-.06.14h1L254.3,344l-4.06-15.85q-1.2-4.72-2.41-9.45a16.74,16.74,0,0,0-1.84-4.41,24.53,24.53,0,0,0-4.44-5.15,39.65,39.65,0,0,1-7.73-10.28,44,44,0,0,1-3.57-9.14c-.28-1.06-.52-2.13-.72-3.2-.11-.62-.2-1.18-.26-1.7a1.94,1.94,0,0,1,0-.24c-.05-.64-1.06-.64-1,0a38.26,38.26,0,0,0,3.3,11.85,42,42,0,0,0,6.25,10.17c.73.88,1.5,1.72,2.3,2.52s1.73,1.59,2.54,2.43a16.83,16.83,0,0,1,3.76,5.92c.4,1.09.65,2.23.94,3.35l1.46,5.72,4.06,15.87c.87,3.37,1.63,6.78,2.59,10.12a.75.75,0,0,1,0,.16.51.51,0,0,0,1,0l2.87-7.73L265,329.78l3.92-10.54a33.44,33.44,0,0,1,3.79-7.32,49.11,49.11,0,0,1,4.57-5.51,26.68,26.68,0,0,0,4.06-5.67,24.14,24.14,0,0,0,2.45-16l-.06-.27a.5.5,0,0,0-1,.26Z"/><path class="cls-6" d="M202.89,299.64A171,171,0,0,0,209,317.79q3,7.75,6.23,15.4.63,1.51,1.29,3a.51.51,0,0,0,.79.1,105.84,105.84,0,0,1,13.17-13.85,24.79,24.79,0,0,1,5-3.49c.58-.29.07-1.15-.5-.86a23,23,0,0,0-4.4,3c-1.67,1.36-3.24,2.84-4.76,4.35-2.68,2.66-5.22,5.46-7.67,8.34-.51.59-1,1.19-1.51,1.8l.79.1c-1.24-2.83-2.43-5.69-3.61-8.56-2.43-5.94-4.77-11.93-6.87-18-1.11-3.22-2.17-6.47-3-9.78a.5.5,0,0,0-1,.27Z"/><path class="cls-6" d="M305.16,299.37c-1.55,6.05-3.22,12.07-4.91,18.08-1.43,5.13-2.9,10.25-4.37,15.37l-.88,3,.92-.12c-1.27-1.72-2.6-3.39-4-5a82.31,82.31,0,0,0-8.47-9,22.89,22.89,0,0,0-4.9-3.52c-.58-.29-1.08.57-.51.86,3.38,1.67,6.17,4.61,8.72,7.32s4.74,5.37,6.94,8.19c.44.57.88,1.14,1.31,1.73a.51.51,0,0,0,.92-.12c.83-2.88,1.66-5.75,2.48-8.63q2.58-9,5.06-18c.89-3.27,1.77-6.55,2.61-9.83a.5.5,0,0,0-1-.27Z"/><path class="cls-6" d="M361.45,651.19a202.66,202.66,0,0,1,69.27-4.84.5.5,0,0,0,.5-.5c.16-17.4,1.76-34.76,1.79-52.17,0-9.17-.55-18.35-1-27.51s-1.05-18.27-1.73-27.39a881.17,881.17,0,0,0-13.58-104.27q-5.19-26.44-12.18-52.48-3.62-13.51-7.67-26.88c-2.22-7.36-5-14-9.9-20a31.94,31.94,0,0,0-8.06-7.23,82.57,82.57,0,0,0-8.06-4c-6-2.75-12-5.31-18.1-7.79-11.5-4.69-23.13-9.08-34.81-13.3q-4.77-1.72-9.56-3.4c-.28-.1-.57-.21-.86-.3s0,0,0,.1c-.48-.66-.81-1.49-1.23-2.19-4.89-8.23-12-16.21-21.11-19.64a25,25,0,0,0-8.55-1.58.5.5,0,0,0,0,1c11.64.12,20.89,8.82,27,17.94.86,1.27,1.66,2.56,2.41,3.89a3.76,3.76,0,0,0,.9,1.36,6.44,6.44,0,0,0,1.44.49l3.74,1.32q15.6,5.55,31,11.56c6.37,2.5,12.72,5.07,19,7.78,5.54,2.39,11.53,4.63,16.64,7.87C385.23,333.1,390,340.1,393,347a111,111,0,0,1,4,12.5q2,6.72,3.89,13.48,7.17,25.56,12.66,51.56a847.14,847.14,0,0,1,14.72,102.88c1.55,18.3,2.62,36.64,3.42,55,.74,17.17-.56,34.31-1.23,51.46-.15,4-.27,8-.31,12l.5-.5a203.76,203.76,0,0,0-69.54,4.87.5.5,0,0,0,.27,1Z"/><path class="cls-6" d="M139.47,356.2a6.47,6.47,0,0,0,.1,2.44c.21,1.66.49,3.31.78,5,.89,5,1.9,10,2.93,15,1.21,5.94,2.46,11.87,3.71,17.8,1.08,5.12,2.18,10.24,3.24,15.37.35,1.71.7,3.43,1,5.15.11.56.22,1.11.31,1.67,0,.19.07.39.1.58a.62.62,0,0,1,0,.09,1.11,1.11,0,0,0,0,.17c0,.14,0,.16,0,0-.25.6.72.86,1,.27a1.58,1.58,0,0,0,0-.75c-.06-.42-.13-.84-.21-1.25-.27-1.49-.57-3-.87-4.46-1-4.86-2-9.71-3.06-14.56q-1.87-8.88-3.72-17.77c-1.08-5.25-2.16-10.51-3.13-15.79-.33-1.84-.66-3.68-.94-5.53a21,21,0,0,1-.3-3c0-.06,0-.13,0-.19,0,.15,0,.07,0,0a.5.5,0,0,0-1-.27Z"/><path class="cls-6" d="M373.32,356.2,371.4,363l-4.59,16.28-5.57,19.81-4.79,17c-.78,2.76-1.67,5.51-2.34,8.3l0,.12a.5.5,0,0,0,1,.26L357,418l4.59-16.28,5.58-19.81,4.79-17c.77-2.75,1.66-5.51,2.33-8.29l0-.12a.5.5,0,0,0-1-.27Z"/><path class="cls-6" d="M256.25,1096.18c-4.78,1.06-9.81.85-14.66.47-6.4-.49-12.75-1.47-19.08-2.52-11.56-1.93-23.14-4.51-34.85-5.34-1-.07-2.1-.13-3.16-.15a11.6,11.6,0,0,0-1.56,0c-.85.11-.44.36-.62,0a12.6,12.6,0,0,1-.37-3.33q-.42-3.84-.82-7.66-.94-9.12-1.84-18.25-2.32-23.8-4.41-47.63-2.59-29.37-4.94-58.78-2.64-32.87-5-65.74-2.44-34.25-4.53-68.51-2-33.39-3.56-66.8c-.92-20.49-1.68-41-2.12-61.5-.37-17.23-.54-34.47-.17-51.7A365.34,365.34,0,0,1,156.85,601c.28-2.24.61-4.48,1-6.7.12-.63-.85-.9-1-.26a223.82,223.82,0,0,0-2.79,28.91c-.66,13.78-.78,27.6-.72,41.4.08,16.93.48,33.87,1,50.8.62,19.09,1.46,38.16,2.42,57.23q1.54,30.35,3.46,60.66,1.94,30.56,4.15,61.1,2.13,29.42,4.49,58.82,2.12,26.49,4.43,53,1.95,22.23,4,44.43c1.05,11,2.13,21.93,3.31,32.88q.32,3,.65,5.93a.51.51,0,0,0,.5.5c5.81-.22,11.64.65,17.36,1.53,7,1.07,14,2.37,20.95,3.56,6.7,1.13,13.42,2.21,20.19,2.8,5.33.47,10.87.76,16.13-.41.63-.13.37-1.1-.26-1Z"/><path class="cls-6" d="M354.08,594.29c6.05,33.1,6.6,67.27,6.46,100.83-.19,42.49-2.44,85-5.46,127.35-3.06,42.77-7,85.49-11.45,128.14-3.58,34.35-7.51,68.66-11.55,102.95-1.33,11.26-2.68,22.51-4,33.78,0,.28,0,1.39-.17,1.57.31-.3-2-.28-2.3-.28-2.31,0-4.63.21-6.93.44-5.14.51-10.24,1.29-15.34,2.1-11.33,1.81-22.64,4-34.08,5a58.72,58.72,0,0,1-12.78,0c-.63-.09-.9.88-.26,1,11.47,1.56,23.68-1.12,35-3,12.17-2,24.79-5,37.19-4.51a.51.51,0,0,0,.5-.5c2.55-22.61,5.32-45.2,7.93-67.81q5.78-50.11,10.78-100.33c3.77-38.43,7.09-76.92,9.61-115.46,2.45-37.35,4.21-74.78,4.31-112.22.09-30.11-.59-60.51-5-90.35q-.66-4.49-1.48-9c-.11-.64-1.08-.37-1,.26Z"/><ellipse class="cls-6" cx="234.42" cy="197.64" rx="5.66" ry="6.92"/><ellipse class="cls-6" cx="278.34" cy="197.64" rx="5.66" ry="6.92"/><path class="cls-6" d="M235.15,292.68s21.84,9.47,40.55,0l7.19,2.58-6.32,11.13-10.41,18.74L256,352.54l-10-37.35-4-5-7.55-9.26Z"/><path class="cls-6" d="M152.8,446.08l-2.53,31.86-2.53,31.86-2.53,31.87L144,557.45a94.27,94.27,0,0,0-.42,15.21c.66,8,3.91,16.46,11.15,20.74a18.31,18.31,0,0,0,2.56,1.24c.6.24.86-.73.26-1-7.86-3.13-11.87-11.53-12.82-19.49a76.28,76.28,0,0,1,.12-14.88q.62-7.78,1.24-15.58l2.49-31.27L151,481.19l2.49-31.28.3-3.83c.06-.65-.94-.64-1,0Z"/><path class="cls-6" d="M358.13,446.08l2.48,31.27,2.49,31.27,2.48,31.28,1.25,15.64a130,130,0,0,1,.7,15c-.32,8.25-3.09,17.24-10.5,21.81a17.11,17.11,0,0,1-2.6,1.31c-.6.23-.34,1.2.26,1,7.57-3,11.94-10.66,13.26-18.38a62,62,0,0,0,.32-15c-.37-5.26-.82-10.52-1.24-15.78l-2.53-31.86L362,481.92l-2.54-31.86-.31-4c-.06-.64-1.06-.65-1,0Z"/><path class="cls-6" d="M172.64,593.12q17.91-.68,35.83-1.33l35.82-1.26,36-1.2,17.83-.57c5-.16,10-.29,14.95-.12,9.65.32,19.64,1.74,28.08,6.72a34.78,34.78,0,0,1,3,2c.53.38,1-.49.51-.87-7.87-5.68-17.51-7.86-27-8.57-10.69-.8-21.48-.06-32.17.28l-36,1.19q-18.08.61-36.16,1.27T177.1,592l-4.46.17c-.64,0-.64,1,0,1Z"/><path class="cls-6" d="M150.75,650.22a203.76,203.76,0,0,0-69.54-4.87l.5.5c-.16-17.19-1.72-34.34-1.79-51.54-.07-17.82,1.33-35.74,2.62-53.51a886.82,886.82,0,0,1,13.2-103.47q5-26.06,11.8-51.74,3.54-13.44,7.52-26.77A101.71,101.71,0,0,1,119,346.76a47.74,47.74,0,0,1,5.56-9.45,33.52,33.52,0,0,1,8.58-8.3,70.87,70.87,0,0,1,8.08-4.05c6.1-2.83,12.29-5.45,18.52-8,11.32-4.6,22.76-8.92,34.25-13.08q4.8-1.74,9.63-3.43a3.14,3.14,0,0,0,2.35-2c4.62-8.17,11.48-16.2,20.32-19.85a24.37,24.37,0,0,1,9-1.84.5.5,0,0,0,0-1c-11.26.12-20.35,8-26.65,16.65-1.09,1.5-2.12,3.06-3.06,4.66a23.05,23.05,0,0,1-1.19,2.12c.17-.23.42-.26.07-.13l-1,.35-3.7,1.3q-15.72,5.58-31.26,11.65c-6.23,2.43-12.42,4.94-18.57,7.58q-4.65,2-9.24,4.12a67,67,0,0,0-8.08,4c-14,8.89-17.5,26.47-21.69,41.21Q103.53,395.48,97.83,422a842.11,842.11,0,0,0-15.07,103.4c-1.6,18.49-2.71,37-3.52,55.55-.78,17.55.45,35,1.14,52.57.17,4.1.29,8.2.33,12.3a.5.5,0,0,0,.5.5,202.66,202.66,0,0,1,69.27,4.84.5.5,0,0,0,.27-1Z"/><path class="cls-6" d="M255.37,352.11q-.35,19.22-.46,38.44t0,38.31q.06,10.78.19,21.59a.5.5,0,0,0,1,0q-.24-19.23-.25-38.44t.21-38.31q.12-10.8.32-21.59a.5.5,0,0,0-1,0Z"/><path class="cls-7" d="M213.25,373.47A18.13,18.13,0,0,0,191,376.12a17.55,17.55,0,0,0-.65,22.43c6,7.51,19.24,7.57,25.67.39s4.95-19.59-2.75-25.47"/><path class="cls-6" d="M213.5,373a18.79,18.79,0,0,0-21.78,1.67c-5.68,4.91-7,13.59-4.1,20.32a15.68,15.68,0,0,0,6.89,7.6,18.57,18.57,0,0,0,9.7,2.1,18.35,18.35,0,0,0,9.39-3,15.78,15.78,0,0,0,6-7.89,19.08,19.08,0,0,0-4.13-19A15.81,15.81,0,0,0,213.5,373c-.51-.39-1,.48-.5.86a17.9,17.9,0,0,1,6.22,17.31,15.27,15.27,0,0,1-4.45,8.27,16.29,16.29,0,0,1-8.32,4c-6.19,1.1-13-1-16.6-6.43a17.19,17.19,0,0,1,.94-19.95c4.52-5.48,12.86-7.17,19.35-4.64A17.81,17.81,0,0,1,213,373.9c.55.34,1.05-.52.5-.86Z"/><path class="cls-6" d="M299.25,381.57l-.17,7.2-.28,11.56-.06,2.65a.5.5,0,0,0,.5.5h36a.51.51,0,0,0,.5-.5c-.07-4.88-.16-9.76-.3-14.63,0-1.5-.09-3-.16-4.5a21.23,21.23,0,0,0-.31-3.9c-.6-2.53-3.31-2.27-5.36-2.27l-8.7,0-19.64.05a.5.5,0,0,0,0,1l16.9,0,8.45,0h4.23c1,0,2.4-.08,3,1a5.55,5.55,0,0,1,.37,2.25c0,.56.07,1.11.09,1.67.07,1.43.11,2.86.16,4.29.09,3.16.16,6.33.22,9.49l.09,5.63.5-.5h-36l.5.5.17-7.2.28-11.56.06-2.65c0-.64-1-.64-1,0Z"/></g><rect class="cls-1" y="1.86" width="513" height="632.14"/></svg>